<?xml version="1.0" encoding="UTF-8"?>
<svg width="16px" height="16px" viewBox="0 0 16 16" version="1.1" xmlns="http://www.w3.org/2000/svg" xmlns:xlink="http://www.w3.org/1999/xlink">
    <!-- Generator: Sketch 46.2 (44496) - http://www.bohemiancoding.com/sketch -->
    <title>Artboard</title>
    <desc>Created with Sketch.</desc>
    <defs></defs>
    <g id="Page-1" stroke="none" stroke-width="1" fill="none" fill-rule="evenodd">
        <g id="Artboard" fill-rule="nonzero" fill="#C1C7D0">
            <g id="search" transform="translate(0.000000, 0.500000)">
                <path d="M10.5904762,10.9104762 C8.04873715,12.8849482 4.4098802,12.5429332 2.28056543,10.1294305 C0.151250647,7.71592773 0.265404101,4.06281631 2.54125306,1.78696735 C4.81710202,-0.488881613 8.47021345,-0.603035067 10.8837162,1.52627971 C13.297219,3.65559449 13.6392339,7.29445144 11.6647619,9.83619048 L15.7409524,13.8971429 L14.6590476,14.9790476 L10.5980952,10.9104762 L10.5904762,10.9104762 Z M6.85714286,10.6666667 C8.490357,10.6666667 9.99950911,9.79535733 10.8161162,8.3809524 C11.6327233,6.96654747 11.6327233,5.22392872 10.8161162,3.80952379 C9.99950911,2.39511886 8.490357,1.5238095 6.85714286,1.52380952 C4.3324126,1.52380956 2.28571435,3.57050784 2.28571435,6.0952381 C2.28571435,8.61996835 4.3324126,10.6666666 6.85714286,10.6666667 L6.85714286,10.6666667 Z" id="Shape"></path>
            </g>
        </g>
    </g>
</svg>