<?xml version="1.0" encoding="UTF-8"?>
<svg width="16px" height="16px" viewBox="0 0 16 16" version="1.1" xmlns="http://www.w3.org/2000/svg" xmlns:xlink="http://www.w3.org/1999/xlink">
    <!-- Generator: Sketch 47 (45396) - http://www.bohemiancoding.com/sketch -->
    <title>Artboard</title>
    <desc>Created with Sketch.</desc>
    <defs></defs>
    <g id="Page-1" stroke="none" stroke-width="1" fill="none" fill-rule="evenodd">
        <g id="Artboard" fill-rule="nonzero" fill="#E4450D">
            <g id="fire" transform="translate(1.000000, 0.000000)">
                <path d="M3.90993258,15.980015 C2.84491386,13.7639251 3.41207491,12.4940824 4.23062172,11.2977079 C5.12701124,9.98750562 5.35802247,8.69057678 5.35802247,8.69057678 C5.35802247,8.69057678 6.06268165,9.60662172 5.78079401,11.0393408 C7.0256779,9.65357303 7.26061423,7.44569288 7.07262921,6.60011985 C9.88653184,8.5665618 11.0891386,12.8244494 9.46843446,15.980015 C18.0885094,11.1028315 11.6126142,3.80506367 10.4851835,2.98301124 C10.8610037,3.80503371 10.9322846,5.19664419 10.1730936,5.872 C8.88794007,0.998741573 5.71035206,0 5.71035206,0 C6.08617228,2.51316854 4.34807491,5.26130337 2.67202996,7.31475655 C2.61315356,6.31262921 2.55059176,5.6211236 2.02361049,4.66214232 C1.90531835,6.48260674 0.514067416,7.9665618 0.137318352,9.7905618 C-0.373003745,12.2606742 0.519580524,14.0692734 3.90993258,15.980015 Z" id="Shape"></path>
            </g>
        </g>
    </g>
</svg>