<?xml version="1.0" encoding="UTF-8"?>
<svg width="102px" height="100px" viewBox="0 0 102 100" version="1.1" xmlns="http://www.w3.org/2000/svg" xmlns:xlink="http://www.w3.org/1999/xlink">
    <!-- Generator: Sketch 47 (45396) - http://www.bohemiancoding.com/sketch -->
    <title>Group 4</title>
    <desc>Created with Sketch.</desc>
    <defs>
        <linearGradient x1="0%" y1="0%" x2="101.999998%" y2="100.999999%" id="linearGradient-1">
            <stop stop-color="#63D9DE" offset="0%"></stop>
            <stop stop-color="#2F80ED" offset="100%"></stop>
        </linearGradient>
        <linearGradient x1="0%" y1="0%" x2="101.999998%" y2="100.999999%" id="linearGradient-2">
            <stop stop-color="#56CCF2" offset="0%"></stop>
            <stop stop-color="#2F80ED" offset="100%"></stop>
        </linearGradient>
    </defs>
    <g id="Page-1" stroke="none" stroke-width="1" fill="none" fill-rule="evenodd">
        <g id="Artboard" transform="translate(-560.000000, -217.000000)" stroke-width="10.6666667">
            <g id="Group-5" transform="translate(411.000000, 216.000000)">
                <g id="Group-4" transform="translate(199.666667, 50.333333) rotate(180.000000) translate(-199.666667, -50.333333) translate(148.666667, 0.333333)">
                    <g id="Group-3">
                        <g id="Group-2">
                            <g id="Group">
                                <path d="M41.9119497,57.4591195 L69.8216796,57.4591195 C84.215818,57.4591195 95.8845727,45.7903648 95.8845727,31.3962264 C95.8845727,17.002088 84.215818,5.33333333 69.8216796,5.33333333 L68.8982612,5.33333333 C53.9941329,5.33333333 41.9119497,17.4155165 41.9119497,32.3196448 L41.9119497,57.4591195 Z" id="Rectangle-3" stroke="url(#linearGradient-1)"></path>
                                <path d="M41.7610063,57.4523319 L23.5471698,57.4523319 C13.4879457,57.4523319 5.33333333,65.6069443 5.33333333,75.6661684 C5.33333333,85.7253925 13.4879457,93.8800049 23.5471698,93.8800049 C33.6063939,93.8800049 41.7610063,85.7253925 41.7610063,75.6661684 L41.7610063,57.4523319 Z" id="Rectangle-3" stroke="url(#linearGradient-2)"></path>
                            </g>
                        </g>
                    </g>
                </g>
            </g>
        </g>
    </g>
</svg>