<?xml version="1.0" encoding="UTF-8"?>
<svg width="227px" height="43px" viewBox="0 0 227 43" version="1.1" xmlns="http://www.w3.org/2000/svg" xmlns:xlink="http://www.w3.org/1999/xlink">
    <!-- Generator: Sketch 42 (36781) - http://www.bohemiancoding.com/sketch -->
    <title>Interloop</title>
    <desc>Created with Sketch.</desc>
    <defs>
        <linearGradient x1="100%" y1="0%" x2="0%" y2="100%" id="linearGradient-1">
            <stop stop-color="#27D39A" offset="0%"></stop>
            <stop stop-color="#41EDB4" offset="100%"></stop>
        </linearGradient>
        <linearGradient x1="100%" y1="0%" x2="0%" y2="100%" id="linearGradient-2">
            <stop stop-color="#F4B664" offset="0%"></stop>
            <stop stop-color="#FCC875" offset="67.2290792%"></stop>
            <stop stop-color="#FFD07E" offset="100%"></stop>
        </linearGradient>
        <linearGradient x1="100%" y1="0%" x2="0%" y2="100%" id="linearGradient-3">
            <stop stop-color="#48BFF2" offset="0%"></stop>
            <stop stop-color="#62D9FF" offset="100%"></stop>
        </linearGradient>
    </defs>
    <g id="UI-Kit" stroke="none" stroke-width="1" fill="none" fill-rule="evenodd">
        <g id="Logo" transform="translate(-163.000000, -127.000000)">
            <g id="Group-2" transform="translate(162.000000, 124.000000)">
                <g id="Group-3">
                    <g id="Interloop" transform="translate(3.500000, 5.000000)">
                        <g id="loops" opacity="0.956623134" stroke-width="3.2728742">
                            <ellipse id="green2" stroke="url(#linearGradient-1)" cx="13.1049192" cy="25.3881533" rx="13.1049192" ry="13.245993"></ellipse>
                            <ellipse id="yellow2" stroke="url(#linearGradient-2)" cx="28.3939915" cy="15.4536585" rx="15.2890724" ry="15.4536585"></ellipse>
                            <ellipse id="blue2" stroke="url(#linearGradient-3)" cx="43.6830639" cy="27.5958188" rx="9.82868937" ry="9.93449477"></ellipse>
                            <path d="M28.3939915,30.9073171 L28.3939915,30.9073171 C36.837913,30.9073171 43.6830639,23.9884785 43.6830639,15.4536585 C43.6830639,6.9188386 36.837913,0 28.3939915,0" id="yellow" stroke="url(#linearGradient-2)"></path>
                            <path d="M26.2098383,25.3881533 C26.2098383,18.0725934 20.3425662,12.1421603 13.1049192,12.1421603 C5.86727216,12.1421603 0,18.0725934 0,25.3881533" id="green" stroke="url(#linearGradient-1)"></path>
                            <path d="M43.6830639,37.5303136 C49.1112991,37.5303136 53.5117533,33.0824888 53.5117533,27.5958188 C53.5117533,22.1091489 49.1112991,17.661324 43.6830639,17.661324 C41.1318642,17.661324 38.8076888,18.6437939 37.0606694,20.2548327" id="blue" stroke="url(#linearGradient-3)"></path>
                        </g>
                        <path d="M63.9757334,31.5527027 C63.9757334,32.4624324 64.7200332,33.2067568 65.588383,33.2067568 C66.4980828,33.2067568 67.2423827,32.4624324 67.2423827,31.5527027 L67.2423827,5.50135135 C67.2423827,4.59162162 66.4980828,3.8472973 65.588383,3.8472973 C64.7200332,3.8472973 63.9757334,4.59162162 63.9757334,5.50135135 L63.9757334,31.5527027 Z M72.7492285,31.5940541 C72.7492285,32.5037838 73.4521783,33.2067568 74.3618782,33.2067568 C75.271578,33.2067568 75.9331778,32.5037838 75.9331778,31.5940541 L75.9331778,20.76 C75.9331778,16.7489189 78.6622772,14.0610811 82.3424264,14.0610811 C86.1052756,14.0610811 88.2554752,16.5421622 88.2554752,20.5118919 L88.2554752,31.5940541 C88.2554752,32.5037838 88.958425,33.2067568 89.8681248,33.2067568 C90.7364746,33.2067568 91.4394245,32.5037838 91.4394245,31.5940541 L91.4394245,19.7262162 C91.4394245,14.64 88.4208751,11.1664865 83.2521262,11.1664865 C79.571977,11.1664865 77.3390775,13.0272973 75.9331778,15.342973 L75.9331778,13.0272973 C75.9331778,12.1175676 75.230228,11.4145946 74.3205282,11.4145946 C73.4521783,11.4145946 72.7492285,12.1589189 72.7492285,13.0272973 L72.7492285,31.5940541 Z M102.942019,33.3721622 C104.182519,33.3721622 105.174919,33.1654054 106.084618,32.7932432 C106.622168,32.5864865 106.994318,32.1316216 106.994318,31.5527027 C106.994318,30.8083784 106.374068,30.1881081 105.629768,30.1881081 C105.381669,30.1881081 104.802769,30.4775676 103.686319,30.4775676 C101.536119,30.4775676 100.08887,29.5264865 100.08887,26.9213514 L100.08887,14.4332432 L105.629768,14.4332432 C106.415418,14.4332432 107.077018,13.812973 107.077018,13.0272973 C107.077018,12.282973 106.415418,11.6213514 105.629768,11.6213514 L100.08887,11.6213514 L100.08887,6.57648649 C100.08887,5.70810811 99.3445698,4.96378378 98.47622,4.96378378 C97.5665202,4.96378378 96.9049203,5.70810811 96.9049203,6.57648649 L96.9049203,11.6213514 L95.1682207,11.6213514 C94.4239209,11.6213514 93.762321,12.2416216 93.762321,13.0272973 C93.762321,13.7716216 94.4239209,14.4332432 95.1682207,14.4332432 L96.9049203,14.4332432 L96.9049203,27.3348649 C96.9049203,31.6767568 99.5099698,33.3721622 102.942019,33.3721622 L102.942019,33.3721622 Z M111.343364,21.1321622 C111.756864,16.9556757 114.568664,13.8543243 118.290163,13.8543243 C122.549212,13.8543243 124.782111,17.2451351 125.112911,21.1321622 L111.343364,21.1321622 Z M126.849611,30.2708108 C127.180411,29.9813514 127.345811,29.6091892 127.345811,29.237027 C127.345811,28.4927027 126.725561,27.8724324 125.939911,27.8724324 C125.567761,27.8724324 125.278311,28.0378378 125.030211,28.2445946 C123.458912,29.6918919 121.515462,30.7256757 118.869063,30.7256757 C115.064863,30.7256757 111.798214,28.1205405 111.343364,23.4891892 L126.808261,23.4891892 C127.593911,23.4891892 128.296861,22.8689189 128.296861,22.0005405 C128.296861,16.3354054 124.699411,11.1664865 118.372863,11.1664865 C112.459814,11.1664865 108.118065,16.1286486 108.118065,22.29 L108.118065,22.3727027 C108.118065,28.9889189 112.914664,33.4962162 118.786363,33.4962162 C122.425162,33.4962162 124.823461,32.2143243 126.849611,30.2708108 L126.849611,30.2708108 Z M131.488107,31.5940541 C131.488107,32.5037838 132.191057,33.2067568 133.100757,33.2067568 C134.010456,33.2067568 134.672056,32.4624324 134.672056,31.5940541 L134.672056,24.3162162 C134.672056,18.1548649 138.062756,15.0535135 142.197755,14.5572973 C143.024754,14.4332432 143.603654,13.812973 143.603654,12.9445946 C143.603654,12.0348649 142.983404,11.3318919 142.032355,11.3318919 C139.344605,11.3318919 136.243356,13.4821622 134.672056,17.0383784 L134.672056,13.0272973 C134.672056,12.1175676 133.969106,11.4145946 133.059407,11.4145946 C132.191057,11.4145946 131.488107,12.1589189 131.488107,13.0272973 L131.488107,31.5940541 Z M146.091951,31.5940541 C146.091951,32.5037838 146.794901,33.2067568 147.7046,33.2067568 C148.6143,33.2067568 149.2759,32.5037838 149.2759,31.5940541 L149.2759,4.21945946 C149.2759,3.35108108 148.57295,2.60675676 147.66325,2.60675676 C146.794901,2.60675676 146.091951,3.35108108 146.091951,4.21945946 L146.091951,31.5940541 Z M164.003794,33.4962162 C170.454393,33.4962162 175.209642,28.3686486 175.209642,22.3313514 L175.209642,22.2486486 C175.209642,16.2113514 170.495743,11.1664865 164.086494,11.1664865 C157.635895,11.1664865 152.921996,16.2940541 152.921996,22.3313514 L152.921996,22.4140541 C152.921996,28.4513514 157.594545,33.4962162 164.003794,33.4962162 L164.003794,33.4962162 Z M164.086494,30.642973 C159.579345,30.642973 156.188646,26.9213514 156.188646,22.3313514 L156.188646,22.2486486 C156.188646,17.7413514 159.372595,13.9783784 164.003794,13.9783784 C168.510943,13.9783784 171.942992,17.7413514 171.942992,22.3313514 L171.942992,22.4140541 C171.942992,26.9213514 168.717693,30.642973 164.086494,30.642973 L164.086494,30.642973 Z M188.283536,33.4962162 C194.734134,33.4962162 199.489383,28.3686486 199.489383,22.3313514 L199.489383,22.2486486 C199.489383,16.2113514 194.775484,11.1664865 188.366236,11.1664865 C181.915637,11.1664865 177.201738,16.2940541 177.201738,22.3313514 L177.201738,22.4140541 C177.201738,28.4513514 181.874287,33.4962162 188.283536,33.4962162 L188.283536,33.4962162 Z M188.366236,30.642973 C183.859087,30.642973 180.468387,26.9213514 180.468387,22.3313514 L180.468387,22.2486486 C180.468387,17.7413514 183.652337,13.9783784 188.283536,13.9783784 C192.790685,13.9783784 196.222734,17.7413514 196.222734,22.3313514 L196.222734,22.4140541 C196.222734,26.9213514 192.997435,30.642973 188.366236,30.642973 L188.366236,30.642973 Z M202.80468,38.2102703 C202.80468,39.12 203.50763,39.822973 204.417329,39.822973 C205.327029,39.822973 205.988629,39.12 205.988629,38.2102703 L205.988629,28.9062162 C207.642629,31.3045946 210.206328,33.4548649 214.175927,33.4548649 C219.344676,33.4548649 224.389375,29.3197297 224.389375,22.3313514 L224.389375,22.2486486 C224.389375,15.2189189 219.303326,11.1664865 214.175927,11.1664865 C210.247678,11.1664865 207.725329,13.3581081 205.988629,15.9218919 L205.988629,13.0272973 C205.988629,12.1175676 205.285679,11.4145946 204.375979,11.4145946 C203.50763,11.4145946 202.80468,12.1175676 202.80468,13.0272973 L202.80468,38.2102703 Z M213.597027,30.6016216 C209.627428,30.6016216 205.864579,27.2935135 205.864579,22.3313514 L205.864579,22.2486486 C205.864579,17.3691892 209.627428,14.0197297 213.597027,14.0197297 C217.649326,14.0197297 221.122726,17.2451351 221.122726,22.29 L221.122726,22.3727027 C221.122726,27.5416216 217.732026,30.6016216 213.597027,30.6016216 L213.597027,30.6016216 Z" fill="#FFFFFF"></path>
                    </g>
                </g>
            </g>
        </g>
    </g>
</svg>