<?xml version="1.0" standalone="no"?>
<!DOCTYPE svg PUBLIC "-//W3C//DTD SVG 1.1//EN" "http://www.w3.org/Graphics/SVG/1.1/DTD/svg11.dtd" >
<svg xmlns="http://www.w3.org/2000/svg">
<metadata>Generated by IcoMoon</metadata>
<defs>
<font id="Budicon-Classic" horiz-adv-x="1024">
<font-face units-per-em="1024" ascent="960" descent="-64" />
<missing-glyph horiz-adv-x="1024" />
<glyph unicode="&#x20;" horiz-adv-x="512" d="" />
<glyph unicode="&#xe900;" glyph-name="alignment-center" d="M348.16 837.12h450.56c11.311 0 20.48 9.169 20.48 20.48s-9.169 20.48-20.48 20.48h-450.56c-11.311 0-20.48-9.169-20.48-20.48s9.169-20.48 20.48-20.48zM143.36 632.32h860.16c11.311 0 20.48 9.169 20.48 20.48s-9.169 20.48-20.48 20.48h-860.16c-11.311 0-20.48-9.169-20.48-20.48s9.169-20.48 20.48-20.48zM348.16 468.48c-11.311 0-20.48-9.169-20.48-20.48s9.169-20.48 20.48-20.48h450.56c11.311 0 20.48 9.169 20.48 20.48s-9.169 20.48-20.48 20.48zM1003.52 263.68h-860.16c-11.311 0-20.48-9.169-20.48-20.48s9.169-20.48 20.48-20.48h860.16c11.311 0 20.48 9.169 20.48 20.48s-9.169 20.48-20.48 20.48zM798.72 58.88h-450.56c-11.311 0-20.48-9.169-20.48-20.48s9.169-20.48 20.48-20.48h450.56c11.311 0 20.48 9.169 20.48 20.48s-9.169 20.48-20.48 20.48z" />
<glyph unicode="&#xe901;" glyph-name="alignment-left" d="M61.44 837.12h450.56c11.311 0 20.48 9.169 20.48 20.48s-9.169 20.48-20.48 20.48h-450.56c-11.311 0-20.48-9.169-20.48-20.48s9.169-20.48 20.48-20.48zM61.44 632.32h860.16c11.311 0 20.48 9.169 20.48 20.48s-9.169 20.48-20.48 20.48h-860.16c-11.311 0-20.48-9.169-20.48-20.48s9.169-20.48 20.48-20.48zM61.44 427.52h450.56c11.311 0 20.48 9.169 20.48 20.48s-9.169 20.48-20.48 20.48h-450.56c-11.311 0-20.48-9.169-20.48-20.48s9.169-20.48 20.48-20.48zM921.6 263.68h-860.16c-11.311 0-20.48-9.169-20.48-20.48s9.169-20.48 20.48-20.48h860.16c11.311 0 20.48 9.169 20.48 20.48s-9.169 20.48-20.48 20.48zM512 58.88h-450.56c-11.311 0-20.48-9.169-20.48-20.48s9.169-20.48 20.48-20.48h450.56c11.311 0 20.48 9.169 20.48 20.48s-9.169 20.48-20.48 20.48z" />
<glyph unicode="&#xe902;" glyph-name="alignment-right" d="M512 837.12h450.56c11.311 0 20.48 9.169 20.48 20.48s-9.169 20.48-20.48 20.48h-450.56c-11.311 0-20.48-9.169-20.48-20.48s9.169-20.48 20.48-20.48zM962.56 673.28h-860.16c-11.311 0-20.48-9.169-20.48-20.48s9.169-20.48 20.48-20.48h860.16c11.311 0 20.48 9.169 20.48 20.48s-9.169 20.48-20.48 20.48zM962.56 468.48h-450.56c-11.311 0-20.48-9.169-20.48-20.48s9.169-20.48 20.48-20.48h450.56c11.311 0 20.48 9.169 20.48 20.48s-9.169 20.48-20.48 20.48zM962.56 263.68h-860.16c-11.311 0-20.48-9.169-20.48-20.48s9.169-20.48 20.48-20.48h860.16c11.311 0 20.48 9.169 20.48 20.48s-9.169 20.48-20.48 20.48zM962.56 58.88h-450.56c-11.311 0-20.48-9.169-20.48-20.48s9.169-20.48 20.48-20.48h450.56c11.311 0 20.48 9.169 20.48 20.48s-9.169 20.48-20.48 20.48z" />
<glyph unicode="&#xe903;" glyph-name="anchor-link" d="M245.76 407.040c0-11.311 9.169-20.48 20.48-20.48h491.52c11.311 0 20.48 9.169 20.48 20.48s-9.169 20.48-20.48 20.48h-491.52c-11.311 0-20.48-9.169-20.48-20.48zM962.56 591.36h-327.68c-33.932 0-61.44-27.508-61.44-61.44v-61.44h40.96v61.44c0 11.311 9.169 20.48 20.48 20.48h327.68c11.311 0 20.48-9.169 20.48-20.48v-245.76c0-11.311-9.169-20.48-20.48-20.48h-327.68c-11.311 0-20.48 9.169-20.48 20.48v61.44h-40.96v-61.44c0-33.932 27.508-61.44 61.44-61.44h327.68c33.932 0 61.44 27.508 61.44 61.44v245.76c0 33.932-27.508 61.44-61.44 61.44zM409.6 284.16c0-11.311-9.169-20.48-20.48-20.48h-327.68c-11.311 0-20.48 9.169-20.48 20.48v245.76c0 11.311 9.169 20.48 20.48 20.48h327.68c11.311 0 20.48-9.169 20.48-20.48v-61.44h40.96v61.44c0 33.932-27.508 61.44-61.44 61.44h-327.68c-33.932 0-61.44-27.508-61.44-61.44v-245.76c0-33.932 27.508-61.44 61.44-61.44h327.68c33.932 0 61.44 27.508 61.44 61.44v61.44h-40.96z" />
<glyph unicode="&#xe904;" glyph-name="ascending-order" d="M962.56 140.8h-450.56c-11.311 0-20.48-9.169-20.48-20.48s9.169-20.48 20.48-20.48h450.56c11.311 0 20.48 9.169 20.48 20.48s-9.169 20.48-20.48 20.48zM962.56 345.6h-286.72c-11.311 0-20.48-9.169-20.48-20.48s9.169-20.48 20.48-20.48h286.72c11.311 0 20.48 9.169 20.48 20.48s-9.169 20.48-20.48 20.48zM962.56 550.4h-450.56c-11.311 0-20.48-9.169-20.48-20.48s9.169-20.48 20.48-20.48h450.56c11.311 0 20.48 9.169 20.48 20.48s-9.169 20.48-20.48 20.48zM962.56 755.2h-450.56c-11.311 0-20.48-9.169-20.48-20.48s9.169-20.48 20.48-20.48h450.56c11.311 0 20.48 9.169 20.48 20.48s-9.169 20.48-20.48 20.48zM512 919.040h450.56c11.311 0 20.48 9.169 20.48 20.48s-9.169 20.48-20.48 20.48h-450.56c-11.311 0-20.48-9.169-20.48-20.48s9.169-20.48 20.48-20.48zM526.479 380.559c-3.706 3.705-8.825 5.996-14.479 5.996s-10.773-2.291-14.479-5.996l-210.801-210.801v769.761c0 11.311-9.169 20.48-20.48 20.48s-20.48-9.169-20.48-20.48v-769.761l-210.801 210.801c-3.679 3.557-8.697 5.749-14.228 5.749-11.311 0-20.48-9.169-20.48-20.48 0-5.53 2.192-10.549 5.755-14.233l245.754-245.754c3.706-3.705 8.825-5.996 14.479-5.996s10.773 2.291 14.479 5.996l245.76 245.76c3.705 3.706 5.996 8.825 5.996 14.479s-2.291 10.773-5.996 14.479z" />
<glyph unicode="&#xe905;" glyph-name="asterisk" d="M608.059 872.538c0.24 1.665 0.377 3.587 0.377 5.542 0 22.622-18.338 40.96-40.96 40.96h-29.028c-22.622 0-40.96-18.338-40.96-40.96 0-1.955 0.137-3.877 0.402-5.759l55.070-362.881zM497.861 23.462c-0.24-1.665-0.377-3.587-0.377-5.542 0-22.622 18.338-40.96 40.96-40.96h29.028c22.622 0 40.96 18.338 40.96 40.96 0 1.955-0.137 3.877-0.402 5.759l-55.070 362.881zM157.741 612.561l342.016-133.841-286.917 229.282c-6.854 5.351-15.592 8.579-25.084 8.579-15.080 0-28.257-8.15-35.367-20.285l-14.621-25.335c-3.452-5.876-5.491-12.943-5.491-20.486 0-17.034 10.398-31.639 25.192-37.815zM948.179 283.439l-342.016 133.841 286.908-229.282c6.853-5.347 15.588-8.573 25.076-8.573 15.086 0 28.267 8.156 35.375 20.299l14.621 25.335c3.447 5.873 5.483 12.935 5.483 20.472 0 17.028-10.39 31.628-25.176 37.808zM157.741 283.439c-15.058-6.279-25.45-20.881-25.45-37.91 0-7.537 2.035-14.598 5.587-20.664l14.412-24.948c7.212-12.336 20.393-20.492 35.479-20.492 9.488 0 18.223 3.226 25.167 8.641l286.813 229.213zM948.179 612.561c15.063 6.277 25.46 20.881 25.46 37.914 0 7.543-2.039 14.61-5.596 20.68l-14.412 24.948c-7.214 12.329-20.391 20.478-35.471 20.478-9.492 0-18.23-3.229-25.175-8.648l-286.813-229.213z" />
<glyph unicode="&#xe906;" glyph-name="change-order" d="M962.56 99.84h-491.52c-11.311 0-20.48-9.169-20.48-20.48s9.169-20.48 20.48-20.48h491.52c11.311 0 20.48 9.169 20.48 20.48s-9.169 20.48-20.48 20.48zM962.56 304.64h-450.56c-11.311 0-20.48-9.169-20.48-20.48s9.169-20.48 20.48-20.48h450.56c11.311 0 20.48 9.169 20.48 20.48s-9.169 20.48-20.48 20.48zM962.56 509.44h-450.56c-11.311 0-20.48-9.169-20.48-20.48s9.169-20.48 20.48-20.48h450.56c11.311 0 20.48 9.169 20.48 20.48s-9.169 20.48-20.48 20.48zM962.56 714.24h-450.56c-11.311 0-20.48-9.169-20.48-20.48s9.169-20.48 20.48-20.48h450.56c11.311 0 20.48 9.169 20.48 20.48s-9.169 20.48-20.48 20.48zM471.040 878.080h491.52c11.311 0 20.48 9.169 20.48 20.48s-9.169 20.48-20.48 20.48h-491.52c-11.311 0-20.48-9.169-20.48-20.48s9.169-20.48 20.48-20.48zM333.681 761.201c3.679-3.557 8.697-5.749 14.228-5.749 11.311 0 20.48 9.169 20.48 20.48 0 5.53-2.192 10.549-5.755 14.233l-163.834 163.834c-3.706 3.705-8.825 5.996-14.479 5.996s-10.773-2.291-14.479-5.996l-163.84-163.84c-3.557-3.679-5.749-8.697-5.749-14.228 0-11.311 9.169-20.48 20.48-20.48 5.53 0 10.549 2.192 14.233 5.755l128.875 128.875v-802.243l-128.881 128.881c-3.679 3.557-8.697 5.749-14.228 5.749-11.311 0-20.48-9.169-20.48-20.48 0-5.53 2.192-10.549 5.755-14.233l163.834-163.834c3.706-3.705 8.825-5.996 14.479-5.996s10.773 2.291 14.479 5.996l163.84 163.84c3.557 3.679 5.749 8.697 5.749 14.228 0 11.311-9.169 20.48-20.48 20.48-5.53 0-10.549-2.192-14.233-5.755l-128.875-128.875v802.243z" />
<glyph unicode="&#xe907;" glyph-name="columns" d="M962.56 960h-819.2c-33.932 0-61.44-27.508-61.44-61.44v-819.2c0-33.932 27.508-61.44 61.44-61.44h819.2c33.932 0 61.44 27.508 61.44 61.44v819.2c0 33.932-27.508 61.44-61.44 61.44zM983.040 79.36c0-11.311-9.169-20.48-20.48-20.48h-819.2c-11.311 0-20.48 9.169-20.48 20.48v819.2c0 11.311 9.169 20.48 20.48 20.48h819.2c11.311 0 20.48-9.169 20.48-20.48zM471.040 755.2h-245.76c-11.311 0-20.48-9.169-20.48-20.48s9.169-20.48 20.48-20.48h245.76c11.311 0 20.48 9.169 20.48 20.48s-9.169 20.48-20.48 20.48zM880.64 755.2h-245.76c-11.311 0-20.48-9.169-20.48-20.48s9.169-20.48 20.48-20.48h245.76c11.311 0 20.48 9.169 20.48 20.48s-9.169 20.48-20.48 20.48zM471.040 591.36h-245.76c-11.311 0-20.48-9.169-20.48-20.48s9.169-20.48 20.48-20.48h245.76c11.311 0 20.48 9.169 20.48 20.48s-9.169 20.48-20.48 20.48zM880.64 591.36h-245.76c-11.311 0-20.48-9.169-20.48-20.48s9.169-20.48 20.48-20.48h245.76c11.311 0 20.48 9.169 20.48 20.48s-9.169 20.48-20.48 20.48zM471.040 427.52h-245.76c-11.311 0-20.48-9.169-20.48-20.48s9.169-20.48 20.48-20.48h245.76c11.311 0 20.48 9.169 20.48 20.48s-9.169 20.48-20.48 20.48zM880.64 427.52h-245.76c-11.311 0-20.48-9.169-20.48-20.48s9.169-20.48 20.48-20.48h245.76c11.311 0 20.48 9.169 20.48 20.48s-9.169 20.48-20.48 20.48zM471.040 263.68h-245.76c-11.311 0-20.48-9.169-20.48-20.48s9.169-20.48 20.48-20.48h245.76c11.311 0 20.48 9.169 20.48 20.48s-9.169 20.48-20.48 20.48zM880.64 263.68h-245.76c-11.311 0-20.48-9.169-20.48-20.48s9.169-20.48 20.48-20.48h245.76c11.311 0 20.48 9.169 20.48 20.48s-9.169 20.48-20.48 20.48z" />
<glyph unicode="&#xe908;" glyph-name="compose" d="M921.6 550.4c-11.311 0-20.48-9.169-20.48-20.48v-532.48c0-11.311-9.169-20.48-20.48-20.48h-819.2c-11.311 0-20.48 9.169-20.48 20.48v819.2c0 11.311 9.169 20.48 20.48 20.48h532.48c11.311 0 20.48 9.169 20.48 20.48s-9.169 20.48-20.48 20.48h-532.48c-33.917-0.037-61.403-27.523-61.44-61.436v-819.204c0.037-33.917 27.523-61.403 61.436-61.44h819.204c33.917 0.037 61.403 27.523 61.44 61.436v532.484c0 11.311-9.169 20.48-20.48 20.48zM1007.079 888.562l-54.53 54.518c-10.473 10.455-24.932 16.921-40.901 16.921s-30.428-6.465-40.901-16.921l-485.166-485.158c-10.465-10.416-16.941-24.832-16.941-40.76 0-0.056 0-0.112 0-0.168v-73.793c0.012-21.291 17.268-38.548 38.559-38.56h73.811c0.047 0 0.103 0 0.159 0 15.922 0 30.331 6.476 40.737 16.939l485.174 485.182c10.455 10.473 16.921 24.932 16.921 40.901s-6.465 30.428-16.921 40.901zM492.929 350.515c-2.996-3.036-7.157-4.916-11.756-4.916-0.057 0-0.115 0-0.172 0.001h-71.401v71.401c-0.001 0.050-0.001 0.109-0.001 0.168 0 4.616 1.89 8.79 4.938 11.79l407.964 407.943 78.406-78.402zM978.125 835.719l-48.259-48.259-78.406 78.402 48.259 48.263c3.061 3.041 7.279 4.92 11.936 4.92s8.875-1.879 11.937-4.921l54.533-54.525c3.040-3.063 4.919-7.282 4.919-11.94s-1.879-8.877-4.92-11.941z" />
<glyph unicode="&#xe909;" glyph-name="descending-order" d="M552.96 919.040h450.56c11.311 0 20.48 9.169 20.48 20.48s-9.169 20.48-20.48 20.48h-450.56c-11.311 0-20.48-9.169-20.48-20.48s9.169-20.48 20.48-20.48zM1003.52 755.2h-286.72c-11.311 0-20.48-9.169-20.48-20.48s9.169-20.48 20.48-20.48h286.72c11.311 0 20.48 9.169 20.48 20.48s-9.169 20.48-20.48 20.48zM1003.52 550.4h-450.56c-11.311 0-20.48-9.169-20.48-20.48s9.169-20.48 20.48-20.48h450.56c11.311 0 20.48 9.169 20.48 20.48s-9.169 20.48-20.48 20.48zM1003.52 345.6h-450.56c-11.311 0-20.48-9.169-20.48-20.48s9.169-20.48 20.48-20.48h450.56c11.311 0 20.48 9.169 20.48 20.48s-9.169 20.48-20.48 20.48zM1003.52 140.8h-450.56c-11.311 0-20.48-9.169-20.48-20.48s9.169-20.48 20.48-20.48h450.56c11.311 0 20.48 9.169 20.48 20.48s-9.169 20.48-20.48 20.48zM567.439 679.281c3.705 3.706 5.996 8.825 5.996 14.479s-2.291 10.773-5.996 14.479l-245.76 245.76c-3.706 3.705-8.825 5.996-14.479 5.996s-10.773-2.291-14.479-5.996l-245.76-245.76c-3.557-3.679-5.749-8.697-5.749-14.228 0-11.311 9.169-20.48 20.48-20.48 5.53 0 10.549 2.192 14.233 5.755l210.795 210.795v-769.761c0-11.311 9.169-20.48 20.48-20.48s20.48 9.169 20.48 20.48v769.761l210.801-210.801c3.706-3.705 8.825-5.996 14.479-5.996s10.773 2.291 14.479 5.996z" />
<glyph unicode="&#xe90a;" glyph-name="digital-keyboard" d="M962.56 960h-901.12c-33.932 0-61.44-27.508-61.44-61.44v-614.4c0-33.932 27.508-61.44 61.44-61.44h901.12c33.932 0 61.44 27.508 61.44 61.44v614.4c0 33.932-27.508 61.44-61.44 61.44zM983.040 284.16c0-11.311-9.169-20.48-20.48-20.48h-901.12c-11.311 0-20.48 9.169-20.48 20.48v614.4c0 11.311 9.169 20.48 20.48 20.48h901.12c11.311 0 20.48-9.169 20.48-20.48zM675.84 427.52h-327.68c-11.311 0-20.48-9.169-20.48-20.48s9.169-20.48 20.48-20.48h327.68c11.311 0 20.48 9.169 20.48 20.48s-9.169 20.48-20.48 20.48zM225.28 427.52h-40.96c-11.311 0-20.48-9.169-20.48-20.48s9.169-20.48 20.48-20.48h40.96c11.311 0 20.48 9.169 20.48 20.48s-9.169 20.48-20.48 20.48zM225.28 550.4h-40.96c-11.311 0-20.48-9.169-20.48-20.48s9.169-20.48 20.48-20.48h40.96c11.311 0 20.48 9.169 20.48 20.48s-9.169 20.48-20.48 20.48zM389.12 509.44h40.96c11.311 0 20.48 9.169 20.48 20.48s-9.169 20.48-20.48 20.48h-40.96c-11.311 0-20.48-9.169-20.48-20.48s9.169-20.48 20.48-20.48zM593.92 509.44h40.96c11.311 0 20.48 9.169 20.48 20.48s-9.169 20.48-20.48 20.48h-40.96c-11.311 0-20.48-9.169-20.48-20.48s9.169-20.48 20.48-20.48zM839.68 550.4h-40.96c-11.311 0-20.48-9.169-20.48-20.48s9.169-20.48 20.48-20.48h40.96c11.311 0 20.48 9.169 20.48 20.48s-9.169 20.48-20.48 20.48zM225.28 673.28h-40.96c-11.311 0-20.48-9.169-20.48-20.48s9.169-20.48 20.48-20.48h40.96c11.311 0 20.48 9.169 20.48 20.48s-9.169 20.48-20.48 20.48zM389.12 632.32h40.96c11.311 0 20.48 9.169 20.48 20.48s-9.169 20.48-20.48 20.48h-40.96c-11.311 0-20.48-9.169-20.48-20.48s9.169-20.48 20.48-20.48zM593.92 632.32h40.96c11.311 0 20.48 9.169 20.48 20.48s-9.169 20.48-20.48 20.48h-40.96c-11.311 0-20.48-9.169-20.48-20.48s9.169-20.48 20.48-20.48zM839.68 673.28h-40.96c-11.311 0-20.48-9.169-20.48-20.48s9.169-20.48 20.48-20.48h40.96c11.311 0 20.48 9.169 20.48 20.48s-9.169 20.48-20.48 20.48zM225.28 796.16h-40.96c-11.311 0-20.48-9.169-20.48-20.48s9.169-20.48 20.48-20.48h40.96c11.311 0 20.48 9.169 20.48 20.48s-9.169 20.48-20.48 20.48zM389.12 755.2h40.96c11.311 0 20.48 9.169 20.48 20.48s-9.169 20.48-20.48 20.48h-40.96c-11.311 0-20.48-9.169-20.48-20.48s9.169-20.48 20.48-20.48zM593.92 755.2h40.96c11.311 0 20.48 9.169 20.48 20.48s-9.169 20.48-20.48 20.48h-40.96c-11.311 0-20.48-9.169-20.48-20.48s9.169-20.48 20.48-20.48zM839.68 796.16h-40.96c-11.311 0-20.48-9.169-20.48-20.48s9.169-20.48 20.48-20.48h40.96c11.311 0 20.48 9.169 20.48 20.48s-9.169 20.48-20.48 20.48zM839.68 427.52h-40.96c-11.311 0-20.48-9.169-20.48-20.48s9.169-20.48 20.48-20.48h40.96c11.311 0 20.48 9.169 20.48 20.48s-9.169 20.48-20.48 20.48z" />
<glyph unicode="&#xe90b;" glyph-name="document-page" d="M962.56 837.12h-61.44v61.44c0 33.932-27.508 61.44-61.44 61.44h-655.36c-33.932 0-61.44-27.508-61.44-61.44v-778.24c0-33.932 27.508-61.44 61.44-61.44h61.44v-61.44c0-33.932 27.508-61.44 61.44-61.44h655.36c33.932 0 61.44 27.508 61.44 61.44v778.24c0 33.932-27.508 61.44-61.44 61.44zM163.84 120.32v778.24c0 11.311 9.169 20.48 20.48 20.48h655.36c11.311 0 20.48-9.169 20.48-20.48v-778.24c0-11.311-9.169-20.48-20.48-20.48h-655.36c-11.311 0-20.48 9.169-20.48 20.48zM983.040-2.56c0-11.311-9.169-20.48-20.48-20.48h-655.36c-11.311 0-20.48 9.169-20.48 20.48v61.44h552.96c33.932 0 61.44 27.508 61.44 61.44v675.84h61.44c11.311 0 20.48-9.169 20.48-20.48zM266.24 632.32h143.36c11.311 0 20.48 9.169 20.48 20.48s-9.169 20.48-20.48 20.48h-143.36c-11.311 0-20.48-9.169-20.48-20.48s9.169-20.48 20.48-20.48zM266.24 755.2h143.36c11.311 0 20.48 9.169 20.48 20.48s-9.169 20.48-20.48 20.48h-143.36c-11.311 0-20.48-9.169-20.48-20.48s9.169-20.48 20.48-20.48zM266.24 509.44h143.36c11.311 0 20.48 9.169 20.48 20.48s-9.169 20.48-20.48 20.48h-143.36c-11.311 0-20.48-9.169-20.48-20.48s9.169-20.48 20.48-20.48zM757.76 427.52h-491.52c-11.311 0-20.48-9.169-20.48-20.48s9.169-20.48 20.48-20.48h491.52c11.311 0 20.48 9.169 20.48 20.48s-9.169 20.48-20.48 20.48zM757.76 304.64h-491.52c-11.311 0-20.48-9.169-20.48-20.48s9.169-20.48 20.48-20.48h491.52c11.311 0 20.48 9.169 20.48 20.48s-9.169 20.48-20.48 20.48zM737.28 796.16h-163.84c-22.622 0-40.96-18.338-40.96-40.96v-204.8c0-22.622 18.338-40.96 40.96-40.96h163.84c22.622 0 40.96 18.338 40.96 40.96v204.8c0 22.622-18.338 40.96-40.96 40.96zM737.28 550.4h-163.84v204.8h163.84z" />
<glyph unicode="&#xe90c;" glyph-name="forward-page" d="M409.6 620.298c-3.655 3.438-8.59 5.551-14.020 5.551-11.311 0-20.48-9.169-20.48-20.48 0-5.424 2.109-10.356 5.551-14.020l40.95-40.949h-196.321c-11.311 0-20.48-9.169-20.48-20.48s9.169-20.48 20.48-20.48h196.321l-40.96-40.96c-3.557-3.679-5.749-8.697-5.749-14.228 0-11.311 9.169-20.48 20.48-20.48 5.53 0 10.549 2.192 14.233 5.755l75.914 75.914c3.705 3.706 5.996 8.825 5.996 14.479s-2.291 10.773-5.996 14.479zM880.64 673.28h-225.28v81.92h61.44c11.311 0 20.48 9.169 20.48 20.48v102.4c0 45.243-36.677 81.92-81.92 81.92h-471.040c-56.554 0-102.4-45.846-102.4-102.4 0-0.014 0-0.029 0-0.043v-573.397c0-33.932 27.508-61.44 61.44-61.44h225.28v-81.92h-61.44c-11.311 0-20.48-9.169-20.48-20.48v-102.4c0-45.243 36.677-81.92 81.92-81.92h471.040c56.554 0 102.4 45.846 102.4 102.4v573.44c0 33.932-27.508 61.44-61.44 61.44zM655.36 919.040c22.615-0.016 40.944-18.345 40.96-40.958v-81.922h-409.6v61.44c-0.070 23.23-7.934 44.61-21.113 61.675zM143.36 263.68c-11.311 0-20.48 9.169-20.48 20.48v573.44c0 33.932 27.508 61.44 61.44 61.44s61.44-27.508 61.44-61.44v-81.92c0-11.311 9.169-20.48 20.48-20.48h348.16v-471.040c0-11.311-9.169-20.48-20.48-20.48zM368.64-23.040c-22.615 0.016-40.944 18.345-40.96 40.958v81.922h409.6v-61.44c0.070-23.23 7.934-44.61 21.113-61.675zM901.12 38.4c0-33.932-27.508-61.44-61.44-61.44s-61.44 27.508-61.44 61.44v81.92c0 11.311-9.169 20.48-20.48 20.48h-348.16v81.92h184.32c33.932 0 61.44 27.508 61.44 61.44v348.16h225.28c11.311 0 20.48-9.169 20.48-20.48z" />
<glyph unicode="&#xe90d;" glyph-name="front-page" d="M921.6 837.12h-61.44v61.44c0 33.932-27.508 61.44-61.44 61.44h-655.36c-33.932 0-61.44-27.508-61.44-61.44v-778.24c0-33.932 27.508-61.44 61.44-61.44h61.44v-61.44c0-33.932 27.508-61.44 61.44-61.44h655.36c33.932 0 61.44 27.508 61.44 61.44v778.24c0 33.932-27.508 61.44-61.44 61.44zM122.88 120.32v778.24c0 11.311 9.169 20.48 20.48 20.48h655.36c11.311 0 20.48-9.169 20.48-20.48v-778.24c0-11.311-9.169-20.48-20.48-20.48h-655.36c-11.311 0-20.48 9.169-20.48 20.48zM942.080-2.56c0-11.311-9.169-20.48-20.48-20.48h-655.36c-11.311 0-20.48 9.169-20.48 20.48v61.44h552.96c33.932 0 61.44 27.508 61.44 61.44v675.84h61.44c11.311 0 20.48-9.169 20.48-20.48zM716.8 468.48h-491.52c-11.311 0-20.48-9.169-20.48-20.48s9.169-20.48 20.48-20.48h491.52c11.311 0 20.48 9.169 20.48 20.48s-9.169 20.48-20.48 20.48zM552.96 345.6h-327.68c-11.311 0-20.48-9.169-20.48-20.48s9.169-20.48 20.48-20.48h327.68c11.311 0 20.48 9.169 20.48 20.48s-9.169 20.48-20.48 20.48zM696.32 837.12h-450.56c-22.622 0-40.96-18.338-40.96-40.96v-204.8c0-22.622 18.338-40.96 40.96-40.96h450.56c22.622 0 40.96 18.338 40.96 40.96v204.8c0 22.622-18.338 40.96-40.96 40.96zM696.32 591.36h-450.56v204.8h450.56z" />
<glyph unicode="&#xe90e;" glyph-name="grid-view" d="M225.28 837.12h-163.84c-33.932 0-61.44-27.508-61.44-61.44v-204.8c0-33.932 27.508-61.44 61.44-61.44h163.84c33.932 0 61.44 27.508 61.44 61.44v204.8c0 33.932-27.508 61.44-61.44 61.44zM245.76 570.88c0-11.311-9.169-20.48-20.48-20.48h-163.84c-11.311 0-20.48 9.169-20.48 20.48v204.8c0 11.311 9.169 20.48 20.48 20.48h163.84c11.311 0 20.48-9.169 20.48-20.48zM593.92 837.12h-163.84c-33.932 0-61.44-27.508-61.44-61.44v-204.8c0-33.932 27.508-61.44 61.44-61.44h163.84c33.932 0 61.44 27.508 61.44 61.44v204.8c0 33.932-27.508 61.44-61.44 61.44zM614.4 570.88c0-11.311-9.169-20.48-20.48-20.48h-163.84c-11.311 0-20.48 9.169-20.48 20.48v204.8c0 11.311 9.169 20.48 20.48 20.48h163.84c11.311 0 20.48-9.169 20.48-20.48zM962.56 837.12h-163.84c-33.932 0-61.44-27.508-61.44-61.44v-204.8c0-33.932 27.508-61.44 61.44-61.44h163.84c33.932 0 61.44 27.508 61.44 61.44v204.8c0 33.932-27.508 61.44-61.44 61.44zM983.040 570.88c0-11.311-9.169-20.48-20.48-20.48h-163.84c-11.311 0-20.48 9.169-20.48 20.48v204.8c0 11.311 9.169 20.48 20.48 20.48h163.84c11.311 0 20.48-9.169 20.48-20.48zM225.28 386.56h-163.84c-33.932 0-61.44-27.508-61.44-61.44v-204.8c0-33.932 27.508-61.44 61.44-61.44h163.84c33.932 0 61.44 27.508 61.44 61.44v204.8c0 33.932-27.508 61.44-61.44 61.44zM245.76 120.32c0-11.311-9.169-20.48-20.48-20.48h-163.84c-11.311 0-20.48 9.169-20.48 20.48v204.8c0 11.311 9.169 20.48 20.48 20.48h163.84c11.311 0 20.48-9.169 20.48-20.48zM593.92 386.56h-163.84c-33.932 0-61.44-27.508-61.44-61.44v-204.8c0-33.932 27.508-61.44 61.44-61.44h163.84c33.932 0 61.44 27.508 61.44 61.44v204.8c0 33.932-27.508 61.44-61.44 61.44zM614.4 120.32c0-11.311-9.169-20.48-20.48-20.48h-163.84c-11.311 0-20.48 9.169-20.48 20.48v204.8c0 11.311 9.169 20.48 20.48 20.48h163.84c11.311 0 20.48-9.169 20.48-20.48zM962.56 386.56h-163.84c-33.932 0-61.44-27.508-61.44-61.44v-204.8c0-33.932 27.508-61.44 61.44-61.44h163.84c33.932 0 61.44 27.508 61.44 61.44v204.8c0 33.932-27.508 61.44-61.44 61.44zM983.040 120.32c0-11.311-9.169-20.48-20.48-20.48h-163.84c-11.311 0-20.48 9.169-20.48 20.48v204.8c0 11.311 9.169 20.48 20.48 20.48h163.84c11.311 0 20.48-9.169 20.48-20.48z" />
<glyph unicode="&#xe90f;" glyph-name="image-caption" d="M962.56 960h-819.2c-33.932 0-61.44-27.508-61.44-61.44v-737.28c0-33.932 27.508-61.44 61.44-61.44h302.051l62.87-64.139c11.096-10.988 26.368-17.777 43.225-17.777s32.129 6.789 43.23 17.782l62.865 64.134h304.959c33.932 0 61.44 27.508 61.44 61.44v737.28c0 33.932-27.508 61.44-61.44 61.44zM983.040 161.28c0-11.311-9.169-20.48-20.48-20.48h-322.171l-74.473-75.981c-3.684-3.67-8.766-5.939-14.378-5.939-0.011 0-0.022 0-0.033 0-0.049 0-0.109-0.001-0.169-0.001-5.352 0-10.215 2.095-13.814 5.51l-74.899 76.411h-319.263c-11.311 0-20.48 9.169-20.48 20.48v93.901l206.029 206.062 190.439-192.84c3.527-2.944 8.108-4.732 13.106-4.732 6.687 0 12.626 3.199 16.372 8.15l227.877 303.831 206.336-264.614zM983.040 388.321l-187.441 234.357c-3.521 5.574-9.534 9.297-16.435 9.6-0.466 0.034-0.96 0.053-1.458 0.053-6.534 0-12.313-3.232-15.826-8.184l-232.841-310.467-188.252 191.001c-3.527 2.944-8.108 4.731-13.106 4.731-5.658 0-10.781-2.29-14.493-5.993l-190.308-190.32v585.462c0 11.311 9.169 20.48 20.48 20.48h819.2c11.311 0 20.48-9.169 20.48-20.48zM327.68 796.16c-45.243 0-81.92-36.677-81.92-81.92s36.677-81.92 81.92-81.92c45.243 0 81.92 36.677 81.92 81.92s-36.677 81.92-81.92 81.92zM327.68 673.28c-22.622 0-40.96 18.338-40.96 40.96s18.338 40.96 40.96 40.96c22.622 0 40.96-18.338 40.96-40.96-0.028-22.61-18.35-40.932-40.957-40.96z" />
<glyph unicode="&#xe910;" glyph-name="indent-left" d="M61.44 878.080h942.080c11.311 0 20.48 9.169 20.48 20.48s-9.169 20.48-20.48 20.48h-942.080c-11.311 0-20.48-9.169-20.48-20.48s9.169-20.48 20.48-20.48zM1003.52 714.24h-450.56c-11.311 0-20.48-9.169-20.48-20.48s9.169-20.48 20.48-20.48h450.56c11.311 0 20.48 9.169 20.48 20.48s-9.169 20.48-20.48 20.48zM1003.52 509.44h-450.56c-11.311 0-20.48-9.169-20.48-20.48s9.169-20.48 20.48-20.48h450.56c11.311 0 20.48 9.169 20.48 20.48s-9.169 20.48-20.48 20.48zM1003.52 304.64h-450.56c-11.311 0-20.48-9.169-20.48-20.48s9.169-20.48 20.48-20.48h450.56c11.311 0 20.48 9.169 20.48 20.48s-9.169 20.48-20.48 20.48zM1003.52 99.84h-942.080c-11.311 0-20.48-9.169-20.48-20.48s9.169-20.48 20.48-20.48h942.080c11.311 0 20.48 9.169 20.48 20.48s-9.169 20.48-20.48 20.48zM169.841 351.601c3.729-3.857 8.95-6.252 14.731-6.252 11.311 0 20.48 9.169 20.48 20.48 0 5.781-2.395 11.002-6.247 14.725l-87.926 87.926h298.721c11.311 0 20.48 9.169 20.48 20.48s-9.169 20.48-20.48 20.48h-298.721l87.921 87.921c3.557 3.679 5.749 8.697 5.749 14.228 0 11.311-9.169 20.48-20.48 20.48-5.53 0-10.549-2.192-14.233-5.755l-122.874-122.874c-3.705-3.706-5.996-8.825-5.996-14.479s2.291-10.773 5.996-14.479z" />
<glyph unicode="&#xe911;" glyph-name="indent-right" d="M61.44 878.080h942.080c11.311 0 20.48 9.169 20.48 20.48s-9.169 20.48-20.48 20.48h-942.080c-11.311 0-20.48-9.169-20.48-20.48s9.169-20.48 20.48-20.48zM61.44 673.28h450.56c11.311 0 20.48 9.169 20.48 20.48s-9.169 20.48-20.48 20.48h-450.56c-11.311 0-20.48-9.169-20.48-20.48s9.169-20.48 20.48-20.48zM61.44 468.48h450.56c11.311 0 20.48 9.169 20.48 20.48s-9.169 20.48-20.48 20.48h-450.56c-11.311 0-20.48-9.169-20.48-20.48s9.169-20.48 20.48-20.48zM61.44 263.68h450.56c11.311 0 20.48 9.169 20.48 20.48s-9.169 20.48-20.48 20.48h-450.56c-11.311 0-20.48-9.169-20.48-20.48s9.169-20.48 20.48-20.48zM1003.52 99.84h-942.080c-11.311 0-20.48-9.169-20.48-20.48s9.169-20.48 20.48-20.48h942.080c11.311 0 20.48 9.169 20.48 20.48s-9.169 20.48-20.48 20.48zM895.119 626.319c-3.679 3.557-8.697 5.749-14.228 5.749-11.311 0-20.48-9.169-20.48-20.48 0-5.53 2.192-10.549 5.755-14.233l87.915-87.915h-298.721c-11.311 0-20.48-9.169-20.48-20.48s9.169-20.48 20.48-20.48h298.721l-87.921-87.921c-3.557-3.679-5.749-8.697-5.749-14.228 0-11.311 9.169-20.48 20.48-20.48 5.53 0 10.549 2.192 14.233 5.755l122.874 122.874c3.705 3.706 5.996 8.825 5.996 14.479s-2.291 10.773-5.996 14.479z" />
<glyph unicode="&#xe912;" glyph-name="justify-center" d="M102.4 837.12h860.16c11.311 0 20.48 9.169 20.48 20.48s-9.169 20.48-20.48 20.48h-860.16c-11.311 0-20.48-9.169-20.48-20.48s9.169-20.48 20.48-20.48zM962.56 673.28h-860.16c-11.311 0-20.48-9.169-20.48-20.48s9.169-20.48 20.48-20.48h860.16c11.311 0 20.48 9.169 20.48 20.48s-9.169 20.48-20.48 20.48zM962.56 468.48h-860.16c-11.311 0-20.48-9.169-20.48-20.48s9.169-20.48 20.48-20.48h860.16c11.311 0 20.48 9.169 20.48 20.48s-9.169 20.48-20.48 20.48zM962.56 263.68h-860.16c-11.311 0-20.48-9.169-20.48-20.48s9.169-20.48 20.48-20.48h860.16c11.311 0 20.48 9.169 20.48 20.48s-9.169 20.48-20.48 20.48zM757.76 58.88h-450.56c-11.311 0-20.48-9.169-20.48-20.48s9.169-20.48 20.48-20.48h450.56c11.311 0 20.48 9.169 20.48 20.48s-9.169 20.48-20.48 20.48z" />
<glyph unicode="&#xe913;" glyph-name="justify-left" d="M102.4 837.12h860.16c11.311 0 20.48 9.169 20.48 20.48s-9.169 20.48-20.48 20.48h-860.16c-11.311 0-20.48-9.169-20.48-20.48s9.169-20.48 20.48-20.48zM962.56 673.28h-860.16c-11.311 0-20.48-9.169-20.48-20.48s9.169-20.48 20.48-20.48h860.16c11.311 0 20.48 9.169 20.48 20.48s-9.169 20.48-20.48 20.48zM962.56 468.48h-860.16c-11.311 0-20.48-9.169-20.48-20.48s9.169-20.48 20.48-20.48h860.16c11.311 0 20.48 9.169 20.48 20.48s-9.169 20.48-20.48 20.48zM962.56 263.68h-860.16c-11.311 0-20.48-9.169-20.48-20.48s9.169-20.48 20.48-20.48h860.16c11.311 0 20.48 9.169 20.48 20.48s-9.169 20.48-20.48 20.48zM552.96 58.88h-450.56c-11.311 0-20.48-9.169-20.48-20.48s9.169-20.48 20.48-20.48h450.56c11.311 0 20.48 9.169 20.48 20.48s-9.169 20.48-20.48 20.48z" />
<glyph unicode="&#xe914;" glyph-name="justify-right" d="M20.48 837.12h860.16c11.311 0 20.48 9.169 20.48 20.48s-9.169 20.48-20.48 20.48h-860.16c-11.311 0-20.48-9.169-20.48-20.48s9.169-20.48 20.48-20.48zM880.64 673.28h-860.16c-11.311 0-20.48-9.169-20.48-20.48s9.169-20.48 20.48-20.48h860.16c11.311 0 20.48 9.169 20.48 20.48s-9.169 20.48-20.48 20.48zM880.64 468.48h-860.16c-11.311 0-20.48-9.169-20.48-20.48s9.169-20.48 20.48-20.48h860.16c11.311 0 20.48 9.169 20.48 20.48s-9.169 20.48-20.48 20.48zM880.64 263.68h-860.16c-11.311 0-20.48-9.169-20.48-20.48s9.169-20.48 20.48-20.48h860.16c11.311 0 20.48 9.169 20.48 20.48s-9.169 20.48-20.48 20.48zM880.64 58.88h-450.56c-11.311 0-20.48-9.169-20.48-20.48s9.169-20.48 20.48-20.48h450.56c11.311 0 20.48 9.169 20.48 20.48s-9.169 20.48-20.48 20.48z" />
<glyph unicode="&#xe915;" glyph-name="keyboard-appear" d="M962.56 960h-901.12c-33.932 0-61.44-27.508-61.44-61.44v-614.4c0-33.932 27.508-61.44 61.44-61.44h901.12c33.932 0 61.44 27.508 61.44 61.44v614.4c0 33.932-27.508 61.44-61.44 61.44zM983.040 284.16c0-11.311-9.169-20.48-20.48-20.48h-901.12c-11.311 0-20.48 9.169-20.48 20.48v614.4c0 11.311 9.169 20.48 20.48 20.48h901.12c11.311 0 20.48-9.169 20.48-20.48zM675.84 427.52h-327.68c-11.311 0-20.48-9.169-20.48-20.48s9.169-20.48 20.48-20.48h327.68c11.311 0 20.48 9.169 20.48 20.48s-9.169 20.48-20.48 20.48zM225.28 427.52h-40.96c-11.311 0-20.48-9.169-20.48-20.48s9.169-20.48 20.48-20.48h40.96c11.311 0 20.48 9.169 20.48 20.48s-9.169 20.48-20.48 20.48zM225.28 550.4h-40.96c-11.311 0-20.48-9.169-20.48-20.48s9.169-20.48 20.48-20.48h40.96c11.311 0 20.48 9.169 20.48 20.48s-9.169 20.48-20.48 20.48zM389.12 509.44h40.96c11.311 0 20.48 9.169 20.48 20.48s-9.169 20.48-20.48 20.48h-40.96c-11.311 0-20.48-9.169-20.48-20.48s9.169-20.48 20.48-20.48zM593.92 509.44h40.96c11.311 0 20.48 9.169 20.48 20.48s-9.169 20.48-20.48 20.48h-40.96c-11.311 0-20.48-9.169-20.48-20.48s9.169-20.48 20.48-20.48zM839.68 550.4h-40.96c-11.311 0-20.48-9.169-20.48-20.48s9.169-20.48 20.48-20.48h40.96c11.311 0 20.48 9.169 20.48 20.48s-9.169 20.48-20.48 20.48zM225.28 673.28h-40.96c-11.311 0-20.48-9.169-20.48-20.48s9.169-20.48 20.48-20.48h40.96c11.311 0 20.48 9.169 20.48 20.48s-9.169 20.48-20.48 20.48zM389.12 632.32h40.96c11.311 0 20.48 9.169 20.48 20.48s-9.169 20.48-20.48 20.48h-40.96c-11.311 0-20.48-9.169-20.48-20.48s9.169-20.48 20.48-20.48zM593.92 632.32h40.96c11.311 0 20.48 9.169 20.48 20.48s-9.169 20.48-20.48 20.48h-40.96c-11.311 0-20.48-9.169-20.48-20.48s9.169-20.48 20.48-20.48zM839.68 673.28h-40.96c-11.311 0-20.48-9.169-20.48-20.48s9.169-20.48 20.48-20.48h40.96c11.311 0 20.48 9.169 20.48 20.48s-9.169 20.48-20.48 20.48zM225.28 796.16h-40.96c-11.311 0-20.48-9.169-20.48-20.48s9.169-20.48 20.48-20.48h40.96c11.311 0 20.48 9.169 20.48 20.48s-9.169 20.48-20.48 20.48zM389.12 755.2h40.96c11.311 0 20.48 9.169 20.48 20.48s-9.169 20.48-20.48 20.48h-40.96c-11.311 0-20.48-9.169-20.48-20.48s9.169-20.48 20.48-20.48zM593.92 755.2h40.96c11.311 0 20.48 9.169 20.48 20.48s-9.169 20.48-20.48 20.48h-40.96c-11.311 0-20.48-9.169-20.48-20.48s9.169-20.48 20.48-20.48zM839.68 796.16h-40.96c-11.311 0-20.48-9.169-20.48-20.48s9.169-20.48 20.48-20.48h40.96c11.311 0 20.48 9.169 20.48 20.48s-9.169 20.48-20.48 20.48zM839.68 427.52h-40.96c-11.311 0-20.48-9.169-20.48-20.48s9.169-20.48 20.48-20.48h40.96c11.311 0 20.48 9.169 20.48 20.48s-9.169 20.48-20.48 20.48zM526.479 134.799c-3.706 3.705-8.825 5.996-14.479 5.996s-10.773-2.291-14.479-5.996l-122.88-122.88c-3.557-3.679-5.749-8.697-5.749-14.228 0-11.311 9.169-20.48 20.48-20.48 5.53 0 10.549 2.192 14.233 5.755l108.395 108.395 108.401-108.401c3.679-3.557 8.697-5.749 14.228-5.749 11.311 0 20.48 9.169 20.48 20.48 0 5.53-2.192 10.549-5.755 14.233z" />
<glyph unicode="&#xe916;" glyph-name="keyboard-down" d="M962.56 960h-901.12c-33.932 0-61.44-27.508-61.44-61.44v-614.4c0-33.932 27.508-61.44 61.44-61.44h901.12c33.932 0 61.44 27.508 61.44 61.44v614.4c0 33.932-27.508 61.44-61.44 61.44zM983.040 284.16c0-11.311-9.169-20.48-20.48-20.48h-901.12c-11.311 0-20.48 9.169-20.48 20.48v614.4c0 11.311 9.169 20.48 20.48 20.48h901.12c11.311 0 20.48-9.169 20.48-20.48zM675.84 427.52h-327.68c-11.311 0-20.48-9.169-20.48-20.48s9.169-20.48 20.48-20.48h327.68c11.311 0 20.48 9.169 20.48 20.48s-9.169 20.48-20.48 20.48zM225.28 427.52h-40.96c-11.311 0-20.48-9.169-20.48-20.48s9.169-20.48 20.48-20.48h40.96c11.311 0 20.48 9.169 20.48 20.48s-9.169 20.48-20.48 20.48zM225.28 550.4h-40.96c-11.311 0-20.48-9.169-20.48-20.48s9.169-20.48 20.48-20.48h40.96c11.311 0 20.48 9.169 20.48 20.48s-9.169 20.48-20.48 20.48zM389.12 509.44h40.96c11.311 0 20.48 9.169 20.48 20.48s-9.169 20.48-20.48 20.48h-40.96c-11.311 0-20.48-9.169-20.48-20.48s9.169-20.48 20.48-20.48zM593.92 509.44h40.96c11.311 0 20.48 9.169 20.48 20.48s-9.169 20.48-20.48 20.48h-40.96c-11.311 0-20.48-9.169-20.48-20.48s9.169-20.48 20.48-20.48zM839.68 550.4h-40.96c-11.311 0-20.48-9.169-20.48-20.48s9.169-20.48 20.48-20.48h40.96c11.311 0 20.48 9.169 20.48 20.48s-9.169 20.48-20.48 20.48zM225.28 673.28h-40.96c-11.311 0-20.48-9.169-20.48-20.48s9.169-20.48 20.48-20.48h40.96c11.311 0 20.48 9.169 20.48 20.48s-9.169 20.48-20.48 20.48zM389.12 632.32h40.96c11.311 0 20.48 9.169 20.48 20.48s-9.169 20.48-20.48 20.48h-40.96c-11.311 0-20.48-9.169-20.48-20.48s9.169-20.48 20.48-20.48zM593.92 632.32h40.96c11.311 0 20.48 9.169 20.48 20.48s-9.169 20.48-20.48 20.48h-40.96c-11.311 0-20.48-9.169-20.48-20.48s9.169-20.48 20.48-20.48zM839.68 673.28h-40.96c-11.311 0-20.48-9.169-20.48-20.48s9.169-20.48 20.48-20.48h40.96c11.311 0 20.48 9.169 20.48 20.48s-9.169 20.48-20.48 20.48zM225.28 796.16h-40.96c-11.311 0-20.48-9.169-20.48-20.48s9.169-20.48 20.48-20.48h40.96c11.311 0 20.48 9.169 20.48 20.48s-9.169 20.48-20.48 20.48zM389.12 755.2h40.96c11.311 0 20.48 9.169 20.48 20.48s-9.169 20.48-20.48 20.48h-40.96c-11.311 0-20.48-9.169-20.48-20.48s9.169-20.48 20.48-20.48zM593.92 755.2h40.96c11.311 0 20.48 9.169 20.48 20.48s-9.169 20.48-20.48 20.48h-40.96c-11.311 0-20.48-9.169-20.48-20.48s9.169-20.48 20.48-20.48zM839.68 796.16h-40.96c-11.311 0-20.48-9.169-20.48-20.48s9.169-20.48 20.48-20.48h40.96c11.311 0 20.48 9.169 20.48 20.48s-9.169 20.48-20.48 20.48zM839.68 427.52h-40.96c-11.311 0-20.48-9.169-20.48-20.48s9.169-20.48 20.48-20.48h40.96c11.311 0 20.48 9.169 20.48 20.48s-9.169 20.48-20.48 20.48zM620.401 134.799l-108.401-108.401-108.401 108.401c-3.679 3.557-8.697 5.749-14.228 5.749-11.311 0-20.48-9.169-20.48-20.48 0-5.53 2.192-10.549 5.755-14.233l122.874-122.874c3.706-3.705 8.825-5.996 14.479-5.996s10.773 2.291 14.479 5.996l122.88 122.88c3.557 3.679 5.749 8.697 5.749 14.228 0 11.311-9.169 20.48-20.48 20.48-5.53 0-10.549-2.192-14.233-5.755z" />
<glyph unicode="&#xe917;" glyph-name="media-player-page" d="M962.56 755.2h-225.28v102.4c0 33.932-27.508 61.44-61.44 61.44h-532.48c-33.932 0-61.44-27.508-61.44-61.44v-778.24c0-56.554 45.846-102.4 102.4-102.4h552.96c45.243 0 81.92 36.677 81.92 81.92v102.4c0 11.311-9.169 20.48-20.48 20.48h-61.44v122.88h225.28c33.932 0 61.44 27.508 61.44 61.44v327.68c0 33.932-27.508 61.44-61.44 61.44zM778.24 140.8v-81.92c-0.023-22.612-18.348-40.937-40.958-40.96h-471.501c13.002 16.832 20.866 38.211 20.939 61.423v61.457zM696.32 181.76h-430.080c-11.311 0-20.48-9.169-20.48-20.48v-81.92c0-33.932-27.508-61.44-61.44-61.44s-61.44 27.508-61.44 61.44v778.24c0 11.311 9.169 20.48 20.48 20.48h532.48c11.311 0 20.48-9.169 20.48-20.48v-102.4h-225.28c-33.932 0-61.44-27.508-61.44-61.44v-327.68c0-33.932 27.508-61.44 61.44-61.44h225.28zM983.040 366.080c0-11.311-9.169-20.48-20.48-20.48h-491.52c-11.311 0-20.48 9.169-20.48 20.48v327.68c0 11.311 9.169 20.48 20.48 20.48h491.52c11.311 0 20.48-9.169 20.48-20.48zM655.36 427.52l163.84 122.88-163.84 81.92v-204.8z" />
<glyph unicode="&#xe918;" glyph-name="page-blank" d="M1003.52 140.8h-61.44v757.76c0 33.932-27.508 61.44-61.44 61.44h-655.36c-33.932 0-61.44-27.508-61.44-61.44v-860.16c0-56.554 45.846-102.4 102.4-102.4h675.84c45.243 0 81.92 36.677 81.92 81.92v102.4c0 11.311-9.169 20.48-20.48 20.48zM327.68 120.32v-81.92c0-33.932-27.508-61.44-61.44-61.44s-61.44 27.508-61.44 61.44v860.16c0 11.311 9.169 20.48 20.48 20.48h655.36c11.311 0 20.48-9.169 20.48-20.48v-757.76h-552.96c-11.311 0-20.48-9.169-20.48-20.48zM983.040 17.92c-0.016-22.615-18.345-40.944-40.958-40.96h-594.38c13.005 16.831 20.869 38.21 20.939 61.424v61.456h614.4z" />
<glyph unicode="&#xe919;" glyph-name="page-block" d="M552.96 304.64c101.797 0 184.32 82.523 184.32 184.32s-82.523 184.32-184.32 184.32c-101.797 0-184.32-82.523-184.32-184.32s82.523-184.32 184.32-184.32zM696.32 488.96c-0.107-32.282-10.969-62.006-29.188-85.799l-199.635 200.225c23.456 17.964 53.181 28.824 85.438 28.934 79.162-0.095 143.29-64.223 143.385-143.351zM438.538 574.398l199.885-199.885c-23.457-17.958-53.183-28.811-85.439-28.914-79.161 0.095-143.288 64.223-143.384 143.351 0.112 32.284 10.973 62.001 29.189 85.788zM1003.52 140.8h-61.44v757.76c0 33.932-27.508 61.44-61.44 61.44h-655.36c-33.932 0-61.44-27.508-61.44-61.44v-860.16c0-56.554 45.846-102.4 102.4-102.4h675.84c45.243 0 81.92 36.677 81.92 81.92v102.4c0 11.311-9.169 20.48-20.48 20.48zM327.68 120.32v-81.92c0-33.932-27.508-61.44-61.44-61.44s-61.44 27.508-61.44 61.44v860.16c0 11.311 9.169 20.48 20.48 20.48h655.36c11.311 0 20.48-9.169 20.48-20.48v-757.76h-552.96c-11.311 0-20.48-9.169-20.48-20.48zM983.040 17.92c-0.016-22.615-18.345-40.944-40.958-40.96h-594.38c13.005 16.831 20.869 38.21 20.939 61.424v61.456h614.4z" />
<glyph unicode="&#xe91a;" glyph-name="page-cross" d="M415.597 351.58c3.706-3.705 8.825-5.996 14.479-5.996s10.773 2.291 14.479 5.996l108.405 108.401 108.401-108.401c3.679-3.557 8.697-5.749 14.228-5.749 11.311 0 20.48 9.169 20.48 20.48 0 5.53-2.192 10.549-5.755 14.233l-108.399 108.415 108.401 108.38c3.557 3.679 5.749 8.697 5.749 14.228 0 11.311-9.169 20.48-20.48 20.48-5.53 0-10.549-2.192-14.233-5.755l-108.391-108.395-108.405 108.401c-3.679 3.557-8.697 5.749-14.228 5.749-11.311 0-20.48-9.169-20.48-20.48 0-5.53 2.192-10.549 5.755-14.233l108.391-108.374-108.397-108.421c-3.705-3.706-5.996-8.825-5.996-14.479s2.291-10.773 5.996-14.479zM1003.52 140.8h-61.44v757.76c0 33.932-27.508 61.44-61.44 61.44h-655.36c-33.932 0-61.44-27.508-61.44-61.44v-860.16c0-56.554 45.846-102.4 102.4-102.4h675.84c45.243 0 81.92 36.677 81.92 81.92v102.4c0 11.311-9.169 20.48-20.48 20.48zM327.68 120.32v-81.92c0-33.932-27.508-61.44-61.44-61.44s-61.44 27.508-61.44 61.44v860.16c0 11.311 9.169 20.48 20.48 20.48h655.36c11.311 0 20.48-9.169 20.48-20.48v-757.76h-552.96c-11.311 0-20.48-9.169-20.48-20.48zM983.040 17.92c-0.023-22.612-18.348-40.937-40.958-40.96h-594.381c13.002 16.832 20.866 38.211 20.939 61.423v61.457h614.4z" />
<glyph unicode="&#xe91b;" glyph-name="page-lock" d="M368.64 345.6h204.8c22.622 0 40.96 18.338 40.96 40.96v122.88c0 22.622-18.338 40.96-40.96 40.96v61.44c0 56.554-45.846 102.4-102.4 102.4s-102.4-45.846-102.4-102.4v-61.44c-22.622 0-40.96-18.338-40.96-40.96v-122.88c0-22.622 18.338-40.96 40.96-40.96zM409.6 611.84c0 33.932 27.508 61.44 61.44 61.44s61.44-27.508 61.44-61.44v-61.44h-122.88zM368.64 509.44h204.8v-122.88h-204.8zM921.6 140.8h-61.44v757.76c0 33.932-27.508 61.44-61.44 61.44h-655.36c-33.932 0-61.44-27.508-61.44-61.44v-860.16c0-56.554 45.846-102.4 102.4-102.4h675.84c45.243 0 81.92 36.677 81.92 81.92v102.4c0 11.311-9.169 20.48-20.48 20.48zM245.76 120.32v-81.92c0-33.932-27.508-61.44-61.44-61.44s-61.44 27.508-61.44 61.44v860.16c0 11.311 9.169 20.48 20.48 20.48h655.36c11.311 0 20.48-9.169 20.48-20.48v-757.76h-552.96c-11.311 0-20.48-9.169-20.48-20.48zM901.12 17.92c-0.016-22.615-18.345-40.944-40.958-40.96h-594.38c13.005 16.831 20.869 38.21 20.939 61.424v61.456h614.4z" />
<glyph unicode="&#xe91c;" glyph-name="page-minus" d="M430.080 468.48h245.76c11.311 0 20.48 9.169 20.48 20.48s-9.169 20.48-20.48 20.48h-245.76c-11.311 0-20.48-9.169-20.48-20.48s9.169-20.48 20.48-20.48zM1003.52 140.8h-61.44v757.76c0 33.932-27.508 61.44-61.44 61.44h-655.36c-33.932 0-61.44-27.508-61.44-61.44v-860.16c0-56.554 45.846-102.4 102.4-102.4h675.84c45.243 0 81.92 36.677 81.92 81.92v102.4c0 11.311-9.169 20.48-20.48 20.48zM327.68 120.32v-81.92c0-33.932-27.508-61.44-61.44-61.44s-61.44 27.508-61.44 61.44v860.16c0 11.311 9.169 20.48 20.48 20.48h655.36c11.311 0 20.48-9.169 20.48-20.48v-757.76h-552.96c-11.311 0-20.48-9.169-20.48-20.48zM983.040 17.92c-0.016-22.615-18.345-40.944-40.958-40.96h-594.38c13.005 16.831 20.869 38.21 20.939 61.424v61.456h614.4z" />
<glyph unicode="&#xe91d;" glyph-name="page-plus" d="M430.080 468.48h102.4v-102.4c0-11.311 9.169-20.48 20.48-20.48s20.48 9.169 20.48 20.48v102.4h102.4c11.311 0 20.48 9.169 20.48 20.48s-9.169 20.48-20.48 20.48h-102.4v102.4c0 11.311-9.169 20.48-20.48 20.48s-20.48-9.169-20.48-20.48v-102.4h-102.4c-11.311 0-20.48-9.169-20.48-20.48s9.169-20.48 20.48-20.48zM1003.52 140.8h-61.44v757.76c0 33.932-27.508 61.44-61.44 61.44h-655.36c-33.932 0-61.44-27.508-61.44-61.44v-860.16c0-56.554 45.846-102.4 102.4-102.4h675.84c45.243 0 81.92 36.677 81.92 81.92v102.4c0 11.311-9.169 20.48-20.48 20.48zM327.68 120.32v-81.92c0-33.932-27.508-61.44-61.44-61.44s-61.44 27.508-61.44 61.44v860.16c0 11.311 9.169 20.48 20.48 20.48h655.36c11.311 0 20.48-9.169 20.48-20.48v-757.76h-552.96c-11.311 0-20.48-9.169-20.48-20.48zM983.040 17.92c-0.016-22.615-18.345-40.944-40.958-40.96h-594.38c13.005 16.831 20.869 38.21 20.939 61.424v61.456h614.4z" />
<glyph unicode="&#xe91e;" glyph-name="page-tick" d="M498.893 350.339c3.524-2.952 8.107-4.745 13.109-4.745 5.66 0 10.783 2.296 14.49 6.007l204.8 204.8c3.557 3.679 5.749 8.697 5.749 14.228 0 11.311-9.169 20.48-20.48 20.48-5.53 0-10.549-2.192-14.233-5.755l-191.572-191.573-108.528 90.44c-3.527 2.955-8.114 4.75-13.119 4.75-11.317 0-20.491-9.174-20.491-20.491 0-6.311 2.853-11.956 7.34-15.715zM1003.52 140.8h-61.44v757.76c0 33.932-27.508 61.44-61.44 61.44h-655.36c-33.932 0-61.44-27.508-61.44-61.44v-860.16c0-56.554 45.846-102.4 102.4-102.4h675.84c45.243 0 81.92 36.677 81.92 81.92v102.4c0 11.311-9.169 20.48-20.48 20.48zM327.68 120.32v-81.92c0-33.932-27.508-61.44-61.44-61.44s-61.44 27.508-61.44 61.44v860.16c0 11.311 9.169 20.48 20.48 20.48h655.36c11.311 0 20.48-9.169 20.48-20.48v-757.76h-552.96c-11.311 0-20.48-9.169-20.48-20.48zM983.040 17.92c-0.016-22.615-18.345-40.944-40.958-40.96h-594.38c13.005 16.831 20.869 38.21 20.939 61.424v61.456h614.4z" />
<glyph unicode="&#xe91f;" glyph-name="pen-add" d="M163.84 611.84c0-11.311 9.169-20.48 20.48-20.48s20.48 9.169 20.48 20.48v143.36h143.36c11.311 0 20.48 9.169 20.48 20.48s-9.169 20.48-20.48 20.48h-143.36v143.36c0 11.311-9.169 20.48-20.48 20.48s-20.48-9.169-20.48-20.48v-143.36h-143.36c-11.311 0-20.48-9.169-20.48-20.48s9.169-20.48 20.48-20.48h143.36zM1006.031 662.36l-115.851 115.839c-11.125 11.103-26.483 17.97-43.444 17.97s-32.319-6.866-43.445-17.971l-621.469-621.477c-11.108-11.048-17.982-26.342-17.982-43.242 0-0.070 0-0.14 0-0.211v-136.308c0.016-22.615 18.345-40.944 40.958-40.96h136.32c0.043 0 0.095 0 0.147 0 16.919 0 32.231 6.882 43.289 17.999l621.476 621.46c11.104 11.127 17.971 26.487 17.971 43.45s-6.866 32.323-17.972 43.451zM977.072 604.418l-621.474-621.457c-3.711-3.697-8.827-5.987-14.477-6.001h-136.322v136.319c0.020 5.65 2.303 10.762 5.99 14.481l549.039 549.059 144.818-144.818 28.959 28.959-144.81 144.822 43.454 43.459c3.709 3.703 8.83 5.992 14.486 5.992s10.776-2.29 14.486-5.993l115.851-115.859c3.699-3.709 5.986-8.827 5.986-14.479 0-5.654-2.289-10.774-5.991-14.484z" />
<glyph unicode="&#xe920;" glyph-name="pen-cross" d="M333.681 597.361c3.679-3.557 8.697-5.749 14.228-5.749 11.311 0 20.48 9.169 20.48 20.48 0 5.53-2.192 10.549-5.755 14.233l-108.395 108.395 108.401 108.401c3.557 3.679 5.749 8.697 5.749 14.228 0 11.311-9.169 20.48-20.48 20.48-5.53 0-10.549-2.192-14.233-5.755l-108.395-108.395-108.401 108.401c-3.679 3.557-8.697 5.749-14.228 5.749-11.311 0-20.48-9.169-20.48-20.48 0-5.53 2.192-10.549 5.755-14.233l108.395-108.395-108.401-108.401c-3.857-3.729-6.252-8.95-6.252-14.731 0-11.311 9.169-20.48 20.48-20.48 5.781 0 11.002 2.395 14.725 6.247l108.406 108.406zM1006.031 662.36l-115.851 115.839c-11.125 11.103-26.483 17.97-43.444 17.97s-32.319-6.866-43.445-17.971l-621.469-621.477c-11.108-11.048-17.982-26.342-17.982-43.242 0-0.070 0-0.14 0-0.211v-136.308c0.016-22.615 18.345-40.944 40.958-40.96h136.32c0.043 0 0.095 0 0.147 0 16.919 0 32.231 6.882 43.289 17.999l621.476 621.46c11.104 11.127 17.971 26.487 17.971 43.45s-6.866 32.323-17.972 43.451zM977.072 604.418l-621.474-621.457c-3.711-3.697-8.827-5.987-14.477-6.001h-136.322v136.319c0.020 5.65 2.303 10.762 5.99 14.481l549.039 549.059 144.818-144.818 28.959 28.959-144.81 144.822 43.454 43.459c3.709 3.703 8.83 5.992 14.486 5.992s10.776-2.29 14.486-5.993l115.851-115.859c3.699-3.709 5.986-8.827 5.986-14.479 0-5.654-2.289-10.774-5.991-14.484z" />
<glyph unicode="&#xe921;" glyph-name="pen-minus" d="M368.64 775.68c0 11.311-9.169 20.48-20.48 20.48h-327.68c-11.311 0-20.48-9.169-20.48-20.48s9.169-20.48 20.48-20.48h327.68c11.311 0 20.48 9.169 20.48 20.48zM1006.031 662.352l-115.851 115.839c-11.125 11.103-26.483 17.97-43.444 17.97s-32.319-6.866-43.445-17.971l-621.469-621.481c-11.108-11.048-17.982-26.342-17.982-43.242 0-0.069 0-0.138 0-0.206v-136.3c0.016-22.615 18.345-40.944 40.958-40.96h136.32c0.043 0 0.095 0 0.147 0 16.919 0 32.231 6.882 43.289 17.999l621.476 621.452c11.104 11.127 17.971 26.487 17.971 43.45s-6.866 32.323-17.972 43.451zM977.072 604.41l-621.474-621.462c-3.713-3.692-8.828-5.978-14.477-5.988h-136.321v136.311c0.020 5.65 2.303 10.762 5.99 14.481l549.039 549.059 144.818-144.818 28.959 28.959-144.81 144.818 43.454 43.459c3.709 3.703 8.83 5.992 14.486 5.992s10.776-2.29 14.486-5.993l115.851-115.859c3.698-3.708 5.984-8.826 5.984-14.477 0-5.653-2.288-10.773-5.989-14.482z" />
<glyph unicode="&#xe922;" glyph-name="pen-tick" d="M198.799 591.36c0.004 0 0.008 0 0.013 0 5.871 0 11.165 2.471 14.9 6.429l231.29 245.77c3.448 3.658 5.567 8.601 5.567 14.039 0 11.314-9.172 20.486-20.486 20.486-5.876 0-11.174-2.474-14.91-6.437l-217.552-231.168-122.462 110.461c-3.583 3.147-8.31 5.068-13.487 5.068-11.311 0-20.48-9.169-20.48-20.48 0-5.912 2.505-11.239 6.511-14.977l137.375-123.911c3.603-3.275 8.412-5.28 13.689-5.28 0.011 0 0.023 0 0.034 0zM1006.031 662.36l-115.851 115.839c-11.125 11.103-26.483 17.97-43.444 17.97s-32.319-6.866-43.445-17.971l-621.473-621.477c-11.105-11.048-17.978-26.34-17.978-43.238 0-0.072 0-0.143 0-0.215v-136.308c0.016-22.615 18.345-40.944 40.958-40.96h136.32c0.043 0 0.095 0 0.147 0 16.919 0 32.231 6.882 43.289 17.999l621.476 621.46c11.104 11.127 17.971 26.487 17.971 43.45s-6.866 32.323-17.972 43.451zM977.072 604.418l-621.474-621.457c-3.711-3.697-8.827-5.987-14.477-6.001h-136.322v136.319c0.020 5.65 2.303 10.762 5.99 14.481l549.039 549.059 144.818-144.818 28.959 28.959-144.81 144.822 43.454 43.459c3.709 3.703 8.83 5.992 14.486 5.992s10.776-2.29 14.486-5.993l115.851-115.859c3.699-3.709 5.986-8.827 5.986-14.479 0-5.654-2.289-10.774-5.991-14.484z" />
<glyph unicode="&#xe923;" glyph-name="pen-writing" d="M883.163 662.34l-115.851 115.859c-11.125 11.103-26.483 17.97-43.444 17.97s-32.319-6.866-43.445-17.971l-621.473-621.477c-11.113-11.061-17.99-26.369-17.99-43.283 0-0.056 0-0.112 0-0.168v-136.31c0.014-22.616 18.344-40.946 40.959-40.96h136.324c0.055 0 0.12 0 0.185 0 16.906 0 32.206 6.874 43.259 17.979l621.476 621.48c11.102 11.124 17.967 26.48 17.967 43.44s-6.865 32.316-17.968 43.441zM232.727-17.060c-3.724-3.676-8.835-5.954-14.478-5.98h-136.328v136.319c0.027 5.65 2.312 10.761 5.998 14.481l549.043 549.039 144.814-144.802zM854.196 604.418l-43.459-43.459-144.814 144.822 43.459 43.459c3.712 3.694 8.83 5.978 14.481 5.978s10.77-2.284 14.482-5.979l115.85-115.859c3.706-3.706 5.998-8.826 5.998-14.481s-2.292-10.775-5.998-14.481zM798.72-23.040h-409.6c-11.311 0-20.48-9.169-20.48-20.48s9.169-20.48 20.48-20.48h409.6c11.311 0 20.48 9.169 20.48 20.48s-9.169 20.48-20.48 20.48z" />
<glyph unicode="&#xe924;" glyph-name="pen" d="M1006.031 662.36l-115.851 115.839c-11.125 11.103-26.483 17.97-43.444 17.97s-32.319-6.866-43.445-17.971l-621.469-621.477c-11.108-11.048-17.982-26.342-17.982-43.242 0-0.070 0-0.14 0-0.211v-136.308c0.016-22.615 18.345-40.944 40.958-40.96h136.316c0.046 0 0.1 0 0.155 0 16.919 0 32.231 6.882 43.289 17.999l621.472 621.46c11.104 11.127 17.971 26.487 17.971 43.45s-6.866 32.323-17.972 43.451zM355.598-17.039c-3.713-3.697-8.829-5.987-14.481-6.001h-136.317v136.319c0.025 5.65 2.31 10.762 5.998 14.481l549.031 549.059 144.818-144.818zM977.068 604.418l-43.459-43.459-144.818 144.822 43.459 43.459c3.706 3.707 8.827 6 14.483 6s10.777-2.293 14.483-6l115.855-115.86c3.699-3.709 5.986-8.827 5.986-14.479 0-5.654-2.289-10.774-5.991-14.484z" />
<glyph unicode="&#xe925;" glyph-name="pencil-writing" d="M798.72-23.040h-409.6c-11.311 0-20.48-9.169-20.48-20.48s9.169-20.48 20.48-20.48h409.6c11.311 0 20.48 9.169 20.48 20.48s-9.169 20.48-20.48 20.48zM883.917 668.099l-110.85 110.858c-10.644 10.631-25.341 17.206-41.574 17.206s-30.931-6.575-41.575-17.206l-631.754-631.738c-10.595-10.668-17.158-25.352-17.203-41.57v-130.45c0.040-21.63 17.561-39.155 39.186-39.199h130.462c16.226 0.042 30.91 6.605 41.577 17.206l631.731 631.752c10.623 10.646 17.192 25.341 17.192 41.57s-6.569 30.924-17.193 41.571zM276.976 33.44l-27.759 83.259 482.222 482.222 55.509-55.501zM221.27 144.2l-84.656 26.038 511.758 511.762 55.349-55.362zM210.62-24.801h-84.787l3.543 49.361-49.205-3.662v84.742c0.008 5.41 2.197 10.308 5.735 13.862l19.377 19.377 106.127-32.662 34.591-103.78-21.516-21.52c-3.564-3.526-8.465-5.708-13.875-5.718zM856.211 612.68l-41.546-41.558-138.58 138.58 41.533 41.558c3.554 3.532 8.451 5.715 13.859 5.715s10.305-2.183 13.86-5.716l110.857-110.857c3.538-3.555 5.725-8.456 5.725-13.869 0-5.405-2.181-10.3-5.71-13.854z" />
<glyph unicode="&#xe926;" glyph-name="reading-list" d="M1024 509.44c0 0.013 0 0.029 0 0.044 0 3.871-1.086 7.488-2.971 10.562l-245.71 429.992c-3.7 5.696-10.032 9.41-17.23 9.41-11.311 0-20.48-9.169-20.48-20.48 0-3.662 0.961-7.099 2.644-10.073l234.336-410.321c-37.595 44.629-93.511 72.788-156.004 72.788-83.259 0-154.843-49.982-186.385-121.578l-198.943-1.304c-32.056 72.896-103.638 122.876-186.894 122.876-62.488 0-118.4-28.155-155.742-72.471l234.129 410.129c2.018 3.118 3.217 6.928 3.217 11.019 0 11.311-9.169 20.48-20.48 20.48-7.629 0-14.283-4.171-17.807-10.357l-245.813-430.181c-1.827-2.982-2.908-6.592-2.908-10.454 0-0.028 0-0.057 0-0.085v-122.876c0.025-113.089 91.708-204.756 204.8-204.756 113.108 0 204.8 91.692 204.8 204.8 0 14.483-1.503 28.615-4.363 42.249l172.344-1.333c-2.633-12.318-4.141-26.471-4.141-40.976 0-113.108 91.692-204.8 204.8-204.8 113.105 0 204.795 91.687 204.8 204.791v122.905zM245.76 222.72c-90.486 0-163.84 73.354-163.84 163.84s73.354 163.84 163.84 163.84c90.486 0 163.84-73.354 163.84-163.84-0.107-90.443-73.397-163.733-163.83-163.84zM819.2 222.72c-90.486 0-163.84 73.354-163.84 163.84s73.354 163.84 163.84 163.84c90.486 0 163.84-73.354 163.84-163.84-0.107-90.443-73.397-163.733-163.83-163.84z" />
<glyph unicode="&#xe927;" glyph-name="redo" d="M895.119 257.679l-163.84 163.84c-3.679 3.557-8.697 5.749-14.228 5.749-11.311 0-20.48-9.169-20.48-20.48 0-5.53 2.192-10.549 5.755-14.233l128.875-128.875h-524.001c-101.797 0-184.32 82.523-184.32 184.32s82.523 184.32 184.32 184.32h409.6c11.311 0 20.48 9.169 20.48 20.48s-9.169 20.48-20.48 20.48h-409.6c-124.419 0-225.28-100.861-225.28-225.28s100.861-225.28 225.28-225.28h524.001l-128.881-128.881c-3.557-3.679-5.749-8.697-5.749-14.228 0-11.311 9.169-20.48 20.48-20.48 5.53 0 10.549 2.192 14.233 5.755l163.834 163.834c3.705 3.706 5.996 8.825 5.996 14.479s-2.291 10.773-5.996 14.479z" />
<glyph unicode="&#xe928;" glyph-name="search-page" d="M552.96 386.56c32.291 0.096 62.030 10.945 85.843 29.153l110.479-111.073 28.959 28.959-110.821 110.821c17.539 23.464 28.083 53.045 28.083 85.090 0 78.949-64.001 142.95-142.95 142.95s-142.95-64.001-142.95-142.95c0-78.949 64.001-142.95 142.95-142.95 0.144 0 0.288 0 0.431 0.001zM552.96 632.32c56.554 0 102.4-45.846 102.4-102.4s-45.846-102.4-102.4-102.4c-56.554 0-102.4 45.846-102.4 102.4 0.068 56.527 45.873 102.332 102.393 102.4zM1003.52 140.8h-61.44v757.76c0 33.932-27.508 61.44-61.44 61.44h-655.36c-33.932 0-61.44-27.508-61.44-61.44v-860.16c0-56.554 45.846-102.4 102.4-102.4h675.84c45.243 0 81.92 36.677 81.92 81.92v102.4c0 11.311-9.169 20.48-20.48 20.48zM327.68 120.32v-81.92c0-33.932-27.508-61.44-61.44-61.44s-61.44 27.508-61.44 61.44v860.16c0 11.311 9.169 20.48 20.48 20.48h655.36c11.311 0 20.48-9.169 20.48-20.48v-757.76h-552.96c-11.311 0-20.48-9.169-20.48-20.48zM983.040 17.92c-0.016-22.615-18.345-40.944-40.958-40.96h-594.38c13.005 16.831 20.869 38.21 20.939 61.424v61.456h614.4z" />
<glyph unicode="&#xe929;" glyph-name="text-box" d="M983.040 796.16c22.622 0 40.96 18.338 40.96 40.96v81.92c0 22.622-18.338 40.96-40.96 40.96h-81.92c-22.622 0-40.96-18.338-40.96-40.96v-40.96h-696.32v40.96c0 22.622-18.338 40.96-40.96 40.96h-81.92c-22.622 0-40.96-18.338-40.96-40.96v-81.92c0-22.622 18.338-40.96 40.96-40.96h40.96v-696.32h-40.96c-22.622 0-40.96-18.338-40.96-40.96v-81.92c0-22.622 18.338-40.96 40.96-40.96h81.92c22.622 0 40.96 18.338 40.96 40.96v40.96h696.32v-40.96c0-22.622 18.338-40.96 40.96-40.96h81.92c22.622 0 40.96 18.338 40.96 40.96v81.92c0 22.622-18.338 40.96-40.96 40.96h-40.96v696.32zM901.12 919.040h81.92v-81.92h-81.92v81.92zM40.96 837.12v81.92h81.92v-81.92h-81.92zM122.88-23.040h-81.92v81.92h81.92zM983.040 58.88v-81.92h-81.92v81.92zM901.12 99.84c-22.622 0-40.96-18.338-40.96-40.96h-696.32c0 22.622-18.338 40.96-40.96 40.96v696.32c22.622 0 40.96 18.338 40.96 40.96h696.32c0-22.622 18.338-40.96 40.96-40.96zM696.32 673.28h-368.64c-22.622 0-40.96-18.338-40.96-40.96v-61.44c0-11.311 9.169-20.48 20.48-20.48s20.48 9.169 20.48 20.48v61.44h163.84v-409.6h-61.44c-11.311 0-20.48-9.169-20.48-20.48s9.169-20.48 20.48-20.48h163.84c11.311 0 20.48 9.169 20.48 20.48s-9.169 20.48-20.48 20.48h-61.44v409.6h163.84v-61.44c0-11.311 9.169-20.48 20.48-20.48s20.48 9.169 20.48 20.48v61.44c0 22.622-18.338 40.96-40.96 40.96z" />
<glyph unicode="&#xe92a;" glyph-name="undo" d="M46.961 257.679l163.84 163.84c3.679 3.557 8.697 5.749 14.228 5.749 11.311 0 20.48-9.169 20.48-20.48 0-5.53-2.192-10.549-5.755-14.233l-128.875-128.875h524.001c101.797 0 184.32 82.523 184.32 184.32s-82.523 184.32-184.32 184.32h-409.6c-11.311 0-20.48 9.169-20.48 20.48s9.169 20.48 20.48 20.48h409.6c124.419 0 225.28-100.861 225.28-225.28s-100.861-225.28-225.28-225.28h-524.001l128.881-128.881c3.557-3.679 5.749-8.697 5.749-14.228 0-11.311-9.169-20.48-20.48-20.48-5.53 0-10.549 2.192-14.233 5.755l-163.834 163.834c-3.705 3.706-5.996 8.825-5.996 14.479s2.291 10.773 5.996 14.479z" />
<glyph unicode="&#xe92b;" glyph-name="vertical-align-bottom" d="M772.239 339.599c-3.706 3.705-8.825 5.996-14.479 5.996s-10.773-2.291-14.479-5.996l-169.841-169.841v769.761c0 11.311-9.169 20.48-20.48 20.48s-20.48-9.169-20.48-20.48v-769.761l-169.841 169.841c-3.679 3.557-8.697 5.749-14.228 5.749-11.311 0-20.48-9.169-20.48-20.48 0-5.53 2.192-10.549 5.755-14.233l204.794-204.794c3.706-3.705 8.825-5.996 14.479-5.996s10.773 2.291 14.479 5.996l204.8 204.8c3.705 3.706 5.996 8.825 5.996 14.479s-2.291 10.773-5.996 14.479zM716.8-23.040h-327.68c-11.311 0-20.48-9.169-20.48-20.48s9.169-20.48 20.48-20.48h327.68c11.311 0 20.48 9.169 20.48 20.48s-9.169 20.48-20.48 20.48z" />
<glyph unicode="&#xe92c;" glyph-name="vertical-align-top" d="M772.239 585.359l-204.8 204.8c-3.706 3.705-8.825 5.996-14.479 5.996s-10.773-2.291-14.479-5.996l-204.8-204.8c-3.557-3.679-5.749-8.697-5.749-14.228 0-11.311 9.169-20.48 20.48-20.48 5.53 0 10.549 2.192 14.233 5.755l169.835 169.835v-769.761c0-11.311 9.169-20.48 20.48-20.48s20.48 9.169 20.48 20.48v769.761l169.841-169.841c3.729-3.857 8.95-6.252 14.731-6.252 11.311 0 20.48 9.169 20.48 20.48 0 5.781-2.395 11.002-6.247 14.725zM389.12 919.040h327.68c11.311 0 20.48 9.169 20.48 20.48s-9.169 20.48-20.48 20.48h-327.68c-11.311 0-20.48-9.169-20.48-20.48s9.169-20.48 20.48-20.48z" />
<glyph unicode="&#xe92d;" glyph-name="vertical-allign-middle" d="M567.439 339.599c-3.706 3.705-8.825 5.996-14.479 5.996s-10.773-2.291-14.479-5.996l-122.88-122.88c-3.557-3.679-5.749-8.697-5.749-14.228 0-11.311 9.169-20.48 20.48-20.48 5.53 0 10.549 2.192 14.233 5.755l87.915 87.915v-319.201c0-11.311 9.169-20.48 20.48-20.48s20.48 9.169 20.48 20.48v319.201l87.921-87.921c3.679-3.557 8.697-5.749 14.228-5.749 11.311 0 20.48 9.169 20.48 20.48 0 5.53-2.192 10.549-5.755 14.233zM538.481 556.401c3.706-3.705 8.825-5.996 14.479-5.996s10.773 2.291 14.479 5.996l122.88 122.88c3.857 3.729 6.252 8.95 6.252 14.731 0 11.311-9.169 20.48-20.48 20.48-5.781 0-11.002-2.395-14.725-6.247l-87.926-87.926v319.201c0 11.311-9.169 20.48-20.48 20.48s-20.48-9.169-20.48-20.48v-319.201l-87.921 87.921c-3.679 3.557-8.697 5.749-14.228 5.749-11.311 0-20.48-9.169-20.48-20.48 0-5.53 2.192-10.549 5.755-14.233zM716.8 468.48h-327.68c-11.311 0-20.48-9.169-20.48-20.48s9.169-20.48 20.48-20.48h327.68c11.311 0 20.48 9.169 20.48 20.48s-9.169 20.48-20.48 20.48z" />
<glyph unicode="&#xe92e;" glyph-name="writing-link" d="M362.639 544.399c-3.679 3.557-8.697 5.749-14.228 5.749-11.311 0-20.48-9.169-20.48-20.48 0-5.53 2.192-10.549 5.755-14.233l87.915-87.915h-257.761c-11.311 0-20.48-9.169-20.48-20.48s9.169-20.48 20.48-20.48h257.761l-87.921-87.921c-3.557-3.679-5.749-8.697-5.749-14.228 0-11.311 9.169-20.48 20.48-20.48 5.53 0 10.549 2.192 14.233 5.755l122.874 122.874c3.705 3.706 5.996 8.825 5.996 14.479s-2.291 10.773-5.996 14.479zM409.6 181.76c-11.311 0-20.48-9.169-20.48-20.48v-122.88c0-11.311-9.169-20.48-20.48-20.48h-307.2c-11.311 0-20.48 9.169-20.48 20.48v737.28c0 11.311 9.169 20.48 20.48 20.48h307.2c11.311 0 20.48-9.169 20.48-20.48v-122.88c0-11.311 9.169-20.48 20.48-20.48s20.48 9.169 20.48 20.48v122.88c0 33.932-27.508 61.44-61.44 61.44h-307.2c-33.932 0-61.44-27.508-61.44-61.44v-737.28c0-33.932 27.508-61.44 61.44-61.44h307.2c33.932 0 61.44 27.508 61.44 61.44v122.88c0 11.311-9.169 20.48-20.48 20.48zM690.319 269.681c3.705 3.706 5.996 8.825 5.996 14.479s-2.291 10.773-5.996 14.479l-87.921 87.921h257.761c11.311 0 20.48 9.169 20.48 20.48s-9.169 20.48-20.48 20.48h-257.761l87.921 87.921c3.557 3.679 5.749 8.697 5.749 14.228 0 11.311-9.169 20.48-20.48 20.48-5.53 0-10.549-2.192-14.233-5.755l-122.874-122.874c-3.705-3.706-5.996-8.825-5.996-14.479s2.291-10.773 5.996-14.479l122.88-122.88c3.706-3.705 8.825-5.996 14.479-5.996s10.773 2.291 14.479 5.996zM962.56 837.12h-307.2c-33.932 0-61.44-27.508-61.44-61.44v-122.88c0-11.311 9.169-20.48 20.48-20.48s20.48 9.169 20.48 20.48v122.88c0 11.311 9.169 20.48 20.48 20.48h307.2c11.311 0 20.48-9.169 20.48-20.48v-737.28c0-11.311-9.169-20.48-20.48-20.48h-307.2c-11.311 0-20.48 9.169-20.48 20.48v122.88c0 11.311-9.169 20.48-20.48 20.48s-20.48-9.169-20.48-20.48v-122.88c0-33.932 27.508-61.44 61.44-61.44h307.2c33.932 0 61.44 27.508 61.44 61.44v737.28c0 33.932-27.508 61.44-61.44 61.44z" />
<glyph unicode="&#xe92f;" glyph-name="blowing-wind" d="M860.16 755.2c-11.311 0-20.48-9.169-20.48-20.48s9.169-20.48 20.48-20.48c67.865 0 122.88-55.015 122.88-122.88s-55.015-122.88-122.88-122.88h-593.92c-11.311 0-20.48-9.169-20.48-20.48s9.169-20.48 20.48-20.48h593.92c90.486 0 163.84 73.354 163.84 163.84s-73.354 163.84-163.84 163.84zM696.32 345.6h-675.84c-11.311 0-20.48-9.169-20.48-20.48s9.169-20.48 20.48-20.48h675.84c67.865 0 122.88-55.015 122.88-122.88s-55.015-122.88-122.88-122.88c-11.311 0-20.48-9.169-20.48-20.48s9.169-20.48 20.48-20.48c90.486 0 163.84 73.354 163.84 163.84s-73.354 163.84-163.84 163.84zM143.36 550.4h614.4c11.311 0 20.48 9.169 20.48 20.48s-9.169 20.48-20.48 20.48h-614.4c-11.311 0-20.48-9.169-20.48-20.48s9.169-20.48 20.48-20.48zM491.52 222.72h-348.16c-11.311 0-20.48-9.169-20.48-20.48s9.169-20.48 20.48-20.48h348.16c45.243 0 81.92-36.677 81.92-81.92s-36.677-81.92-81.92-81.92c-11.311 0-20.48-9.169-20.48-20.48s9.169-20.48 20.48-20.48c67.865 0 122.88 55.015 122.88 122.88s-55.015 122.88-122.88 122.88z" />
<glyph unicode="&#xe930;" glyph-name="cloud" d="M348.16 755.2c114.852 0 182.96-59.458 241.59-149.787 31.026 15.899 67.519 25.705 106.182 26.897 113.496 0.009 205.188-91.683 205.188-204.791s-91.692-204.8-204.8-204.8h-367.235c-138.614 10.461-247.12 125.501-247.12 265.884 0 147.096 119.13 266.367 266.173 266.596zM348.16 796.16c-169.718-0.184-307.23-137.809-307.23-307.552 0-162.537 126.084-295.625 285.781-306.794l369.609-0.054c0.118 0 0.258 0 0.397 0 135.73 0 245.76 110.030 245.76 245.76s-110.030 245.76-245.76 245.76c-32.729 0-63.964-6.398-92.523-18.011-53.83 85.538-148.449 140.892-255.998 140.892-0.013 0-0.026 0-0.039 0z" />
<glyph unicode="&#xe931;" glyph-name="cloudy-night" d="M842.633 542.72v0c36.249 39.213 58.481 91.847 58.481 149.674 0 11.923-0.945 23.625-2.765 35.036-17.203-8.728-37.414-13.108-58.638-13.19-95.898 0-174.611 89.469-183.462 203.809-114.815-10.332-204.273-105.522-205.467-221.859l-0.001-0.12c-30.905 11.511-66.611 18.173-103.873 18.173-168.972 0-305.951-136.979-305.951-305.951 0-0.44 0.001-0.88 0.003-1.32 0.007-162.532 126.033-295.694 285.734-307.076l369.625-0.056c0.067 0 0.145 0 0.224 0 135.605 0 245.535 109.93 245.535 245.535 0 80.592-38.829 152.116-98.799 196.884zM491.52 693.76c0.522 82.426 54.683 152.064 129.307 175.8 27.136-114.401 114.815-196.28 218.853-196.28 6.857 0.002 13.625 0.366 20.292 1.075-5.716-43.078-24.837-80.896-53.295-109.388l0.002 0.002c-32.101 16.641-70.081 26.399-110.341 26.399-32.601 0-63.707-6.399-92.131-18.009-26.922 44.020-64.85 79.050-109.442 103.409-2.094 6.223-3.245 11.445-3.245 16.991zM696.32 140.8h-367.239c-138.967 10.050-247.903 125.26-247.903 265.913 0 147.221 119.346 266.568 266.568 266.568 93.352 0 175.497-47.986 223.112-120.638l18.892-29.154 31.191 12.366c22.352 9.12 48.288 14.414 75.46 14.414 113.072 0 204.734-91.663 204.734-204.734s-91.663-204.734-204.734-204.734c-0.029 0-0.058 0-0.086 0z" />
<glyph unicode="&#xe932;" glyph-name="cloudy-day" d="M847.741 538.898l0.098-0.061c7.727 21.786 12.192 46.913 12.192 73.083 0 124.344-100.801 225.145-225.145 225.145-91.277 0-169.867-54.317-205.211-132.39l-0.541-1.416c-24.198 6.845-51.989 10.78-80.698 10.78-169.8 0-307.45-137.65-307.45-307.45 0-162.497 126.064-295.55 285.727-306.694l369.607-0.054c0.052 0 0.113 0 0.175 0 135.63 0 245.58 109.95 245.58 245.58 0 78.341-36.682 148.114-93.808 193.080zM634.88 796.16c101.749-0.119 184.201-82.571 184.32-184.308-0.259-17.67-2.997-34.59-7.879-50.574-32.996 19.42-72.661 30.082-114.816 30.082-32.657 0-63.819-6.398-92.302-18.010-31.873 51.548-78.7 91.283-133.933 115.325 27.905 64.157 91.196 107.28 164.582 107.485zM696.32 140.8h-367.239c-138.614 10.461-247.12 125.501-247.12 265.884 0 147.097 119.133 266.37 266.177 266.596 115.066 0 183.113-59.675 241.612-149.778 31.027 15.893 67.52 25.697 106.181 26.889 113.497 0.010 205.189-91.683 205.189-204.79s-91.692-204.8-204.8-204.8zM634.88 878.080c11.311 0 20.48 9.169 20.48 20.48v40.96c0 11.311-9.169 20.48-20.48 20.48s-20.48-9.169-20.48-20.48v-40.96c0-11.311 9.169-20.48 20.48-20.48zM962.56 632.32h-40.96c-11.311 0-20.48-9.169-20.48-20.48s9.169-20.48 20.48-20.48h40.96c11.311 0 20.48 9.169 20.48 20.48s-9.169 20.48-20.48 20.48zM403.599 814.154c3.706-3.706 8.826-5.998 14.481-5.998 11.311 0 20.481 9.17 20.481 20.481 0 5.656-2.293 10.777-6 14.483l-28.963 28.959c-3.7 3.67-8.795 5.937-14.42 5.937-11.311 0-20.48-9.169-20.48-20.48 0-5.623 2.266-10.716 5.935-14.417zM866.157 814.154l28.967 28.967c3.743 3.712 6.060 8.857 6.060 14.543 0 11.311-9.169 20.48-20.48 20.48-5.688 0-10.834-2.319-14.545-6.063l-28.964-28.96c-3.707-3.706-6-8.827-6-14.483 0-11.311 9.17-20.481 20.481-20.481 5.655 0 10.775 2.292 14.481 5.998z" />
<glyph unicode="&#xe933;" glyph-name="day" d="M512 755.2c-169.662 0-307.2-137.538-307.2-307.2s137.538-307.2 307.2-307.2c169.662 0 307.2 137.538 307.2 307.2s-137.538 307.2-307.2 307.2zM512 181.76c-147.040 0-266.24 119.2-266.24 266.24s119.2 266.24 266.24 266.24c147.040 0 266.24-119.2 266.24-266.24-0.172-146.971-119.269-266.068-266.224-266.24zM512 837.12c11.311 0 20.48 9.169 20.48 20.48v81.92c0 11.311-9.169 20.48-20.48 20.48s-20.48-9.169-20.48-20.48v-81.92c0-11.311 9.169-20.48 20.48-20.48zM512 58.88c-11.311 0-20.48-9.169-20.48-20.48v-81.92c0-11.311 9.169-20.48 20.48-20.48s20.48 9.169 20.48 20.48v81.92c0 11.311-9.169 20.48-20.48 20.48zM102.4 468.48h-81.92c-11.311 0-20.48-9.169-20.48-20.48s9.169-20.48 20.48-20.48h81.92c11.311 0 20.48 9.169 20.48 20.48s-9.169 20.48-20.48 20.48zM1003.52 468.48h-81.92c-11.311 0-20.48-9.169-20.48-20.48s9.169-20.48 20.48-20.48h81.92c11.311 0 20.48 9.169 20.48 20.48s-9.169 20.48-20.48 20.48zM207.888 723.149c3.679-3.557 8.697-5.749 14.228-5.749 11.311 0 20.48 9.169 20.48 20.48 0 5.53-2.192 10.549-5.755 14.233l-57.916 57.928c-3.707 3.707-8.827 5.999-14.483 5.999-11.312 0-20.483-9.17-20.483-20.483 0-5.656 2.293-10.777 5.999-14.483zM816.112 172.851c-3.679 3.557-8.697 5.749-14.228 5.749-11.311 0-20.48-9.169-20.48-20.48 0-5.53 2.192-10.549 5.755-14.233l57.92-57.924c3.707-3.707 8.827-5.999 14.483-5.999 11.312 0 20.483 9.17 20.483 20.483 0 5.656-2.293 10.777-5.999 14.483zM207.888 172.851l-57.93-57.926c-3.707-3.707-5.999-8.827-5.999-14.483 0-11.312 9.17-20.483 20.483-20.483 5.656 0 10.777 2.293 14.483 5.999l57.926 57.93c3.557 3.679 5.749 8.697 5.749 14.228 0 11.311-9.169 20.48-20.48 20.48-5.53 0-10.549-2.192-14.233-5.755zM845.074 810.041l-57.926-57.93c-3.557-3.679-5.749-8.697-5.749-14.228 0-11.311 9.169-20.48 20.48-20.48 5.53 0 10.549 2.192 14.233 5.755l57.924 57.92c3.707 3.707 5.999 8.827 5.999 14.483 0 11.312-9.17 20.483-20.483 20.483-5.656 0-10.777-2.293-14.483-5.999z" />
<glyph unicode="&#xe934;" glyph-name="decrease-temperature" d="M450.56 314.47v604.57c0 22.622-18.338 40.96-40.96 40.96h-122.88c-22.622 0-40.96-18.338-40.96-40.96v-604.57c-49.683-33.539-81.92-89.634-81.92-153.258 0-101.797 82.523-184.32 184.32-184.32s184.32 82.523 184.32 184.32c0 63.624-32.237 119.719-81.268 152.843zM348.16 17.92c-0.015 0-0.032 0-0.050 0-79.151 0-143.315 64.164-143.315 143.315 0 49.497 25.092 93.133 63.25 118.882l18.674 12.493v626.43h122.88v-626.43l18.17-12.169c38.661-26.074 63.75-69.708 63.75-119.202 0-79.153-64.166-143.319-143.319-143.319-0.014 0-0.028 0-0.043 0zM368.64 261.632v104.448c0 11.311-9.169 20.48-20.48 20.48s-20.48-9.169-20.48-20.48v-104.448c-47.075-9.861-81.92-51.027-81.92-100.331 0-56.554 45.846-102.4 102.4-102.4s102.4 45.846 102.4 102.4c0 49.304-34.846 90.47-81.253 100.214zM880.64 796.16h-245.76c-11.311 0-20.48-9.169-20.48-20.48s9.169-20.48 20.48-20.48h245.76c11.311 0 20.48 9.169 20.48 20.48s-9.169 20.48-20.48 20.48z" />
<glyph unicode="&#xe935;" glyph-name="drizzling-day" d="M661.787 837.12c11.311 0 20.48 9.169 20.48 20.48v40.96c0 11.311-9.169 20.48-20.48 20.48s-20.48-9.169-20.48-20.48v-40.96c0-11.311 9.169-20.48 20.48-20.48zM1003.52 591.36h-40.96c-11.311 0-20.48-9.169-20.48-20.48s9.169-20.48 20.48-20.48h40.96c11.311 0 20.48 9.169 20.48 20.48s-9.169 20.48-20.48 20.48zM444.559 759.14c3.707-3.707 8.827-5.999 14.483-5.999 11.312 0 20.483 9.17 20.483 20.483 0 5.656-2.293 10.777-5.999 14.483l-28.967 28.942c-3.699 3.667-8.793 5.933-14.416 5.933-11.311 0-20.48-9.169-20.48-20.48 0-5.625 2.268-10.72 5.939-14.421zM879.002 759.14l28.959 28.967c3.452 3.658 5.574 8.603 5.574 14.045 0 11.311-9.169 20.48-20.48 20.48-5.445 0-10.394-2.125-14.063-5.591l-28.957-28.958c-3.707-3.707-5.999-8.827-5.999-14.483 0-11.312 9.17-20.483 20.483-20.483 5.656 0 10.777 2.293 14.483 5.999zM887.067 570.88c0 0.067 0 0.146 0 0.225 0 124.297-100.762 225.059-225.059 225.059-80.911 0-151.85-42.697-191.514-106.788-36.775 15.357-79.074 24.866-123.594 24.866-168.967 0-305.943-136.975-305.943-305.943 0-0.443 0.001-0.885 0.003-1.327 0.597-138.138 91.824-254.877 217.29-293.828 4.108-1.242 6.319-1.621 8.618-1.621 11.311 0 20.48 9.169 20.48 20.48 0 9.443-6.391 17.393-15.083 19.762-111.113 33.809-190.467 135.248-190.467 255.22 0 147.040 119.2 266.24 266.24 266.24 98.945 0 185.283-53.974 231.178-134.086 4.246-7.565 10.873-11.722 18.471-11.722 3.284 0 6.386 0.776 9.133 2.155 26.020 13.116 56.85 20.828 89.481 20.828 0.006 0 0.013 0 0.019 0 113.114-0.015 204.805-91.716 204.805-204.833 0-93.231-62.287-171.914-147.518-196.706-10.111-2.878-16.336-10.743-16.336-20.062 0-11.299 9.15-20.461 20.444-20.48 0.023 0 0.048 0 0.073 0 1.969 0 3.872 0.284 5.67 0.814 103.855 29.956 178.633 124.278 178.633 236.066 0 63.787-24.347 121.886-64.255 165.513 5.696 17.834 8.99 38.571 9.228 60.041zM605.88 573.94c-25.754 38.977-58.936 70.951-97.762 94.569 31.707 52.71 88.985 86.669 154.193 86.669 101.508 0 183.796-82.288 183.796-183.796 0-0.177 0-0.353-0.001-0.529-0.107-10.191-1.161-20.095-3.077-29.688-40.169 31.713-91.253 50.195-146.653 50.195-32.597 0-63.699-6.398-92.119-18.008zM511.025 253.44l-32.961-48.742c-11.428-16.908-68.465-104.407-68.465-166.298 0-56.554 45.846-102.4 102.4-102.4s102.4 45.846 102.4 102.4c0 68.776-62.030 157.34-69.104 167.215zM512-23.040c-33.932 0-61.44 27.508-61.44 61.44 0 52.478 61.44 143.36 61.44 143.36s61.44-85.762 61.44-143.36c0-33.932-27.508-61.44-61.44-61.44z" />
<glyph unicode="&#xe936;" glyph-name="drizzling-night" d="M843.19 544.44c35.917 39.084 57.933 91.44 57.933 148.937 0 11.924-0.947 23.628-2.77 35.039-17.205-8.727-37.417-13.105-58.643-13.185-95.901 0-174.61 89.469-183.466 203.809-114.688-10.33-204.067-105.334-205.434-221.502-30.37 10.537-65.384 16.703-101.839 16.703-0.286 0-0.571 0-0.856-0.001-169.624-0.022-307.158-137.57-307.158-307.241 0-138.393 91.501-255.415 217.306-293.869 4.095-1.228 6.306-1.607 8.605-1.607 11.311 0 20.48 9.169 20.48 20.48 0 9.443-6.391 17.393-15.083 19.762-111.113 33.809-190.467 135.248-190.467 255.22 0 147.040 119.2 266.24 266.24 266.24 98.945 0 185.283-53.974 231.178-134.086 4.246-7.565 10.873-11.722 18.471-11.722 3.284 0 6.386 0.776 9.133 2.155 26.020 13.116 56.85 20.828 89.481 20.828 0.006 0 0.013 0 0.019 0 113.114-0.015 204.805-91.716 204.805-204.833 0-93.231-62.287-171.914-147.518-196.706-10.111-2.878-16.336-10.743-16.336-20.062 0-11.299 9.15-20.461 20.444-20.48 0.023 0 0.048 0 0.073 0 1.969 0 3.872 0.284 5.67 0.814 103.718 30.397 178.33 124.679 178.62 236.434 0.009 0.822 0.014 1.753 0.014 2.685 0 80.129-38.619 151.238-98.26 195.73zM605.88 573.932c-28.292 44.264-66.322 79.952-111.231 104.694-2.291 5.14-2.844 10.417-3.115 15.768 0.508 82.784 54.668 152.422 129.292 176.158 27.12-114.401 114.811-196.28 218.853-196.28 6.857 0.002 13.626 0.367 20.292 1.075-5.713-42.95-24.744-80.663-53.067-109.118-31.992 15.859-69.671 25.134-109.515 25.134-0.376 0-0.752-0.001-1.128-0.002 0.001 0-0.066 0-0.133 0-32.513 0-63.532-6.399-91.866-18.007zM511.025 253.44c-28.623-42.328-101.425-142.131-101.425-215.040 0-56.554 45.846-102.4 102.4-102.4s102.4 45.846 102.4 102.4c0 77.275-71.27 170.222-103.375 215.040zM512-23.040c-33.932 0-61.44 27.508-61.44 61.44 0 52.478 61.44 143.36 61.44 143.36s61.44-85.762 61.44-143.36c0-33.932-27.508-61.44-61.44-61.44z" />
<glyph unicode="&#xe937;" glyph-name="drizzling" d="M696.32 673.28c-0.057 0-0.124 0-0.191 0-32.513 0-63.532-6.399-91.866-18.007-53.969 85.445-148.606 140.721-256.154 140.721-169.632 0-307.147-137.514-307.147-307.147 0-138.374 91.503-255.376 217.302-293.798 4.095-1.228 6.305-1.607 8.605-1.607 11.311 0 20.48 9.169 20.48 20.48 0 9.443-6.391 17.393-15.083 19.762-111.113 33.809-190.467 135.248-190.467 255.22 0 147.040 119.2 266.24 266.24 266.24 98.945 0 185.283-53.974 231.178-134.086 4.246-7.565 10.873-11.722 18.471-11.722 3.284 0 6.386 0.776 9.133 2.155 26.020 13.116 56.85 20.828 89.481 20.828 0.006 0 0.013 0 0.019 0 113.114-0.015 204.805-91.716 204.805-204.833 0-93.231-62.287-171.914-147.518-196.706-10.111-2.878-16.336-10.743-16.336-20.062 0-11.299 9.15-20.461 20.444-20.48 0.023 0 0.048 0 0.073 0 1.969 0 3.872 0.284 5.67 0.814 103.876 30.14 178.625 124.56 178.625 236.439 0 135.737-110.030 245.775-245.764 245.789zM511.025 253.44c-29.045-42.955-101.425-142.279-101.425-215.040 0-56.554 45.846-102.4 102.4-102.4s102.4 45.846 102.4 102.4c0 77.275-71.27 170.222-103.375 215.040zM512-23.040c-33.932 0-61.44 27.508-61.44 61.44 0 52.478 61.44 143.36 61.44 143.36s61.44-85.762 61.44-143.36c0-33.932-27.508-61.44-61.44-61.44z" />
<glyph unicode="&#xe938;" glyph-name="flake-day" d="M661.787 837.12c11.311 0 20.48 9.169 20.48 20.48v40.96c0 11.311-9.169 20.48-20.48 20.48s-20.48-9.169-20.48-20.48v-40.96c0-11.311 9.169-20.48 20.48-20.48zM1003.52 591.36h-40.96c-11.311 0-20.48-9.169-20.48-20.48s9.169-20.48 20.48-20.48h40.96c11.311 0 20.48 9.169 20.48 20.48s-9.169 20.48-20.48 20.48zM444.563 759.14c3.706-3.706 8.826-5.998 14.481-5.998 11.311 0 20.481 9.17 20.481 20.481 0 5.656-2.293 10.777-6 14.483l-28.963 28.942c-3.707 3.707-8.827 5.999-14.483 5.999-11.312 0-20.483-9.17-20.483-20.483 0-5.656 2.293-10.777 5.999-14.483zM879.002 759.14l28.963 28.967c3.473 3.662 5.609 8.622 5.609 14.081 0 11.311-9.169 20.48-20.48 20.48-5.464 0-10.428-2.14-14.1-5.627l-28.954-28.959c-3.707-3.706-6-8.827-6-14.483 0-11.311 9.17-20.481 20.481-20.481 5.655 0 10.775 2.292 14.481 5.998zM887.067 570.88c0 0.067 0 0.146 0 0.225 0 124.297-100.762 225.059-225.059 225.059-80.911 0-151.85-42.697-191.514-106.788-36.775 15.357-79.074 24.866-123.594 24.866-168.967 0-305.943-136.975-305.943-305.943 0-0.443 0.001-0.885 0.003-1.327 0.597-138.138 91.824-254.877 217.29-293.828 4.108-1.242 6.319-1.621 8.618-1.621 11.311 0 20.48 9.169 20.48 20.48 0 9.443-6.391 17.393-15.083 19.762-111.113 33.809-190.467 135.248-190.467 255.22 0 147.040 119.2 266.24 266.24 266.24 98.945 0 185.283-53.974 231.178-134.086 4.246-7.565 10.873-11.722 18.471-11.722 3.284 0 6.386 0.776 9.133 2.155 26.020 13.116 56.85 20.828 89.481 20.828 0.006 0 0.013 0 0.019 0 113.114-0.015 204.805-91.716 204.805-204.833 0-93.231-62.287-171.914-147.518-196.706-10.111-2.878-16.336-10.743-16.336-20.062 0-11.299 9.15-20.461 20.444-20.48 0.023 0 0.048 0 0.073 0 1.969 0 3.872 0.284 5.67 0.814 103.855 29.956 178.633 124.278 178.633 236.066 0 63.787-24.347 121.886-64.255 165.513 5.696 17.834 8.99 38.571 9.228 60.041zM605.88 573.94c-25.754 38.977-58.936 70.951-97.762 94.569 31.707 52.71 88.985 86.669 154.193 86.669 101.508 0 183.796-82.288 183.796-183.796 0-0.177 0-0.353-0.001-0.529-0.106-10.19-1.16-20.094-3.077-29.687-40.169 31.712-91.253 50.194-146.653 50.194-32.597 0-63.699-6.398-92.119-18.008zM634.88 140.8h-73.437l46.957 46.961c3.816 3.723 6.182 8.917 6.182 14.663 0 11.311-9.169 20.48-20.48 20.48-5.747 0-10.941-2.367-14.661-6.18l-46.961-46.957v73.433c0 11.311-9.169 20.48-20.48 20.48s-20.48-9.169-20.48-20.48v-73.433l-46.957 46.957c-3.724 3.817-8.918 6.184-14.665 6.184-11.311 0-20.48-9.169-20.48-20.48 0-5.746 2.366-10.94 6.178-14.659l46.961-46.969h-73.437c-11.311 0-20.48-9.169-20.48-20.48s9.169-20.48 20.48-20.48h73.437l-46.957-46.961c-3.816-3.723-6.182-8.917-6.182-14.663 0-11.311 9.169-20.48 20.48-20.48 5.747 0 10.941 2.367 14.661 6.18l46.961 46.965v-73.441c0-11.311 9.169-20.48 20.48-20.48s20.48 9.169 20.48 20.48v73.441l46.957-46.961c3.724-3.817 8.918-6.184 14.665-6.184 11.311 0 20.48 9.169 20.48 20.48 0 5.746-2.366 10.94-6.178 14.659l-46.961 46.965h73.437c11.311 0 20.48 9.169 20.48 20.48s-9.169 20.48-20.48 20.48z" />
<glyph unicode="&#xe939;" glyph-name="flake-night" d="M802.23 503.48c35.917 39.095 57.932 91.46 57.932 148.966 0 11.914-0.945 23.608-2.764 35.009-17.206-8.727-37.42-13.105-58.647-13.184-95.897 0-174.61 89.469-183.462 203.809-114.688-10.328-204.068-105.334-205.43-221.502-30.37 10.537-65.385 16.704-101.84 16.704-0.288 0-0.576 0-0.865-0.001-169.623-0.022-307.158-137.57-307.158-307.241 0-138.393 91.501-255.415 217.306-293.869 4.095-1.228 6.306-1.607 8.605-1.607 11.311 0 20.48 9.169 20.48 20.48 0 9.443-6.391 17.393-15.083 19.762-111.113 33.809-190.467 135.248-190.467 255.22 0 147.040 119.2 266.24 266.24 266.24 98.945 0 185.283-53.974 231.178-134.086 4.246-7.565 10.873-11.722 18.471-11.722 3.284 0 6.386 0.776 9.133 2.155 26.020 13.116 56.85 20.828 89.481 20.828 0.006 0 0.013 0 0.019 0 113.114-0.015 204.805-91.716 204.805-204.833 0-93.231-62.287-171.914-147.518-196.706-10.111-2.878-16.336-10.743-16.336-20.062 0-11.299 9.15-20.461 20.444-20.48 0.023 0 0.048 0 0.073 0 1.969 0 3.872 0.284 5.67 0.814 103.718 30.397 178.33 124.679 178.62 236.434 0.009 0.822 0.014 1.753 0.014 2.685 0 80.129-38.619 151.238-98.26 195.73zM564.92 532.972c-28.291 44.265-66.321 79.953-111.231 104.694-2.289 5.137-2.842 10.414-3.115 15.765 0.507 82.787 54.668 152.425 129.292 176.161 27.12-114.401 114.811-196.28 218.853-196.28 6.857 0.002 13.625 0.366 20.292 1.075-5.709-42.951-24.741-80.664-53.066-109.118-31.991 15.859-69.668 25.134-109.512 25.134-0.377 0-0.755-0.001-1.132-0.002 0.002 0-0.066 0-0.133 0-32.513 0-63.532-6.399-91.866-18.007zM593.92 99.84h-73.437l46.957 46.961c3.816 3.723 6.182 8.917 6.182 14.663 0 11.311-9.169 20.48-20.48 20.48-5.747 0-10.941-2.367-14.661-6.18l-46.961-46.957v73.433c0 11.311-9.169 20.48-20.48 20.48s-20.48-9.169-20.48-20.48v-73.433l-46.957 46.952c-3.687 3.598-8.733 5.817-14.298 5.817-11.311 0-20.48-9.169-20.48-20.48 0-5.564 2.219-10.609 5.819-14.3l46.952-46.956h-73.437c-11.311 0-20.48-9.169-20.48-20.48s9.169-20.48 20.48-20.48h73.437l-46.957-46.961c-3.597-3.687-5.815-8.732-5.815-14.296 0-11.311 9.169-20.48 20.48-20.48 5.565 0 10.611 2.219 14.302 5.821l46.952 46.957v-73.441c0-11.311 9.169-20.48 20.48-20.48s20.48 9.169 20.48 20.48v73.441l46.957-46.961c3.724-3.817 8.918-6.184 14.665-6.184 11.311 0 20.48 9.169 20.48 20.48 0 5.746-2.366 10.94-6.178 14.659l-46.961 46.965h73.437c11.311 0 20.48 9.169 20.48 20.48s-9.169 20.48-20.48 20.48z" />
<glyph unicode="&#xe93a;" glyph-name="flake" d="M696.32 632.32c-0.057 0-0.124 0-0.191 0-32.513 0-63.532-6.399-91.866-18.007-53.969 85.445-148.606 140.721-256.154 140.721-169.632 0-307.147-137.514-307.147-307.147 0-138.374 91.503-255.376 217.302-293.798 4.095-1.228 6.305-1.607 8.605-1.607 11.311 0 20.48 9.169 20.48 20.48 0 9.443-6.391 17.393-15.083 19.762-111.113 33.809-190.467 135.248-190.467 255.22 0 147.040 119.2 266.24 266.24 266.24 98.945 0 185.283-53.974 231.178-134.086 4.246-7.565 10.873-11.722 18.471-11.722 3.284 0 6.386 0.776 9.133 2.155 26.020 13.116 56.85 20.828 89.481 20.828 0.006 0 0.013 0 0.019 0 113.114-0.015 204.805-91.716 204.805-204.833 0-93.231-62.287-171.914-147.518-196.706-10.111-2.878-16.336-10.743-16.336-20.062 0-11.299 9.15-20.461 20.444-20.48 0.023 0 0.048 0 0.073 0 1.969 0 3.872 0.284 5.67 0.814 103.876 30.14 178.625 124.56 178.625 236.439 0 135.737-110.030 245.775-245.764 245.789zM634.88 181.76h-73.437l46.957 46.961c3.816 3.723 6.182 8.917 6.182 14.663 0 11.311-9.169 20.48-20.48 20.48-5.747 0-10.941-2.367-14.661-6.18l-46.961-46.957v73.433c0 11.311-9.169 20.48-20.48 20.48s-20.48-9.169-20.48-20.48v-73.433l-46.957 46.957c-3.724 3.817-8.918 6.184-14.665 6.184-11.311 0-20.48-9.169-20.48-20.48 0-5.746 2.366-10.94 6.178-14.659l46.961-46.969h-73.437c-11.311 0-20.48-9.169-20.48-20.48s9.169-20.48 20.48-20.48h73.437l-46.957-46.961c-3.816-3.723-6.182-8.917-6.182-14.663 0-11.311 9.169-20.48 20.48-20.48 5.747 0 10.941 2.367 14.661 6.18l46.961 46.965v-73.441c0-11.311 9.169-20.48 20.48-20.48s20.48 9.169 20.48 20.48v73.441l46.957-46.961c3.724-3.817 8.918-6.184 14.665-6.184 11.311 0 20.48 9.169 20.48 20.48 0 5.746-2.366 10.94-6.178 14.659l-46.961 46.965h73.437c11.311 0 20.48 9.169 20.48 20.48s-9.169 20.48-20.48 20.48z" />
<glyph unicode="&#xe93b;" glyph-name="gloomy-day" d="M593.92 796.16c11.311 0 20.48 9.169 20.48 20.48v40.96c0 11.311-9.169 20.48-20.48 20.48s-20.48-9.169-20.48-20.48v-40.96c0-11.311 9.169-20.48 20.48-20.48zM921.6 550.4h-40.96c-11.311 0-20.48-9.169-20.48-20.48s9.169-20.48 20.48-20.48h40.96c11.311 0 20.48 9.169 20.48 20.48s-9.169 20.48-20.48 20.48zM362.643 732.234c3.706-3.706 8.826-5.998 14.481-5.998 11.311 0 20.481 9.17 20.481 20.481 0 5.656-2.293 10.777-6 14.483l-28.963 28.963c-3.706 3.707-8.827 6-14.483 6-11.311 0-20.481-9.17-20.481-20.481 0-5.655 2.292-10.775 5.998-14.481zM825.197 790.163l-28.963-28.963c-3.707-3.706-6-8.827-6-14.483 0-11.311 9.17-20.481 20.481-20.481 5.655 0 10.775 2.292 14.481 5.998l28.967 28.967c3.706 3.706 5.998 8.826 5.998 14.481 0 11.311-9.17 20.481-20.481 20.481-5.656 0-10.777-2.293-14.483-6zM427.323 607.531c29.906 63.521 93.387 106.703 166.953 106.703 101.6 0 183.964-82.363 183.964-183.964 0-0.123 0-0.246 0-0.369-0.26-17.64-2.997-34.562-7.879-50.548 14.122-6.171 25.96-14.031 37.026-22.821 7.215 22.17 11.678 47.291 11.678 73.454 0 124.344-100.801 225.145-225.145 225.145-91.271 0-169.857-54.31-205.205-132.376 14.966-5.748 27.984-10.455 40.557-15.989zM115.814 140.8h702.341c9.278 11.873 17.511 25.333 24.123 39.694l-759.068 1.266c10.028-15.371 20.767-28.766 32.668-41.026zM842.801 345.6h-800.805c-0.52-6.783-1.036-13.566-1.036-20.48s0.471-13.701 0.999-20.48h814.060c-3.296 15.578-7.852 29.269-13.734 42.231zM61.739 222.72h794.28c2.631 12.313 4.138 26.459 4.141 40.958l-811.684 0.002c3.784-15.906 8.334-29.568 13.915-42.685zM776.978 427.52h-715.477c-4.88-11.39-9.379-25.057-12.745-39.164l769.4-1.796c-11.884 15.647-25.449 29.143-40.65 40.581zM289.423 59.822l14.221-0.942h351.715c45.908 0.145 88.199 15.516 122.117 41.324l-611.179-0.364c35.035-22.383 77.106-36.867 122.306-39.973zM307.2 591.36c-52.397-0.018-101.225-15.281-142.295-41.593l283.197 0.633c-39.924 25.61-88.622 40.861-140.876 40.96zM530.522 469.709c-9.925 14.879-20.501 27.868-32.176 39.775l-382.839-0.044c-11.723-12.184-22.369-25.578-31.68-39.92l447.469-1.040z" />
<glyph unicode="&#xe93c;" glyph-name="gloomy-night" d="M156.774 140.8h702.345c9.275 11.873 17.506 25.333 24.118 39.692l-759.068 1.268c10.026-15.372 20.766-28.766 32.668-41.026zM883.761 345.6h-800.801c-0.52-6.779-1.040-13.57-1.040-20.48s0.471-13.701 0.999-20.48h814.060c-3.292 15.576-7.848 29.268-13.733 42.228zM89.44 263.68c3.781-15.905 8.329-29.567 13.91-42.683l793.628 1.723c2.632 12.313 4.14 26.46 4.141 40.959zM817.938 427.52h-715.477c-4.878-11.388-9.377-25.055-12.745-39.161l769.399-1.799c-11.885 15.646-25.45 29.142-40.65 40.581zM330.383 59.818l14.221-0.938h351.715c45.908 0.148 88.198 15.518 122.117 41.324l-611.179-0.364c35.035-22.382 77.106-36.867 122.305-39.977zM348.16 591.36c-52.397-0.018-101.225-15.281-142.295-41.593l283.197 0.633c-39.924 25.61-88.622 40.861-140.876 40.96zM571.478 469.709c-9.921 14.879-20.496 27.869-32.171 39.774l-382.839-0.043c-11.724-12.184-22.37-25.578-31.68-39.92l447.469-1.040zM491.299 612.831c0.522 82.426 54.683 152.064 129.307 175.8 27.12-114.401 114.815-196.28 218.853-196.28 6.857 0.002 13.626 0.367 20.292 1.075-5.718-43.076-24.838-80.891-53.291-109.384 13.767-7.008 25.542-14.399 36.592-22.701 35.619 39.667 57.853 92.303 57.853 150.131 0 11.922-0.945 23.623-2.764 35.032-17.206-8.729-37.42-13.109-58.647-13.189-95.902 0-174.61 89.469-183.462 203.809-114.818-10.33-204.279-105.523-205.471-221.863 16.627-5.966 30.616-12.211 44.005-19.426-2.112 6.223-3.267 11.45-3.267 16.996z" />
<glyph unicode="&#xe93d;" glyph-name="gloomy" d="M115.814 222.72h702.345c9.275 11.873 17.506 25.333 24.118 39.692l-759.068 1.268c10.026-15.372 20.766-28.766 32.668-41.026zM842.801 427.52h-800.801c-0.52-6.779-1.040-13.57-1.040-20.48s0.471-13.701 0.999-20.48h814.060c-3.292 15.576-7.848 29.268-13.733 42.228zM48.48 345.6c3.781-15.905 8.329-29.567 13.91-42.683l793.628 1.723c2.632 12.313 4.14 26.46 4.141 40.959zM776.978 509.44h-715.477c-4.878-11.388-9.377-25.055-12.745-39.161l769.399-1.799c-11.885 15.646-25.45 29.142-40.65 40.581zM289.423 141.738l14.221-0.938h351.715c45.908 0.148 88.198 15.518 122.117 41.324l-611.179-0.364c35.035-22.382 77.106-36.867 122.305-39.977zM307.2 673.28c-52.397-0.018-101.225-15.281-142.295-41.593l283.197 0.633c-39.924 25.61-88.622 40.861-140.876 40.96zM530.518 551.629c-9.921 14.879-20.496 27.869-32.171 39.774l-382.839-0.043c-11.724-12.184-22.37-25.578-31.68-39.92l447.469-1.040z" />
<glyph unicode="&#xe93e;" glyph-name="half-moon" d="M491.52 878.080c-226.216 0-409.6-183.384-409.6-409.6s183.384-409.6 409.6-409.6c226.216 0 409.6 183.384 409.6 409.6s-183.384 409.6-409.6 409.6zM491.52 99.84c3.412 3.416 0 737.28 0 737.28 203.594 0 368.64-165.046 368.64-368.64s-165.046-368.64-368.64-368.64z" />
<glyph unicode="&#xe93f;" glyph-name="heavy-rain-day" d="M661.787 837.12c11.311 0 20.48 9.169 20.48 20.48v40.96c0 11.311-9.169 20.48-20.48 20.48s-20.48-9.169-20.48-20.48v-40.96c0-11.311 9.169-20.48 20.48-20.48zM1003.52 591.36h-40.96c-11.311 0-20.48-9.169-20.48-20.48s9.169-20.48 20.48-20.48h40.96c11.311 0 20.48 9.169 20.48 20.48s-9.169 20.48-20.48 20.48zM444.559 759.14c3.707-3.707 8.827-5.999 14.483-5.999 11.312 0 20.483 9.17 20.483 20.483 0 5.656-2.293 10.777-5.999 14.483l-28.967 28.942c-3.699 3.667-8.793 5.933-14.416 5.933-11.311 0-20.48-9.169-20.48-20.48 0-5.625 2.268-10.72 5.939-14.421zM879.002 759.14l28.959 28.967c3.452 3.658 5.574 8.603 5.574 14.045 0 11.311-9.169 20.48-20.48 20.48-5.445 0-10.394-2.125-14.063-5.591l-28.957-28.958c-3.707-3.707-5.999-8.827-5.999-14.483 0-11.312 9.17-20.483 20.483-20.483 5.656 0 10.777 2.293 14.483 5.999zM887.067 570.88c0 0.067 0 0.146 0 0.225 0 124.297-100.762 225.059-225.059 225.059-80.911 0-151.85-42.697-191.514-106.788-36.775 15.357-79.074 24.866-123.594 24.866-168.967 0-305.943-136.975-305.943-305.943 0-0.443 0.001-0.885 0.003-1.327 0.597-138.138 91.824-254.877 217.29-293.828 4.108-1.242 6.319-1.621 8.618-1.621 11.311 0 20.48 9.169 20.48 20.48 0 9.443-6.391 17.393-15.083 19.762-111.113 33.809-190.467 135.248-190.467 255.22 0 147.040 119.2 266.24 266.24 266.24 98.945 0 185.283-53.974 231.178-134.086 4.246-7.565 10.873-11.722 18.471-11.722 3.284 0 6.386 0.776 9.133 2.155 26.020 13.116 56.85 20.828 89.481 20.828 0.006 0 0.013 0 0.019 0 113.114-0.015 204.805-91.716 204.805-204.833 0-93.231-62.287-171.914-147.518-196.706-10.111-2.878-16.336-10.743-16.336-20.062 0-11.299 9.15-20.461 20.444-20.48 0.023 0 0.048 0 0.073 0 1.969 0 3.872 0.284 5.67 0.814 103.855 29.956 178.633 124.278 178.633 236.066 0 63.787-24.347 121.886-64.255 165.513 5.696 17.834 8.99 38.571 9.228 60.041zM605.88 573.94c-25.754 38.977-58.936 70.951-97.762 94.569 31.707 52.71 88.985 86.669 154.193 86.669 101.508 0 183.796-82.288 183.796-183.796 0-0.177 0-0.353-0.001-0.529-0.107-10.191-1.161-20.095-3.077-29.688-40.169 31.713-91.253 50.195-146.653 50.195-32.597 0-63.699-6.398-92.119-18.008zM481.55 260.78c-3.002 1.816-6.628 2.891-10.506 2.891-7.415 0-13.912-3.931-17.521-9.822l-122.931-204.89c-1.787-2.978-2.844-6.572-2.844-10.412 0-11.311 9.169-20.48 20.48-20.48 7.366 0 13.825 3.889 17.433 9.726l122.931 204.888c1.837 3.007 2.925 6.647 2.925 10.54 0 7.424-3.956 13.924-9.875 17.508zM604.43 260.78c-3.002 1.818-6.63 2.894-10.508 2.894-7.415 0-13.912-3.932-17.519-9.825l-122.931-204.89c-1.787-2.978-2.844-6.572-2.844-10.412 0-11.311 9.169-20.48 20.48-20.48 7.366 0 13.825 3.889 17.433 9.726l122.931 204.888c1.837 3.007 2.925 6.647 2.925 10.54 0 7.424-3.956 13.924-9.875 17.508zM727.31 260.78c-3.001 1.813-6.626 2.887-10.501 2.887-7.415 0-13.913-3.928-17.526-9.818l-122.931-204.89c-1.787-2.978-2.844-6.572-2.844-10.412 0-11.311 9.169-20.48 20.48-20.48 7.366 0 13.825 3.889 17.433 9.726l122.931 204.888c1.837 3.007 2.925 6.647 2.925 10.54 0 7.424-3.956 13.924-9.875 17.508zM327.68-43.52c0-11.311-9.169-20.48-20.48-20.48s-20.48 9.169-20.48 20.48c0 11.311 9.169 20.48 20.48 20.48s20.48-9.169 20.48-20.48zM450.56-43.52c0-11.311-9.169-20.48-20.48-20.48s-20.48 9.169-20.48 20.48c0 11.311 9.169 20.48 20.48 20.48s20.48-9.169 20.48-20.48zM573.44-43.52c0-11.311-9.169-20.48-20.48-20.48s-20.48 9.169-20.48 20.48c0 11.311 9.169 20.48 20.48 20.48s20.48-9.169 20.48-20.48z" />
<glyph unicode="&#xe940;" glyph-name="heavy-rain-night" d="M842.428 583.709c35.889 40.282 58.033 93.494 58.69 151.867-0.093 11.652-1.035 22.87-2.766 33.826-17.203-8.75-37.416-13.129-58.642-13.21-95.902 0-174.611 89.469-183.466 203.809-114.59-11.587-203.522-106.689-205.302-222.931-31.007 11.422-66.836 18.136-104.232 18.136-168.863 0-305.754-136.891-305.754-305.754 0-0.51 0.001-1.020 0.004-1.53 0.597-138.128 91.824-254.867 217.29-293.818 4.108-1.242 6.319-1.621 8.618-1.621 11.311 0 20.48 9.169 20.48 20.48 0 9.443-6.391 17.393-15.083 19.762-111.113 33.809-190.467 135.248-190.467 255.22 0 147.040 119.2 266.24 266.24 266.24 98.945 0 185.283-53.974 231.178-134.086 4.246-7.565 10.873-11.722 18.471-11.722 3.284 0 6.386 0.776 9.133 2.155 26.020 13.116 56.85 20.828 89.481 20.828 0.006 0 0.013 0 0.019 0 113.114-0.015 204.805-91.716 204.805-204.833 0-93.231-62.287-171.914-147.518-196.706-10.111-2.878-16.336-10.743-16.336-20.062 0-11.299 9.15-20.461 20.444-20.48 0.023 0 0.048 0 0.073 0 1.969 0 3.872 0.284 5.67 0.814 103.856 30.011 178.622 124.358 178.622 236.168 0 80.668-38.918 152.246-99.002 196.984zM605.88 614.9c-28.577 43.5-66.591 78.561-111.295 102.88-2.156 6.106-3.065 12.91-3.065 17.931 0.522 82.426 54.683 152.064 129.307 175.8 27.12-114.401 114.811-196.28 218.853-196.28 6.857 0.002 13.626 0.367 20.292 1.075-6.268-43.301-25.305-81.311-53.454-110.466-32.027 16.717-69.992 26.488-110.238 26.488-32.569 0-63.644-6.399-92.036-18.008zM481.55 301.74c-3.002 1.816-6.628 2.891-10.506 2.891-7.415 0-13.912-3.931-17.521-9.822l-122.931-204.89c-1.787-2.978-2.844-6.572-2.844-10.412 0-11.311 9.169-20.48 20.48-20.48 7.366 0 13.825 3.889 17.433 9.726l122.931 204.888c1.837 3.007 2.925 6.647 2.925 10.54 0 7.424-3.956 13.924-9.875 17.508zM604.43 301.74c-3.002 1.818-6.63 2.894-10.508 2.894-7.415 0-13.912-3.932-17.519-9.825l-122.931-204.89c-1.787-2.978-2.844-6.572-2.844-10.412 0-11.311 9.169-20.48 20.48-20.48 7.366 0 13.825 3.889 17.433 9.726l122.931 204.888c1.837 3.007 2.925 6.647 2.925 10.54 0 7.424-3.956 13.924-9.875 17.508zM727.31 301.74c-3.001 1.813-6.626 2.887-10.501 2.887-7.415 0-13.913-3.928-17.526-9.818l-122.931-204.89c-1.787-2.978-2.844-6.572-2.844-10.412 0-11.311 9.169-20.48 20.48-20.48 7.366 0 13.825 3.889 17.433 9.726l122.931 204.888c1.837 3.007 2.925 6.647 2.925 10.54 0 7.424-3.956 13.924-9.875 17.508zM327.68-2.56c0-11.311-9.169-20.48-20.48-20.48s-20.48 9.169-20.48 20.48c0 11.311 9.169 20.48 20.48 20.48s20.48-9.169 20.48-20.48zM450.56-2.56c0-11.311-9.169-20.48-20.48-20.48s-20.48 9.169-20.48 20.48c0 11.311 9.169 20.48 20.48 20.48s20.48-9.169 20.48-20.48zM573.44-2.56c0-11.311-9.169-20.48-20.48-20.48s-20.48 9.169-20.48 20.48c0 11.311 9.169 20.48 20.48 20.48s20.48-9.169 20.48-20.48z" />
<glyph unicode="&#xe941;" glyph-name="heavy-rain" d="M696.32 714.24c-0.057 0-0.124 0-0.191 0-32.513 0-63.532-6.399-91.866-18.007-53.969 85.445-148.606 140.721-256.154 140.721-169.632 0-307.147-137.514-307.147-307.147 0-138.374 91.503-255.376 217.302-293.798 4.095-1.228 6.305-1.607 8.605-1.607 11.311 0 20.48 9.169 20.48 20.48 0 9.443-6.391 17.393-15.083 19.762-111.113 33.809-190.467 135.248-190.467 255.22 0 147.040 119.2 266.24 266.24 266.24 98.945 0 185.283-53.974 231.178-134.086 4.246-7.565 10.873-11.722 18.471-11.722 3.284 0 6.386 0.776 9.133 2.155 26.020 13.116 56.85 20.828 89.481 20.828 0.006 0 0.013 0 0.019 0 113.114-0.015 204.805-91.716 204.805-204.833 0-93.231-62.287-171.914-147.518-196.706-10.111-2.878-16.336-10.743-16.336-20.062 0-11.299 9.15-20.461 20.444-20.48 0.023 0 0.048 0 0.073 0 1.969 0 3.872 0.284 5.67 0.814 103.876 30.14 178.625 124.56 178.625 236.439 0 135.737-110.030 245.775-245.764 245.789zM481.55 383.66c-3.002 1.816-6.628 2.891-10.506 2.891-7.415 0-13.912-3.931-17.521-9.822l-122.931-204.89c-1.787-2.978-2.844-6.572-2.844-10.412 0-11.311 9.169-20.48 20.48-20.48 7.366 0 13.825 3.889 17.433 9.726l122.931 204.888c1.837 3.007 2.925 6.647 2.925 10.54 0 7.424-3.956 13.924-9.875 17.508zM604.43 383.66c-3.002 1.818-6.63 2.894-10.508 2.894-7.415 0-13.912-3.932-17.519-9.825l-122.931-204.89c-1.787-2.978-2.844-6.572-2.844-10.412 0-11.311 9.169-20.48 20.48-20.48 7.366 0 13.825 3.889 17.433 9.726l122.931 204.888c1.837 3.007 2.925 6.647 2.925 10.54 0 7.424-3.956 13.924-9.875 17.508zM727.31 383.66c-3.001 1.813-6.626 2.887-10.501 2.887-7.415 0-13.913-3.928-17.526-9.818l-122.931-204.89c-1.787-2.978-2.844-6.572-2.844-10.412 0-11.311 9.169-20.48 20.48-20.48 7.366 0 13.825 3.889 17.433 9.726l122.931 204.888c1.837 3.007 2.925 6.647 2.925 10.54 0 7.424-3.956 13.924-9.875 17.508zM327.68 79.36c0-11.311-9.169-20.48-20.48-20.48s-20.48 9.169-20.48 20.48c0 11.311 9.169 20.48 20.48 20.48s20.48-9.169 20.48-20.48zM450.56 79.36c0-11.311-9.169-20.48-20.48-20.48s-20.48 9.169-20.48 20.48c0 11.311 9.169 20.48 20.48 20.48s20.48-9.169 20.48-20.48zM573.44 79.36c0-11.311-9.169-20.48-20.48-20.48s-20.48 9.169-20.48 20.48c0 11.311 9.169 20.48 20.48 20.48s20.48-9.169 20.48-20.48z" />
<glyph unicode="&#xe942;" glyph-name="high-temperature" d="M614.4 273.51v604.57c0 22.622-18.338 40.96-40.96 40.96h-122.88c-22.622 0-40.96-18.338-40.96-40.96v-604.57c-49.683-33.539-81.92-89.634-81.92-153.258 0-101.797 82.523-184.32 184.32-184.32s184.32 82.523 184.32 184.32c0 63.624-32.237 119.719-81.268 152.843zM512-23.040c-0.013 0-0.028 0-0.043 0-79.153 0-143.319 64.166-143.319 143.319 0 49.496 25.091 93.132 63.247 118.882l18.674 12.489v626.43h122.88v-626.43l18.166-12.165c38.665-26.074 63.756-69.71 63.756-119.206 0-79.153-64.166-143.319-143.319-143.319-0.015 0-0.030 0-0.045 0zM532.48 220.672v555.008c0 11.311-9.169 20.48-20.48 20.48s-20.48-9.169-20.48-20.48v-555.008c-47.075-9.861-81.92-51.027-81.92-100.331 0-56.554 45.846-102.4 102.4-102.4s102.4 45.846 102.4 102.4c0 49.304-34.846 90.47-81.253 100.214z" />
<glyph unicode="&#xe943;" glyph-name="increase-temperature" d="M450.56 314.47v604.57c0 22.622-18.338 40.96-40.96 40.96h-122.88c-22.622 0-40.96-18.338-40.96-40.96v-604.57c-49.683-33.539-81.92-89.634-81.92-153.258 0-101.797 82.523-184.32 184.32-184.32s184.32 82.523 184.32 184.32c0 63.624-32.237 119.719-81.268 152.843zM348.16 17.92c-0.015 0-0.032 0-0.050 0-79.151 0-143.315 64.164-143.315 143.315 0 49.497 25.092 93.133 63.25 118.882l18.674 12.493v626.43h122.88v-626.43l18.17-12.169c38.661-26.074 63.75-69.708 63.75-119.202 0-79.153-64.166-143.319-143.319-143.319-0.014 0-0.028 0-0.043 0zM368.64 261.632v555.008c0 11.311-9.169 20.48-20.48 20.48s-20.48-9.169-20.48-20.48v-555.008c-47.075-9.861-81.92-51.027-81.92-100.331 0-56.554 45.846-102.4 102.4-102.4s102.4 45.846 102.4 102.4c0 49.304-34.846 90.47-81.253 100.214zM880.64 837.12h-102.4v102.4c0 11.311-9.169 20.48-20.48 20.48s-20.48-9.169-20.48-20.48v-102.4h-102.4c-11.311 0-20.48-9.169-20.48-20.48s9.169-20.48 20.48-20.48h102.4v-102.4c0-11.311 9.169-20.48 20.48-20.48s20.48 9.169 20.48 20.48v102.4h102.4c11.311 0 20.48 9.169 20.48 20.48s-9.169 20.48-20.48 20.48z" />
<glyph unicode="&#xe944;" glyph-name="lighting-day" d="M675.84 878.080c11.311 0 20.48 9.169 20.48 20.48v40.96c0 11.311-9.169 20.48-20.48 20.48s-20.48-9.169-20.48-20.48v-40.96c0-11.311 9.169-20.48 20.48-20.48zM1003.52 632.32h-40.96c-11.311 0-20.48-9.169-20.48-20.48s9.169-20.48 20.48-20.48h40.96c11.311 0 20.48 9.169 20.48 20.48s-9.169 20.48-20.48 20.48zM456.561 802.161c3.729-3.857 8.95-6.252 14.731-6.252 11.311 0 20.48 9.169 20.48 20.48 0 5.781-2.395 11.002-6.247 14.725l-28.964 28.972c-3.707 3.707-8.827 5.999-14.483 5.999-11.312 0-20.483-9.17-20.483-20.483 0-5.656 2.293-10.777 5.999-14.483zM895.119 802.161l28.967 28.959c3.707 3.707 5.999 8.827 5.999 14.483 0 11.312-9.17 20.483-20.483 20.483-5.656 0-10.777-2.293-14.483-5.999l-28.959-28.967c-3.557-3.679-5.749-8.697-5.749-14.228 0-11.311 9.169-20.48 20.48-20.48 5.53 0 10.549 2.192 14.233 5.755zM887.067 611.84c0 0.067 0 0.146 0 0.225 0 124.297-100.762 225.059-225.059 225.059-80.911 0-151.85-42.697-191.514-106.788-36.775 15.357-79.074 24.866-123.594 24.866-168.967 0-305.943-136.975-305.943-305.943 0-0.443 0.001-0.885 0.003-1.327 0.597-138.138 91.824-254.877 217.29-293.828 4.108-1.242 6.319-1.621 8.618-1.621 11.311 0 20.48 9.169 20.48 20.48 0 9.443-6.391 17.393-15.083 19.762-111.113 33.809-190.467 135.248-190.467 255.22 0 147.040 119.2 266.24 266.24 266.24 98.945 0 185.283-53.974 231.178-134.086 4.246-7.565 10.873-11.722 18.471-11.722 3.284 0 6.386 0.776 9.133 2.155 26.020 13.116 56.85 20.828 89.481 20.828 0.006 0 0.013 0 0.019 0 113.114-0.015 204.805-91.716 204.805-204.833 0-93.231-62.287-171.914-147.518-196.706-10.111-2.878-16.336-10.743-16.336-20.062 0-11.299 9.15-20.461 20.444-20.48 0.023 0 0.048 0 0.073 0 1.969 0 3.872 0.284 5.67 0.814 103.855 29.956 178.633 124.278 178.633 236.066 0 63.787-24.347 121.886-64.255 165.513 5.696 17.834 8.99 38.571 9.228 60.041zM605.88 614.9c-25.754 38.977-58.936 70.951-97.762 94.569 31.707 52.71 88.985 86.669 154.193 86.669 101.508 0 183.796-82.288 183.796-183.796 0-0.177 0-0.353-0.001-0.529-0.107-10.191-1.161-20.095-3.077-29.688-40.169 31.713-91.253 50.195-146.653 50.195-32.597 0-63.699-6.398-92.119-18.008zM632.721 211.849l-52.535 26.264 32.301 129.204c1.28 3.793 2.019 8.161 2.019 12.701 0 22.424-18.020 40.64-40.369 40.956h-0.697c-0.885 0-1.769-0.029-2.646-0.090-11.333-0.741-21.311-5.993-28.253-13.959l-1.32-1.593-163.607-204.526c-5.593-6.944-8.978-15.872-8.978-25.591 0-15.945 9.11-29.761 22.41-36.528l52.076-26.027-34.251-124.867c-0.927-3.25-1.461-6.983-1.461-10.841 0-22.622 18.338-40.96 40.96-40.96 12.584 0 23.842 5.674 31.355 14.604l166.074 198.309c5.945 7.062 9.557 16.258 9.557 26.298 0 15.945-9.111 29.762-22.411 36.529zM448.377-23.040l43.143 157.286-81.92 40.96 163.84 204.8-40.96-163.84 81.92-40.96z" />
<glyph unicode="&#xe945;" glyph-name="lighting-night" d="M843.19 585.396c35.917 39.096 57.932 91.462 57.932 148.97 0 11.916-0.945 23.611-2.765 35.014-17.206-8.729-37.42-13.109-58.648-13.188-95.897 0-174.61 89.473-183.461 203.809-114.687-10.33-204.065-105.334-205.43-221.502-30.37 10.537-65.385 16.703-101.84 16.703-0.288 0-0.576 0-0.865-0.001-169.623-0.022-307.158-137.57-307.158-307.241 0-138.393 91.501-255.415 217.306-293.869 4.095-1.228 6.306-1.607 8.605-1.607 11.311 0 20.48 9.169 20.48 20.48 0 9.443-6.391 17.393-15.083 19.762-111.113 33.809-190.467 135.248-190.467 255.22 0 147.040 119.2 266.24 266.24 266.24 98.945 0 185.283-53.974 231.178-134.086 4.246-7.565 10.873-11.722 18.471-11.722 3.284 0 6.386 0.776 9.133 2.155 26.020 13.116 56.85 20.828 89.481 20.828 0.006 0 0.013 0 0.019 0 113.114-0.015 204.805-91.716 204.805-204.833 0-93.231-62.287-171.914-147.518-196.706-10.111-2.878-16.336-10.743-16.336-20.062 0-11.299 9.15-20.461 20.444-20.48 0.023 0 0.048 0 0.073 0 1.969 0 3.872 0.284 5.67 0.814 103.718 30.397 178.33 124.679 178.62 236.434 0.009 0.822 0.014 1.753 0.014 2.685 0 80.128-38.619 151.236-98.26 195.726zM605.88 614.887c-28.291 44.265-66.322 79.955-111.23 104.698-2.29 5.138-2.843 10.415-3.115 15.766 0.509 82.786 54.669 152.423 129.292 176.16 27.119-114.401 114.811-196.28 218.853-196.28 6.855 0.001 13.624 0.365 20.29 1.075-5.707-42.951-24.738-80.665-53.064-109.118-31.991 15.859-69.668 25.134-109.512 25.134-0.377 0-0.755-0.001-1.132-0.002 0.002 0-0.066 0-0.133 0-32.513 0-63.532-6.399-91.866-18.007zM632.717 211.853l-52.531 26.264 32.301 129.204c1.28 3.793 2.019 8.161 2.019 12.701 0 22.426-18.022 40.642-40.373 40.956h-0.693c-0.881 0-1.765-0.029-2.646-0.086-11.331-0.743-21.307-5.995-28.249-13.959q-0.701-0.807-1.324-1.597l-163.607-204.53c-5.593-6.944-8.977-15.871-8.977-25.589 0-15.946 9.112-29.763 22.413-36.53l52.072-26.027-34.247-124.862c-0.927-3.25-1.461-6.983-1.461-10.841 0-22.622 18.338-40.96 40.96-40.96 12.584 0 23.842 5.674 31.355 14.604l166.074 198.309c5.944 7.061 9.555 16.257 9.555 26.295 0 15.944-9.11 29.761-22.409 36.528zM448.377-23.040l43.143 157.286-81.92 40.96 163.84 204.8-40.96-163.84 81.92-40.96z" />
<glyph unicode="&#xe946;" glyph-name="lighting" d="M696.32 673.28c-0.057 0-0.124 0-0.191 0-32.513 0-63.532-6.399-91.866-18.007-53.969 85.445-148.606 140.721-256.154 140.721-169.632 0-307.147-137.514-307.147-307.147 0-138.374 91.503-255.376 217.302-293.798 4.095-1.228 6.305-1.607 8.605-1.607 11.311 0 20.48 9.169 20.48 20.48 0 9.443-6.391 17.393-15.083 19.762-111.113 33.809-190.467 135.248-190.467 255.22 0 147.040 119.2 266.24 266.24 266.24 98.945 0 185.283-53.974 231.178-134.086 4.246-7.565 10.873-11.722 18.471-11.722 3.284 0 6.386 0.776 9.133 2.155 26.020 13.116 56.85 20.828 89.481 20.828 0.006 0 0.013 0 0.019 0 113.114-0.015 204.805-91.716 204.805-204.833 0-93.231-62.287-171.914-147.518-196.706-10.111-2.878-16.336-10.743-16.336-20.062 0-11.299 9.15-20.461 20.444-20.48 0.023 0 0.048 0 0.073 0 1.969 0 3.872 0.284 5.67 0.814 103.876 30.14 178.625 124.56 178.625 236.439 0 135.737-110.030 245.775-245.764 245.789zM632.721 252.809l-52.535 26.264c1.872 7.496 34.316 134.459 34.316 141.902 0 0.028 0 0.060 0 0.093 0 22.405-18.028 40.599-40.37 40.867h-0.693c-0.885 0-1.769-0.025-2.646-0.086-7.377-0.472-14.118-2.841-19.846-6.619-9.448-6.148-166.198-204.525-173.354-213.467-5.593-6.944-8.978-15.872-8.978-25.591 0-15.945 9.11-29.761 22.41-36.528l52.076-26.027-34.251-124.867c-0.927-3.25-1.461-6.983-1.461-10.841 0-22.622 18.338-40.96 40.96-40.96 12.584 0 23.842 5.674 31.355 14.604l166.074 198.309c5.945 7.062 9.557 16.258 9.557 26.298 0 15.945-9.111 29.762-22.411 36.529zM448.377 17.92l43.143 157.286-81.92 40.96 163.84 204.8-40.96-163.84 81.92-40.96z" />
<glyph unicode="&#xe947;" glyph-name="low-temperature" d="M614.4 273.51v604.57c0 22.622-18.338 40.96-40.96 40.96h-122.88c-22.622 0-40.96-18.338-40.96-40.96v-604.57c-49.683-33.539-81.92-89.634-81.92-153.258 0-101.797 82.523-184.32 184.32-184.32s184.32 82.523 184.32 184.32c0 63.624-32.237 119.719-81.268 152.843zM512-23.040c-0.015 0-0.032 0-0.050 0-79.151 0-143.315 64.164-143.315 143.315 0 49.497 25.092 93.133 63.25 118.882l18.674 12.493v626.43h122.88v-626.43l18.166-12.169c38.661-26.074 63.75-69.708 63.75-119.202 0-79.153-64.166-143.319-143.319-143.319-0.013 0-0.026 0-0.038 0zM532.48 220.672v104.448c0 11.311-9.169 20.48-20.48 20.48s-20.48-9.169-20.48-20.48v-104.448c-47.075-9.861-81.92-51.027-81.92-100.331 0-56.554 45.846-102.4 102.4-102.4s102.4 45.846 102.4 102.4c0 49.304-34.846 90.47-81.253 100.214z" />
<glyph unicode="&#xe948;" glyph-name="medium-temperature" d="M614.4 273.51v604.57c0 22.622-18.338 40.96-40.96 40.96h-122.88c-22.622 0-40.96-18.338-40.96-40.96v-604.57c-49.683-33.539-81.92-89.634-81.92-153.258 0-101.797 82.523-184.32 184.32-184.32s184.32 82.523 184.32 184.32c0 63.624-32.237 119.719-81.268 152.843zM512-23.040c-0.015 0-0.032 0-0.050 0-79.151 0-143.315 64.164-143.315 143.315 0 49.497 25.092 93.133 63.25 118.882l18.674 12.493v626.43h122.88v-626.43l18.166-12.169c38.661-26.074 63.75-69.708 63.75-119.202 0-79.153-64.166-143.319-143.319-143.319-0.013 0-0.026 0-0.038 0zM532.48 220.672v309.248c0 11.311-9.169 20.48-20.48 20.48s-20.48-9.169-20.48-20.48v-309.248c-47.075-9.861-81.92-51.027-81.92-100.331 0-56.554 45.846-102.4 102.4-102.4s102.4 45.846 102.4 102.4c0 49.304-34.846 90.47-81.253 100.214z" />
</font>
</defs>
</svg>
