<?xml version="1.0" standalone="no"?>
<!DOCTYPE svg PUBLIC "-//W3C//DTD SVG 1.1//EN" "http://www.w3.org/Graphics/SVG/1.1/DTD/svg11.dtd">
<svg xmlns="http://www.w3.org/2000/svg">
<metadata>Generated by Fontastic.me</metadata>
<defs>
<font id="interloop" horiz-adv-x="512">
<font-face font-family="interloop" units-per-em="512" ascent="480" descent="-32"/>
<missing-glyph horiz-adv-x="512" />

<glyph glyph-name="education-atom" unicode="&#97;" d="M398 327c23 54 33 100 27 129-3 13-10 23-19 29-6 4-13 6-21 6-33 0-80-33-129-86-49 53-96 86-129 86-8 0-15-2-21-6-10-6-16-16-19-29-6-29 4-75 27-129-66-13-114-38-114-71 0-33 48-58 114-71-23-54-33-100-27-129 3-13 10-23 19-29 6-4 13-6 21-6 33 0 80 33 129 86 49-53 96-86 129-86 8 0 15 2 21 6 9 6 16 16 19 29 6 29-4 75-27 129 66 13 114 38 114 71 0 33-48 58-114 71z m-13 142c4 0 7-1 10-2 4-3 7-8 9-16 5-25-5-69-27-120-21 4-44 7-67 8-13 18-27 35-40 50 48 53 91 80 115 80z m-69-250c-6-9-12-17-18-26-13-1-27-1-42-1-15 0-29 0-42 1-6 9-12 17-18 26-8 12-16 25-23 37 7 12 15 25 23 37 6 9 12 17 18 26 13 1 27 1 42 1 15 0 29 0 42-1 6-9 12-17 18-26 8-12 16-25 23-37-7-12-15-25-23-37z m35 16c6-12 12-23 17-35-13-2-27-4-43-5 3 4 6 8 9 12 6 10 11 19 17 28z m-69-64c-9-11-17-22-26-32-9 10-17 21-26 32 9 0 17 0 26 0 9 0 17 0 26 0z m-95 24c-16 1-30 3-43 5 5 12 11 23 17 35 6-9 11-18 17-28 3-4 6-8 9-12z m-26 82c-6 12-12 23-17 35 13 2 27 4 43 5-3-4-6-8-9-12-6-10-11-19-17-28z m69 64c9 11 17 22 26 32 9-10 17-21 26-32-9 0-17 0-26 0-9 0-17 0-26 0z m104-36c-3 4-6 8-9 12 16-2 30-3 43-5-5-12-11-23-17-35-6 9-11 18-17 28z m-226 146c2 8 5 13 9 16 3 1 6 2 10 2 24 0 67-27 115-80-13-15-27-32-40-50-23-1-46-4-67-8-22 51-33 95-27 120z m-87-195c0 17 37 38 101 52 8-17 17-34 27-52-10-18-19-35-27-52-64 14-101 35-101 52z m96-211c-4 3-7 8-9 16-6 25 5 69 27 120 21-4 44-7 67-8 13-18 27-35 40-50-57-62-106-89-125-78z m287 16c-2-8-5-13-9-16-19-11-68 16-125 78 13 15 27 32 40 50 23 1 46 4 67 8 22-51 32-95 27-120z m-14 143c-8 17-17 34-27 52 10 18 19 35 27 52 64-14 101-35 101-52 0-17-37-38-101-52z m-134 95c-24 0-43-19-43-43 0-24 19-43 43-43 24 0 43 19 43 43 0 24-19 43-43 43z m0-64c-12 0-21 9-21 21 0 12 9 21 21 21 12 0 21-9 21-21 0-12-9-21-21-21z"/>
<glyph glyph-name="seo-target-audience" unicode="&#98;" d="M245 0c136 0 246 110 246 245 0 136-110 246-246 246-135 0-245-110-245-246 0-135 110-245 245-245z m-10 469l0-32c0-6 4-10 10-10 6 0 11 4 11 10l0 32c115-6 207-98 213-213l-32 0c-6 0-10-5-10-11 0-6 4-10 10-10l32 0c-6-115-98-208-213-213l0 31c0 6-5 11-11 11-6 0-10-5-10-11l0-31c-115 5-208 98-213 213l31 0c6 0 11 4 11 10 0 6-5 11-11 11l-31 0c5 115 98 207 213 213z m-118-341l32 0 0-11c0-6 5-10 11-10l171 0c6 0 10 4 10 10l0 11 32 0c6 0 11 5 11 11l0 64c0 20-8 38-22 52-5 6-12 10-19 14 12 9 20 24 20 40 0 30-24 54-54 54-6 0-13-2-19-4-9 15-26 25-45 25-19 0-35-10-45-25-6 2-12 4-19 4-29 0-53-24-53-54 0-16 8-31 20-41-24-12-41-36-41-65l0-64c0-6 4-11 10-11z m203 0l-149 0 0 75c0 41 33 74 74 74 42 0 75-33 75-74z m43 75l0-54-22 0 0 54c0 18-5 35-14 50 7-3 14-7 20-13 10-10 16-23 16-37z m-54 138c18 0 32-14 32-32 0-17-14-32-32-32-2 0-3 1-5 1-7 5-14 10-23 14 11 9 18 23 18 39 0 3-1 5-1 8 3 1 7 2 11 2z m-64 22c18 0 32-15 32-32 0-18-14-32-32-32-17 0-32 14-32 32 0 17 15 32 32 32z m-64-22c4 0 8-1 12-2-1-3-1-5-1-8 0-16 7-30 17-39-8-4-16-9-23-14-1 0-3-1-5-1-17 0-32 15-32 32 0 18 15 32 32 32z m-53-138c0 23 15 42 36 49-9-14-15-31-15-49l0-54-21 0z"/>
<glyph glyph-name="energy-atom-energy" unicode="&#99;" d="M385 319c17 50 25 93 18 119-4 13-10 22-19 27-5 3-12 4-18 4-29 0-69-29-110-76-41 47-81 76-110 76-6 0-13-1-18-4-9-5-15-14-19-27-7-26 1-69 18-119-72-13-127-38-127-74 0-35 55-60 127-74-17-49-25-92-18-119 4-12 10-21 19-26 5-3 12-5 18-5 29 0 69 29 110 77 41-48 81-77 110-77 6 0 13 2 18 5 9 5 15 14 19 26 7 27-1 70-18 119 72 14 127 39 127 74 0 36-55 61-127 74z m-19 129c3 0 5-1 7-2 4-2 7-7 9-13 6-23-1-63-19-110-19 3-39 5-59 6-11 17-23 33-34 47 39 46 75 72 96 72z m-26-226c6-12 11-23 16-34-12-2-25-3-38-4 4 6 8 13 12 19 4 6 7 13 10 19z m-29-8c-6-11-13-22-19-32-12 0-24-1-36-1-12 0-24 1-36 1-6 10-13 21-19 32-7 10-12 21-18 31 6 11 11 21 18 32 6 11 13 21 19 31 12 1 24 1 36 1 12 0 24 0 36-1 6-10 13-20 19-31 7-11 12-21 18-32-6-10-11-21-18-31z m-34-54c-7-10-14-19-21-28-7 9-14 18-21 28 7 0 14 0 21 0 7 0 14 0 21 0z m-95 43c4-6 8-13 12-19-13 1-26 2-38 4 5 11 10 22 16 34 3-6 6-13 10-19z m-10 66c-6 11-11 23-16 34 12 1 25 3 38 4-4-6-8-13-12-19-4-7-7-13-10-19z m63 61c7 10 14 20 21 29 7-9 14-19 21-29-7 1-14 1-21 1-7 0-14 0-21-1z m95-42c-4 6-8 13-12 19 13-1 26-3 38-4-5-11-10-23-16-34-3 6-6 12-10 19z m-200 145c2 6 5 11 9 13 2 1 4 2 7 2 21 0 57-26 96-72-11-14-23-30-34-47-20-1-40-3-59-6-18 47-25 87-19 110z m-109-188c0 19 42 42 114 54 7-17 15-35 24-54-9-18-17-36-24-54-72 13-114 36-114 54z m125-202c-3 0-5 0-7 2-4 2-7 6-9 13-6 23 1 63 19 110 19-3 39-5 59-7 11-16 23-32 34-46-39-46-75-72-96-72z m236 15c-2-7-5-11-9-13-2-2-4-2-7-2-21 0-57 26-96 72 11 14 23 30 34 46 20 2 40 4 59 7 18-47 25-87 19-110z m-5 133c-7 18-15 36-24 54 9 19 17 37 24 54 72-12 114-35 114-54 0-18-42-41-114-54z m-121 97c-24 0-43-19-43-43 0-23 19-42 43-42 24 0 43 19 43 42 0 24-19 43-43 43z m0-64c-12 0-21 10-21 21 0 12 9 22 21 22 12 0 21-10 21-22 0-11-9-21-21-21z"/>
<glyph glyph-name="ecommerce-star-favorites" unicode="&#100;" d="M510 306c-3 11-13 19-25 21l-139 20-62 126c-5 11-16 18-28 18-12 0-23-7-28-18l-62-126-139-20c-12-2-22-10-25-21-4-12-1-24 7-32l101-99-24-139c-1-9 1-18 7-25 9-11 26-14 38-7l125 65 125-65c4-3 9-4 14-4 9 0 18 4 24 11 6 7 8 16 7 25l-24 139 101 99c8 8 11 20 7 32z m-22-17l-105-102c-3-3-4-6-3-10l25-144c0-4-1-7-3-8-2-4-7-5-12-3l-129 69c-2 0-3 1-5 1-2 0-3-1-5-1l-129-69c-5-2-10-1-12 3-2 1-3 4-3 8l25 144c1 4 0 7-3 10l-105 102c-2 3-3 6-2 10 0 2 2 6 8 7l145 21c3 0 6 2 8 5l64 132c4 7 14 7 18 0l64-132c2-3 5-5 8-5l145-21c6-1 8-5 8-7 1-4 0-7-2-10z"/>
<glyph glyph-name="arrows-stop-arrows-left-right-2" unicode="&#101;" d="M11 384c-6 0-11-5-11-11l0-213c0-6 5-11 11-11 6 0 10 5 10 11l0 213c0 6-4 11-10 11z m490 0c-6 0-10-5-10-11l0-213c0-6 4-11 10-11 6 0 11 5 11 11l0 213c0 6-5 11-11 11z m-13-110l-107 107c-4 4-11 4-15 0-4-4-4-11 0-15l88-89-396 0 88 89c4 4 4 11 0 15-4 4-11 4-15 0l-107-107c-1-1-1-2-2-3 0-2-1-3-1-4 0-2 1-3 1-4 1-2 1-3 2-4l107-107c2-2 5-3 8-3 2 0 5 1 7 3 4 5 4 11 0 16l-88 88 396 0-88-88c-4-5-4-11 0-16 2-2 5-3 7-3 3 0 6 1 8 3l107 107c1 1 1 2 2 4 0 1 1 2 1 4 0 1-1 2-1 4-1 1-1 2-2 3z"/>
<glyph glyph-name="alignment-vertical-align-right" unicode="&#102;" d="M427 11l0 490c0 6-5 11-11 11-6 0-11-5-11-11l0-490c0-6 5-11 11-11 6 0 11 5 11 11z m-186 139c1 0 3-1 4-1 3 0 5 1 7 2l128 96c2 2 4 6 4 9 0 3-2 7-4 9l-128 96c-3 2-8 2-11 1-4-2-6-6-6-10l0-53-160 0c-6 0-11-5-11-11l0-64c0-6 5-11 11-11l160 0 0-53c0-4 2-8 6-10z m15 181l100-75-100-75z m-171-96l0 42 150 0 0-42z"/>
<glyph glyph-name="alignment-vertical-align-left" unicode="&#103;" d="M75 0c6 0 10 5 10 11l0 490c0 6-4 11-10 11-6 0-11-5-11-11l0-490c0-6 5-11 11-11z m175 362c-3 1-8 1-11-1l-128-96c-3-2-4-6-4-9 0-3 1-7 4-9l128-96c2-1 4-2 6-2 2 0 4 1 5 1 4 2 6 6 6 10l0 53 160 0c6 0 11 5 11 11l0 64c0 6-5 11-11 11l-160 0 0 53c0 4-2 8-6 10z m-15-181l-100 75 100 75z m170 96l0-42-149 0 0 42z"/>
<glyph glyph-name="finance-finance-target-2" unicode="&#104;" d="M213 427c-117 0-213-96-213-214 0-117 96-213 213-213 118 0 214 96 214 213 0 55-21 105-56 143l19 19 37-12c1 0 2 0 3 0 3 0 6 1 8 3l71 71c3 3 4 6 3 10-1 3-4 6-7 8l-38 12-12 38c-2 3-5 6-8 7-4 1-7-1-10-3l-71-71c-3-3-4-7-3-11l12-37-19-19c-38 35-88 56-143 56z m192-214c0-106-86-192-192-192-106 0-192 86-192 192 0 106 86 192 192 192 49 0 94-18 128-49l-30-30c-26 23-60 37-98 37-82 0-149-67-149-150 0-82 67-149 149-149 83 0 150 67 150 149 0 38-14 72-37 98l30 30c31-34 49-79 49-128z m-128 0c0-35-28-64-64-64-35 0-64 29-64 64 0 36 29 64 64 64 14 0 27-4 37-12l-37-37 0 17c0 6-4 11-10 11-6 0-11-5-11-11l0-42c0-6 5-11 11-11l42 0c6 0 11 5 11 11 0 6-5 10-11 10l-17 0 37 37c8-10 12-23 12-37z m-12 67c-14 12-32 19-52 19-47 0-85-39-85-86 0-47 38-85 85-85 47 0 86 38 86 85 0 20-7 38-19 52l31 31c19-22 30-51 30-83 0-70-57-128-128-128-70 0-128 58-128 128 0 71 58 128 128 128 32 0 61-11 83-30z m175 202l9-27c1-3 3-5 6-6l27-9-55-54-31 10-10 31z"/>
<glyph glyph-name="ui-profile-user" unicode="&#105;" d="M256 512c-141 0-256-115-256-256 0-64 23-124 66-171 0 0 0 0 0 0 0 0 0 0 0 0 49-54 118-85 190-85 73 0 143 31 191 86 0 0 0 0 0 0 42 47 65 107 65 170 0 141-115 256-256 256z m0-491c-64 0-126 27-170 74l16 61c4 21 25 36 48 36l55 0c16 0 30 13 30 31 0 10-5 19-13 25-39 28-42 84-42 101 0 52 25 78 75 78 52 0 78-27 78-78 0-34-12-78-43-101-8-6-13-15-13-26 0-17 14-30 30-30l59 0c23 0 44-15 48-36l14-60c-45-47-107-75-172-75z m189 96l-10 44c-7 31-35 52-69 52l-59 0c-5 0-8 4-8 10 0 4 3 7 4 8 47 34 51 99 51 118 0 63-36 99-99 99-62 0-96-35-96-99 0-19 3-84 50-118 1-1 4-4 4-9 0-5-4-9-8-9l-55 0c-34 0-62-21-69-52l-12-46c-31 40-48 90-48 141 0 129 106 235 235 235 129 0 235-106 235-235 0-50-16-99-46-139z"/>
<glyph glyph-name="ui-gauge" unicode="&#106;" d="M486 301c5 3 6 10 3 14-4 5-10 6-15 3l-25-17c0 0 0 0 0 0 0 0 0 0 0 0l-149-106c-11 11-27 18-44 18-35 0-64-28-64-64 0-35 29-64 64-64 35 0 64 29 64 64 0 11-3 21-7 29l140 99c24-38 38-82 38-128 0-6 4-10 10-10 6 0 11 4 11 10 0 51-15 99-42 140z m-230-194c-24 0-43 19-43 42 0 24 19 43 43 43 24 0 43-19 43-43 0-23-19-42-43-42z m-235 42c0 130 106 235 235 235 56 0 110-20 153-57 4-3 11-3 15 2 4 4 3 11-1 15-47 39-106 61-167 61-141 0-256-115-256-256 0-6 5-10 11-10 6 0 10 4 10 10z"/>
<glyph glyph-name="building-appartment-3" unicode="&#107;" d="M501 21l-10 0 0 288c0 6-5 11-11 11l-139 0 0 181c0 6-4 11-10 11l-299 0c-6 0-11-5-11-11l0-480-10 0c-6 0-11-4-11-10 0-6 5-11 11-11l490 0c6 0 11 5 11 11 0 6-5 10-11 10z m-32 278l0-278-128 0 0 278z m-426 192l277 0 0-470-85 0 0 75c0 6-5 11-11 11l-85 0c-6 0-11-5-11-11l0-75-85 0z m170-470l-64 0 0 64 64 0z m-117 342l64 0c6 0 11 4 11 10l0 64c0 6-5 11-11 11l-64 0c-6 0-11-5-11-11l0-64c0-6 5-10 11-10z m11 64l42 0 0-43-42 0z m96-64l64 0c6 0 10 4 10 10l0 64c0 6-4 11-10 11l-64 0c-6 0-11-5-11-11l0-64c0-6 5-10 11-10z m10 64l43 0 0-43-43 0z m-117-171l64 0c6 0 11 5 11 11l0 64c0 6-5 10-11 10l-64 0c-6 0-11-4-11-10l0-64c0-6 5-11 11-11z m11 64l42 0 0-43-42 0z m96-64l64 0c6 0 10 5 10 11l0 64c0 6-4 10-10 10l-64 0c-6 0-11-4-11-10l0-64c0-6 5-11 11-11z m10 64l43 0 0-43-43 0z m160-149l64 0c6 0 11 4 11 10l0 64c0 6-5 11-11 11l-64 0c-6 0-10-5-10-11l0-64c0-6 4-10 10-10z m11 64l43 0 0-43-43 0z m-11-171l64 0c6 0 11 5 11 11l0 64c0 6-5 10-11 10l-64 0c-6 0-10-4-10-10l0-64c0-6 4-11 10-11z m11 64l43 0 0-43-43 0z m-224 21c6 0 11 5 11 11l0 64c0 6-5 11-11 11l-64 0c-6 0-11-5-11-11l0-64c0-6 5-11 11-11z m-53 64l42 0 0-42-42 0z m96-64l64 0c6 0 10 5 10 11l0 64c0 6-4 11-10 11l-64 0c-6 0-11-5-11-11l0-64c0-6 5-11 11-11z m10 64l43 0 0-42-43 0z"/>
<glyph glyph-name="files-important-file" unicode="&#108;" d="M75 0l341 0c6 0 11 5 11 11l0 360c0 1 0 2 0 2 0 3-1 6-3 8 0 0 0 0 0 0l-2 1c0 0 0 0 0 0l-105 106c-1 1-3 2-5 2 0 0-1 0-1 0-1 0-1 1-2 1l-234 0c-6 0-11-5-11-11l0-469c0-6 5-11 11-11z m245 454l70-70-70 0z m-235 15l214 0 0-96c0-6 4-10 10-10l96 0 0-342-320 0z m268-244l-68 10-30 58c-4 7-15 7-19 0l-31-58-68-10c-4 0-7-3-9-7-1-4 0-8 3-11l49-45-11-64c-1-4 1-8 4-11 2-1 4-2 6-2 2 0 4 1 5 1l61 31 62-31c3-1 7-1 11 1 3 3 4 7 4 11l-12 64 49 45c3 3 4 7 3 11-1 4-4 7-9 7z m-62-52c-2-2-3-6-3-9l9-49-47 23c-3 2-6 2-9 0l-47-23 8 49c1 3 0 7-3 9l-36 34 51 7c3 1 6 3 8 6l23 45 24-45c1-3 4-5 8-6l51-7z"/>
<glyph glyph-name="ui-users" unicode="&#109;" d="M11 43c6 0 10 4 10 10l0 27c0 85 77 155 171 155 94 0 171-70 171-155l0-27c0-6 4-10 10-10 6 0 11 4 11 10l0 27c0 80-59 148-139 169 32 18 54 53 54 92 0 59-48 107-107 107-59 0-107-48-107-107 0-39 22-74 54-92-80-21-139-89-139-169l0-27c0-6 5-10 11-10z m96 298c0 47 38 86 85 86 47 0 85-39 85-86 0-47-38-85-85-85-47 0-85 38-85 85z m234-85c-6 0-10-5-10-11 0-6 4-10 10-10 71 0 128-53 128-119l0-20c0-6 5-11 11-11 6 0 11 5 11 11l0 20c0 62-43 114-103 133 23 15 39 41 39 71 0 47-39 85-86 85-6 0-10-4-10-10 0-6 4-11 10-11 36 0 64-29 64-64 0-35-28-64-64-64z"/>
<glyph glyph-name="ui-settings-gear" unicode="&#110;" d="M480 320l-43 0c-2 6-5 13-8 19l31 30c6 6 9 14 9 23 0 8-3 16-9 22l-46 46c-12 12-33 12-45 0l-30-31c-6 3-13 6-19 8l0 43c0 18-14 32-32 32l-64 0c-18 0-32-14-32-32l0-43c-6-2-13-5-19-8l-30 31c-12 12-33 12-45 0l-46-46c-6-6-9-14-9-22 0-9 3-17 9-23l31-30c-3-6-6-13-8-19l-43 0c-18 0-32-14-32-32l0-64c0-18 14-32 32-32l43 0c2-6 5-13 8-19l-31-30c-6-6-9-14-9-23 0-8 3-16 9-22l46-46c12-12 33-12 45 0l30 31c6-3 13-6 19-8l0-43c0-18 14-32 32-32l64 0c18 0 32 14 32 32l0 43c6 2 13 5 19 8l30-31c12-12 33-12 45 0l46 46c6 6 9 14 9 22 0 9-3 17-9 23l-31 30c3 6 6 13 8 19l43 0c18 0 32 14 32 32l0 64c0 18-14 32-32 32z m11-96c0-6-5-11-11-11l-51 0c-4 0-8-3-10-7-3-10-7-20-12-30-2-4-2-9 2-12l36-37c2-1 3-4 3-7 0-3-1-5-3-7l-46-46c-4-4-11-4-14 0l-37 36c-3 4-8 4-12 2-10-5-20-9-30-12-4-2-7-6-7-10l0-51c0-6-5-11-11-11l-64 0c-6 0-11 5-11 11l0 51c0 4-3 8-7 10-10 3-20 7-30 12-1 1-3 1-5 1-3 0-5-1-7-3l-37-36c-3-4-10-4-14 0l-46 46c-2 2-3 5-3 7 0 3 1 6 3 7l36 37c4 3 4 8 2 12-5 10-9 20-12 30-2 4-6 7-10 7l-51 0c-6 0-11 5-11 11l0 64c0 6 5 11 11 11l51 0c4 0 8 3 10 7 3 10 7 20 12 30 2 4 2 9-2 12l-36 37c-2 1-3 4-3 7 0 2 1 5 3 7l46 46c4 4 11 4 14 0l37-36c3-4 8-4 12-2 10 5 20 9 30 12 4 1 7 6 7 10l0 51c0 6 5 11 11 11l64 0c6 0 11-5 11-11l0-51c0-4 3-9 7-10 10-3 20-7 30-12 4-2 9-2 12 2l37 36c3 4 10 4 14 0l46-46c2-2 3-5 3-7 0-3-1-6-3-7l-36-37c-4-3-4-8-2-12 5-10 9-20 12-30 2-4 6-7 10-7l51 0c6 0 11-5 11-11z m-235 181c-82 0-149-67-149-149 0-82 67-149 149-149 82 0 149 67 149 149 0 82-67 149-149 149z m0-277c-71 0-128 57-128 128 0 71 57 128 128 128 71 0 128-57 128-128 0-71-57-128-128-128z"/>
<glyph glyph-name="calendar-calendar-list" unicode="&#111;" d="M501 448l-74 0 0 32c0 6-5 11-11 11-6 0-11-5-11-11l0-32-85 0 0 32c0 6-5 11-11 11-6 0-10-5-10-11l0-32-86 0 0 32c0 6-4 11-10 11-6 0-11-5-11-11l0-32-85 0 0 32c0 6-5 11-11 11-6 0-11-5-11-11l0-32-74 0c-6 0-11-5-11-11l0-405c0-6 5-11 11-11l490 0c6 0 11 5 11 11l0 405c0 6-5 11-11 11z m-416-21l0-11c0-6 5-11 11-11 6 0 11 5 11 11l0 11 85 0 0-11c0-6 5-11 11-11 6 0 10 5 10 11l0 11 86 0 0-11c0-6 4-11 10-11 6 0 11 5 11 11l0 11 85 0 0-11c0-6 5-11 11-11 6 0 11 5 11 11l0 11 64 0 0-64-470 0 0 64z m-64-384l0 298 470 0 0-298z m352 64l-192 0c-6 0-10-5-10-11 0-6 4-11 10-11l192 0c6 0 11 5 11 11 0 6-5 11-11 11z m0 192l-192 0c-6 0-10-5-10-11 0-6 4-11 10-11l192 0c6 0 11 5 11 11 0 6-5 11-11 11z m-242-4c-2-2-3-4-3-7 0-3 1-6 3-8 2-2 5-3 8-3 2 0 5 1 7 4 2 1 3 4 3 7 0 3-1 6-3 7-4 5-11 5-15 0z m0-64c-2-1-3-4-3-7 0-3 1-6 3-8 2-2 5-3 8-3 2 0 5 1 7 4 2 1 3 4 3 7 0 3-1 6-3 7-4 5-11 5-15 0z m0-64c-2-1-3-4-3-7 0-3 1-6 3-7 2-3 5-4 8-4 2 0 5 1 7 4 2 1 3 4 3 7 0 3-1 6-3 8-4 4-11 4-15-1z m0-63c-2-2-3-5-3-8 0-3 1-6 3-8 2-2 5-3 8-3 2 0 5 1 7 4 2 1 3 4 3 7 0 3-1 6-3 8-4 4-11 4-15 0z m242 131l-192 0c-6 0-10-5-10-11 0-6 4-11 10-11l192 0c6 0 11 5 11 11 0 6-5 11-11 11z m0-64l-192 0c-6 0-10-5-10-11 0-6 4-11 10-11l192 0c6 0 11 5 11 11 0 6-5 11-11 11z"/>
<glyph glyph-name="ui-settings-2" unicode="&#112;" d="M245 0c136 0 246 110 246 245 0 136-110 246-246 246-135 0-245-110-245-246 0-135 110-245 245-245z m0 469c124 0 224-100 224-224 0-123-100-224-224-224-123 0-224 101-224 224 0 124 101 224 224 224z m-128-170l161 0c5-25 27-43 53-43 29 0 53 24 53 53 0 30-24 54-53 54-26 0-48-19-53-43l-161 0c-6 0-10-5-10-11 0-6 4-10 10-10z m214 42c17 0 32-14 32-32 0-17-15-32-32-32-18 0-32 15-32 32 0 18 14 32 32 32z m-171-213c26 0 47 18 52 43l161 0c6 0 11 4 11 10 0 6-5 11-11 11l-161 0c-5 24-26 43-52 43-29 0-53-24-53-54 0-29 24-53 53-53z m0 85c18 0 32-14 32-32 0-17-14-32-32-32-18 0-32 15-32 32 0 18 14 32 32 32z"/>
<glyph glyph-name="repair-gears" unicode="&#113;" d="M501 203l-40 0c-1 1-1 2-2 4l29 28c4 5 4 11 0 15l-45 46c-5 4-11 4-16 0l-28-29c-2 1-3 1-4 2l0 40c0 6-5 11-11 11l-64 0c-6 0-11-5-11-11l0-40c-1-1-2-1-4-2l-28 29c-5 4-11 4-15 0l-46-45c-4-5-4-11 0-16l29-28c-1-2-1-3-2-4l-40 0c-6 0-11-5-11-11l0-64c0-6 5-11 11-11l40 0c1-1 1-2 2-4l-29-28c-4-5-4-11 0-15l45-46c5-4 11-4 16 0l28 29c2-1 3-1 4-2l0-40c0-6 5-11 11-11l64 0c6 0 11 5 11 11l0 40c1 1 2 1 4 2l28-29c5-4 11-4 15 0l46 46c4 4 4 10 0 15l-29 28c1 2 1 3 2 4l40 0c6 0 11 5 11 11l0 64c0 6-5 11-11 11z m-10-64l-38 0c-4 0-9-3-10-8-2-5-4-10-6-15-2-4-2-9 2-13l26-26-30-30-26 26c-4 4-9 4-13 2-5-2-10-4-15-6-5-1-8-6-8-10l0-38-42 0 0 38c0 4-3 9-8 10-5 2-10 4-15 6-4 2-9 2-13-2l-26-26-30 30 26 26c4 4 4 9 2 13-2 5-4 10-6 15-1 5-6 8-10 8l-38 0 0 42 38 0c4 0 9 3 10 8 2 5 4 10 6 15 2 4 2 9-2 13l-26 26 30 30 26-26c4-4 9-4 13-2 5 2 10 4 15 6 5 1 8 6 8 10l0 38 42 0 0-38c0-4 3-9 8-10 5-2 10-4 15-6 4-2 9-2 13 2l26 26 30-30-26-26c-4-4-4-9-2-13 2-5 4-10 6-15 1-5 6-8 10-8l38 0z m-139 74c-29 0-53-24-53-53 0-29 24-53 53-53 29 0 53 24 53 53 0 29-24 53-53 53z m0-85c-18 0-32 14-32 32 0 18 14 32 32 32 18 0 32-14 32-32 0-18-14-32-32-32z m-341 235l16 0c1-3 3-7 4-9l-12-12c-2-2-3-5-3-8 0-3 1-5 3-7l30-30c4-4 12-4 16 0l11 11c3-1 6-2 9-4l0-16c0-6 5-11 11-11l43 0c6 0 10 5 10 11l0 16c3 2 6 3 9 4l12-11c4-4 11-4 15 0l30 30c2 2 3 4 3 7 0 3-1 6-3 8l-11 12c1 2 2 6 4 9l16 0c6 0 11 4 11 10l0 43c0 6-5 11-11 11l-16 0c-2 3-3 6-4 9l11 11c2 2 3 5 3 8 0 3-1 6-3 8l-30 30c-4 4-11 4-15 0l-12-12c-2 1-6 3-9 4l0 16c0 6-4 11-10 11l-43 0c-6 0-11-5-11-11l0-16c-3-1-6-3-9-4l-11 12c-4 4-12 4-16 0l-30-30c-2-2-3-5-3-8 0-3 1-6 3-8l12-11c-1-3-3-6-4-9l-16 0c-6 0-11-5-11-11l0-43c0-6 5-10 11-10z m10 42l14 0c5 0 9 4 10 8 2 7 5 13 8 19 3 5 2 10-1 13l-10 10 15 15 10-10c3-3 8-4 13-1 6 3 12 6 19 8 4 1 8 5 8 10l0 14 21 0 0-14c0-5 3-9 8-10 7-2 13-5 19-8 4-3 10-2 13 1l10 10 15-15-10-10c-3-3-4-8-2-13 4-6 7-12 8-19 2-4 6-8 11-8l13 0 0-21-13 0c-5 0-9-3-11-8-1-7-4-13-8-19-2-4-1-10 2-13l10-10-15-15-10 10c-3 3-9 4-13 2-6-4-12-7-19-8-5-2-8-6-8-11l0-13-21 0 0 13c0 5-4 9-8 11-7 1-13 4-19 8-5 2-10 1-13-2l-10-10-15 15 10 10c3 3 4 9 1 13-3 6-6 12-8 19-1 5-5 8-10 8l-14 0z m96-42c18 0 32 14 32 32 0 17-14 32-32 32-17 0-32-15-32-32 0-18 15-32 32-32z m0 42c6 0 11-4 11-10 0-6-5-11-11-11-6 0-10 5-10 11 0 6 4 10 10 10z"/>
<glyph glyph-name="gaming-game-strategy" unicode="&#114;" d="M208 469l59 0c6 0 10 5 10 11 0 6-4 11-10 11l-86 0c0 0 0 0 0 0-1 0-1-1-2-1-1 0-1 0-2 0-1-1-1-1-1-1-1-1-2-1-2-2-1 0-1 0-1 0 0 0 0-1 0-1-1-1-1-2-2-2 0-1 0-2 0-3 0 0 0 0 0-1l0-85c0-6 4-11 10-11 6 0 11 5 11 11l0 60c55-55 85-125 85-199 0-81-36-158-103-216-4-4-5-11-1-15 2-2 5-4 8-4 3 0 5 1 7 3 71 62 111 144 111 232 0 79-33 154-91 213z m216-280c-5 4-11 4-16 0l-35-35-35 35c-4 4-11 4-15 0-4-4-4-11 0-15l35-35-35-35c-4-5-4-11 0-16 2-2 5-3 8-3 2 0 5 1 7 3l35 36 35-36c3-2 5-3 8-3 3 0 5 1 8 3 4 5 4 11 0 16l-36 35 36 35c4 4 4 11 0 15z m-256 128c-5 4-11 4-16 0l-35-35-35 35c-4 4-11 4-15 0-4-4-4-11 0-15l35-35-35-35c-4-5-4-11 0-16 2-2 5-3 8-3 2 0 5 1 7 3l35 36 35-36c3-2 5-3 8-3 3 0 5 1 8 3 4 5 4 11 0 16l-36 35 36 35c4 4 4 11 0 15z m227 110c-30 0-54-24-54-54 0-29 24-53 54-53 29 0 53 24 53 53 0 30-24 54-53 54z m0-86c-18 0-32 15-32 32 0 18 14 32 32 32 17 0 32-14 32-32 0-17-15-32-32-32z"/>
<glyph glyph-name="finance-target-dollar" unicode="&#115;" d="M187 254c5-6 12-11 18-14 8-4 15-5 23-5l7 0 0-86-7 0c-4 0-9 1-13 3-5 3-9 6-12 9-3 4-6 9-8 14-2 6-8 8-14 6-5-2-8-8-6-13 3-8 7-15 12-21 5-6 11-10 18-14 8-3 15-5 23-5l7 0 0-11c0-6 4-10 10-10 6 0 11 4 11 10l0 11 6 0c8 0 16 2 23 5 7 4 13 8 19 14 5 6 9 13 12 21 3 7 4 16 4 24 0 8-1 17-4 24-3 8-7 15-12 21-6 6-12 10-19 14-7 3-15 5-23 5l-6 0 0 85 6 0c5 0 10-1 14-3 4-2 8-5 12-9 3-4 6-8 8-13 2-6 8-9 13-7 6 2 9 9 7 14-3 8-7 14-12 20-6 6-12 11-19 14-7 4-15 6-23 6l-6 0 0 10c0 6-5 11-11 11-6 0-10-5-10-11l0-10-7 0c-8 0-15-2-23-6-6-3-13-8-18-14-5-6-9-12-12-20-3-8-4-16-4-24 0-9 1-17 4-25 3-7 7-14 12-20z m75-19c5 0 10-1 14-3 4-3 8-6 12-9 3-4 6-9 8-14 2-5 3-11 3-17 0-6-1-12-3-17-2-5-5-10-8-14-4-3-8-6-12-9-4-2-9-3-14-3l-6 0 0 86z m-67 81c2 5 5 9 8 13 4 4 7 7 12 9 4 2 9 3 13 3l7 0 0-85-7 0c-4 0-9 1-13 3-5 2-9 5-12 9-3 4-6 9-8 14-2 5-3 11-3 17 0 6 1 11 3 17z m-184-81l32 0c6-104 88-186 192-192l0-32c0-6 4-11 10-11 6 0 11 5 11 11l0 32c103 6 186 88 191 192l33 0c6 0 11 4 11 10 0 6-5 11-11 11l-33 0c-5 103-88 186-191 191l0 33c0 6-5 11-11 11-6 0-10-5-10-11l0-33c-104-5-186-88-192-191l-32 0c-6 0-11-5-11-11 0-6 5-10 11-10z m224 191l0-10c0-6 4-11 10-11 6 0 11 5 11 11l0 10c91-5 165-79 170-170l-10 0c-6 0-11-5-11-11 0-6 5-10 11-10l10 0c-5-92-79-165-170-170l0 10c0 6-5 10-11 10-6 0-10-4-10-10l0-10c-92 5-165 78-170 170l10 0c6 0 10 4 10 10 0 6-4 11-10 11l-10 0c5 91 78 165 170 170z"/>
<glyph glyph-name="ui-settings-3" unicode="&#116;" d="M469 405l-310 0c-15 26-43 43-74 43-47 0-85-38-85-85 0-47 38-86 85-86 31 0 59 17 74 43l310 0c24 0 43 19 43 43 0 23-19 42-43 42z m-384-106c-35 0-64 28-64 64 0 35 29 64 64 64 25 0 48-15 58-37 4-8 6-18 6-27 0-10-2-19-6-28-10-22-33-36-58-36z m384 42l-301 0c0 1 0 1 0 2 0 1 1 1 1 2 1 6 2 12 2 18 0 6-1 12-2 17 0 1-1 2-1 3 0 0 0 1 0 1l301 0c12 0 22-10 22-21 0-12-10-22-22-22z m-42-106c-31 0-59-17-74-43l-310 0c-24 0-43-19-43-43 0-23 19-42 43-42l310 0c15-26 43-43 74-43 47 0 85 38 85 85 0 47-38 86-85 86z m-384-107c-12 0-22 10-22 21 0 12 10 22 22 22l301 0c0-1 0-1 0-2 0-1-1-1-1-2-1-6-2-12-2-18 0-6 1-12 2-17 0-1 1-2 1-3 0 0 0-1 0-1z m384-43c-24 0-46 14-57 35 0 1-1 2-1 3-2 3-3 6-3 9-1 1-1 2-2 4-1 4-1 9-1 13 0 10 2 19 6 28 10 22 33 36 58 36 35 0 64-28 64-64 0-35-29-64-64-64z"/>
<glyph glyph-name="ui-options" unicode="&#117;" d="M501 427l-289 0c-5 36-36 64-73 64-38 0-69-28-74-64l-54 0c-6 0-11-5-11-11 0-6 5-11 11-11l54 0c5-36 36-64 74-64 37 0 68 28 73 64l289 0c6 0 11 5 11 11 0 6-5 11-11 11z m-362-64c-30 0-54 24-54 53 0 29 24 53 54 53 29 0 53-24 53-53 0-29-24-53-53-53z m362-107l-97 0c-5 36-36 64-73 64-38 0-69-28-74-64l-246 0c-6 0-11-5-11-11 0-6 5-10 11-10l246 0c5-36 36-64 74-64 37 0 68 28 73 64l97 0c6 0 11 4 11 10 0 6-5 11-11 11z m-170-64c-30 0-54 24-54 53 0 30 24 54 54 54 29 0 53-24 53-54 0-29-24-53-53-53z m170-107l-225 0c-5 36-36 64-73 64-38 0-69-28-74-64l-118 0c-6 0-11-4-11-10 0-6 5-11 11-11l118 0c5-36 36-64 74-64 37 0 68 28 73 64l225 0c6 0 11 5 11 11 0 6-5 10-11 10z m-298-64c-30 0-54 24-54 54 0 29 24 53 54 53 29 0 53-24 53-53 0-30-24-54-53-54z"/>
<glyph glyph-name="building-office-building-block" unicode="&#118;" d="M181 384c6 0 11 5 11 11l0 10 11 0c6 0 10 5 10 11 0 6-4 11-10 11l-22 0c-6 0-10-5-10-11l0-21c0-6 4-11 10-11z m64 0c6 0 11 5 11 11l0 10 11 0c6 0 10 5 10 11 0 6-4 11-10 11l-22 0c-6 0-10-5-10-11l0-21c0-6 4-11 10-11z m64 0c6 0 11 5 11 11l0 10 11 0c6 0 10 5 10 11 0 6-4 11-10 11l-22 0c-6 0-10-5-10-11l0-21c0-6 4-11 10-11z m-128-64c6 0 11 5 11 11l0 10 11 0c6 0 10 5 10 11 0 6-4 11-10 11l-22 0c-6 0-10-5-10-11l0-21c0-6 4-11 10-11z m64 0c6 0 11 5 11 11l0 10 11 0c6 0 10 5 10 11 0 6-4 11-10 11l-22 0c-6 0-10-5-10-11l0-21c0-6 4-11 10-11z m64 0c6 0 11 5 11 11l0 10 11 0c6 0 10 5 10 11 0 6-4 11-10 11l-22 0c-6 0-10-5-10-11l0-21c0-6 4-11 10-11z m-128-64c6 0 11 5 11 11l0 10 11 0c6 0 10 5 10 11 0 6-4 11-10 11l-22 0c-6 0-10-5-10-11l0-21c0-6 4-11 10-11z m64 0c6 0 11 5 11 11l0 10 11 0c6 0 10 5 10 11 0 6-4 11-10 11l-22 0c-6 0-10-5-10-11l0-21c0-6 4-11 10-11z m64 0c6 0 11 5 11 11l0 10 11 0c6 0 10 5 10 11 0 6-4 11-10 11l-22 0c-6 0-10-5-10-11l0-21c0-6 4-11 10-11z m-128-64c6 0 11 5 11 11l0 10 11 0c6 0 10 5 10 11 0 6-4 11-10 11l-22 0c-6 0-10-5-10-11l0-21c0-6 4-11 10-11z m64 0c6 0 11 5 11 11l0 10 11 0c6 0 10 5 10 11 0 6-4 11-10 11l-22 0c-6 0-10-5-10-11l0-21c0-6 4-11 10-11z m64 0c6 0 11 5 11 11l0 10 11 0c6 0 10 5 10 11 0 6-4 11-10 11l-22 0c-6 0-10-5-10-11l0-21c0-6 4-11 10-11z m-128-64c6 0 11 5 11 11l0 10 11 0c6 0 10 5 10 11 0 6-4 11-10 11l-22 0c-6 0-10-5-10-11l0-21c0-6 4-11 10-11z m64 0c6 0 11 5 11 11l0 10 11 0c6 0 10 5 10 11 0 6-4 11-10 11l-22 0c-6 0-10-5-10-11l0-21c0-6 4-11 10-11z m64 0c6 0 11 5 11 11l0 10 11 0c6 0 10 5 10 11 0 6-4 11-10 11l-22 0c-6 0-10-5-10-11l0-21c0-6 4-11 10-11z m-128-64c6 0 11 5 11 11l0 10 11 0c6 0 10 5 10 11 0 6-4 11-10 11l-22 0c-6 0-10-5-10-11l0-21c0-6 4-11 10-11z m64 0c6 0 11 5 11 11l0 10 11 0c6 0 10 5 10 11 0 6-4 11-10 11l-22 0c-6 0-10-5-10-11l0-21c0-6 4-11 10-11z m64 0c6 0 11 5 11 11l0 10 11 0c6 0 10 5 10 11 0 6-4 11-10 11l-22 0c-6 0-10-5-10-11l0-21c0-6 4-11 10-11z m-213 43l-21 0c-6 0-11-5-11-11l0-21c0-6 5-11 11-11 6 0 10 5 10 11l0 10 11 0c6 0 11 5 11 11 0 6-5 11-11 11z m0 64l-21 0c-6 0-11-5-11-11l0-21c0-6 5-11 11-11 6 0 10 5 10 11l0 10 11 0c6 0 11 5 11 11 0 6-5 11-11 11z m-21 21c6 0 10 5 10 11l0 10 11 0c6 0 11 5 11 11 0 6-5 11-11 11l-21 0c-6 0-11-5-11-11l0-21c0-6 5-11 11-11z m341-128c6 0 11 5 11 11l0 10 10 0c6 0 11 5 11 11 0 6-5 11-11 11l-21 0c-6 0-11-5-11-11l0-21c0-6 5-11 11-11z m0 64c6 0 11 5 11 11l0 10 10 0c6 0 11 5 11 11 0 6-5 11-11 11l-21 0c-6 0-11-5-11-11l0-21c0-6 5-11 11-11z m0 64c6 0 11 5 11 11l0 10 10 0c6 0 11 5 11 11 0 6-5 11-11 11l-21 0c-6 0-11-5-11-11l0-21c0-6 5-11 11-11z m-405-192l490 0c6 0 11 5 11 11 0 6-5 10-11 10l-10 0 0 267c0 6-5 11-11 11l-96 0 0 181c0 6-5 11-11 11l-234 0c-6 0-11-5-11-11l0-181-96 0c-6 0-11-5-11-11l0-267-10 0c-6 0-11-4-11-10 0-6 5-11 11-11z m458 277l0-256-85 0 0 256z m-320 192l214 0 0-448-214 0z m-106-192l85 0 0-256-85 0z"/>
<glyph glyph-name="building-appartment-2" unicode="&#119;" d="M437 512l-362 0c-6 0-11-5-11-11l0-480-32 0c-6 0-11-4-11-10 0-6 5-11 11-11l448 0c6 0 11 5 11 11 0 6-5 10-11 10l-32 0 0 480c0 6-5 11-11 11z m-352-21l342 0 0-470-107 0 0 96c0 6-5 11-11 11l-106 0c-6 0-11-5-11-11l0-96-107 0z m214-470l-86 0 0 86 86 0z m-182 342l64 0c6 0 11 4 11 10l0 64c0 6-5 11-11 11l-64 0c-6 0-10-5-10-11l0-64c0-6 4-10 10-10z m11 64l43 0 0-43-43 0z m203-64l64 0c6 0 10 4 10 10l0 64c0 6-4 11-10 11l-64 0c-6 0-11-5-11-11l0-64c0-6 5-10 11-10z m10 64l43 0 0-43-43 0z m-117-64l64 0c6 0 11 4 11 10l0 64c0 6-5 11-11 11l-64 0c-6 0-11-5-11-11l0-64c0-6 5-10 11-10z m11 64l42 0 0-43-42 0z m-118-171l64 0c6 0 11 5 11 11l0 64c0 6-5 10-11 10l-64 0c-6 0-10-4-10-10l0-64c0-6 4-11 10-11z m11 64l43 0 0-43-43 0z m203-64l64 0c6 0 10 5 10 11l0 64c0 6-4 10-10 10l-64 0c-6 0-11-4-11-10l0-64c0-6 5-11 11-11z m10 64l43 0 0-43-43 0z m-117-64l64 0c6 0 11 5 11 11l0 64c0 6-5 10-11 10l-64 0c-6 0-11-4-11-10l0-64c0-6 5-11 11-11z m11 64l42 0 0-43-42 0z m-43-160l0 64c0 6-5 11-11 11l-64 0c-6 0-10-5-10-11l0-64c0-6 4-11 10-11l64 0c6 0 11 5 11 11z m-21 11l-43 0 0 42 43 0z m160-22l64 0c6 0 10 5 10 11l0 64c0 6-4 11-10 11l-64 0c-6 0-11-5-11-11l0-64c0-6 5-11 11-11z m10 64l43 0 0-42-43 0z m-117-64l64 0c6 0 11 5 11 11l0 64c0 6-5 11-11 11l-64 0c-6 0-11-5-11-11l0-64c0-6 5-11 11-11z m11 64l42 0 0-42-42 0z"/>
<glyph glyph-name="construction-tiles" unicode="&#120;" d="M63 288l-37-23c-3-2-5-5-5-9 0-4 2-7 5-9l37-23-37-23c-3-2-5-5-5-9 0-4 2-7 5-9l224-139c2-1 4-1 6-1 2 0 4 0 6 1l224 139c3 2 5 5 5 9 0 4-2 7-5 9l-37 23 37 23c3 2 5 5 5 9 0 4-2 7-5 9l-37 23 37 23c3 2 5 5 5 9 0 4-2 7-5 9l-224 139c-4 2-8 2-12 0l-224-139c-3-2-5-5-5-9 0-4 2-7 5-9z m397-96l-204-126-204 126 32 19 166-103c2-1 4-1 6-1 2 0 4 0 6 1l166 103z m0 64l-204-126-204 126 32 19 166-103c2-1 4-1 6-1 2 0 4 0 6 1l166 103z m-204 190l204-126-204-126-204 126z"/>
<glyph glyph-name="calendar-calendar-confirm" unicode="&#121;" d="M501 448l-74 0 0 32c0 6-5 11-11 11-6 0-11-5-11-11l0-32-85 0 0 32c0 6-5 11-11 11-6 0-10-5-10-11l0-32-86 0 0 32c0 6-4 11-10 11-6 0-11-5-11-11l0-32-85 0 0 32c0 6-5 11-11 11-6 0-11-5-11-11l0-32-74 0c-6 0-11-5-11-11l0-405c0-6 5-11 11-11l490 0c6 0 11 5 11 11l0 405c0 6-5 11-11 11z m-416-21l0-11c0-6 5-11 11-11 6 0 11 5 11 11l0 11 85 0 0-11c0-6 5-11 11-11 6 0 10 5 10 11l0 11 86 0 0-11c0-6 4-11 10-11 6 0 11 5 11 11l0 11 85 0 0-11c0-6 5-11 11-11 6 0 11 5 11 11l0 11 64 0 0-64-470 0 0 64z m-64-384l0 298 470 0 0-298z m344 251l-138-183-82 62c-5 4-11 3-15-2-3-5-2-11 2-15l91-69c2-1 4-2 6-2 1 0 1 0 2 0 3 1 5 2 7 5l144 192c3 4 2 11-2 15-5 3-12 2-15-3z"/>
<glyph glyph-name="building-resident-block" unicode="&#122;" d="M11 0l490 0c6 0 11 5 11 11l0 64c0 6-5 10-11 10l-10 0 0 342 10 0c6 0 11 4 11 10l0 64c0 6-5 11-11 11l-490 0c-6 0-11-5-11-11l0-64c0-6 5-10 11-10l10 0 0-342-10 0c-6 0-11-4-11-10l0-64c0-6 5-11 11-11z m288 21l-86 0 0 128 86 0z m-278 43l11 0c6 0 11 5 11 11l0 362c0 6-5 11-11 11l-11 0 0 43 470 0 0-43-11 0c-6 0-11-5-11-11l0-362c0-6 5-11 11-11l11 0 0-43-171 0 0 139c0 6-5 11-11 11l-106 0c-6 0-11-5-11-11l0-139-171 0z m331 277l64 0c6 0 11 5 11 11l0 64c0 6-5 11-11 11l-64 0c-6 0-11-5-11-11l0-64c0-6 5-11 11-11z m11 64l42 0 0-42-42 0z m-139-64l64 0c6 0 11 5 11 11l0 64c0 6-5 11-11 11l-64 0c-6 0-11-5-11-11l0-64c0-6 5-11 11-11z m11 64l42 0 0-42-42 0z m-75 22l-64 0c-6 0-11-5-11-11l0-64c0-6 5-11 11-11l64 0c6 0 11 5 11 11l0 64c0 6-5 11-11 11z m-11-64l-42 0 0 42 42 0z m203-150l64 0c6 0 11 5 11 11l0 64c0 6-5 11-11 11l-64 0c-6 0-11-5-11-11l0-64c0-6 5-11 11-11z m11 64l42 0 0-42-42 0z m-11-192l64 0c6 0 11 5 11 11l0 64c0 6-5 11-11 11l-64 0c-6 0-11-5-11-11l0-64c0-6 5-11 11-11z m11 64l42 0 0-42-42 0z m-139 64l64 0c6 0 11 5 11 11l0 64c0 6-5 11-11 11l-64 0c-6 0-11-5-11-11l0-64c0-6 5-11 11-11z m11 64l42 0 0-42-42 0z m-75 22l-64 0c-6 0-11-5-11-11l0-64c0-6 5-11 11-11l64 0c6 0 11 5 11 11l0 64c0 6-5 11-11 11z m-11-64l-42 0 0 42 42 0z m11-64l-64 0c-6 0-11-5-11-11l0-64c0-6 5-11 11-11l64 0c6 0 11 5 11 11l0 64c0 6-5 11-11 11z m-11-64l-42 0 0 42 42 0z"/>
<glyph glyph-name="education-bell" unicode="&#65;" d="M256 512c-94 0-171-77-171-171l0-148c0-6-1-11-4-16l-58-97c-2-3-2-7 0-11 2-3 5-5 9-5l160 0c0-35 29-64 64-64 35 0 64 29 64 64l160 0c4 0 7 2 9 5 2 4 2 8 0 11l-58 97c-3 5-4 10-4 16l0 148c0 94-77 171-171 171z m0-491c-24 0-43 19-43 43l86 0c0-24-19-43-43-43z m205 64l-410 0 48 81c5 8 8 18 8 27l0 148c0 83 67 150 149 150 82 0 149-67 149-150l0-148c0-10 3-19 8-27z m-254 374c-15-6-28-16-39-28-12-11-21-25-27-41-7-15-10-32-10-50 0-5 5-10 11-10 6 0 10 5 10 10 0 15 3 29 9 42 5 13 12 25 22 35 9 9 20 17 33 23 5 2 8 8 5 14-2 5-8 8-14 5z"/>
<glyph glyph-name="gaming-crown" unicode="&#66;" d="M53 277l30-149-19 0c-24 0-43-19-43-43 0-23 19-42 43-42l363 0c23 0 42 19 42 42 0 24-19 43-42 43l-19 0 30 149c29 1 53 24 53 54 0 29-24 53-54 53-29 0-53-24-53-53 0-5 1-10 2-14l-71-36-39 91c14 10 23 26 23 44 0 29-24 53-54 53-29 0-53-24-53-53 0-18 9-34 23-44l-39-91-71 36c1 4 2 9 2 14 0 29-24 53-54 53-29 0-53-24-53-53 0-30 24-53 53-54z m395-192c0-11-10-21-21-21l-363 0c-12 0-21 10-21 21 0 12 9 22 21 22l363 0c11 0 21-10 21-22z m-11 278c18 0 32-15 32-32 0-18-14-32-32-32-2 0-4 0-6 0 0 0 0 0 0 0 0 0 0 0 0 0-15 3-26 16-26 32 0 17 15 32 32 32z m-192 85c18 0 32-14 32-32 0-18-14-32-32-32-17 0-32 14-32 32 0 18 15 32 32 32z m-68-191c1-1 3-1 4-1 2 0 3 0 4 1 3 1 5 3 6 5l44 102c3-1 7-1 10-1 4 0 8 0 11 1l44-102c1-2 3-4 6-5 1-1 2-1 3-1 2 0 4 0 5 1l82 41c5-7 12-13 21-16l-31-154-281 0-31 154c8 3 16 9 21 16z m-124 106c18 0 32-15 32-32 0-16-11-29-25-32 0 0 0 0 0 0 0 0 0 0 0 0-2 0-5 0-7 0-17 0-32 14-32 32 0 17 15 32 32 32z"/>
<glyph glyph-name="sports-trophy" unicode="&#67;" d="M160 192c-5 0-9-3-10-7l-40-121-35 0c-18 0-32-14-32-32 0-18 14-32 32-32l362 0c18 0 32 14 32 32 0 18-14 32-32 32l-35 0-40 121c-1 4-5 7-10 7l-16 0c-13 16-23 33-30 53 33 14 59 41 71 75l39 0c5 0 9 3 10 7l43 128c1 4 0 7-2 10-2 3-5 4-8 4l-75 0 0 32c0 6-5 11-11 11l-234 0c-6 0-11-5-11-11l0-32-75 0c-3 0-6-1-8-4-2-3-3-6-2-10l43-128c1-4 5-7 10-7l39 0c12-34 38-61 71-75-7-20-17-37-30-53z m288-160c0-6-5-11-11-11l-362 0c-6 0-11 5-11 11 0 6 5 11 11 11l362 0c6 0 11-5 11-11z m-68 32l-248 0 36 107 176 0z m64 384l-36-107-26 0c1 7 2 14 2 22l0 85z m-340-107l-36 107 60 0 0-85c0-8 1-15 2-22z m45 22l0 128 214 0 0-128c0-59-48-107-107-107-59 0-107 48-107 107z m77-125c10-2 20-3 30-3 10 0 20 1 30 3 6-16 13-32 23-46l-106 0c10 14 17 30 23 46z m41 50c0 6-5 11-11 11-35 0-64 28-64 64 0 6-5 10-11 10-6 0-10-4-10-10 0-47 38-86 85-86 6 0 11 5 11 11z"/>
<glyph glyph-name="files-ai-file" unicode="&#68;" d="M234 249c-3 8-17 8-20 0l-43-128c-2-6 1-12 7-14 6-2 12 1 13 7l12 35 42 0 12-35c1-4 5-7 10-7 1 0 2 0 3 0 6 2 9 8 7 14z m-24-78l14 41 14-41z m121 85c-6 0-11-5-11-11l0-128c0-6 5-10 11-10 6 0 10 4 10 10l0 128c0 6-4 11-10 11z m149 43l-32 0 0 181c0 6-5 11-11 11l-234 0c-1 0-1-1-2-1 0 0-1 0-1 0-2 0-4-1-5-2l-107-107c-1-1-2-3-2-5 0 0 0-1 0-1 0-1-1-1-1-2l0-74-32 0c-6 0-10-5-10-11l0-213c0-6 4-11 10-11l32 0 0-53c0-6 5-11 11-11l341 0c6 0 11 5 11 11l0 53 32 0c6 0 11 5 11 11l0 213c0 6-5 11-11 11z m-288 155l0-70-70 0z m-85-91l96 0c6 0 10 4 10 10l0 96 214 0 0-170-320 0z m320-342l-320 0 0 43 320 0z m42 64l-405 0 0 192 405 0z"/>
<glyph glyph-name="files-apk-file" unicode="&#69;" d="M277 256l-53 0c-6 0-11-5-11-11l0-128c0-6 5-10 11-10 6 0 11 4 11 10l0 54 42 0c24 0 43 19 43 42 0 24-19 43-43 43z m0-64l-42 0 0 43 42 0c12 0 22-10 22-22 0-11-10-21-22-21z m-128 57c-3 8-18 8-20 0l-43-128c-2-6 1-12 7-14 5-2 11 1 13 7l12 35 41 0 12-35c2-4 6-7 10-7 1 0 3 0 4 0 5 2 8 8 6 14z m-24-78l14 41 13-41z m238 32l0 42c0 6-5 11-11 11-6 0-11-5-11-11l0-128c0-6 5-10 11-10 6 0 11 4 11 10l0 43 68-51c2-2 4-2 6-2 4 0 7 1 9 4 3 5 2 11-2 15l-74 55 74 56c4 3 5 10 2 15-4 4-10 5-15 2z m117 96l-32 0 0 181c0 6-5 11-11 11l-234 0c-1 0-1-1-2-1 0 0-1 0-1 0-2 0-4-1-5-2l-107-107c-1-1-2-3-2-5 0 0 0-1 0-1 0-1-1-1-1-2l0-74-32 0c-6 0-10-5-10-11l0-213c0-6 4-11 10-11l32 0 0-53c0-6 5-11 11-11l341 0c6 0 11 5 11 11l0 53 32 0c6 0 11 5 11 11l0 213c0 6-5 11-11 11z m-288 155l0-70-70 0z m-85-91l96 0c6 0 10 4 10 10l0 96 214 0 0-170-320 0z m320-342l-320 0 0 43 320 0z m42 64l-405 0 0 192 405 0z"/>
<glyph glyph-name="files-cloud-document" unicode="&#70;" d="M75 0l341 0c6 0 11 5 11 11l0 360c0 1 0 2 0 2 0 3-1 6-3 8 0 0 0 0 0 0l-2 1c0 0 0 0 0 0l-105 106c-1 1-3 2-5 2 0 0-1 0-1 0-1 0-1 1-2 1l-234 0c-6 0-11-5-11-11l0-469c0-6 5-11 11-11z m245 454l70-70-70 0z m-235 15l214 0 0-96c0-6 4-10 10-10l96 0 0-342-320 0z m228-256c-13 26-39 43-68 43-37 0-68-28-74-64 0 0 0 0 0 0-24 0-43-19-43-43 0-23 19-42 43-42l138 0c30 0 54 24 54 53 0 28-23 52-50 53z m-4-85l-138 0c-12 0-22 10-22 21 0 12 10 22 22 22 2 0 4-1 7-2 3-1 7 0 10 3 3 2 4 6 4 9 0 30 24 54 53 54 23 0 43-15 50-36 2-5 6-8 12-7 0 0 2 0 2 0 18 0 32-14 32-32 0-18-14-32-32-32z"/>
<glyph glyph-name="files-compressed-file" unicode="&#71;" d="M75 0l341 0c6 0 11 5 11 11l0 360c0 1 0 2 0 2 0 3-1 6-3 8 0 0 0 0 0 0l-2 1-105 106c-1 1-3 2-5 2 0 0-1 0-1 0-1 0-1 1-2 1l-234 0c-6 0-11-5-11-11l0-469c0-6 5-11 11-11z m181 427l0-64-21 0 0 64z m0-406l0 64 32 0c6 0 11 5 11 11 0 6-5 11-11 11l-32 0 0 64 32 0c6 0 11 4 11 10 0 6-5 11-11 11l-32 0 0 64 32 0c6 0 11 5 11 11 0 6-5 10-11 10l-32 0 0 64 11 0c6 0 10 5 10 11l0 85c0 6-4 11-10 11l-11 0 0 21 43 0 0-96c0-6 4-10 10-10l96 0 0-342z m134 363l-70 0 0 70z m-305 85l150 0 0-21-11 0c-6 0-11-5-11-11l0-85c0-6 5-11 11-11l11 0 0-21-32 0c-6 0-11-5-11-11 0-6 5-10 11-10l32 0 0-64-32 0c-6 0-11-5-11-11 0-6 5-11 11-11l32 0 0-64-32 0c-6 0-11-4-11-10 0-6 5-11 11-11l32 0 0-64-32 0c-6 0-11-5-11-11 0-6 5-10 11-10l32 0 0-22-150 0z"/>
<glyph glyph-name="files-css-file" unicode="&#72;" d="M139 235l42 0c6 0 11 4 11 10 0 6-5 11-11 11l-42 0c-30 0-54-24-54-53l0-43c0-29 24-53 54-53l42 0c6 0 11 4 11 10 0 6-5 11-11 11l-42 0c-18 0-32 14-32 32l0 43c0 17 14 32 32 32z m111 0l38 0c6 0 11-5 11-11 0-6 4-11 10-11 6 0 11 5 11 11 0 18-14 32-32 32l-38 0c-20 0-37-17-37-37 0-14 8-27 21-33l56-28c5-3 9-8 9-14 0-9-7-16-16-16l-38 0c-6 0-10 5-10 11 0 6-5 10-11 10-6 0-11-4-11-10 0-18 15-32 32-32l38 0c20 0 37 16 37 37 0 14-8 26-20 33l-57 28c-5 3-8 8-8 14 0 9 7 16 15 16z m128 21c-20 0-37-17-37-37 0-14 8-27 21-33l56-28c5-3 9-8 9-14 0-9-7-16-16-16l-38 0c-6 0-10 5-10 11 0 6-5 10-11 10-6 0-11-4-11-10 0-18 15-32 32-32l38 0c20 0 37 16 37 37 0 14-8 26-20 33l-57 28c-5 3-8 8-8 14 0 9 7 16 15 16l38 0c6 0 11-5 11-11 0-6 4-11 10-11 6 0 11 5 11 11 0 18-14 32-32 32z m102 43l-32 0 0 181c0 6-5 11-11 11l-234 0c-1 0-1-1-2-1 0 0-1 0-1 0-2 0-4-1-5-2l-107-107c-1-1-2-3-2-5 0 0 0-1 0-1 0-1-1-1-1-2l0-74-32 0c-6 0-10-5-10-11l0-213c0-6 4-11 10-11l32 0 0-53c0-6 5-11 11-11l341 0c6 0 11 5 11 11l0 53 32 0c6 0 11 5 11 11l0 213c0 6-5 11-11 11z m-288 155l0-70-70 0z m-85-91l96 0c6 0 10 4 10 10l0 96 214 0 0-170-320 0z m320-342l-320 0 0 43 320 0z m42 64l-405 0 0 192 405 0z"/>
<glyph glyph-name="files-csv-file" unicode="&#73;" d="M139 235l42 0c6 0 11 4 11 10 0 6-5 11-11 11l-42 0c-30 0-54-24-54-53l0-43c0-29 24-53 54-53l42 0c6 0 11 4 11 10 0 6-5 11-11 11l-42 0c-18 0-32 14-32 32l0 43c0 17 14 32 32 32z m111 0l38 0c6 0 11-5 11-11 0-6 4-11 10-11 6 0 11 5 11 11 0 18-14 32-32 32l-38 0c-20 0-37-17-37-37 0-14 8-27 21-33l56-28c5-3 9-8 9-14 0-9-7-16-16-16l-38 0c-6 0-10 5-10 11 0 6-5 10-11 10-6 0-11-4-11-10 0-18 15-32 32-32l38 0c20 0 37 16 37 37 0 14-8 26-20 33l-57 28c-5 3-8 8-8 14 0 9 7 16 15 16z m177 14l-32-98-33 98c-2 5-8 8-13 6-6-1-9-7-7-13l43-128c1-4 5-7 10-7 4 0 8 3 10 7l42 128c2 6-1 12-6 13-6 2-12-1-14-6z m53 50l-32 0 0 181c0 6-5 11-11 11l-234 0c-1 0-1-1-2-1 0 0-1 0-1 0-2 0-4-1-5-2l-107-107c-1-1-2-3-2-5 0 0 0-1 0-1 0-1-1-1-1-2l0-74-32 0c-6 0-10-5-10-11l0-213c0-6 4-11 10-11l32 0 0-53c0-6 5-11 11-11l341 0c6 0 11 5 11 11l0 53 32 0c6 0 11 5 11 11l0 213c0 6-5 11-11 11z m-288 155l0-70-70 0z m-85-91l96 0c6 0 10 4 10 10l0 96 214 0 0-170-320 0z m320-342l-320 0 0 43 320 0z m42 64l-405 0 0 192 405 0z"/>
<glyph glyph-name="files-doc-file" unicode="&#74;" d="M117 256l-21 0c-6 0-11-5-11-11l0-128c0-6 5-10 11-10l21 0c42 0 75 33 75 74 0 42-33 75-75 75z m0-128l-10 0 0 107 10 0c30 0 54-24 54-54 0-29-24-53-54-53z m150 128c-30 0-54-24-54-53l0-43c0-29 24-53 54-53 29 0 53 24 53 53l0 43c0 29-24 53-53 53z m32-96c0-18-15-32-32-32-18 0-32 14-32 32l0 43c0 17 14 32 32 32 17 0 32-15 32-32z m96 96c-30 0-54-24-54-53l0-43c0-29 24-53 54-53l42 0c6 0 11 4 11 10 0 6-5 11-11 11l-42 0c-18 0-32 14-32 32l0 43c0 17 14 32 32 32l42 0c6 0 11 4 11 10 0 6-5 11-11 11z m85 43l-32 0 0 181c0 6-5 11-11 11l-234 0c-1 0-1-1-2-1 0 0-1 0-1 0-2 0-4-1-5-2l-107-107c-1-1-2-3-2-5 0 0 0-1 0-1 0-1-1-1-1-2l0-74-32 0c-6 0-10-5-10-11l0-213c0-6 4-11 10-11l32 0 0-53c0-6 5-11 11-11l341 0c6 0 11 5 11 11l0 53 32 0c6 0 11 5 11 11l0 213c0 6-5 11-11 11z m-288 155l0-70-70 0z m-85-91l96 0c6 0 10 4 10 10l0 96 214 0 0-170-320 0z m320-342l-320 0 0 43 320 0z m42 64l-405 0 0 192 405 0z"/>
<glyph glyph-name="files-exe-file" unicode="&#75;" d="M181 235c6 0 11 4 11 10 0 6-5 11-11 11l-85 0c-6 0-11-5-11-11l0-128c0-6 5-10 11-10l85 0c6 0 11 4 11 10 0 6-5 11-11 11l-74 0 0 43 53 0c6 0 11 4 11 10 0 6-5 11-11 11l-53 0 0 43z m99-53l38 57c3 5 2 12-3 15-5 3-11 2-15-3l-33-50-34 50c-4 5-10 6-15 3-5-3-6-10-3-15l39-57-39-59c-3-5-2-11 3-15 2-1 4-1 6-1 3 0 7 1 9 4l34 52 34-48c2-3 5-5 8-5 2 0 5 1 6 2 5 3 6 10 3 15z m72 74c-6 0-11-5-11-11l0-128c0-6 5-10 11-10l85 0c6 0 11 4 11 10 0 6-5 11-11 11l-74 0 0 43 53 0c6 0 11 4 11 10 0 6-5 11-11 11l-53 0 0 43 74 0c6 0 11 4 11 10 0 6-5 11-11 11z m128 43l-32 0 0 181c0 6-5 11-11 11l-234 0c-1 0-1-1-2-1 0 0-1 0-1 0-2 0-4-1-5-2l-107-107c-1-1-2-3-2-5 0 0 0-1 0-1 0-1-1-1-1-2l0-74-32 0c-6 0-10-5-10-11l0-213c0-6 4-11 10-11l32 0 0-53c0-6 5-11 11-11l341 0c6 0 11 5 11 11l0 53 32 0c6 0 11 5 11 11l0 213c0 6-5 11-11 11z m-288 155l0-70-70 0z m-85-91l96 0c6 0 10 4 10 10l0 96 214 0 0-170-320 0z m320-342l-320 0 0 43 320 0z m42 64l-405 0 0 192 405 0z"/>
<glyph glyph-name="files-gif-file" unicode="&#76;" d="M203 235c6 0 10 4 10 10 0 6-4 11-10 11l-86 0c-6 0-10-5-10-11l0-128c0-6 4-10 10-10l86 0c6 0 10 4 10 10l0 64c0 6-4 11-10 11l-43 0c-6 0-11-5-11-11 0-6 5-10 11-10l32 0 0-43-64 0 0 107z m64 21c-6 0-11-5-11-11l0-128c0-6 5-10 11-10 6 0 10 4 10 10l0 128c0 6-4 11-10 11z m149 0l-85 0c-6 0-11-5-11-11l0-128c0-6 5-10 11-10 6 0 10 4 10 10l0 54 54 0c6 0 10 4 10 10 0 6-4 11-10 11l-54 0 0 43 75 0c6 0 11 4 11 10 0 6-5 11-11 11z m75 32c0 6-5 11-11 11l-32 0 0 181c0 6-5 11-11 11l-234 0c-1 0-1-1-2-1 0 0-1 0-1 0-2 0-4-1-5-2l-107-107c-1-1-2-3-2-5 0 0 0-1 0-1 0-1-1-1-1-2l0-74-32 0c-6 0-10-5-10-11l0-213c0-6 4-11 10-11l32 0 0-53c0-6 5-11 11-11l341 0c6 0 11 5 11 11l0 53 32 0c6 0 11 5 11 11z m-299 166l0-70-70 0z m-85-91l96 0c6 0 10 4 10 10l0 96 214 0 0-170-320 0z m320-342l-320 0 0 43 320 0z m42 64l-405 0 0 192 405 0z"/>
<glyph glyph-name="files-html-file" unicode="&#77;" d="M309 256l-85 0c-6 0-11-5-11-11 0-6 5-10 11-10l32 0 0-118c0-6 5-10 11-10 6 0 10 4 10 10l0 118 32 0c6 0 11 4 11 10 0 6-5 11-11 11z m-128 0c-6 0-10-5-10-11l0-53-64 0 0 53c0 6-5 11-11 11-6 0-11-5-11-11l0-128c0-6 5-10 11-10 6 0 11 4 11 10l0 54 64 0 0-54c0-6 4-10 10-10 6 0 11 4 11 10l0 128c0 6-5 11-11 11z m214-55l-34 50c-3 4-8 6-12 5-5-2-8-6-8-11l0-128c0-6 5-10 11-10 6 0 11 4 11 10l0 93 23-35c4-5 14-5 18 0l23 35 0-93c0-6 4-10 10-10 6 0 11 4 11 10l0 128c0 5-3 9-8 11-4 1-9-1-12-5z m85 98l-32 0 0 181c0 6-5 11-11 11l-234 0c-1 0-1-1-2-1 0 0-1 0-1 0-2 0-4-1-5-2l-107-107c-1-1-2-3-2-5 0 0 0-1 0-1 0-1-1-1-1-2l0-74-32 0c-6 0-10-5-10-11l0-213c0-6 4-11 10-11l32 0 0-53c0-6 5-11 11-11l341 0c6 0 11 5 11 11l0 53 32 0c6 0 11 5 11 11l0 213c0 6-5 11-11 11z m-288 155l0-70-70 0z m-85-91l96 0c6 0 10 4 10 10l0 96 214 0 0-170-320 0z m320-342l-320 0 0 43 320 0z m42 64l-405 0 0 192 405 0z"/>
<glyph glyph-name="files-image-file" unicode="&#78;" d="M75 0l341 0c6 0 11 5 11 11l0 360c0 1 0 2 0 2 0 3-1 6-3 8 0 0 0 0 0 0l-2 1c0 0 0 0 0 0l-105 106c-1 1-3 2-5 2 0 0-1 0-1 0-1 0-1 1-2 1l-234 0c-6 0-11-5-11-11l0-469c0-6 5-11 11-11z m245 454l70-70-70 0z m-235 15l214 0 0-96c0-6 4-10 10-10l96 0 0-342-320 0z m213-198c0 0 0 0-1 0 0 1 0 2-1 2 0 1-1 1-1 2 0 0 0 0-1 0 0 0 0 1-1 1 0 0-1 0-2 1 0 0-1 0-2 0 0 0-1 0-2 0 0 0-1 0-2 0 0 0-1 0-1-1 0 0-1 0-1 0 0 0-1-1-1-1-1-1-2-1-2-1 0-1 0-1 0-1l-59-78-35 17c-5 3-12 1-14-5l-43-85c0 0 0 0 0 0 0-1 0-2 0-2-1-1-1-2-1-2 0 0 0-1 0-1 0 0 0-1 0-1 0-1 0-2 1-2 0-1 0-2 1-2 0-1 0-1 1-2 0 0 1-1 2-1 0-1 0-1 1-1 0 0 0 0 0 0 2-1 3-1 5-1l213 0c4 0 7 1 9 4 2 3 2 7 1 11z m-142-143l30 60 33-16c5-2 10-1 14 3l52 71 51-118z m36 107c24 0 43 19 43 42 0 24-19 43-43 43-24 0-43-19-43-43 0-23 19-42 43-42z m0 64c12 0 21-10 21-22 0-11-9-21-21-21-12 0-21 10-21 21 0 12 9 22 21 22z"/>
<glyph glyph-name="files-jpg-file" unicode="&#79;" d="M277 256l-53 0c-6 0-11-5-11-11l0-128c0-6 5-10 11-10 6 0 11 4 11 10l0 54 42 0c24 0 43 19 43 42 0 24-19 43-43 43z m0-64l-42 0 0 43 42 0c12 0 22-10 22-22 0-11-10-21-22-21z m-96 64l-64 0c-6 0-10-5-10-11 0-6 4-10 10-10l54 0 0-75c0-18-15-32-32-32-18 0-32 14-32 32 0 6-5 11-11 11-6 0-11-5-11-11 0-29 24-53 54-53 29 0 53 24 53 53l0 85c0 6-5 11-11 11z m171 0c-6 0-11-5-11-11l0-128c0-6 5-10 11-10l85 0c6 0 11 4 11 10l0 64c0 6-5 11-11 11l-42 0c-6 0-11-5-11-11 0-6 5-10 11-10l32 0 0-43-64 0 0 107 74 0c6 0 11 4 11 10 0 6-5 11-11 11z m128 43l-32 0 0 181c0 6-5 11-11 11l-234 0c-1 0-1-1-2-1 0 0-1 0-1 0-2 0-4-1-5-2l-107-107c-1-1-2-3-2-5 0 0 0-1 0-1 0-1-1-1-1-2l0-74-32 0c-6 0-10-5-10-11l0-213c0-6 4-11 10-11l32 0 0-53c0-6 5-11 11-11l341 0c6 0 11 5 11 11l0 53 32 0c6 0 11 5 11 11l0 213c0 6-5 11-11 11z m-288 155l0-70-70 0z m-85-91l96 0c6 0 10 4 10 10l0 96 214 0 0-170-320 0z m320-342l-320 0 0 43 320 0z m42 64l-405 0 0 192 405 0z"/>
<glyph glyph-name="files-js-file" unicode="&#80;" d="M245 256l-64 0c-6 0-10-5-10-11 0-6 4-10 10-10l54 0 0-75c0-18-15-32-32-32-18 0-32 14-32 32 0 6-5 11-11 11-6 0-11-5-11-11 0-29 24-53 54-53 29 0 53 24 53 53l0 85c0 6-5 11-11 11z m69-21l38 0c6 0 11-5 11-11 0-6 4-11 10-11 6 0 11 5 11 11 0 18-14 32-32 32l-38 0c-20 0-37-17-37-37 0-14 8-27 21-33l56-28c5-3 9-8 9-14 0-9-7-16-16-16l-38 0c-6 0-10 5-10 11 0 6-5 10-11 10-6 0-11-4-11-10 0-18 15-32 32-32l38 0c20 0 37 16 37 37 0 14-8 26-20 33l-57 28c-5 3-8 8-8 14 0 9 7 16 15 16z m166 64l-32 0 0 181c0 6-5 11-11 11l-234 0c-1 0-1-1-2-1 0 0-1 0-1 0-2 0-4-1-5-2l-107-107c-1-1-2-3-2-5 0 0 0-1 0-1 0-1-1-1-1-2l0-74-32 0c-6 0-10-5-10-11l0-213c0-6 4-11 10-11l32 0 0-53c0-6 5-11 11-11l341 0c6 0 11 5 11 11l0 53 32 0c6 0 11 5 11 11l0 213c0 6-5 11-11 11z m-288 155l0-70-70 0z m-85-91l96 0c6 0 10 4 10 10l0 96 214 0 0-170-320 0z m320-342l-320 0 0 43 320 0z m42 64l-405 0 0 192 405 0z"/>
<glyph glyph-name="files-mov-file" unicode="&#81;" d="M184 256c-4 1-9-1-12-5l-33-50-34 50c-3 4-8 6-12 5-5-2-8-6-8-11l0-128c0-6 5-10 11-10 6 0 11 4 11 10l0 93 23-35c4-5 14-5 18 0l23 35 0-93c0-6 4-10 10-10 6 0 11 4 11 10l0 128c0 5-3 9-8 11z m83 0c-30 0-54-24-54-53l0-43c0-29 24-53 54-53 29 0 53 24 53 53l0 43c0 29-24 53-53 53z m32-96c0-18-15-32-32-32-18 0-32 14-32 32l0 43c0 17 14 32 32 32 17 0 32-15 32-32z m128 89l-32-98-33 98c-2 5-8 8-13 6-6-1-9-7-7-13l43-128c1-4 5-7 10-7 4 0 8 3 10 7l42 128c2 6-1 12-6 13-6 2-12-1-14-6z m53 50l-32 0 0 181c0 6-5 11-11 11l-234 0c-1 0-1-1-2-1 0 0-1 0-1 0-2 0-4-1-5-2l-107-107c-1-1-2-3-2-5 0 0 0-1 0-1 0-1-1-1-1-2l0-74-32 0c-6 0-10-5-10-11l0-213c0-6 4-11 10-11l32 0 0-53c0-6 5-11 11-11l341 0c6 0 11 5 11 11l0 53 32 0c6 0 11 5 11 11l0 213c0 6-5 11-11 11z m-288 155l0-70-70 0z m-85-91l96 0c6 0 10 4 10 10l0 96 214 0 0-170-320 0z m320-342l-320 0 0 43 320 0z m42 64l-405 0 0 192 405 0z"/>
<glyph glyph-name="files-mp3-file" unicode="&#82;" d="M184 256c-4 1-9-1-12-5l-33-50-34 50c-3 4-8 6-12 5-5-2-8-6-8-11l0-128c0-6 5-10 11-10 6 0 11 4 11 10l0 93 23-35c4-5 14-5 18 0l23 35 0-93c0-6 4-10 10-10 6 0 11 4 11 10l0 128c0 5-3 9-8 11z m93 0l-53 0c-6 0-11-5-11-11l0-128c0-6 5-10 11-10 6 0 11 4 11 10l0 54 42 0c24 0 43 19 43 42 0 24-19 43-43 43z m0-64l-42 0 0 43 42 0c12 0 22-10 22-22 0-11-10-21-22-21z m75 64c-6 0-11-5-11-11 0-6 5-10 11-10l64 0c6 0 11-5 11-11l0-32-54 0c-6 0-10-5-10-11 0-6 4-10 10-10l54 0 0-32c0-6-5-11-11-11l-64 0c-6 0-11-5-11-11 0-6 5-10 11-10l64 0c18 0 32 14 32 32l0 85c0 18-14 32-32 32z m128 43l-32 0 0 181c0 6-5 11-11 11l-234 0c-1 0-1-1-2-1 0 0-1 0-1 0-2 0-4-1-5-2l-107-107c-1-1-2-3-2-5 0 0 0-1 0-1 0-1-1-1-1-2l0-74-32 0c-6 0-10-5-10-11l0-213c0-6 4-11 10-11l32 0 0-53c0-6 5-11 11-11l341 0c6 0 11 5 11 11l0 53 32 0c6 0 11 5 11 11l0 213c0 6-5 11-11 11z m-288 155l0-70-70 0z m-85-91l96 0c6 0 10 4 10 10l0 96 214 0 0-170-320 0z m320-342l-320 0 0 43 320 0z m42 64l-405 0 0 192 405 0z"/>
<glyph glyph-name="files-mp4-file" unicode="&#83;" d="M184 256c-4 1-9-1-12-5l-33-50-34 50c-3 4-8 6-12 5-5-2-8-6-8-11l0-128c0-6 5-10 11-10 6 0 11 4 11 10l0 93 23-35c4-5 14-5 18 0l23 35 0-93c0-6 4-10 10-10 6 0 11 4 11 10l0 128c0 5-3 9-8 11z m93 0l-53 0c-6 0-11-5-11-11l0-128c0-6 5-10 11-10 6 0 11 4 11 10l0 54 42 0c24 0 43 19 43 42 0 24-19 43-43 43z m0-64l-42 0 0 43 42 0c12 0 22-10 22-22 0-11-10-21-22-21z m150 53l0-53-64 0 0 53c0 6-5 11-11 11-6 0-11-5-11-11l0-64c0-6 5-10 11-10l75 0 0-54c0-6 4-10 10-10 6 0 11 4 11 10l0 128c0 6-5 11-11 11-6 0-10-5-10-11z m53 54l-32 0 0 181c0 6-5 11-11 11l-234 0c-1 0-1-1-2-1 0 0-1 0-1 0-2 0-4-1-5-2l-107-107c-1-1-2-3-2-5 0 0 0-1 0-1 0-1-1-1-1-2l0-74-32 0c-6 0-10-5-10-11l0-213c0-6 4-11 10-11l32 0 0-53c0-6 5-11 11-11l341 0c6 0 11 5 11 11l0 53 32 0c6 0 11 5 11 11l0 213c0 6-5 11-11 11z m-288 155l0-70-70 0z m-85-91l96 0c6 0 10 4 10 10l0 96 214 0 0-170-320 0z m320-342l-320 0 0 43 320 0z m42 64l-405 0 0 192 405 0z"/>
<glyph glyph-name="files-mpg-file" unicode="&#84;" d="M184 256c-4 1-9-1-12-5l-33-50-34 50c-3 4-8 6-12 5-5-2-8-6-8-11l0-128c0-6 5-10 11-10 6 0 11 4 11 10l0 93 23-35c4-5 14-5 18 0l23 35 0-93c0-6 4-10 10-10 6 0 11 4 11 10l0 128c0 5-3 9-8 11z m93 0l-53 0c-6 0-11-5-11-11l0-128c0-6 5-10 11-10 6 0 11 4 11 10l0 54 42 0c24 0 43 19 43 42 0 24-19 43-43 43z m0-64l-42 0 0 43 42 0c12 0 22-10 22-22 0-11-10-21-22-21z m75 64c-6 0-11-5-11-11l0-128c0-6 5-10 11-10l85 0c6 0 11 4 11 10l0 64c0 6-5 11-11 11l-42 0c-6 0-11-5-11-11 0-6 5-10 11-10l32 0 0-43-64 0 0 107 74 0c6 0 11 4 11 10 0 6-5 11-11 11z m128 43l-32 0 0 181c0 6-5 11-11 11l-234 0c-1 0-1-1-2-1 0 0-1 0-1 0-2 0-4-1-5-2l-107-107c-1-1-2-3-2-5 0 0 0-1 0-1 0-1-1-1-1-2l0-74-32 0c-6 0-10-5-10-11l0-213c0-6 4-11 10-11l32 0 0-53c0-6 5-11 11-11l341 0c6 0 11 5 11 11l0 53 32 0c6 0 11 5 11 11l0 213c0 6-5 11-11 11z m-288 155l0-70-70 0z m-85-91l96 0c6 0 10 4 10 10l0 96 214 0 0-170-320 0z m320-342l-320 0 0 43 320 0z m42 64l-405 0 0 192 405 0z"/>
<glyph glyph-name="files-pdf-file" unicode="&#85;" d="M149 256l-53 0c-6 0-11-5-11-11l0-128c0-6 5-10 11-10 6 0 11 4 11 10l0 54 42 0c24 0 43 19 43 42 0 24-19 43-43 43z m0-64l-42 0 0 43 42 0c12 0 22-10 22-22 0-11-10-21-22-21z m96 64l-21 0c-6 0-11-5-11-11l0-128c0-6 5-10 11-10l21 0c42 0 75 33 75 74 0 42-33 75-75 75z m0-128l-10 0 0 107 10 0c30 0 54-24 54-54 0-29-24-53-54-53z m107 128c-6 0-11-5-11-11l0-128c0-6 5-10 11-10 6 0 11 4 11 10l0 54 53 0c6 0 11 4 11 10 0 6-5 11-11 11l-53 0 0 43 74 0c6 0 11 4 11 10 0 6-5 11-11 11z m128 43l-32 0 0 181c0 6-5 11-11 11l-234 0c-1 0-1-1-2-1 0 0-1 0-1 0-2 0-4-1-5-2l-107-107c-1-1-2-3-2-5 0 0 0-1 0-1 0-1-1-1-1-2l0-74-32 0c-6 0-10-5-10-11l0-213c0-6 4-11 10-11l32 0 0-53c0-6 5-11 11-11l341 0c6 0 11 5 11 11l0 53 32 0c6 0 11 5 11 11l0 213c0 6-5 11-11 11z m-288 155l0-70-70 0z m-85-91l96 0c6 0 10 4 10 10l0 96 214 0 0-170-320 0z m320-342l-320 0 0 43 320 0z m42 64l-405 0 0 192 405 0z"/>
<glyph glyph-name="files-png-file" unicode="&#86;" d="M85 117l0 54 43 0c24 0 43 19 43 42 0 24-19 43-43 43l-53 0c-6 0-11-5-11-11l0-128c0-6 5-10 11-10 6 0 10 4 10 10z m0 118l43 0c12 0 21-10 21-22 0-11-9-21-21-21l-43 0z m246-128l85 0c6 0 11 4 11 10l0 64c0 6-5 11-11 11l-43 0c-6 0-10-5-10-11 0-6 4-10 10-10l32 0 0-43-64 0 0 107 75 0c6 0 11 4 11 10 0 6-5 11-11 11l-85 0c-6 0-11-5-11-11l0-128c0-6 5-10 11-10z m-128 0c6 0 10 4 10 10l0 93 66-99c2-3 6-4 9-4 1 0 2 0 3 0 5 1 8 6 8 10l0 128c0 6-5 11-11 11-6 0-11-5-11-11l0-92-65 98c-3 4-8 6-12 5-5-2-8-6-8-11l0-128c0-6 5-10 11-10z m-139-96c0-6 5-11 11-11l341 0c6 0 11 5 11 11l0 53 32 0c6 0 10 5 10 11l0 213c0 6-4 11-10 11l-32 0 0 181c0 6-5 11-11 11l-235 0c0 0-1-1-1-1 0 0-1 0-1 0-2 0-4-1-5-2l-107-107c-1-1-2-3-2-5-1 0-1-1-1-1 0-1 0-1 0-2l0-74-32 0c-6 0-11-5-11-11l0-213c0-6 5-11 11-11l32 0z m341 10l-320 0 0 43 320 0z m-234 433l0-70-71 0z m-86-91l96 0c6 0 11 4 11 10l0 96 213 0 0-170-320 0z m-42-86l405 0 0-192-405 0z"/>
<glyph glyph-name="files-psd-file" unicode="&#87;" d="M149 256l-53 0c-6 0-11-5-11-11l0-128c0-6 5-10 11-10 6 0 11 4 11 10l0 54 42 0c24 0 43 19 43 42 0 24-19 43-43 43z m0-64l-42 0 0 43 42 0c12 0 22-10 22-22 0-11-10-21-22-21z m101 43l38 0c6 0 11-5 11-11 0-6 4-11 10-11 6 0 11 5 11 11 0 18-14 32-32 32l-38 0c-20 0-37-17-37-37 0-14 8-27 21-33l56-28c5-3 9-8 9-14 0-9-7-16-16-16l-38 0c-6 0-10 5-10 11 0 6-5 10-11 10-6 0-11-4-11-10 0-18 15-32 32-32l38 0c20 0 37 16 37 37 0 14-8 26-20 33l-57 28c-5 3-8 8-8 14 0 9 7 16 15 16z m123 21l-21 0c-6 0-11-5-11-11l0-128c0-6 5-10 11-10l21 0c42 0 75 33 75 74 0 42-33 75-75 75z m0-128l-10 0 0 107 10 0c30 0 54-24 54-54 0-29-24-53-54-53z m107 171l-32 0 0 181c0 6-5 11-11 11l-234 0c-1 0-1-1-2-1 0 0-1 0-1 0-2 0-4-1-5-2l-107-107c-1-1-2-3-2-5 0 0 0-1 0-1 0-1-1-1-1-2l0-74-32 0c-6 0-10-5-10-11l0-213c0-6 4-11 10-11l32 0 0-53c0-6 5-11 11-11l341 0c6 0 11 5 11 11l0 53 32 0c6 0 11 5 11 11l0 213c0 6-5 11-11 11z m-288 155l0-70-70 0z m-85-91l96 0c6 0 10 4 10 10l0 96 214 0 0-170-320 0z m320-342l-320 0 0 43 320 0z m42 64l-405 0 0 192 405 0z"/>
<glyph glyph-name="files-svg-file" unicode="&#88;" d="M122 235l38 0c6 0 11-5 11-11 0-6 4-11 10-11 6 0 11 5 11 11 0 18-14 32-32 32l-38 0c-20 0-37-17-37-37 0-14 8-27 21-33l56-28c5-3 9-8 9-14 0-9-7-16-16-16l-38 0c-6 0-10 5-10 11 0 6-5 10-11 10-6 0-11-4-11-10 0-18 15-32 32-32l38 0c20 0 37 16 37 37 0 14-8 26-20 33l-57 28c-5 3-8 8-8 14 0 9 7 16 15 16z m191 20c-6 2-12-1-14-6l-32-98-33 98c-2 5-8 8-13 6-6-1-9-7-7-13l43-128c1-4 5-7 10-7 4 0 8 3 10 7l42 128c2 6-1 12-6 13z m39 1c-6 0-11-5-11-11l0-128c0-6 5-10 11-10l85 0c6 0 11 4 11 10l0 64c0 6-5 11-11 11l-42 0c-6 0-11-5-11-11 0-6 5-10 11-10l32 0 0-43-64 0 0 107 74 0c6 0 11 4 11 10 0 6-5 11-11 11z m128 43l-32 0 0 181c0 6-5 11-11 11l-234 0c-1 0-1-1-2-1 0 0-1 0-1 0-2 0-4-1-5-2l-107-107c-1-1-2-3-2-5 0 0 0-1 0-1 0-1-1-1-1-2l0-74-32 0c-6 0-10-5-10-11l0-213c0-6 4-11 10-11l32 0 0-53c0-6 5-11 11-11l341 0c6 0 11 5 11 11l0 53 32 0c6 0 11 5 11 11l0 213c0 6-5 11-11 11z m-288 155l0-70-70 0z m-85-91l96 0c6 0 10 4 10 10l0 96 214 0 0-170-320 0z m320-342l-320 0 0 43 320 0z m42 64l-405 0 0 192 405 0z"/>
<glyph glyph-name="files-text-file-2" unicode="&#89;" d="M75 0l341 0c6 0 11 5 11 11l0 360c0 1 0 2 0 2 0 3-1 6-3 8 0 0 0 0 0 0l-2 1-105 106c-1 1-3 2-5 2 0 0-1 0-1 0-1 0-1 1-2 1l-234 0c-6 0-11-5-11-11l0-469c0-6 5-11 11-11z m315 384l-70 0 0 70z m-305 85l214 0 0-96c0-6 4-10 10-10l96 0 0-342-320 0z m54-106l32 0 0-75c0-6 4-11 10-11 6 0 11 5 11 11l0 75 32 0c6 0 11 4 11 10 0 6-5 11-11 11l-85 0c-6 0-11-5-11-11 0-6 5-10 11-10z m213-192l-213 0c-6 0-11-5-11-11 0-6 5-11 11-11l213 0c6 0 11 5 11 11 0 6-5 11-11 11z m0-64l-213 0c-6 0-11-5-11-11 0-6 5-11 11-11l213 0c6 0 11 5 11 11 0 6-5 11-11 11z m0 128l-213 0c-6 0-11-5-11-11 0-6 5-11 11-11l213 0c6 0 11 5 11 11 0 6-5 11-11 11z m0 64l-128 0c-6 0-11-5-11-11 0-6 5-11 11-11l128 0c6 0 11 5 11 11 0 6-5 11-11 11z"/>
<glyph glyph-name="files-txt-file" unicode="&#90;" d="M315 254c-5 3-11 2-15-3l-33-50-34 50c-3 5-10 6-15 3-5-3-6-10-3-15l39-57-39-59c-3-5-2-11 3-15 2-1 4-1 6-1 3 0 7 1 9 4l34 52 34-48c2-3 5-5 8-5 2 0 5 1 6 2 5 3 6 10 3 15l-38 55 38 57c3 5 2 12-3 15z m-134 2l-85 0c-6 0-11-5-11-11 0-6 5-10 11-10l32 0 0-118c0-6 5-10 11-10 6 0 10 4 10 10l0 118 32 0c6 0 11 4 11 10 0 6-5 11-11 11z m171 0c-6 0-11-5-11-11 0-6 5-10 11-10l32 0 0-118c0-6 5-10 11-10 6 0 10 4 10 10l0 118 32 0c6 0 11 4 11 10 0 6-5 11-11 11z m128 43l-32 0 0 181c0 6-5 11-11 11l-234 0c-1 0-1-1-2-1 0 0-1 0-1 0-2 0-4-1-5-2l-107-107c-1-1-2-3-2-5 0 0 0-1 0-1 0-1-1-1-1-2l0-74-32 0c-6 0-10-5-10-11l0-213c0-6 4-11 10-11l32 0 0-53c0-6 5-11 11-11l341 0c6 0 11 5 11 11l0 53 32 0c6 0 11 5 11 11l0 213c0 6-5 11-11 11z m-288 155l0-70-70 0z m-85-91l96 0c6 0 10 4 10 10l0 96 214 0 0-170-320 0z m320-342l-320 0 0 43 320 0z m42 64l-405 0 0 192 405 0z"/>
<glyph glyph-name="files-wav-file" unicode="&#48;" d="M203 256c-6 0-11-5-11-11l0-82-22 44c-4 8-16 8-20 0l-22-44 0 82c0 6-5 11-11 11-6 0-10-5-10-11l0-128c0-5 3-9 8-10 5-1 10 1 12 6l33 66 33-66c2-4 6-6 10-6 0 0 1 0 2 0 5 1 8 5 8 10l0 128c0 6-4 11-10 11z m95-7c-3 8-17 8-20 0l-43-128c-2-6 1-12 7-14 6-2 12 1 13 7l12 35 42 0 12-35c1-4 5-7 10-7 1 0 2 0 3 0 6 2 9 8 7 14z m-24-78l14 41 14-41z m153 78l-32-98-33 98c-2 5-8 8-13 6-6-1-9-7-7-13l43-128c1-4 5-7 10-7 4 0 8 3 10 7l42 128c2 6-1 12-6 13-6 2-12-1-14-6z m53 50l-32 0 0 181c0 6-5 11-11 11l-234 0c-1 0-1-1-2-1 0 0-1 0-1 0-2 0-4-1-5-2l-107-107c-1-1-2-3-2-5 0 0 0-1 0-1 0-1-1-1-1-2l0-74-32 0c-6 0-10-5-10-11l0-213c0-6 4-11 10-11l32 0 0-53c0-6 5-11 11-11l341 0c6 0 11 5 11 11l0 53 32 0c6 0 11 5 11 11l0 213c0 6-5 11-11 11z m-288 155l0-70-70 0z m-85-91l96 0c6 0 10 4 10 10l0 96 214 0 0-170-320 0z m320-342l-320 0 0 43 320 0z m42 64l-405 0 0 192 405 0z"/>
<glyph glyph-name="files-xls-file" unicode="&#49;" d="M309 128l-74 0 0 117c0 6-5 11-11 11-6 0-11-5-11-11l0-128c0-6 5-10 11-10l85 0c6 0 11 4 11 10 0 6-5 11-11 11z m-122 126c-5 3-11 2-15-3l-33-50-34 50c-3 5-10 6-15 3-5-3-6-10-3-15l39-57-39-59c-3-5-2-11 3-15 2-1 4-1 6-1 3 0 7 1 9 4l34 52 34-48c2-3 5-5 8-5 2 0 5 1 6 2 5 3 6 10 3 15l-38 55 38 57c3 5 2 12-3 15z m191 2c-20 0-37-17-37-37 0-14 8-27 21-33l56-28c5-3 9-8 9-14 0-9-7-16-16-16l-38 0c-6 0-10 5-10 11 0 6-5 10-11 10-6 0-11-4-11-10 0-18 15-32 32-32l38 0c20 0 37 16 37 37 0 14-8 26-20 33l-57 28c-5 3-8 8-8 14 0 9 7 16 15 16l38 0c6 0 11-5 11-11 0-6 4-11 10-11 6 0 11 5 11 11 0 18-14 32-32 32z m59 235l-234 0c-1 0-1-1-2-1 0 0-1 0-1 0-2 0-4-1-5-2l-107-107c-1-1-2-3-2-5 0 0 0-1 0-1 0-1-1-1-1-2l0-74-32 0c-6 0-10-5-10-11l0-213c0-6 4-11 10-11l32 0 0-53c0-6 5-11 11-11l341 0c6 0 11 5 11 11l0 53 32 0c6 0 11 5 11 11l0 213c0 6-5 11-11 11l-32 0 0 181c0 6-5 11-11 11z m-245-37l0-70-70 0z m-85-91l96 0c6 0 10 4 10 10l0 96 214 0 0-170-320 0z m320-342l-320 0 0 43 320 0z m42 64l-405 0 0 192 405 0z"/>
<glyph glyph-name="files-xml-file" unicode="&#50;" d="M152 182l38 57c3 5 2 12-3 15-5 3-11 2-15-3l-33-50-34 50c-4 5-10 6-15 3-5-3-6-10-3-15l39-57-39-59c-3-5-2-11 3-15 2-1 4-1 6-1 3 0 7 1 9 4l34 52 34-48c2-3 5-5 8-5 2 0 5 1 6 2 5 3 6 10 3 15z m160 74c-4 1-9-1-12-5l-33-50-34 50c-3 4-8 6-12 5-5-2-8-6-8-11l0-128c0-6 5-10 11-10 6 0 11 4 11 10l0 93 23-35c4-5 14-5 18 0l23 35 0-93c0-6 4-10 10-10 6 0 11 4 11 10l0 128c0 5-3 9-8 11z m51-128l0 117c0 6-5 11-11 11-6 0-11-5-11-11l0-128c0-6 5-10 11-10l85 0c6 0 11 4 11 10 0 6-5 11-11 11z m117 171l-32 0 0 181c0 6-5 11-11 11l-234 0c-1 0-1-1-2-1 0 0-1 0-1 0-2 0-4-1-5-2l-107-107c-1-1-2-3-2-5 0 0 0-1 0-1 0-1-1-1-1-2l0-74-32 0c-6 0-10-5-10-11l0-213c0-6 4-11 10-11l32 0 0-53c0-6 5-11 11-11l341 0c6 0 11 5 11 11l0 53 32 0c6 0 11 5 11 11l0 213c0 6-5 11-11 11z m-288 155l0-70-70 0z m-85-91l96 0c6 0 10 4 10 10l0 96 214 0 0-170-320 0z m320-342l-320 0 0 43 320 0z m42 64l-405 0 0 192 405 0z"/>
<glyph glyph-name="files-zip-file-3" unicode="&#51;" d="M203 128l-66 0 75 111c2 4 2 8 0 11-2 4-5 6-9 6l-86 0c-6 0-10-5-10-11 0-6 4-10 10-10l66 0-75-112c-2-3-2-7 0-11 2-3 5-5 9-5l86 0c6 0 10 4 10 10 0 6-4 11-10 11z m64 128c-6 0-11-5-11-11l0-128c0-6 5-10 11-10 6 0 10 4 10 10l0 128c0 6-4 11-10 11z m117 0l-53 0c-6 0-11-5-11-11l0-128c0-6 5-10 11-10 6 0 10 4 10 10l0 54 43 0c24 0 43 19 43 42 0 24-19 43-43 43z m0-64l-43 0 0 43 43 0c12 0 21-10 21-22 0-11-9-21-21-21z m96 107l-32 0 0 181c0 6-5 11-11 11l-234 0c-1 0-1-1-2-1 0 0-1 0-1 0-2 0-4-1-5-2l-107-107c-1-1-2-3-2-5 0 0 0-1 0-1 0-1-1-1-1-2l0-74-32 0c-6 0-10-5-10-11l0-213c0-6 4-11 10-11l32 0 0-53c0-6 5-11 11-11l341 0c6 0 11 5 11 11l0 53 32 0c6 0 11 5 11 11l0 213c0 6-5 11-11 11z m-288 155l0-70-70 0z m-85-91l96 0c6 0 10 4 10 10l0 96 214 0 0-170-320 0z m320-342l-320 0 0 43 320 0z m42 64l-405 0 0 192 405 0z"/>
<glyph glyph-name="seo-search-stats" unicode="&#52;" d="M32 128c10 0 19 5 25 12l36-11c1-1 2-1 3-1 4 0 8 2 10 6l20 47c18-7 37-10 56-10 39 0 76 14 105 39l38-38c-8-14-6-32 6-44l95-96c7-7 17-11 27-11 10 0 20 4 27 11 14 15 14 39 0 54l-96 95c-11 12-30 14-44 6l-38 38c13 15 23 32 29 50l32-10c1-17 15-30 32-30 17 0 32 14 32 32 0 8-3 15-8 21l59 139c1 0 1 0 2 0 18 0 32 14 32 32 0 17-14 32-32 32-18 0-32-15-32-32 0-10 4-18 10-24l-58-137c-2 0-3 1-5 1-11 0-20-6-26-13l-32 9c12 52-3 108-43 148-30 31-71 48-114 48-42 0-82-17-112-47-30-30-47-70-47-113 0-43 17-83 48-113 11-12 24-21 38-29l-17-37-26 9c0 17-15 31-32 31-18 0-32-14-32-32 0-18 14-32 32-32z m448 341c6 0 11-4 11-10 0-6-5-11-11-11-1 0-3 0-4 1 0 0 0 0 0 0 0 0 0 0 0 0-4 1-7 5-7 10 0 6 5 10 11 10z m-85-192c6 0 10-4 10-10 0-6-4-11-10-11-6 0-11 5-11 11 0 6 5 10 11 10z m-37-106c4 0 8-2 11-5l96-95c6-7 6-17 0-24-7-6-17-6-24 0l-95 96c-6 6-6 17 0 23 3 3 7 5 12 5z m-78 62c0 0 0 0 0-1-1 0-1 0-1 0-26-26-60-40-97-40-16 0-32 3-47 8l44 99c1 0 1 0 2 0 11 0 20 5 26 13l104-31c-7-18-17-34-31-48z m-99 87c-6 0-10 5-10 11 0 6 4 10 10 10 6 0 11-4 11-10 0-6-5-11-11-11z m-97-87c-27 26-41 61-41 98 0 37 14 72 40 98 26 26 61 40 97 40 38 0 73-14 99-41 35-34 47-82 38-127l-104 31c-1 17-15 31-32 31-17 0-32-15-32-32 0-9 4-18 10-23l-43-99c-12 6-23 14-32 24z m-52-62c6 0 11-5 11-11 0-1-1-2-1-3 0 0 0 0 0 0 0 0 0-1 0-1-2-4-6-7-10-7-6 0-11 5-11 11 0 6 5 11 11 11z"/>
<glyph glyph-name="seo-seo-target-2" unicode="&#53;" d="M347 362c-30 27-69 43-112 43-94 0-171-76-171-170 0-94 77-171 171-171 94 0 170 77 170 171 0 43-16 82-43 112l43 43 37-6c0 0 1 0 1 0 3 0 6 1 8 3l58 58c3 3 4 7 2 11-1 4-4 7-8 7l-34 6-6 34c0 4-3 7-7 8-4 2-8 1-11-2l-58-58c-2-3-3-6-3-9l6-37z m37-127c0-83-67-150-149-150-83 0-150 67-150 150 0 82 67 149 150 149 37 0 71-14 97-37l-30-30c-19 15-42 24-67 24-59 0-107-48-107-106 0-59 48-107 107-107 58 0 106 48 106 107 0 25-9 48-24 67l30 30c23-26 37-60 37-97z m-128 0c0-12-10-22-21-22-12 0-22 10-22 22 0 11 10 21 22 21 2 0 3-1 5-1l-13-13c-4-4-4-11 0-15 2-2 5-3 8-3 2 0 5 1 7 3l13 13c0-2 1-4 1-5z m0 36c-6 4-13 6-21 6-24 0-43-19-43-42 0-24 19-43 43-43 23 0 42 19 42 43 0 8-2 15-6 21l31 31c11-15 18-33 18-52 0-47-38-86-85-86-47 0-86 39-86 86 0 47 39 85 86 85 19 0 37-7 52-18z m189 208l4-21c0-5 4-9 9-9l21-4-39-39-29 5-5 29z m-210-479c129 0 234 105 234 235 0 44-12 88-36 125-4 5-10 7-15 4-5-4-7-10-3-15 21-35 33-74 33-114 0-118-96-214-213-214-118 0-214 96-214 214 0 117 96 213 214 213 40 0 79-12 114-33 5-4 11-2 15 3 3 5 1 11-4 15-37 24-81 36-125 36-130 0-235-105-235-234 0-130 105-235 235-235z"/>
<glyph glyph-name="finance-euro-dollar-exchange" unicode="&#54;" d="M360 360c-14 87-90 152-179 152-100 0-181-81-181-181 0-89 64-164 152-179 14-86 89-152 179-152 100 0 181 81 181 181 0 90-66 165-152 179z m-339-29c0 88 72 160 160 160 77 0 143-55 157-129-2 0-5 1-7 1-78 0-145-50-170-119-5 2-9 5-12 7-5 3-10 7-15 12-4 4-8 8-11 14-4 6-7 11-9 16-1 2-1 4-2 6l70 0c6 0 11 4 11 10 0 6-5 11-11 11l-75 0c-1 4-1 7-1 11 0 3 0 6 1 10l96 0c6 0 11 5 11 11 0 6-5 11-11 11l-91 0c1 2 1 4 2 5 2 5 5 11 8 16 4 6 8 11 12 14 5 5 10 9 14 12 5 4 11 6 17 9 6 3 12 5 18 6 14 2 24 2 39 0 6-1 11 3 12 8 2 6-2 12-8 13-18 3-30 3-47 0-8-2-15-4-22-7-8-3-14-7-21-11-5-4-11-9-17-14-5-5-10-11-14-18-5-7-8-13-11-19-2-5-3-9-5-14l-14 0c-6 0-11-5-11-11 0-6 5-11 11-11l10 0c0-3 0-7 0-10 0-4 0-7 1-11l-11 0c-6 0-11-5-11-11 0-6 5-10 11-10l14 0c2-5 3-10 5-14 3-6 6-13 11-20 4-7 9-12 14-18 6-5 12-10 18-14 5-3 11-6 18-9-4-14-6-28-6-43 0-2 1-5 1-7-74 15-129 80-129 157z m310-310c-81 0-148 61-159 139 0 1 0 1 0 1 0 2 0 3-1 5 0 5 0 10 0 15 0 89 71 160 160 160 88 0 160-71 160-160 0-88-72-160-160-160z m58 152c-5 6-12 10-18 14-8 3-15 5-23 5l-7 0 0 85 7 0c4 0 9-1 13-3 5-2 9-5 12-9 3-4 6-8 8-13 2-6 8-9 14-7 5 2 8 9 6 14-3 8-7 15-12 20-5 6-12 11-18 14-8 4-15 6-23 6l-7 0 0 10c0 6-4 11-10 11-6 0-11-5-11-11l0-10-6 0c-8 0-16-2-23-6-7-3-13-8-19-14-5-5-9-12-12-20-3-8-4-16-4-24 0-9 1-17 4-25 3-7 7-14 12-20 6-6 12-11 19-14 7-4 15-5 23-5l6 0 0-86-6 0c-5 0-10 1-14 3-4 3-8 6-12 9-3 4-6 9-8 14-2 6-8 8-13 6-6-2-9-8-7-13 3-8 7-15 12-21 6-6 12-10 19-14 7-3 15-5 23-5l6 0 0-11c0-6 5-10 11-10 6 0 10 4 10 10l0 11 7 0c8 0 15 2 23 5 6 4 13 8 18 14 5 6 9 13 12 21 3 7 4 16 4 24 0 8-1 17-4 24-3 8-7 15-12 21z m-75 19c-5 0-10 1-14 3-4 2-8 5-12 9-3 4-6 9-8 14-2 5-3 11-3 17 0 6 1 11 3 17 2 5 5 9 8 13 4 4 8 7 12 9 4 2 9 3 14 3l6 0 0-85z m67-81c-2-5-5-10-8-14-4-3-7-6-12-9-4-2-9-3-13-3l-7 0 0 86 7 0c4 0 9-1 13-3 5-3 9-6 12-9 3-4 6-9 8-14 2-5 3-11 3-17 0-6-1-12-3-17z"/>
<glyph glyph-name="finance-dollar-split" unicode="&#55;" d="M224 0c6 0 11 5 11 11l0 490c0 6-5 11-11 11-6 0-11-5-11-11l0-32-2 0c-14 0-28-3-41-9-12-5-23-13-33-24-9-10-17-22-22-35-6-14-8-29-8-44 0-15 2-29 8-43 5-13 13-25 22-35 10-11 21-19 33-25 13-6 27-9 41-9l2 0 0-181-2 0c-11 0-22 2-32 7-10 5-19 11-26 19-8 9-14 18-18 29-2 6-9 8-14 6-6-2-8-8-6-14 5-13 13-25 22-35 10-10 21-19 33-24 13-6 27-9 41-9l2 0 0-32c0-6 5-11 11-11z m-45 274c-10 4-19 11-26 19-8 8-14 18-18 29-5 11-7 23-7 35 0 13 2 25 7 36 4 11 10 20 18 29 7 8 16 14 26 19 10 5 21 7 32 7l2 0 0-181-2 0c-11 0-22 2-32 7z m88 238c-6 0-11-5-11-11l0-490c0-6 5-11 11-11 6 0 10 5 10 11l0 32 2 0c15 0 28 3 41 9 13 5 24 13 34 24 9 10 17 22 22 35 5 14 8 29 8 44 0 15-3 29-8 43-5 13-13 25-22 35-10 11-21 19-34 25-13 6-26 9-41 9l-2 0 0 181 2 0c12 0 22-2 32-7 10-5 19-11 27-19 8-9 14-18 18-29 2-4 6-7 10-7 1 0 3 0 4 1 5 2 8 8 6 14-5 13-13 25-22 35-10 10-21 19-34 24-13 6-26 9-41 9l-2 0 0 32c0 6-4 11-10 11z m44-274c10-4 19-11 27-19 8-8 14-18 18-29 4-11 7-23 7-35 0-13-3-25-7-36-4-11-10-20-18-29-8-8-17-14-27-19-10-5-20-7-32-7l-2 0 0 181 2 0c12 0 22-2 32-7z"/>
<glyph glyph-name="calendar-time-pass" unicode="&#56;" d="M355 370l-96-96c-9 4-19 4-27 0l-57 57c-4 4-11 4-15 0-4-5-4-11 0-15l57-57c-2-4-4-9-4-14 0-8 4-16 10-22 6-6 14-10 22-10 9 0 17 4 23 10 6 6 9 14 9 22 0 5-1 10-3 14l96 96c4 4 4 11 0 15-4 4-11 4-15 0z m-102-132c-4-4-11-4-15 0-2 2-3 4-3 7 0 3 1 6 3 8 2 2 4 3 7 3 3 0 6-1 8-3 2-2 3-5 3-8 0-3-1-5-3-7z m248-131l-54 0c10 13 18 28 24 43 13 30 20 62 20 95 0 33-7 65-20 96-12 29-29 55-52 78-23 23-49 40-78 52-30 13-63 19-95 20 0 0 0 0-1 0 0 0 0 0 0 0-33-1-65-7-95-20-29-12-55-29-78-52-23-23-41-49-53-78-13-31-19-63-19-96 0-33 6-65 19-95 12-29 30-55 53-78 23-23 49-41 78-53 30-13 62-19 95-19 33 0 66 6 96 19 5 2 8 9 5 14-2 6-8 8-13 6-25-10-51-16-77-17l0 53c0 6-5 10-11 10-6 0-10-4-10-10l0-53c-27 1-52 7-77 17-23 10-44 24-63 41l22 22c4 4 4 11 0 15-4 4-11 4-15 0l-22-22c-17 19-31 40-41 63-10 25-16 50-17 77l53 0c6 0 10 4 10 10 0 6-4 11-10 11l-53 0c1 26 7 52 17 76 10 24 24 45 41 64l22-22c2-3 5-4 8-4 2 0 5 1 7 4 4 4 4 10 0 15l-22 22c19 17 40 31 63 41 25 10 50 15 77 17l0-53c0-6 4-11 10-11 6 0 11 5 11 11l0 53c26-2 52-7 76-17 24-10 45-24 64-41l-22-22c-5-5-5-11 0-15 2-3 4-4 7-4 3 0 6 1 8 4l22 22c17-19 31-40 41-63 10-25 16-51 17-77l-32 0c-6 0-10-5-10-11 0-6 4-10 10-10l32 0c-1-27-7-52-17-77-7-15-15-29-25-43l0 66c0 6-5 11-11 11-6 0-11-5-11-11l0-85c0-6 5-11 11-11l85 0c6 0 11 5 11 11 0 6-5 11-11 11z"/>
<glyph glyph-name="education-big-bang" unicode="&#57;" d="M469 277c-19 0-35-13-40-31l-88 11c0 27-13 51-33 66l49 85c5-1 10-3 16-3 30 0 54 24 54 54 0 29-24 53-54 53-29 0-53-24-53-53 0-16 7-30 18-40l-48-85c-11 5-22 7-34 7-25 0-47-11-63-28l-74 61c6 9 9 20 9 31 0 36-29 64-64 64-35 0-64-28-64-64 0-35 29-64 64-64 16 0 31 6 42 16l75-61c-6-12-10-26-10-40 0-16 5-32 13-45l-96-75c-9 8-21 13-35 13-29 0-53-24-53-53 0-29 24-53 53-53 30 0 54 24 54 53 0 8-2 16-6 23l96 76c15-15 36-24 59-24 12 0 23 2 34 7l61-108c-6-8-10-17-10-27 0-24 19-43 43-43 24 0 43 19 43 43 0 23-19 42-43 42-5 0-10-1-15-3l-61 107c15 11 26 28 31 46l89-10c4-19 21-33 41-33 24 0 43 19 43 43 0 23-19 42-43 42z m-96 214c18 0 32-15 32-32 0-18-14-32-32-32-6 0-11 1-16 4 0 0 0 0 0 0 0 0 0 0 0 0-9 6-16 16-16 28 0 17 15 32 32 32z m-309-128c-24 0-43 19-43 42 0 24 19 43 43 43 24 0 43-19 43-43 0-23-19-42-43-42z m341-320c0-12-9-22-21-22-12 0-21 10-21 22 0 11 9 21 21 21 12 0 21-10 21-21z m-352 21c-17 0-32 14-32 32 0 18 15 32 32 32 18 0 32-14 32-32 0-18-14-32-32-32z m203 128c-35 0-64 29-64 64 0 35 29 64 64 64 35 0 64-29 64-64 0-35-29-64-64-64z m213 21c-11 0-21 10-21 22 0 11 10 21 21 21 12 0 22-10 22-21 0-12-10-22-22-22z"/>
<glyph glyph-name="education-plantes-orbit" unicode="&#33;" d="M512 405c0 36-29 64-64 64-13 0-25-4-36-11-44 35-99 54-156 54-141 0-256-115-256-256 0-141 115-256 256-256 141 0 256 115 256 256 0 35-7 70-22 102 14 12 22 28 22 47z m-21-149c0-129-106-235-235-235-129 0-235 106-235 235 0 129 106 235 235 235 51 0 100-17 141-48-8-10-13-23-13-38 0-35 29-64 64-64 9 0 17 2 24 5 12-28 19-59 19-90z m-43 107c-24 0-43 19-43 42 0 24 19 43 43 43 24 0 43-19 43-43 0-23-19-42-43-42z m-192-43c-35 0-64-29-64-64 0-35 29-64 64-64 35 0 64 29 64 64 0 35-29 64-64 64z m0-107c-24 0-43 19-43 43 0 24 19 43 43 43 24 0 43-19 43-43 0-24-19-43-43-43z m0 214c-94 0-171-77-171-171 0-53 25-102 67-135-2-4-3-9-3-14 0-24 19-43 43-43 17 0 31 10 38 24 8-2 17-3 26-3 94 0 171 77 171 171 0 94-77 171-171 171z m-64-342c-12 0-21 10-21 22 0 11 9 21 21 21 12 0 21-10 21-21 0-12-9-22-21-22z m64 22c-8 0-15 0-22 1 0 23-19 41-42 41-11 0-20-4-28-10-36 28-57 71-57 117 0 82 67 149 149 149 82 0 149-67 149-149 0-82-67-149-149-149z"/>
<glyph glyph-name="education-physic-elements" unicode="&#34;" d="M469 299c-13 0-25-7-33-17l-38 30c4 9 7 19 7 29 0 36-28 64-64 64-11 0-21-3-31-8l-24 42c8 8 13 18 13 30 0 24-19 43-43 43-24 0-43-19-43-43 0-23 19-42 43-42 4 0 8 0 11 1l27-45c-10-11-17-25-17-42 0-13 5-26 12-37l-45-45c-14 11-32 18-52 18-12 0-24-2-35-7l-43 68c9 9 14 22 14 35 0 30-24 54-53 54-30 0-54-24-54-54 0-29 24-53 54-53 8 0 15 2 22 5l42-66c-19-16-32-40-32-67 0-20 7-38 18-52l-42-42c-9 5-19 9-30 9-29 0-53-24-53-54 0-29 24-53 53-53 30 0 54 24 54 53 0 11-4 21-9 30l42 42c14-11 32-18 52-18 24 0 45 9 61 25l70-61c-2-6-3-12-3-18 0-29 24-53 53-53 30 0 54 24 54 53 0 30-24 54-54 54-15 0-29-7-39-18l-69 60c8 13 12 27 12 43 0 20-7 38-18 52l45 45c11-7 24-12 37-12 17 0 33 7 44 18l42-33c0-2 0-4 0-6 0-24 19-43 42-43 24 0 43 19 43 43 0 24-19 43-43 43z m-234 170c0 12 9 22 21 22 12 0 21-10 21-22 0-11-9-21-21-21-12 0-21 10-21 21z m-192-96c0 18 14 32 32 32 17 0 32-14 32-32 0-17-15-32-32-32-18 0-32 15-32 32z m330-288c18 0 32-14 32-32 0-17-14-32-32-32-17 0-32 15-32 32 0 18 15 32 32 32z m-320-64c-17 0-32 15-32 32 0 18 15 32 32 32 9 0 17-3 23-9 0 0 0 0 0 0 0 0 0 0 0 0 6-6 9-14 9-23 0-17-14-32-32-32z m139 107c-18 0-33 7-45 19 0 0 0 0 0 0 0 0 0 0 0 0-12 12-19 27-19 45 0 35 29 64 64 64 18 0 33-7 45-19 0 0 0 0 0 0 0 0 0 0 0 0 12-12 19-27 19-45 0-35-29-64-64-64z m149 171c-23 0-42 19-42 42 0 24 19 43 42 43 24 0 43-19 43-43 0-23-19-42-43-42z m128-64c-11 0-21 9-21 21 0 12 10 21 21 21 12 0 22-9 22-21 0-12-10-21-22-21z"/>
<glyph glyph-name="mail-add-attachment" unicode="&#35;" d="M261 475c-24 24-56 37-90 37-71 0-128-57-128-128l0-139c0-6 4-10 10-10 6 0 11 4 11 10l0 139c0 59 48 107 107 107 28 0 55-11 75-32 20-20 31-46 31-75l0-176c-26-22-42-54-42-91 0-26 9-50 23-70-14-16-34-26-55-26-20 0-39 8-53 22-14 14-22 33-22 53l0 267c0 23 19 42 43 42 11 0 22-4 30-12 8-8 12-19 12-30l0-118c0-6 5-10 11-10 6 0 11 4 11 10l0 118c0 17-7 33-19 45-12 12-28 19-45 19-36 0-64-29-64-64l0-267c0-25 10-50 28-68 18-18 42-28 68-28 27 0 52 11 70 31 21-19 49-31 79-31 65 0 117 53 117 117 0 65-52 118-117 118-19 0-37-5-53-13l0 162c0 34-14 66-38 91z m187-358c0-53-43-96-96-96-53 0-96 43-96 96 0 53 43 96 96 96 53 0 96-43 96-96z m-171 0c0-6 5-10 11-10l53 0 0-54c0-6 5-10 11-10 6 0 11 4 11 10l0 54 53 0c6 0 11 4 11 10 0 6-5 11-11 11l-53 0 0 53c0 6-5 11-11 11-6 0-11-5-11-11l0-53-53 0c-6 0-11-5-11-11z"/>
<glyph glyph-name="ecommerce-product-tag" unicode="&#36;" d="M267 9c6-6 14-9 23-9 8 0 16 3 22 9l191 191c12 12 12 32 0 45l-100 99c24 6 54 16 80 40 14 14 24 30 27 47 4 15 1 31-6 44-8 13-22 24-39 30-14 5-29 7-48 7-55-1-109-19-146-35l-26 26c-6 6-14 9-23 9l-100 0c-8 0-16-3-22-9l-91-91c-6-6-9-14-9-22l0-100c0-9 3-17 9-23z m151 482c15 0 29-2 40-6 12-4 22-12 27-21 5-8 7-18 4-29-2-13-10-25-20-35-19-17-40-28-72-36-3 0-5-1-8-2-1 0-2 0-3-1l-99 99c35 15 82 30 131 31z m-397-101c0 3 1 5 3 7l91 91c2 2 4 3 7 3l100 0c3 0 6-1 7-3l21-21c-25-13-49-28-72-45-2-1-3-2-5-3-1-1-2-2-3-3-9 7-19 11-31 11-30 0-54-24-54-54 0-29 24-53 54-53 29 0 53 24 53 53 0 10-3 19-8 27 1 1 2 1 2 2 2 1 3 2 5 3 23 18 49 33 75 46l222-222c4-3 4-10 0-14l-191-191c-4-3-11-4-14 0l-259 259c-2 1-3 4-3 7z m142-38c-6-6-15-11-24-11-18 0-32 15-32 32 0 18 14 32 32 32 6 0 12-2 17-5-1 0-2-1-2-2-9-15-5-34 9-46z m96-264c2-2 5-3 8-3 2 0 5 1 7 3l150 150c4 4 4 11 0 15-5 4-11 4-16 0l-149-149c-4-5-4-11 0-16z m-35 40c3 0 5 1 8 3l149 149c4 5 4 11 0 16-4 4-11 4-15 0l-150-150c-4-4-4-11 0-15 3-2 5-3 8-3z"/>
<glyph glyph-name="ui-plus-window" unicode="&#37;" d="M32 0l427 0c17 0 32 14 32 32l0 427c0 17-15 32-32 32l-427 0c-18 0-32-15-32-32l0-427c0-18 14-32 32-32z m-11 459c0 6 5 10 11 10l427 0c6 0 10-4 10-10l0-427c0-6-4-11-10-11l-427 0c-6 0-11 5-11 11z m118-224l96 0 0-96c0-6 4-11 10-11 6 0 11 5 11 11l0 96 96 0c6 0 11 4 11 10 0 6-5 11-11 11l-96 0 0 96c0 6-5 11-11 11-6 0-10-5-10-11l0-96-96 0c-6 0-11-5-11-11 0-6 5-10 11-10z"/>
<glyph glyph-name="ui-lockpad-target" unicode="&#38;" d="M11 341c6 0 10 5 10 11l0 139 139 0c6 0 11 4 11 10 0 6-5 11-11 11l-149 0c-6 0-11-5-11-11l0-149c0-6 5-11 11-11z m490 171l-149 0c-6 0-11-5-11-11 0-6 5-10 11-10l139 0 0-139c0-6 4-11 10-11 6 0 11 5 11 11l0 149c0 6-5 11-11 11z m0-341c-6 0-10-5-10-11l0-139-139 0c-6 0-11-4-11-10 0-6 5-11 11-11l149 0c6 0 11 5 11 11l0 149c0 6-5 11-11 11z m-341-150l-139 0 0 139c0 6-4 11-10 11-6 0-11-5-11-11l0-149c0-6 5-11 11-11l149 0c6 0 11 5 11 11 0 6-5 10-11 10z m96 384c-59 0-107-48-107-106l0-24c-12-4-21-16-21-30l0-106c0-18 14-32 32-32l192 0c18 0 32 14 32 32l0 106c0 14-9 26-21 30l0 24c0 58-48 106-107 106z m-85-106c0 47 38 85 85 85 47 0 85-38 85-85l0-22-170 0z m192-160c0-6-5-11-11-11l-192 0c-6 0-11 5-11 11l0 106c0 6 5 11 11 11l192 0c6 0 11-5 11-11z"/>
<glyph glyph-name="ui-lockpad-6" unicode="&#39;" d="M362 468c-29 28-66 44-106 44-82 0-149-67-149-149l0-64-11 0c-18 0-32-15-32-32l0-235c0-18 14-32 32-32l320 0c18 0 32 14 32 32l0 235c0 17-14 32-32 32l-11 0 0 64c0 39-15 77-43 105z m-234-105c0 70 57 128 128 128 34 0 66-14 91-38 24-24 37-56 37-90l0-64-256 0z m299-96l0-235c0-6-5-11-11-11l-320 0c-6 0-11 5-11 11l0 235c0 6 5 10 11 10l320 0c6 0 11-4 11-10z m-171-75c-24 0-43-19-43-43 0-19 14-36 32-41l0-33c0-6 5-11 11-11 6 0 11 5 11 11l0 33c18 5 32 22 32 41 0 24-19 43-43 43z m0-64c-12 0-21 10-21 21 0 12 9 22 21 22 12 0 21-10 21-22 0-11-9-21-21-21z"/>
<glyph glyph-name="ui-lockpad-lock" unicode="&#40;" d="M245 491c-135 0-245-110-245-246 0-135 110-245 245-245 136 0 246 110 246 245 0 136-110 246-246 246z m0-470c-123 0-224 101-224 224 0 124 101 224 224 224 124 0 224-100 224-224 0-123-100-224-224-224z m64 235l-10 0 0 32c0 29-24 53-54 53-29 0-53-24-53-53l0-32-11 0c-6 0-10-5-10-11l0-42c0-42 33-75 74-75 42 0 75 33 75 75l0 42c0 6-5 11-11 11z m-96 32c0 18 15 32 32 32 18 0 32-14 32-32l0-32-64 0z m86-85c0-30-24-54-54-54-29 0-53 24-53 54l0 32 107 0z"/>
<glyph glyph-name="security-confirm-lockpad" unicode="&#41;" d="M243 140c8 8 13 19 13 31 0 23-19 42-43 42-23 0-42-19-42-42 0-12 5-23 13-31l-13-63c-1-3 0-7 2-9 2-3 5-4 8-4l64 0c0 0 1 0 1 0 6 0 10 5 10 11 0 1 0 3-1 5z m-30 52c12 0 22-10 22-21 0-9-5-16-12-19-1 0-2-1-2-1-2-1-4-1-6-1-1 0-2 0-3 0-2 0-4 0-6 1-1 0-2 1-2 1-7 3-12 10-12 19 0 11 10 21 21 21z m-19-107l9 44c0 0 1 0 1 0 3-1 6-1 9-1 4 0 7 0 10 1 0 0 0 0 1 0l8-44z m233 145l0 15c0 18-15 32-32 32l-32 0 0 86c0 82-67 149-150 149-82 0-149-67-149-149l0-86-32 0c-18 0-32-14-32-32l0-213c0-18 14-32 32-32l363 0c64 0 117 53 117 117 0 54-36 99-85 113z m-342 133c0 70 58 128 128 128 71 0 128-58 128-128l0-86-42 0 0 85c0 47-39 86-86 86-47 0-85-39-85-86l0-85-43 0z m192-86l-128 0 0 85c0 36 29 65 64 65 36 0 64-29 64-65z m-245-256c-6 0-11 5-11 11l0 213c0 6 5 11 11 11l363 0c6 0 10-5 10-11l0-11c-3 0-7 1-10 1-65 0-118-53-118-118 0-39 20-74 50-96z m363 0c-53 0-96 43-96 96 0 53 43 96 96 96 53 0 96-43 96-96 0-53-43-96-96-96z m56 147l-78-78-35 35c-4 4-11 4-15 0-4-4-4-11 0-15l43-43c2-2 5-3 7-3 3 0 6 1 8 3l85 85c4 5 4 11 0 16-4 4-11 4-15 0z"/>
<glyph glyph-name="photo-timer" unicode="&#42;" d="M245 0c136 0 246 110 246 245 0 125-92 228-215 244-4 13-16 23-31 23-17 0-32-14-32-32 0-18 15-32 32-32 13 0 25 8 30 19 111-14 194-108 194-222 0-123-100-224-224-224-123 0-224 101-224 224 0 59 23 115 65 157 4 5 4 11 0 16-5 4-11 4-16-1-45-46-70-107-70-172 0-135 110-245 245-245z m11 480c0-6-5-11-11-11-6 0-10 5-10 11 0 6 4 11 10 11 6 0 11-5 11-11 0 0 0 0 0 0 0 0 0 0 0 0z m-146-99c-4-4-4-10-1-14 10-14 103-135 112-144 6-6 14-10 23-10 9 0 17 4 24 10 13 13 13 34 0 47-9 9-130 101-144 112-4 3-10 3-14-1z m143-126c4-5 4-12 0-17-5-4-13-4-17 0-4 4-31 39-61 78 38-30 74-57 78-61z"/>
<glyph glyph-name="seo-campaign-stats" unicode="&#43;" d="M11 43l405 0c6 0 11 4 11 10 0 6-5 11-11 11l-394 0 0 395c0 6-5 10-10 10-6 0-11-4-11-10l0-401c-1-2-1-3-1-5 0-6 5-10 11-10z m448 426c-30 0-54-24-54-53 0-15 7-29 17-38l-94-147c-6 2-12 4-19 4-11 0-21-4-29-9l-54 54c5 8 9 18 9 29 0 30-24 54-54 54-29 0-53-24-53-54 0-17 8-32 21-41l-39-78c-5 1-9 2-14 2-29 0-53-24-53-53 0-30 24-54 53-54 29 0 53 24 53 54 0 17-8 32-20 41l39 78c4-1 9-2 13-2 11 0 21 3 30 9l54-54c-6-9-9-19-9-30 0-29 24-53 53-53 30 0 54 24 54 53 0 15-7 29-17 39l94 146c6-2 12-3 19-3 29 0 53 24 53 53 0 29-24 53-53 53z m-363-362c-18 0-32 14-32 32 0 17 14 32 32 32 18 0 32-15 32-32 0-18-14-32-32-32z m53 202c0 18 15 32 32 32 18 0 32-14 32-32 0-8-3-16-9-22 0 0 0 0 0 0 0 0 0 0 0-1-6-5-14-9-23-9-17 0-32 15-32 32z m160-160c-17 0-32 15-32 32 0 9 4 17 9 23 1 0 1 0 1 0 0 0 0 0 0 0 6 6 14 9 22 9 18 0 32-14 32-32 0-17-14-32-32-32z m150 235c-18 0-32 14-32 32 0 18 14 32 32 32 17 0 32-14 32-32 0-18-15-32-32-32z"/>
<glyph glyph-name="finance-economic-growth" unicode="&#44;" d="M509 253l-43 43c-4 4-11 4-15 0-4-5-4-11 0-16l25-24-49 0 0 181c0 6-5 11-11 11-6 0-11-5-11-11l0-181-42 0 0 96c0 6-5 11-11 11-6 0-11-5-11-11l0-96-42 0 0 32c0 6-5 11-11 11-6 0-11-5-11-11l0-32-213 0 0 220 24-25c3-2 5-3 8-3 3 0 5 1 8 3 4 4 4 11 0 15l-43 43c-1 1-2 2-4 2-2 1-5 1-8 0-1 0-2-1-3-2l-43-43c-4-4-4-11 0-15 4-4 11-4 15 0l25 25 0-220-32 0c-6 0-11-5-11-11 0-6 5-10 11-10l32 0 0-224c0-6 4-11 10-11 6 0 11 5 11 11l0 224 43 0 0-182c0-6 4-10 10-10 6 0 11 4 11 10l0 182 43 0 0-96c0-6 4-11 10-11 6 0 11 5 11 11l0 96 43 0 0-32c0-6 4-11 10-11 6 0 11 5 11 11l0 32 220 0-25-25c-4-4-4-11 0-15 2-2 5-3 8-3 2 0 5 1 7 3l43 43c1 1 2 2 2 3 1 3 1 6 0 8 0 2-1 3-2 4z"/>
<glyph glyph-name="finance-dollar-value" unicode="&#45;" d="M267 405c-6 0-11-4-11-10l0-11-6 0c-8 0-16-2-23-5-7-4-13-8-19-14-5-6-9-13-12-21-3-7-4-16-4-24 0-8 1-17 4-24 3-8 7-15 12-21 6-6 12-10 19-14 7-3 15-5 23-5l6 0 0-85-6 0c-5 0-10 1-14 3-4 2-8 5-12 9-3 4-6 8-8 13-2 6-8 9-13 7-6-2-9-9-7-14 3-8 7-14 12-20 6-6 12-11 19-14 7-4 15-6 23-6l6 0 0-10c0-6 5-11 11-11 6 0 10 5 10 11l0 10 7 0c8 0 15 2 23 6 6 3 13 8 18 14 5 6 9 12 12 20 3 8 4 16 4 24 0 9-1 17-4 25-3 7-7 14-12 20-5 6-12 11-18 14-8 4-15 5-23 5l-7 0 0 86 7 0c4 0 9-1 13-3 5-3 9-6 12-9 3-4 6-9 8-14 2-6 8-8 14-6 5 2 8 8 6 13-3 8-7 15-12 21-5 6-11 10-18 14-8 3-15 5-23 5l-7 0 0 11c0 6-4 10-10 10z m17-149c4 0 9-1 13-3 5-2 9-5 12-9 3-4 6-9 8-14 2-5 3-11 3-17 0-6-1-11-3-17-2-5-5-9-8-13-4-4-7-7-12-9-4-2-9-3-13-3l-7 0 0 85z m-28 21l-6 0c-5 0-10 1-14 3-4 3-8 6-12 9-3 4-6 9-8 14-2 5-3 11-3 17 0 6 1 12 3 17 2 5 5 10 8 14 4 3 8 6 12 9 4 2 9 3 14 3l6 0z m-152 231c-4 5-12 5-16 0l-86-107c-2-3-3-7-1-11 2-4 6-6 10-6l35 0 18-161c1-6 5-10 11-10l42 0c6 0 10 4 11 10l18 161 35 0c4 0 8 2 10 6 2 4 1 8-1 11z m32-103c-5 0-10-4-10-9l-18-161-24 0-18 161c0 5-5 9-10 9l-23 0 63 79 63-79z m185-283c-2-4-1-8 1-11l86-107c2-3 5-4 8-4 3 0 6 1 8 4l86 107c2 3 3 7 1 11-2 4-6 6-10 6l-35 0-18 161c-1 6-5 10-11 10l-42 0c-6 0-10-4-11-10l-18-161-35 0c-4 0-8-2-10-6z m55-15c5 0 10 4 10 9l18 161 24 0 18-161c0-5 5-9 10-9l23 0-63-79-63 79z"/>
<glyph glyph-name="finance-charts-4" unicode="&#46;" d="M480 512l-448 0c-18 0-32-14-32-32l0-448c0-18 14-32 32-32l448 0c18 0 32 14 32 32l0 448c0 18-14 32-32 32z m11-480c0-6-5-11-11-11l-448 0c-6 0-11 5-11 11l0 103 139 158 87-106c2-3 5-4 8-4 3 0 7 2 9 4l163 218 0-74c0-6 4-11 10-11 6 0 11 5 11 11l0 106c0 1 0 1 0 1 0 1 0 1-1 2 0 1 0 1 0 2-1 1-1 1-1 2-1 0-1 1-2 1 0 0 0 1 0 1-1 0-1 0-1 0-1 1-2 1-2 1-1 1-2 1-2 1-1 0-1 0-2 0l-106 0c-6 0-11-5-11-11 0-6 5-10 11-10l85 0-161-216-86 105c-2 3-5 4-8 4-4 0-6-1-8-4l-132-149 0 313c0 6 5 11 11 11l448 0c6 0 11-5 11-11z"/>
<glyph glyph-name="weather-fog" unicode="&#47;" d="M75 363l170 0c6 0 11 4 11 10 0 6-5 11-11 11l-170 0c-6 0-11-5-11-11 0-6 5-10 11-10z m405 21l-171 0c-6 0-10-5-10-11 0-6 4-10 10-10l171 0c6 0 11 4 11 10 0 6-5 11-11 11z m-309-75c0 6-5 11-11 11l-128 0c-6 0-11-5-11-11 0-6 5-10 11-10l128 0c6 0 11 4 11 10z m192 0c0 6-5 11-11 11l-128 0c-6 0-11-5-11-11 0-6 5-10 11-10l128 0c6 0 11 4 11 10z m-220-53c-6 0-11-5-11-11 0-6 5-10 11-10l205 0c6 0 11 4 11 10 0 6-5 11-11 11z m294 0l-42 0c-6 0-11-5-11-11 0-6 5-10 11-10l42 0c6 0 11 4 11 10 0 6-5 11-11 11z m-202-75c0 6-5 11-11 11l-128 0c-6 0-11-5-11-11 0-6 5-10 11-10l128 0c6 0 11 4 11 10z m181 11l-128 0c-6 0-11-5-11-11 0-6 5-10 11-10l128 0c6 0 11 4 11 10 0 6-5 11-11 11z m-107-64l-170 0c-6 0-11-5-11-11 0-6 5-10 11-10l170 0c6 0 11 4 11 10 0 6-5 11-11 11z"/>
<glyph glyph-name="repair-gauge" unicode="&#58;" d="M472 339c0 0 0 0 0 0 0 0 0 0 0 1-13 29-31 56-53 78 0 0 0 1 0 1 0 0-1 0-1 0-22 23-49 40-78 53-1 0-1 0-1 0 0 0 0 0 0 0-29 12-61 19-94 19-33 0-64-7-93-19 0 0 0 0-1 0 0 0 0 0 0 0-29-13-56-30-78-53-1 0-1 0-1 0 0 0 0-1-1-1-22-22-40-49-52-78 0-1 0-1 0-1 0 0 0 0 0 0-12-29-19-61-19-94 0-33 7-64 19-93 0 0 0 0 0-1 0 0 0 0 0 0 12-29 30-56 52-78 1-1 1-1 1-1 0 0 0 0 1-1 44-44 105-71 172-71 68 0 129 27 173 71 0 1 1 1 1 1 0 0 0 0 0 1 23 22 40 49 53 78 0 0 0 0 0 0 0 1 0 1 0 1 12 29 19 60 19 93 0 33-7 65-19 94z m-377-259l22 22c4 4 4 11 0 15-4 4-11 4-15 0l-22-22c-15 16-27 35-37 55l9 4c6 2 8 8 6 14-2 5-8 8-14 6l-9-4c-8 20-12 42-13 65l31 0c6 0 11 4 11 10 0 6-5 11-11 11l-31 0c1 23 5 45 13 65l9-4c1 0 3-1 4-1 4 0 8 3 10 7 2 5 0 12-6 14l-9 4c10 20 22 38 37 55l22-22c2-3 5-4 8-4 2 0 5 1 7 4 4 4 4 10 0 15l-22 22c16 15 35 27 55 37l4-10c2-4 6-6 10-6 1 0 2 0 4 1 5 2 8 8 6 14l-4 9c20 7 42 12 65 13l0-32c0-6 4-10 10-10 6 0 11 4 11 10l0 32c23-1 45-6 65-13l-4-9c-2-6 0-12 6-14 1-1 3-1 4-1 4 0 8 2 10 6l4 10c20-10 38-22 55-37l-22-22c-5-4-5-11 0-15 2-3 4-4 7-4 3 0 6 2 8 4l22 22c15-17 27-35 37-55l-10-4c-5-2-8-9-5-14 1-4 5-7 9-7 2 0 3 1 5 1l9 4c7-20 12-42 13-65l-32 0c-6 0-10-5-10-11 0-6 4-10 10-10l32 0c-1-23-6-45-13-65l-9 4c-6 2-12-1-14-6-3-6 0-12 5-14l10-4c-10-20-22-39-37-55l-22 22c-4 4-11 4-15 0-5-4-5-11 0-15l22-22c-40-36-93-59-151-59-58 0-110 23-150 59z m118 165c0-17 15-32 32-32 18 0 32 15 32 32 0 18-14 32-32 32-5 0-9-1-13-3l-86 86c-4 4-11 4-15 0-4-5-4-11 0-16l86-85c-2-4-4-9-4-14z m43 0c0-6-5-10-11-10-6 0-10 4-10 10 0 6 4 11 10 11 6 0 11-5 11-11z m75-53l-171 0c-6 0-11-5-11-11l0-42c0-6 5-11 11-11l171 0c6 0 10 5 10 11l0 42c0 6-4 11-10 11z m-11-43l-149 0 0 22 149 0z"/>
<glyph glyph-name="weather-sea-waves" unicode="&#59;" d="M501 363c-23 0-35-7-46-12-9-5-18-10-36-10-17 0-26 5-36 10-10 5-22 12-45 12-23 0-36-7-46-12-10-5-18-10-36-10-18 0-26 5-36 10-11 5-23 12-46 12-23 0-35-7-46-12-9-5-18-10-36-10-17 0-26 5-36 10-10 5-22 12-45 12-6 0-11-5-11-11 0-6 5-11 11-11 18 0 26-4 36-9 10-6 22-12 45-12 23 0 36 6 46 12 10 5 18 9 36 9 18 0 26-4 36-9 11-6 23-12 46-12 23 0 35 6 46 12 9 5 18 9 36 9 17 0 26-4 36-9 10-6 22-12 45-12 24 0 36 6 46 12 10 5 18 9 36 9 6 0 11 5 11 11 0 6-5 11-11 11z m0-64c-23 0-35-7-46-12-9-5-18-10-36-10-17 0-26 5-36 10-10 5-22 12-45 12-23 0-36-7-46-12-10-5-18-10-36-10-18 0-26 5-36 10-11 5-23 12-46 12-23 0-35-7-46-12-9-5-18-10-36-10-17 0-26 5-36 10-10 5-22 12-45 12-6 0-11-5-11-11 0-6 5-11 11-11 18 0 26-4 36-9 10-6 22-12 45-12 23 0 36 6 46 12 10 5 18 9 36 9 18 0 26-4 36-9 11-6 23-12 46-12 23 0 35 6 46 12 9 5 18 9 36 9 17 0 26-4 36-9 10-6 22-12 45-12 24 0 36 6 46 12 10 5 18 9 36 9 6 0 11 5 11 11 0 6-5 11-11 11z m0-64c-23 0-35-7-46-12-9-5-18-10-36-10-17 0-26 5-36 10-10 5-22 12-45 12-23 0-36-7-46-12-10-5-18-10-36-10-18 0-26 5-36 10-11 5-23 12-46 12-23 0-35-7-46-12-9-5-18-10-36-10-17 0-26 5-36 10-10 5-22 12-45 12-6 0-11-5-11-11 0-6 5-11 11-11 18 0 26-4 36-9 10-6 22-12 45-12 23 0 36 6 46 12 10 5 18 9 36 9 18 0 26-4 36-9 11-6 23-12 46-12 23 0 35 6 46 12 9 5 18 9 36 9 17 0 26-4 36-9 10-6 22-12 45-12 24 0 36 6 46 12 10 5 18 9 36 9 6 0 11 5 11 11 0 6-5 11-11 11z m0-64c-23 0-35-7-46-12-9-5-18-10-36-10-17 0-26 5-36 10-10 5-22 12-45 12-23 0-36-7-46-12-10-5-18-10-36-10-18 0-26 5-36 10-11 5-23 12-46 12-23 0-35-7-46-12-9-5-18-10-36-10-17 0-26 5-36 10-10 5-22 12-45 12-6 0-11-5-11-11 0-6 5-11 11-11 18 0 26-4 36-9 10-6 22-12 45-12 23 0 36 6 46 12 10 5 18 9 36 9 18 0 26-4 36-9 11-6 23-12 46-12 23 0 35 6 46 12 9 5 18 9 36 9 17 0 26-4 36-9 10-6 22-12 45-12 24 0 36 6 46 12 10 5 18 9 36 9 6 0 11 5 11 11 0 6-5 11-11 11z"/>
<glyph glyph-name="education-book" unicode="&#60;" d="M32 64l158 0 51-21c0 0 0 0 0 0l0 0c2 0 3 0 4 0 2 0 3 0 4 0l0 1c0 0 0 0 1 0l51 20 158 0c17 0 32 14 32 32l0 320c0 18-15 32-32 32l-160 0c-2 0-3 0-4-1l-50-20-49 20c-1 1-3 1-4 1l-160 0c-18 0-32-14-32-32l0-320c0-18 14-32 32-32z m269 363l158 0c6 0 10-5 10-11l0-320c0-6-4-11-10-11l-160 0c-2 0-3 0-4 0l-39-16 0 340z m-280-11c0 6 5 11 11 11l158 0 45-18 0-340-39 16c-1 0-3 0-4 0l-160 0c-6 0-11 5-11 11z m32-75l150 0c6 0 10 5 10 11 0 6-4 11-10 11l-150 0c-6 0-10-5-10-11 0-6 4-11 10-11z m235 0l149 0c6 0 11 5 11 11 0 6-5 11-11 11l-149 0c-6 0-11-5-11-11 0-6 5-11 11-11z m-235-64l150 0c6 0 10 5 10 11 0 6-4 11-10 11l-150 0c-6 0-10-5-10-11 0-6 4-11 10-11z m235 0l149 0c6 0 11 5 11 11 0 6-5 11-11 11l-149 0c-6 0-11-5-11-11 0-6 5-11 11-11z m0-64l149 0c6 0 11 5 11 11 0 6-5 11-11 11l-149 0c-6 0-11-5-11-11 0-6 5-11 11-11z m149-42l-149 0c-6 0-11-5-11-11 0-6 5-11 11-11l149 0c6 0 11 5 11 11 0 6-5 11-11 11z m-384 42l150 0c6 0 10 5 10 11 0 6-4 11-10 11l-150 0c-6 0-10-5-10-11 0-6 4-11 10-11z m0-64l150 0c6 0 10 5 10 11 0 6-4 11-10 11l-150 0c-6 0-10-5-10-11 0-6 4-11 10-11z"/>
<glyph glyph-name="budicon-classic" unicode="&#61;" d="M331 451c6 0 10 4 10 10l0 20c0 6-4 11-10 11-6 0-10-5-10-11l0-20c0-6 4-10 10-10z m171-123l-21 0c-5 0-10-5-10-11 0-5 5-10 10-10l21 0c5 0 10 5 10 10 0 6-5 11-10 11z m-280 84c2-2 5-3 8-3 5 0 10 4 10 10 0 3-1 5-3 7l-15 15c-2 1-4 2-7 2-6 0-10-4-10-10 0-3 1-5 3-7z m218 0l14 14c2 2 3 4 3 7 0 6-5 10-10 10-3 0-6-1-8-2l-14-15c-2-2-3-4-3-7 0-6 5-10 10-10 3 0 6 1 8 3z m4-95c0 0 0 1 0 1 0 62-51 112-113 112-40 0-76-21-96-53-18 7-39 12-62 12-84 0-153-68-153-153 0 0 0 0 0-1 1-69 46-127 109-146 2-1 3-1 4-1 6 0 11 4 11 10 0 5-4 9-8 10-55 17-95 68-95 127 0 74 60 134 133 134 49 0 93-27 116-67 2-4 5-6 9-6 1 0 3 0 4 1 13 6 29 10 45 10 0 0 0 0 0 0 57 0 103-46 103-102 0-47-32-86-74-99-5-1-8-5-8-10 0-5 4-10 10-10 0 0 0 0 0 0 1 0 2 0 3 1 52 15 89 62 89 118 0 31-12 61-32 82 3 9 4 20 5 30z m-141 2c-13 19-30 35-49 47 16 27 45 44 77 44 51 0 92-42 92-92 0 0 0 0 0-1 0-5-1-10-1-14-21 15-46 25-74 25-16 0-32-4-46-9z m-62-157c-2 1-4 2-5 2-4 0-7-2-9-5l-62-103c-1-1-1-3-1-5 0-5 4-10 10-10 4 0 7 2 9 5l61 102c1 2 2 4 2 6 0 3-2 7-5 8z m61 0c-1 1-3 2-5 2-4 0-7-2-9-5l-61-103c-1-1-2-3-2-5 0-5 5-10 11-10 3 0 6 2 8 5l62 102c1 2 1 4 1 6 0 3-2 7-5 8z m62 0c-2 1-4 2-6 2-3 0-7-2-8-5l-62-103c-1-1-1-3-1-5 0-5 4-10 10-10 4 0 7 2 9 5l61 102c1 2 2 4 2 6 0 3-2 7-5 8z m-200-152c0-5-5-10-10-10-6 0-11 5-11 10 0 6 5 10 11 10 5 0 10-4 10-10z m61 0c0-5-4-10-10-10-6 0-10 5-10 10 0 6 4 10 10 10 6 0 10-4 10-10z m62 0c0-5-5-10-11-10-5 0-10 5-10 10 0 6 5 10 10 10 6 0 11-4 11-10z"/>
<glyph glyph-name="budicon-classic-1" unicode="&#62;" d="M211 227c33 18 55 52 55 91 0 57-46 102-102 102-57 0-103-45-103-102 0-39 22-73 55-90-56-21-95-74-96-136 0-5 5-10 11-10 5 0 10 5 10 10 0 68 55 123 123 123 68 0 123-55 123-123 0-5 4-10 10-10 6 0 10 5 10 10 0 62-39 115-95 135z m-129 90c0 46 37 82 82 82 45 0 82-36 82-82 0-45-37-81-82-81-45 0-82 36-82 81z m341-38c23 15 38 40 38 69 0 46-37 82-82 82-45 0-82-36-82-82 0-29 15-54 38-69-27-10-50-27-66-50 5-5 10-10 15-15 20 32 55 52 95 52 62 0 113-50 113-112 0 0 0 0 0 0 0-6 4-11 10-11 5 0 10 5 10 11 0 57-37 106-88 125z m-106 69c0 34 28 62 62 62 34 0 61-28 61-62 0-34-27-61-61-61-34 0-62 27-62 61z"/>
<glyph glyph-name="budicon-classic-2" unicode="&#63;" d="M320 279c41 20 69 62 69 110 0 68-55 123-123 123-68 0-123-55-123-123 0-48 28-90 69-110-76-24-130-94-130-177l0-30c0-6 5-11 10-11 6 0 10 5 10 11l0 30c0 91 74 164 164 164 91 0 164-73 164-164l0-30c0-6 5-11 10-11 6 0 11 5 11 11l0 30c-1 83-55 153-130 176z m-156 110c0 57 46 103 102 103 57 0 103-46 103-103 0-56-46-102-103-102-56 0-102 46-102 102z"/>
<glyph glyph-name="budicon-classic-3" unicode="&#64;" d="M256 348c-51 0-92-41-92-92 0-51 41-92 92-92 51 0 92 41 92 92 0 51-41 92-92 92z m0-164c-40 0-72 32-72 72 0 40 32 72 72 72 40 0 72-32 72-72 0-40-32-72-72-72z m246 82l-52 0c-5 100-84 179-183 184l-1 52c0 5-4 10-10 10-6 0-10-5-10-10l0-52c-100-5-179-84-184-183l-52-1c-5 0-10-4-10-10 0-6 5-10 10-10l52 0c5-100 84-179 183-184l1-52c0-5 4-10 10-10 6 0 10 5 10 10l0 52c100 5 179 84 184 183l52 1c5 0 10 4 10 10 0 6-5 10-10 10z m-246-184c-96 0-174 78-174 174 0 96 78 174 174 174 96 0 174-78 174-174 0-96-78-174-174-174z"/>
<glyph glyph-name="budicon-classic-4" unicode="&#91;" d="M462 193l-27 27c-3 3-5 7-6 12l-21 148c-11 75-75 132-152 132-77 0-141-57-152-131l-21-149c-1-5-3-9-6-12l-27-27c-6-5-9-13-9-21l0-18c0-17 14-31 31-31l368 0c17 0 31 14 31 31l0 18c0 8-3 16-9 21z m-11-39c0-6-5-11-11-11l-368 0c-6 0-11 5-11 11l0 18c0 0 0 0 0 0 0 2 2 5 3 7l28 27c6 6 10 14 11 23l21 148c10 65 65 114 132 114 67 0 122-49 132-113l21-149c1-9 5-17 11-23l28-27c1-2 3-5 3-7 0 0 0 0 0 0z m-195-93c-25 0-45 18-50 41l-21 0c5-35 35-61 71-61 36 0 66 26 71 61l-21 0c-5-23-25-41-50-41 0 0 0 0 0 0z"/>
<glyph glyph-name="budicon-classic-5" unicode="&#93;" d="M492 471l-103 0 0 31c0 5-4 10-10 10-6 0-10-5-10-10l0-31-226 0 0 31c0 5-4 10-10 10-6 0-10-5-10-10l0-31-103 0c-11 0-20-9-20-20l0-410c0-11 9-21 20-21l472 0c11 0 20 10 20 21l0 410c0 11-9 20-20 20z m0-430l-472 0 0 307 472 0z m0 328l-472 0 0 82 472 0z m-263-223c2-2 4-3 7-3 2 0 5 2 7 3l102 103c2 2 3 4 3 7 0 6-5 10-10 10-3 0-5-1-7-3l-96-96-54 46c-2 1-4 2-7 2-6 0-10-5-10-10 0-3 1-6 3-8z"/>
<glyph glyph-name="budicon-classic-6" unicode="&#94;" d="M256 512c-141 0-256-115-256-256 0-141 115-256 256-256 141 0 256 115 256 256 0 141-115 256-256 256z m0-20c0 0 0 0 0 0 130 0 236-106 236-236 0-41-11-80-30-114 0 1-1 1-1 1l-155 0c-4 21-20 36-40 40 0 1 0 1 0 1l0 174c0 6-4 11-10 11-6 0-10-5-10-11l0-174c0 0 0 0 0-1-20-4-36-19-40-39l-155-1c0 0-1 0-2 0-18 33-29 72-29 113 0 130 106 236 236 236 0 0 0 0 0 0z m0-328c13 0 25-9 29-20l-58-1c4 12 16 21 29 21z m0-144c-80 1-151 41-194 102l388 1c-43-62-114-102-194-103z m-184 226c5 0 10 4 10 10 0 96 78 174 174 174 96 0 174-78 174-174 0-6 5-10 10-10 6 0 11 4 11 10 0 107-88 195-195 195-107 0-195-88-195-195 0-6 5-10 11-10z"/>
<glyph glyph-name="budicon-classic-7" unicode="&#95;" d="M256 430c0 0 0 0 0 0-142 0-256-114-256-256 0-49 14-95 38-134l436 1c24 38 38 84 38 133 0 142-114 256-256 256 0 0 0 0 0 0z m207-369l-414 0c-18 33-29 72-29 114 0 130 106 235 236 235 130 0 236-105 236-235 0-42-11-81-30-115z m-197 297c0-5-4-10-10-10-6 0-10 5-10 10 0 6 4 11 10 11 6 0 10-5 10-11z m-140-49c4-4 4-11 0-15-4-4-11-4-15 0-4 4-4 11 0 15 4 4 11 4 15 0z m-54-145c0-6-5-10-11-10-5 0-10 4-10 10 0 5 5 10 10 10 6 0 11-5 11-10z m389 0c0-6-5-10-10-10-6 0-11 4-11 10 0 5 5 10 11 10 5 0 10-5 10-10z m-60 145c4-4 4-11 0-15-4-4-11-4-15 0-4 4-4 11 0 15 4 4 11 4 15 0z m-51-88l-81-81c-4 2-8 3-13 3-17 0-31-14-31-31 0-17 14-31 31-31 17 0 31 14 31 31 0 5-1 10-3 14l81 81c2 2 4 5 4 8 0 6-5 10-11 10-3 0-6-1-8-4z m-94-119c-6 0-10 5-10 11 0 5 4 10 10 10 6 0 10-5 10-10 0-6-4-11-10-11z"/>
<glyph glyph-name="budicon-classic-8" unicode="&#96;" d="M512 256c0 34-35 65-90 86 16 68 8 123-28 142-8 5-18 8-29 8 0 0-1 0-1 0l0 0c-31 0-69-19-108-52-39 33-77 52-108 52 0 0-1 0-1 0-11 0-21-3-30-8-35-19-43-74-27-142-55-21-90-52-90-86 0-34 35-65 90-86-16-68-8-123 28-142 8-5 18-8 29-8 0 0 1 0 1 0 31 0 69 19 108 52 39-33 77-52 108-52 0 0 1 0 1 0 11 0 21 3 30 8 35 19 43 74 27 142 55 21 90 52 90 86z m-148 215c0 0 1 0 1 0 7 0 14-2 20-5 10-7 18-18 21-31 2-11 3-23 3-36 0-18-2-36-7-52-21 8-46 14-72 17-20 23-38 44-58 62 24 24 56 40 91 45z m-20-262c-9-15-18-29-28-42-18-2-39-3-60-3-21 0-42 1-63 3-7 13-16 27-25 42-9 15-18 31-25 47 7 16 16 32 25 47 9 15 18 29 28 42 18 2 39 3 60 3 21 0 42-1 63-3 7-13 16-27 25-42 9-15 18-31 25-47-7-16-16-32-25-47z m36 23c6-13 12-29 17-45-14-8-32-13-51-16 4 9 10 18 16 27 6 11 12 23 18 34z m-124-133c-15 14-30 29-43 45 14 0 28-1 43-1 15 0 29 1 43 2-13-17-28-32-43-46z m-88 72c-21 3-39 8-56 13 8 19 14 35 21 51 5-14 11-26 17-37 6-9 12-18 18-27z m-36 109c-6 13-12 29-17 45 14 8 32 13 51 16-4-9-10-18-16-27-6-11-12-23-18-34z m124 133c15-14 30-29 43-45-14 0-28 1-43 1-15 0-29-1-43-2 13 17 28 32 43 46z m106-99c-6 9-12 18-18 27 21-3 39-8 56-13-8-19-14-35-21-51-5 14-11 26-17 37z m-256 121c3 13 11 24 21 31 6 3 13 5 20 5 0 0 1 0 1 0 36-5 68-21 93-44-21-19-39-40-55-62-30-4-55-10-80-18-1 16-3 34-3 52 0 13 1 25 3 37z m-86-179c0 23 28 48 75 66 8-26 16-48 26-69-10-15-18-37-25-59-48 14-76 39-76 62z m128-215c0 0-1 0-1 0-7 0-14 2-20 5-10 7-18 18-21 31-2 11-3 23-3 36 0 18 2 36 7 52 21-8 46-14 72-17 20-23 38-44 58-62-24-24-56-40-91-45z m258 36c-3-13-11-24-21-31-6-3-13-5-20-5 0 0-1 0-1 0-36 5-68 21-93 44 21 19 39 40 55 62 30 4 55 10 80 18 1-16 3-34 3-52 0-13-1-25-3-37z m11 113c-8 26-16 48-26 69 10 15 18 37 25 59 48-14 76-39 76-62 0-23-28-48-75-66z m-130 66c0-17-14-31-31-31-17 0-31 14-31 31 0 17 14 31 31 31 17 0 31-14 31-31z"/>
<glyph glyph-name="budicon-classic-9" unicode="&#123;" d="M461 430l-410 0c-17 0-31-14-31-31l0-368c0-17 14-31 31-31l410 0c17 0 31 14 31 31l0 368c0 17-14 31-31 31z m-420-399l0 368c0 6 5 11 10 11l92 0 0-390-92 0c-5 0-10 5-10 11z m430 0c0-6-5-11-10-11l-297 0 0 390 297 0c5 0 10-5 10-11z"/>
<glyph glyph-name="budicon-classic-10" unicode="&#124;" d="M461 471l-410 0c-17 0-31-14-31-31l0-368c0-17 14-31 31-31l410 0c17 0 31 14 31 31l0 368c0 17-14 31-31 31z m-410-20l410 0c5 0 10-5 10-11l0-51-430 0 0 51c0 6 5 11 10 11z m-10-379l0 297 123 0 0-308-113 0c-5 0-10 5-10 11z m420-11l-277 0 0 308 287 0 0-297c0-6-5-11-10-11z"/>
<glyph glyph-name="budicon-classic-11" unicode="&#125;" d="M461 451l-410 0c-17 0-31-14-31-31l0-369c0-17 14-31 31-31l410 0c17 0 31 14 31 31l0 369c0 17-14 31-31 31z m-420-400l0 369c0 5 5 10 10 10l51 0 0-389-51 0c-5 0-10 5-10 10z m430 0c0-5-5-10-10-10l-338 0 0 389 338 0c5 0 10-5 10-10z m-72 195l-180 0 44 44c2 2 3 4 3 7 0 5-4 10-10 10-3 0-5-1-7-3l-62-61c-2-2-3-5-3-7 0-3 1-6 3-8l62-61c2-2 4-3 7-3 6 0 10 5 10 10 0 3-1 5-3 7l-44 44 180 0c6 0 11 5 11 11 0 5-5 10-11 10z"/>
<glyph glyph-name="budicon-classic-12" unicode="&#126;" d="M440 410l-368 0c-6 0-11-5-11-11 0-5 5-10 11-10l368 0c6 0 11 5 11 10 0 6-5 11-11 11z m-41-82l-286 0c-6 0-11-5-11-11 0-5 5-10 11-10l286 0c6 0 11 5 11 10 0 6-5 11-11 11z m-41-82l-204 0c-6 0-11-5-11-10 0-6 5-11 11-11l204 0c6 0 11 5 11 11 0 5-5 10-11 10z m-41-82l-122 0c-6 0-11-5-11-10 0-6 5-11 11-11l122 0c6 0 11 5 11 11 0 5-5 10-11 10z m-41-82l-40 0c-6 0-11-5-11-10 0-6 5-11 11-11l40 0c6 0 11 5 11 11 0 5-5 10-11 10z"/>
<glyph glyph-name="budicon-classic-13" unicode="&#92;" d="M331 120l-65-65 0 242c0 6-4 10-10 10-6 0-10-4-10-10l0-242-65 65c-2 2-4 3-7 3-5 0-10-5-10-10 0-3 1-6 3-8l82-82c2-1 4-3 7-3 3 0 5 2 7 3l82 82c2 2 3 5 3 8 0 5-5 10-10 10-3 0-5-1-7-3z m77 267c-13 72-74 125-148 125-1 0-3 0-4 0-1 0-3 0-4 0-74 0-135-53-148-124-59-10-104-61-104-122 0-68 55-123 123-123 0 0 0 0 0 0l31 0c5 0 10 5 10 11 0 5-5 10-10 10l-31 0c0 0 0 0 0 0-57 0-103 46-103 102 0 51 38 93 86 101l16 3 2 15c12 61 65 107 128 107 2 0 3 0 4 0 1 0 2 0 4 0 63 0 116-46 128-107l2-15 15-3c49-8 87-50 87-101 0-56-46-102-103-102 0 0 0 0 0 0l-31 0c-5 0-10-5-10-10 0-6 5-11 10-11l31 0c0 0 0 0 0 0 68 0 123 55 123 123 0 61-45 112-103 121z"/>
<glyph glyph-name="budicon-classic-14" unicode="&#57344;" d="M512 256c0 0 0 0 0 0 0 141-115 256-256 256-105 0-196-64-235-154l-1 123c0 6-4 11-10 11-5 0-10-5-10-11l0-143c0-6 5-10 10-10l144 0c5 0 10 4 10 10 0 6-5 10-10 10l-115 0c37 85 120 144 217 144 130 0 236-106 236-236 0 0 0 0 0 0l0 0 0-20c0-6 4-11 10-11 5 0 10 5 10 11z m-10-72l-144 0c-5 0-10-4-10-10 0-6 5-10 10-10l115 0c-37-85-120-144-217-144-130 0-236 106-236 236 0 0 0 0 0 0l0 0 0 20c0 6-4 11-10 11-5 0-10-5-10-11l0-20c0 0 0 0 0 0 0-141 115-256 256-256 105 0 196 64 235 154l1-123c0-6 4-11 10-11 5 0 10 5 10 11l0 143c0 6-5 10-10 10z"/>
<glyph glyph-name="budicon-classic-15" unicode="&#57345;" d="M113 82l-93 0 0 92c0 6-4 10-10 10-5 0-10-4-10-10l0-102c0-6 5-11 10-11l103 0c5 0 10 5 10 11 0 5-5 10-10 10z m-103 246c6 0 10 4 10 10l0 92 93 0c5 0 10 5 10 10 0 6-5 11-10 11l-103 0c-5 0-10-5-10-11l0-102c0-6 5-10 10-10z m492 123l-103 0c-5 0-10-5-10-11 0-5 5-10 10-10l93 0 0-92c0-6 4-10 10-10 5 0 10 4 10 10l0 102c0 6-5 11-10 11z m0-267c-6 0-10-4-10-10l0-92-93 0c-5 0-10-5-10-10 0-6 5-11 10-11l103 0c5 0 10 5 10 11l0 102c0 6-5 10-10 10z m-441 185l0-226c0-11 10-20 21-20l348 0c11 0 21 9 21 20l0 226c0 11-10 20-21 20l-348 0c-11 0-21-9-21-20z m369-226l-348 0 0 226 348 0z"/>
<glyph glyph-name="budicon-classic-16" unicode="&#57346;" d="M502 20l-434 0 95 190c0 2 1 3 1 5 0 6-5 10-10 10-4 0-8-2-10-5l-99-200-4 0 0 461c0 6-5 11-10 11-6 0-11-5-11-11l0-471c0-5 5-10 11-10l471 0c5 0 10 5 10 10 0 6-5 10-10 10z m-318 226c23 0 41 18 41 41 0 22-18 41-41 41-22 0-41-19-41-41 0-23 19-41 41-41z m0 61c12 0 21-9 21-20 0-12-9-21-21-21-11 0-20 9-20 21 0 11 9 20 20 20z m246-20c23 0 41 18 41 41 0 22-18 41-41 41-23 0-41-19-41-41 0-23 18-41 41-41z m0 61c11 0 21-9 21-20 0-12-10-21-21-21-11 0-20 9-20 21 0 11 9 20 20 20z m-102-205c22 0 41 19 41 41 0 23-19 41-41 41-23 0-41-18-41-41 0-22 18-41 41-41z m0 62c11 0 20-9 20-21 0-11-9-20-20-20-12 0-21 9-21 20 0 12 9 21 21 21z m-62 31c0-6-4-11-10-11-6 0-10 5-10 11 0 5 4 10 10 10 6 0 10-5 10-10z m123 20c0-6-4-10-10-10-6 0-10 4-10 10 0 6 4 10 10 10 6 0 10-4 10-10z"/>
<glyph glyph-name="budicon-classic-17" unicode="&#57347;" d="M256 512c-141 0-256-115-256-256 0-141 115-256 256-256 141 0 256 115 256 256 0 141-115 256-256 256z m0-492c-130 0-236 106-236 236 0 130 106 236 236 236 130 0 236-106 236-236-1-130-106-235-236-236z m31 349l-21 0 0 10c0 6-4 10-10 10-6 0-10-4-10-10l0-10-4 0c-32 0-58-26-58-58 0-26 17-47 39-55l59-19c15-5 25-19 25-36 0-20-16-37-37-37 0 0 0 0 0 0l-45 0c-11 0-20 9-20 20l0 11c0 5-5 10-10 10-6 0-11-5-11-10l0-11c0-22 19-41 41-41l21 0 0-10c0-6 4-10 10-10 6 0 10 4 10 10l0 10 4 0c32 0 58 26 58 58 0 26-17 47-39 55l-59 19c-15 5-25 19-25 36 0 20 16 37 37 37 0 0 0 0 0 0l45 0c11 0 20-9 20-20l0-11c0-5 5-10 10-10 6 0 11 5 11 10l0 11c0 22-19 41-41 41z"/>
<glyph glyph-name="budicon-classic-18" unicode="&#57348;" d="M481 512l-430 0c-17 0-31-14-31-31l0-327c0-17 14-31 31-31l239 0c0 0 0 0 0 0 2 0 5-1 6-2l101-76c4-3 8-4 13-4 11 0 20 9 20 20 0 0 0 0 0 0l0 62 51 0c17 0 31 14 31 31l0 327c0 17-14 31-31 31z m11-358c0-6-5-11-11-11l-57 0c-8 0-14-6-14-14l0-68-101 76c-5 4-12 6-19 6l-239 0c-5 0-10 5-10 11l0 327c0 6 5 11 10 11l430 0c6 0 11-5 11-11z m-308 153c0-11-9-20-20-20-11 0-21 9-21 20 0 11 10 21 21 21 11 0 20-10 20-21z m103 0c0-11-9-20-21-20-11 0-20 9-20 20 0 11 9 21 20 21 12 0 21-10 21-21z m102 0c0-11-9-20-20-20-12 0-21 9-21 20 0 11 9 21 21 21 11 0 20-10 20-21z"/>
<glyph glyph-name="budicon-classic-19" unicode="&#57349;" d="M471 389l-68 0c-9 0-16-5-19-13l-11-28-33 0c-23 71-88 121-165 121-96 0-173-77-173-173 0-96 77-173 173-173 96 0 173 77 173 173 0 0 0 1 0 1 0 3 0 7 0 10l-21 0c0-3 1-7 1-10 0 0 0 0 0-1 0-85-69-154-154-154-86 0-154 69-154 154 0 86 68 155 154 155 66 0 123-43 144-102l-44-1c-19 36-56 60-99 60-62 0-112-50-112-112 0-62 50-112 112-112 62 0 112 50 112 112 0 1 0 1 0 1 0 3 0 7-1 10l-21 0c1-3 1-6 1-10 0-51-41-92-92-92-51 0-92 41-92 92 0 51 41 92 92 92 32 0 59-16 76-41l-76 0c-28 0-51-23-51-51 0-28 23-51 51-51 28 0 51 23 51 51 0 4 0 7-1 11l-21-1c1-3 2-6 2-10 0-17-14-31-31-31-17 0-31 14-31 31 0 17 14 31 31 31l199 0 11-28c3-8 10-13 19-13l68 0c11 0 21 9 21 20l0 62c0 11-10 20-21 20z m0-82l-68 0-12 31 12 31 68 0z"/>
<glyph glyph-name="budicon-classic-20" unicode="&#57350;" d="M502 20l-31 0 0 297c0 17-14 31-31 31l-164 0c-16 0-30-14-30-31l0-297-205 0 0 226 31 0c5 0 10 4 10 10 0 6-5 10-10 10l-31 0 0 41 72 0c5 0 10 5 10 10 0 6-5 11-10 11l-72 0 0 41 92 0c6 0 10 4 10 10 0 6-4 10-10 10l-92 0 0 41 133 0c6 0 10 5 10 10 0 6-4 11-10 11l-133 0 0 30c0 6 5 11 10 11l205 0c6 0 10-5 10-11l0-112 21 0 0 112c0 17-14 31-31 31l-205 0c-17 0-31-14-31-31l0-461-10 0c-5 0-10-4-10-10 0-5 5-10 10-10l492 0c5 0 10 5 10 10 0 6-5 10-10 10z m-174 0l0 103 61 0 0-103z m82 0l0 113c0 6-5 10-11 10l-82 0c-5 0-10-4-10-10l0-113-41 0 0 297c0 6 5 11 10 11l164 0c6 0 11-5 11-11l0-297z m-31 205l-41 0c-6 0-10-4-10-10 0-6 4-10 10-10l41 0c6 0 10 4 10 10 0 6-4 10-10 10z m0 62l-41 0c-6 0-10-5-10-11 0-5 4-10 10-10l41 0c6 0 10 5 10 10 0 6-4 11-10 11z"/>
<glyph glyph-name="budicon-classic-21" unicode="&#57351;" d="M215 266l-82 0c-6 0-10-4-10-10 0-6 4-10 10-10l82 0c6 0 10 4 10 10 0 6-4 10-10 10z m0 82l-82 0c-6 0-10-4-10-10 0-6 4-10 10-10l82 0c6 0 10 4 10 10 0 6-4 10-10 10z m184-184l-41 0c-5 0-10-5-10-10 0-6 5-11 10-11l41 0c6 0 11 5 11 11 0 5-5 10-11 10z m0-82l-41 0c-5 0-10-5-10-10 0-6 5-11 10-11l41 0c6 0 11 5 11 11 0 5-5 10-11 10z m0 164l-41 0c-5 0-10-5-10-10 0-6 5-11 10-11l41 0c6 0 11 5 11 11 0 5-5 10-11 10z m-184 184l-82 0c-6 0-10-5-10-10 0-6 4-10 10-10l82 0c6 0 10 4 10 10 0 5-4 10-10 10z m287-410l-31 0 0 277c0 17-14 31-31 31l-133 0 0 153c0 17-14 31-31 31l-204 0c-17 0-31-14-31-31l0-461-31 0c-5 0-10-4-10-10 0-5 5-10 10-10l492 0c5 0 10 5 10 10 0 6-5 10-10 10z m-379 0l0 144 102 0 0-144z m123 0l0 144c0 11-9 20-21 20l-102 0c-11 0-21-9-21-20l0-144-41 0 0 461c0 6 5 11 11 11l204 0c6 0 11-5 11-11l0-461z m61 0l0 287 133 0c6 0 11-4 11-10l0-277z"/>
<glyph glyph-name="budicon-classic-22" unicode="&#57352;" d="M471 410l-41 0 0 41c0 11-9 20-20 20l-390 0c-11 0-20-9-20-20l0-308c0-11 9-20 20-20l41 0 0-41c0-11 10-21 21-21l389 0c11 0 21 10 21 21l0 307c0 11-10 21-21 21z m-451-267l0 41 338 0c6 0 11 5 11 11 0 5-5 10-11 10l-30 0 0 194c0 6-5 11-11 11-5 0-10-5-10-11l0-194-41 0 0 51c0 6-4 10-10 10-6 0-10-4-10-10l0-51-41 0 0 92c0 6-5 10-10 10-6 0-11-4-11-10l0-92-41 0 0 153c0 6-4 11-10 11-6 0-10-5-10-11l0-153-41 0 0 51c0 6-5 10-10 10-6 0-11-4-11-10l0-51-41 0 0 246 390 0 0-308z m451-61l-389 0 0 41 328 0c11 0 20 9 20 20l0 246 41 0z"/>
<glyph glyph-name="budicon-classic-23" unicode="&#57353;" d="M266 389c0-11-9-20-20-20-12 0-21 9-21 20 0 11 9 21 21 21 11 0 20-10 20-21z m0-143c0-12-9-21-20-21-12 0-21 9-21 21 0 11 9 20 21 20 11 0 20-9 20-20z m0-144c0-11-9-20-20-20-12 0-21 9-21 20 0 12 9 21 21 21 11 0 20-9 20-21z"/>
<glyph glyph-name="budicon-classic-24" unicode="&#57354;" d="M256 287c6 0 10 4 10 10l0 164c0 5-4 10-10 10-6 0-10-5-10-10l0-164c0-6 4-10 10-10z m51 136l0-21c72-23 123-89 123-167 0-96-78-174-174-174-96 0-174 78-174 174 0 78 51 144 122 166l1 22c-83-23-144-99-144-188 0-107 88-194 195-194 107 0 195 87 195 194 0 89-61 165-142 188z"/>
<glyph glyph-name="budicon-classic-25" unicode="&#57355;" d="M492 471l-472 0c-11 0-20-9-20-20l0-400c0-17 14-31 31-31l450 0c17 0 31 14 31 31l0 400c0 11-9 20-20 20z m-461-430c-6 0-11 5-11 10l0 318 185 0 0-328z m461 10c0-5-5-10-11-10l-256 0 0 328 267 0z m0 400l0-62-472 0 0 62 472 0 0 10 0-10z m-216-328l164 0c6 0 11 4 11 10 0 6-5 10-11 10l-164 0c-5 0-10-4-10-10 0-6 5-10 10-10z m0 82l164 0c6 0 11 4 11 10 0 6-5 10-11 10l-164 0c-5 0-10-4-10-10 0-6 5-10 10-10z m0 82l164 0c6 0 11 4 11 10 0 6-5 10-11 10l-164 0c-5 0-10-4-10-10 0-6 5-10 10-10z"/>
<glyph glyph-name="budicon-classic-26" unicode="&#57356;" d="M461 451l-410 0c-17 0-31-14-31-31l0-369c0-17 14-31 31-31l410 0c17 0 31 14 31 31l0 369c0 17-14 31-31 31z m-133-21l0-389-144 0 0 389z m-287-379l0 369c0 5 5 10 10 10l113 0 0-389-113 0c-5 0-10 5-10 10z m430 0c0-5-5-10-10-10l-113 0 0 389 113 0c5 0 10-5 10-10z"/>
<glyph glyph-name="budicon-classic-27" unicode="&#57357;" d="M358 246l-204 0c-6 0-11-5-11-10 0-6 5-11 11-11l204 0c6 0 11 5 11 11 0 5-5 10-11 10z m-204 41l204 0c6 0 11 4 11 10 0 6-5 10-11 10l-204 0c-6 0-11-4-11-10 0-6 5-10 11-10z m109-106c-2 2-4 3-7 3-3 0-5-1-7-3l-62-61c-1-2-3-4-3-7 0-6 5-10 11-10 2 0 5 1 7 2l44 44 0-118c0-6 4-11 10-11 6 0 10 5 10 11l0 118 44-44c2-1 5-2 7-2 6 0 11 4 11 10 0 3-2 5-3 7z m-14 170c2-2 4-3 7-3 3 0 5 1 7 3l62 62c2 1 3 4 3 7 0 6-5 10-10 10-3 0-6-1-8-3l-44-44 0 119c0 5-4 10-10 10-6 0-10-5-10-10l0-119-44 44c-2 2-5 3-7 3-6 0-11-5-11-10 0-3 2-6 3-7z"/>
</font>
</defs>
</svg>
