<?xml version="1.0" encoding="UTF-8"?>
<svg width="758px" height="1594px" viewBox="0 0 758 1594" version="1.1" xmlns="http://www.w3.org/2000/svg" xmlns:xlink="http://www.w3.org/1999/xlink">
    <!-- Generator: Sketch 43.2 (39069) - http://www.bohemiancoding.com/sketch -->
    <title>iPhone 5s</title>
    <desc>Created with Sketch.</desc>
    <defs>
        <rect id="path-1" x="0" y="0" width="640" height="1136"></rect>
    </defs>
    <g id="Page-1" stroke="none" stroke-width="1" fill="none" fill-rule="evenodd">
        <g id="iPhone-5s">
            <rect id="Outer-Stroke" stroke="#DBE5EB" stroke-width="5" x="8.5" y="8.5" width="747" height="1583" rx="110"></rect>
            <path d="M5.5,230.5 L5.5,291.5 L4,291.5 C3.17472044,291.5 2.5,290.825033 2.5,289.995429 L2.5,232.004571 C2.5,231.1767 3.17515217,230.5 4,230.5 L5.5,230.5 Z" id="Hold-Switch" stroke="#DBE5EB" stroke-width="5"></path>
            <path d="M5.5,378.5 L5.5,427.5 L4,427.5 C3.17305811,427.5 2.5,426.828695 2.5,426.007321 L2.5,379.992679 C2.5,379.174393 3.17456882,378.5 4,378.5 L5.5,378.5 Z" id="Volume-Up" stroke="#DBE5EB" stroke-width="5"></path>
            <path d="M5.5,510.5 L5.5,559.5 L4,559.5 C3.17305811,559.5 2.5,558.828695 2.5,558.007321 L2.5,511.992679 C2.5,511.174393 3.17456882,510.5 4,510.5 L5.5,510.5 Z" id="Volume-Down" stroke="#DBE5EB" stroke-width="5"></path>
            <circle id="Front-Camera" stroke="#DBE5EB" stroke-width="5" cx="381" cy="84" r="11.5"></circle>
            <rect id="Speaker" stroke="#DBE5EB" stroke-width="5" x="315.5" y="130.5" width="133" height="27" rx="13.5"></rect>
            <circle id="Home-Button" stroke="#DBE5EB" stroke-width="5" cx="382" cy="1479" r="65.5"></circle>
            <path d="M631.5,5.5 L514.5,5.5 L514.5,3.5089165 C514.5,2.94563647 514.945767,2.5 515.503362,2.5 L630.496638,2.5 C631.051929,2.5 631.5,2.94911335 631.5,3.5089165 L631.5,5.5 Z" id="Power-Button" stroke="#DBE5EB" stroke-width="5"></path>
            <g id="Screen" transform="translate(62.000000, 232.000000)">
                <mask id="mask-2" fill="white">
                    <use xlink:href="#path-1"></use>
                </mask>
                <g id="Your-Screen-Here">
                    <use fill="#FFFFFF" fill-rule="evenodd" xlink:href="#path-1"></use>
                    <rect stroke="#DBE5EB" stroke-width="5" x="-2.5" y="-2.5" width="645" height="1141"></rect>
                </g>
            </g>
        </g>
    </g>
</svg>