<?xml version="1.0" encoding="UTF-8"?>
<svg width="149px" height="113px" viewBox="0 0 149 113" version="1.1" xmlns="http://www.w3.org/2000/svg" xmlns:xlink="http://www.w3.org/1999/xlink">
    <!-- Generator: Sketch 46.2 (44496) - http://www.bohemiancoding.com/sketch -->
    <title>Group</title>
    <desc>Created with Sketch.</desc>
    <defs>
        <filter x="-19.2%" y="-12.5%" width="138.5%" height="131.2%" filterUnits="objectBoundingBox" id="filter-1">
            <feOffset dx="0" dy="2" in="SourceAlpha" result="shadowOffsetOuter1"></feOffset>
            <feGaussianBlur stdDeviation="3" in="shadowOffsetOuter1" result="shadowBlurOuter1"></feGaussianBlur>
            <feColorMatrix values="0 0 0 0 0   0 0 0 0 0   0 0 0 0 0  0 0 0 0.15 0" type="matrix" in="shadowBlurOuter1" result="shadowMatrixOuter1"></feColorMatrix>
            <feMerge>
                <feMergeNode in="shadowMatrixOuter1"></feMergeNode>
                <feMergeNode in="SourceGraphic"></feMergeNode>
            </feMerge>
        </filter>
        <filter x="-19.2%" y="-12.5%" width="138.5%" height="131.2%" filterUnits="objectBoundingBox" id="filter-2">
            <feOffset dx="0" dy="2" in="SourceAlpha" result="shadowOffsetOuter1"></feOffset>
            <feGaussianBlur stdDeviation="3" in="shadowOffsetOuter1" result="shadowBlurOuter1"></feGaussianBlur>
            <feColorMatrix values="0 0 0 0 0   0 0 0 0 0   0 0 0 0 0  0 0 0 0.15 0" type="matrix" in="shadowBlurOuter1" result="shadowMatrixOuter1"></feColorMatrix>
            <feMerge>
                <feMergeNode in="shadowMatrixOuter1"></feMergeNode>
                <feMergeNode in="SourceGraphic"></feMergeNode>
            </feMerge>
        </filter>
        <filter x="-19.2%" y="-12.5%" width="138.5%" height="131.2%" filterUnits="objectBoundingBox" id="filter-3">
            <feOffset dx="0" dy="2" in="SourceAlpha" result="shadowOffsetOuter1"></feOffset>
            <feGaussianBlur stdDeviation="3" in="shadowOffsetOuter1" result="shadowBlurOuter1"></feGaussianBlur>
            <feColorMatrix values="0 0 0 0 0   0 0 0 0 0   0 0 0 0 0  0 0 0 0.15 0" type="matrix" in="shadowBlurOuter1" result="shadowMatrixOuter1"></feColorMatrix>
            <feMerge>
                <feMergeNode in="shadowMatrixOuter1"></feMergeNode>
                <feMergeNode in="SourceGraphic"></feMergeNode>
            </feMerge>
        </filter>
    </defs>
    <g id="Page-1" stroke="none" stroke-width="1" fill="none" fill-rule="evenodd">
        <g id="Artboard" transform="translate(-56.000000, -84.000000)" fill-rule="nonzero">
            <g id="Group" transform="translate(61.000000, 88.000000)">
                <g id="jpg" filter="url(#filter-1)" transform="translate(36.767754, 61.808607) rotate(-24.000000) translate(-36.767754, -61.808607) translate(10.767754, 29.808607)">
                    <g id="Rectangle_45" transform="translate(1.000000, 1.000000)" fill="#FFFFFF">
                        <rect id="Rectangle-path" x="0" y="0" width="46" height="62"></rect>
                    </g>
                    <g id="Rectangle_46" transform="translate(10.000000, 33.000000)" fill="#FFFFFF">
                        <rect id="Rectangle-path" x="0" y="0" width="28" height="22"></rect>
                    </g>
                    <g id="Rectangle_47" transform="translate(10.000000, 40.000000)" fill="#FFFFFF">
                        <polygon id="Shape" points="21 2 16 7 9 0 0 9 0 15 28 15 28 9"></polygon>
                    </g>
                    <g id="icon" fill="#08C9BE">
                        <path d="M11,56 L37,56 C38.104,56 39,55.104 39,54 L39,49.033 C39,49.017 39,49.004 39,48.988 L39,34 C39,32.896 38.104,32 37,32 L11,32 C9.896,32 9,32.896 9,34 L9,48.986 C9,49.003 9,49.017 9,49.034 L9,54 C9,55.104 9.896,56 11,56 Z M11,34 L37,34 L37,46.596 L31.756,41.352 C31.738,41.331 31.733,41.305 31.713,41.288 C31.518,41.092 31.258,40.996 31,40.999 C30.742,40.996 30.482,41.092 30.286,41.288 C30.265,41.308 30.26,41.334 30.242,41.354 L26,45.596 L19.755,39.352 C19.738,39.331 19.732,39.305 19.713,39.288 C19.516,39.092 19.258,38.996 19,38.999 C18.742,38.996 18.483,39.092 18.286,39.288 C18.266,39.308 18.26,39.334 18.242,39.354 L11,46.596 L11,34 Z M11,49.404 L19,41.404 L25.245,47.648 C25.263,47.669 25.269,47.693 25.288,47.711 C25.307,47.729 25.332,47.735 25.352,47.754 L27.309,49.711 C27.698,50.101 28.327,50.101 28.713,49.711 C29.102,49.323 29.102,48.694 28.713,48.308 L27.404,47 L31,43.404 L37,49.404 L37,54 L11,54 L11,49.404 Z M50,8 L48,8 L48,2 C48,0.896 47.104,0 46,0 L2,0 C0.896,0 0,0.896 0,2 L0,62 C0,63.104 0.896,64 2,64 L46,64 C47.104,64 48,63.104 48,62 L48,26 L50,26 C51.104,26 52,25.104 52,24 L52,10 C52,8.896 51.104,8 50,8 Z M46,8 L22,8 C20.896,8 20,8.896 20,10 L20,24 C20,25.104 20.896,26 22,26 L46,26 L46,62 L2,62 L2,2 L46,2 L46,8 Z" id="Shape"></path>
                    </g>
                </g>
                <g id="ppt" filter="url(#filter-2)" transform="translate(104.767754, 57.808607) rotate(24.000000) translate(-104.767754, -57.808607) translate(78.767754, 25.808607)">
                    <g id="Rectangle_38" transform="translate(1.000000, 1.000000)" fill="#FFFFFF">
                        <rect id="Rectangle-path" x="0" y="0" width="46" height="62"></rect>
                    </g>
                    <g id="Ellipse_11" transform="translate(14.000000, 33.000000)" fill="#FFFFFF">
                        <circle id="Oval" cx="11" cy="11" r="11"></circle>
                    </g>
                    <g id="Ellipse_10" transform="translate(25.000000, 33.000000)" fill="#FFFFFF">
                        <path d="M0,0 L0,10 L8.254,18.254 C9.958,16.316 11,13.783 11,11 C11,4.925 6.075,0 0,0 Z" id="Shape"></path>
                    </g>
                    <g id="Ellipse_10_copy" transform="translate(14.000000, 33.000000)" fill="#FFFFFF">
                        <path d="M0,10.85 C0,13.594 1.042,16.094 2.746,18.004 L11,9.863 L11,0 C4.925,0 0,4.857 0,10.85 Z" id="Shape"></path>
                    </g>
                    <g id="Rounded_Rectangle_7_3_" fill="#2668C7">
                        <path d="M25,56 C31.627,56 37,50.627 37,44 C37,37.373 31.627,32 25,32 C18.373,32 13,37.373 13,44 C13,50.627 18.373,56 25,56 Z M26,34.051 C31.053,34.553 35,38.815 35,44 C35,46.152 34.312,48.141 33.157,49.771 L26,42.614 L26,34.051 Z M31.869,51.255 C30.077,52.952 27.663,54 25,54 C22.337,54 19.923,52.952 18.131,51.255 L25,44.386 L31.869,51.255 Z M24,34.051 L24,42.614 L16.843,49.771 C15.687,48.141 15,46.152 15,44 C15,38.814 18.947,34.553 24,34.051 Z M50,8 L48,8 L48,2 C48,0.896 47.104,0 46,0 L2,0 C0.896,0 0,0.896 0,2 L0,62 C0,63.104 0.896,64 2,64 L46,64 C47.104,64 48,63.104 48,62 L48,26 L50,26 C51.104,26 52,25.104 52,24 L52,10 C52,8.896 51.104,8 50,8 Z M46,8 L22,8 C20.896,8 20,8.896 20,10 L20,24 C20,25.104 20.896,26 22,26 L46,26 L46,62 L2,62 L2,2 L46,2 L46,8 Z" id="Shape"></path>
                    </g>
                </g>
                <g id="pdf" filter="url(#filter-3)" transform="translate(45.000000, 0.000000)">
                    <g id="Rectangle_34" transform="translate(1.000000, 1.000000)" fill="#FFFFFF">
                        <rect id="Rectangle-path" x="0" y="0" width="46" height="62"></rect>
                    </g>
                    <g id="icon_3_" fill="#E02F2F">
                        <path d="M50,8 L48,8 L48,2 C48,0.896 47.104,0 46,0 L2,0 C0.896,0 0,0.896 0,2 L0,62 C0,63.104 0.896,64 2,64 L46,64 C47.104,64 48,63.104 48,62 L48,26 L50,26 C51.104,26 52,25.104 52,24 L52,10 C52,8.896 51.104,8 50,8 Z M46,8 L22,8 C20.896,8 20,8.896 20,10 L20,24 C20,25.104 20.896,26 22,26 L46,26 L46,62 L2,62 L2,2 L46,2 L46,8 Z M16.941,54.003 C17.813,52.654 18.419,50.869 18.54,50.087 C21.638,48.656 25.149,48.125 28.019,47.947 C28.683,48.532 29.599,49.421 30.445,50.113 C32.59,51.866 34.136,52.426 35.806,51.551 C36.429,51.226 36.836,50.503 36.937,49.665 C36.945,49.642 36.958,49.625 36.963,49.601 L36.978,49.521 C36.978,48.386 36.275,46.609 33.931,46.226 C32.013,45.913 29.457,45.991 28.404,46.084 C25.331,43.739 22.767,41.509 21.158,39.995 C21.284,38.77 21.448,36.472 21.062,35.248 C20.121,32.265 16.537,32.165 16.039,35.354 C15.671,37.709 18.301,40.018 19.05,40.622 C18.538,42.903 17.575,46.699 17.01,48.895 C16.347,49.19 15.485,49.589 14.722,50.007 C13.199,50.842 11.99,52.586 12.018,53.736 C12.1,57.084 15.487,56.252 16.941,54.003 Z M30.881,47.977 C32.194,47.977 33.12,47.96 33.168,47.964 C33.471,47.975 34.366,48.126 34.779,48.61 C34.939,48.799 35.003,48.934 34.972,49.229 C34.773,49.962 34.45,50 34.098,50 C33.69,50 33.139,49.768 33.048,49.727 C32.024,49.086 31.913,48.889 30.824,47.956 C30.833,47.954 30.872,47.977 30.881,47.977 Z M20.732,42.009 L25.826,46.366 C24.849,46.482 23.471,46.625 22.186,46.933 C21.027,47.209 20.067,47.579 19.316,47.857 L20.732,42.009 Z M19.018,37.902 C17.886,36.646 17.904,35.743 17.964,35.533 C18.064,35.181 18.202,34.986 18.456,34.986 C18.87,34.986 19.008,35.281 19.1,35.415 C19.331,35.756 19.522,36.637 19.428,38.318 C19.16,38.052 19.018,37.902 19.018,37.902 Z M14.217,52.941 C14.833,51.99 15.385,51.595 16.453,51.015 C15.412,53.754 14.43,53.993 14.036,54.004 C14.026,53.995 14.021,53.985 14.016,53.978 C13.915,53.779 14.037,53.296 14.217,52.941 Z" id="Shape"></path>
                    </g>
                </g>
            </g>
        </g>
    </g>
</svg>