<?xml version="1.0" encoding="UTF-8"?>
<svg width="52px" height="64px" viewBox="0 0 52 64" version="1.1" xmlns="http://www.w3.org/2000/svg" xmlns:xlink="http://www.w3.org/1999/xlink">
    <!-- Generator: Sketch 46.2 (44496) - http://www.bohemiancoding.com/sketch -->
    <title>avi</title>
    <desc>Created with Sketch.</desc>
    <defs></defs>
    <g id="Page-1" stroke="none" stroke-width="1" fill="none" fill-rule="evenodd">
        <g id="avi" fill-rule="nonzero">
            <g id="Rectangle_37" transform="translate(1.000000, 1.000000)" fill="#FFFFFF">
                <rect id="Rectangle-path" x="0" y="0" width="46" height="62"></rect>
            </g>
            <g id="Rectangle_36" transform="translate(17.000000, 34.000000)" fill="#FFFFFF">
                <rect id="Rectangle-path" x="0" y="0" width="14" height="20"></rect>
            </g>
            <g id="Rounded_Rectangle_7_4_" fill="#FF9600">
                <path d="M36,33 L12,33 L12,55 L36,55 L36,33 Z M16,53 L14,53 L14,51 L16,51 L16,53 Z M16,49 L14,49 L14,47 L16,47 L16,49 Z M16,45 L14,45 L14,43 L16,43 L16,45 Z M16,41 L14,41 L14,39 L16,39 L16,41 Z M16,37 L14,37 L14,35 L16,35 L16,37 Z M30,53 L18,53 L18,45 L30,45 L30,53 Z M30,43 L18,43 L18,35 L30,35 L30,43 Z M34,53 L32,53 L32,51 L34,51 L34,53 Z M34,49 L32,49 L32,47 L34,47 L34,49 Z M34,45 L32,45 L32,43 L34,43 L34,45 Z M34,41 L32,41 L32,39 L34,39 L34,41 Z M34,37 L32,37 L32,35 L34,35 L34,37 Z M50,8 L48,8 L48,2 C48,0.896 47.104,0 46,0 L2,0 C0.896,0 0,0.896 0,2 L0,62 C0,63.104 0.896,64 2,64 L46,64 C47.104,64 48,63.104 48,62 L48,26 L50,26 C51.104,26 52,25.104 52,24 L52,10 C52,8.896 51.104,8 50,8 Z M46,8 L22,8 C20.896,8 20,8.896 20,10 L20,24 C20,25.104 20.896,26 22,26 L46,26 L46,62 L2,62 L2,2 L46,2 L46,8 Z" id="Shape"></path>
            </g>
            <g id="Group" transform="translate(26.000000, 13.000000)" fill="#FFFFFF">
                <path d="M8.077,7.5 L6.767,7.5 C6.621,7.5 6.499,7.466 6.404,7.397 C6.309,7.329 6.244,7.242 6.207,7.134 L5.777,5.864 L3.007,5.864 L2.576,7.134 C2.543,7.228 2.477,7.312 2.382,7.387 C2.284,7.462 2.167,7.499 2.027,7.499 L0.707,7.499 L3.527,0.214 L5.257,0.214 L8.077,7.5 Z M3.397,4.715 L5.386,4.715 L4.716,2.72 C4.673,2.594 4.622,2.445 4.564,2.273 C4.506,2.101 4.449,1.916 4.392,1.715 C4.338,1.918 4.283,2.107 4.226,2.28 C4.169,2.453 4.117,2.603 4.067,2.73 L3.397,4.715 Z" id="Shape"></path>
                <path d="M7.067,0.215 L8.427,0.215 C8.573,0.215 8.693,0.248 8.786,0.316 C8.88,0.382 8.946,0.47 8.986,0.581 L10.396,4.481 C10.459,4.651 10.524,4.835 10.588,5.036 C10.652,5.237 10.714,5.446 10.771,5.666 C10.817,5.446 10.872,5.236 10.934,5.036 C10.995,4.836 11.056,4.651 11.116,4.481 L12.516,0.581 C12.549,0.487 12.614,0.403 12.711,0.328 C12.807,0.254 12.926,0.216 13.065,0.216 L14.435,0.216 L11.515,7.501 L9.985,7.501 L7.067,0.215 Z" id="Shape"></path>
                <polygon id="Shape" points="16.888 7.5 15.188 7.5 15.188 0.215 16.888 0.215"></polygon>
            </g>
        </g>
    </g>
</svg>