<?xml version="1.0" encoding="UTF-8"?>
<svg width="48px" height="64px" viewBox="0 0 48 64" version="1.1" xmlns="http://www.w3.org/2000/svg" xmlns:xlink="http://www.w3.org/1999/xlink">
    <!-- Generator: Sketch 46.2 (44496) - http://www.bohemiancoding.com/sketch -->
    <title>Rounded_Rectangle_8</title>
    <desc>Created with Sketch.</desc>
    <defs></defs>
    <g id="Page-1" stroke="none" stroke-width="1" fill="none" fill-rule="evenodd">
        <g id="remove" fill="#E02F2F">
            <g id="Rounded_Rectangle_8">
                <path d="M47.994,14.989 C47.985,14.752 47.896,14.515 47.715,14.334 L33.666,0.285 C33.487,0.106 33.255,0.018 33.02,0.008 C33.014,0.006 33,0 33,0 L2,0 C0.896,0 0,0.896 0,2 L0,62 C0,63.104 0.896,64 2,64 L46,64 C47.104,64 48,63.104 48,62 L48,15 C48,15 47.995,14.991 47.994,14.989 Z M34,3.381 L44.619,14 C40.477,14 34,14 34,14 C34,14 34,7.524 34,3.381 Z M46,62 L2,62 L2,2 L32,2 L32,16 L46,16 L46,62 Z M30.718,29.282 C30.324,28.889 29.687,28.889 29.294,29.282 L23.996,34.581 L18.758,29.343 C18.367,28.952 17.734,28.952 17.343,29.343 C16.952,29.734 16.952,30.367 17.343,30.758 L22.581,35.996 L17.314,41.263 C16.92,41.656 16.92,42.293 17.314,42.686 C17.707,43.08 18.344,43.08 18.737,42.686 L24.004,37.419 L29.242,42.657 C29.633,43.047 30.266,43.047 30.657,42.657 C31.047,42.266 31.047,41.633 30.657,41.242 L25.419,36.004 L30.718,30.706 C31.11,30.313 31.11,29.676 30.718,29.282 Z" id="Shape"></path>
            </g>
        </g>
    </g>
</svg>