<?xml version="1.0" encoding="UTF-8"?>
<svg width="52px" height="64px" viewBox="0 0 52 64" version="1.1" xmlns="http://www.w3.org/2000/svg" xmlns:xlink="http://www.w3.org/1999/xlink">
    <!-- Generator: Sketch 46.2 (44496) - http://www.bohemiancoding.com/sketch -->
    <title>html</title>
    <desc>Created with Sketch.</desc>
    <defs></defs>
    <g id="Page-1" stroke="none" stroke-width="1" fill="none" fill-rule="evenodd">
        <g id="html" fill-rule="nonzero">
            <g id="Rectangle_31" transform="translate(1.000000, 1.000000)" fill="#FFFFFF">
                <rect id="Rectangle-path" x="0" y="0" width="46" height="62"></rect>
            </g>
            <g id="Rounded_Rectangle_7_8_" fill="#3F73C7">
                <path d="M18.511,52.88 C19.013,53.163 19.649,53.007 19.93,52.529 L29.888,36.498 C30.169,36.019 29.992,35.404 29.49,35.12 C28.988,34.836 28.351,34.993 28.07,35.471 L18.112,51.502 C17.83,51.979 18.009,52.596 18.511,52.88 Z M31.286,49.713 C31.675,50.102 32.303,50.102 32.691,49.713 L37.65,44.754 C37.671,44.736 37.697,44.731 37.715,44.71 C37.913,44.512 38.007,44.25 38.002,43.99 C38.003,43.734 37.905,43.48 37.711,43.286 C37.697,43.271 37.679,43.267 37.664,43.255 L32.692,38.283 C32.303,37.894 31.674,37.894 31.288,38.283 C30.899,38.671 30.899,39.3 31.288,39.687 L35.597,43.996 L31.284,48.309 C30.898,48.695 30.898,49.325 31.286,49.713 Z M10.347,44.752 L15.308,49.713 C15.696,50.102 16.325,50.102 16.712,49.713 C17.101,49.325 17.101,48.695 16.712,48.309 L12.4,43.996 L16.709,39.687 C17.097,39.298 17.097,38.669 16.709,38.283 C16.321,37.894 15.692,37.894 15.305,38.283 L10.335,43.254 C10.32,43.268 10.3,43.272 10.286,43.286 C10.092,43.48 9.995,43.736 9.995,43.991 C9.991,44.251 10.084,44.512 10.283,44.71 C10.302,44.729 10.327,44.734 10.347,44.752 Z M50,8 L48,8 L48,2 C48,0.896 47.104,0 46,0 L2,0 C0.896,0 0,0.896 0,2 L0,62 C0,63.104 0.896,64 2,64 L46,64 C47.104,64 48,63.104 48,62 L48,26 L50,26 C51.104,26 52,25.104 52,24 L52,10 C52,8.896 51.104,8 50,8 Z M46,8 L16,8 C14.896,8 14,8.896 14,10 L14,24 C14,25.104 14.896,26 16,26 L46,26 L46,62 L2,62 L2,2 L46,2 L46,8 Z" id="Shape"></path>
            </g>
            <g id="Group" transform="translate(19.000000, 13.000000)" fill="#FFFFFF">
                <polygon id="Shape" points="6.563 7.5 4.863 7.5 4.863 4.42 1.903 4.42 1.903 7.5 0.203 7.5 0.203 0.215 1.903 0.215 1.903 3.26 4.863 3.26 4.863 0.215 6.563 0.215"></polygon>
                <polygon id="Shape" points="13.053 0.215 13.053 1.555 11.002 1.555 11.002 7.5 9.313 7.5 9.313 1.555 7.263 1.555 7.263 0.215"></polygon>
                <path d="M17.67,4.564 C17.732,4.701 17.791,4.841 17.848,4.985 C17.905,4.838 17.964,4.695 18.028,4.556 C18.091,4.418 18.157,4.284 18.223,4.154 L20.092,0.47 C20.125,0.407 20.16,0.357 20.196,0.322 C20.231,0.288 20.27,0.261 20.313,0.245 C20.356,0.229 20.405,0.22 20.46,0.22 C20.515,0.22 20.579,0.22 20.652,0.22 L21.942,0.22 L21.942,7.5 L20.452,7.5 L20.452,3.31 C20.452,3.107 20.463,2.887 20.482,2.651 L18.552,6.395 C18.491,6.512 18.411,6.6 18.31,6.661 C18.207,6.721 18.091,6.751 17.962,6.751 L17.732,6.751 C17.602,6.751 17.486,6.721 17.384,6.661 C17.282,6.6 17.201,6.513 17.142,6.395 L15.202,2.645 C15.216,2.762 15.225,2.878 15.232,2.993 C15.238,3.108 15.242,3.214 15.242,3.31 L15.242,7.5 L13.752,7.5 L13.752,0.22 L15.043,0.22 C15.115,0.22 15.18,0.22 15.234,0.22 C15.29,0.22 15.338,0.229 15.382,0.245 C15.425,0.262 15.464,0.288 15.499,0.322 C15.534,0.357 15.567,0.407 15.602,0.47 L17.477,4.168 C17.544,4.296 17.607,4.428 17.67,4.564 Z" id="Shape"></path>
                <polygon id="Shape" points="24.832 6.15 27.533 6.15 27.533 7.5 23.142 7.5 23.142 0.215 24.831 0.215 24.831 6.15"></polygon>
            </g>
        </g>
    </g>
</svg>