<?xml version="1.0" encoding="UTF-8"?>
<svg width="52px" height="64px" viewBox="0 0 52 64" version="1.1" xmlns="http://www.w3.org/2000/svg" xmlns:xlink="http://www.w3.org/1999/xlink">
    <!-- Generator: Sketch 46.2 (44496) - http://www.bohemiancoding.com/sketch -->
    <title>jpg</title>
    <desc>Created with Sketch.</desc>
    <defs></defs>
    <g id="Page-1" stroke="none" stroke-width="1" fill="none" fill-rule="evenodd">
        <g id="jpg" fill-rule="nonzero">
            <g id="Rectangle_45" transform="translate(1.000000, 1.000000)" fill="#FFFFFF">
                <rect id="Rectangle-path" x="0" y="0" width="46" height="62"></rect>
            </g>
            <g id="Rectangle_46" transform="translate(10.000000, 33.000000)" fill="#FFFFFF">
                <rect id="Rectangle-path" x="0" y="0" width="28" height="22"></rect>
            </g>
            <g id="Rectangle_47" transform="translate(10.000000, 40.000000)" fill="#FFFFFF">
                <polygon id="Shape" points="21 2 16 7 9 0 0 9 0 15 28 15 28 9"></polygon>
            </g>
            <g id="icon" fill="#08C9BE">
                <path d="M11,56 L37,56 C38.104,56 39,55.104 39,54 L39,49.033 C39,49.017 39,49.004 39,48.988 L39,34 C39,32.896 38.104,32 37,32 L11,32 C9.896,32 9,32.896 9,34 L9,48.986 C9,49.003 9,49.017 9,49.034 L9,54 C9,55.104 9.896,56 11,56 Z M11,34 L37,34 L37,46.596 L31.756,41.352 C31.738,41.331 31.733,41.305 31.713,41.288 C31.518,41.092 31.258,40.996 31,40.999 C30.742,40.996 30.482,41.092 30.286,41.288 C30.265,41.308 30.26,41.334 30.242,41.354 L26,45.596 L19.755,39.352 C19.738,39.331 19.732,39.305 19.713,39.288 C19.516,39.092 19.258,38.996 19,38.999 C18.742,38.996 18.483,39.092 18.286,39.288 C18.266,39.308 18.26,39.334 18.242,39.354 L11,46.596 L11,34 Z M11,49.404 L19,41.404 L25.245,47.648 C25.263,47.669 25.269,47.693 25.288,47.711 C25.307,47.729 25.332,47.735 25.352,47.754 L27.309,49.711 C27.698,50.101 28.327,50.101 28.713,49.711 C29.102,49.323 29.102,48.694 28.713,48.308 L27.404,47 L31,43.404 L37,49.404 L37,54 L11,54 L11,49.404 Z M50,8 L48,8 L48,2 C48,0.896 47.104,0 46,0 L2,0 C0.896,0 0,0.896 0,2 L0,62 C0,63.104 0.896,64 2,64 L46,64 C47.104,64 48,63.104 48,62 L48,26 L50,26 C51.104,26 52,25.104 52,24 L52,10 C52,8.896 51.104,8 50,8 Z M46,8 L22,8 C20.896,8 20,8.896 20,10 L20,24 C20,25.104 20.896,26 22,26 L46,26 L46,62 L2,62 L2,2 L46,2 L46,8 Z" id="Shape"></path>
            </g>
            <g id="Group" transform="translate(26.000000, 13.000000)" fill="#FFFFFF">
                <path d="M4.468,4.86 C4.468,5.266 4.416,5.636 4.315,5.969 C4.213,6.303 4.061,6.588 3.856,6.826 C3.651,7.064 3.393,7.25 3.083,7.382 C2.773,7.513 2.409,7.579 1.989,7.579 C1.798,7.579 1.61,7.569 1.426,7.549 C1.24,7.529 1.047,7.496 0.848,7.449 L0.938,6.464 C0.945,6.377 0.979,6.308 1.041,6.254 C1.103,6.201 1.188,6.174 1.298,6.174 C1.355,6.174 1.425,6.184 1.509,6.201 C1.592,6.22 1.693,6.229 1.809,6.229 C1.972,6.229 2.115,6.206 2.236,6.161 C2.359,6.116 2.459,6.042 2.539,5.936 C2.619,5.83 2.68,5.694 2.72,5.524 C2.76,5.354 2.78,5.143 2.78,4.893 L2.78,0.213 L4.47,0.213 L4.47,4.86 L4.468,4.86 Z" id="Shape"></path>
                <path d="M7.357,5.065 L7.357,7.5 L5.668,7.5 L5.668,0.215 L8.237,0.215 C8.75,0.215 9.191,0.276 9.56,0.398 C9.927,0.52 10.231,0.687 10.469,0.901 C10.707,1.114 10.883,1.366 10.997,1.656 C11.11,1.946 11.167,2.26 11.167,2.595 C11.167,2.958 11.108,3.292 10.991,3.595 C10.874,3.899 10.696,4.158 10.456,4.375 C10.216,4.592 9.912,4.761 9.544,4.883 C9.176,5.004 8.739,5.066 8.236,5.066 L7.357,5.066 L7.357,5.065 Z M7.357,3.79 L8.237,3.79 C8.677,3.79 8.994,3.685 9.187,3.475 C9.38,3.265 9.477,2.972 9.477,2.595 C9.477,2.429 9.452,2.277 9.402,2.14 C9.352,2.003 9.276,1.886 9.174,1.787 C9.072,1.689 8.945,1.613 8.789,1.559 C8.634,1.506 8.45,1.48 8.236,1.48 L7.356,1.48 L7.356,3.79 L7.357,3.79 Z" id="Shape"></path>
                <path d="M15.477,6.28 C15.711,6.28 15.918,6.259 16.098,6.219 C16.278,6.179 16.448,6.126 16.608,6.059 L16.608,4.955 L15.887,4.955 C15.782,4.955 15.698,4.927 15.637,4.87 C15.577,4.813 15.547,4.742 15.547,4.655 L15.547,3.724 L18.137,3.724 L18.137,6.8 C17.951,6.937 17.756,7.055 17.555,7.153 C17.354,7.252 17.139,7.333 16.91,7.395 C16.681,7.458 16.437,7.505 16.18,7.536 C15.923,7.567 15.645,7.581 15.348,7.581 C14.815,7.581 14.321,7.487 13.868,7.299 C13.415,7.111 13.022,6.851 12.69,6.519 C12.358,6.187 12.098,5.794 11.911,5.339 C11.722,4.884 11.628,4.39 11.628,3.857 C11.628,3.313 11.718,2.814 11.899,2.359 C12.079,1.904 12.337,1.511 12.671,1.181 C13.005,0.851 13.411,0.595 13.886,0.411 C14.361,0.227 14.892,0.136 15.478,0.136 C15.783,0.136 16.067,0.161 16.333,0.211 C16.601,0.261 16.846,0.329 17.071,0.416 C17.296,0.503 17.501,0.606 17.688,0.726 C17.875,0.846 18.042,0.976 18.188,1.117 L17.698,1.862 C17.651,1.931 17.595,1.987 17.53,2.027 C17.466,2.067 17.395,2.087 17.318,2.087 C17.217,2.087 17.114,2.054 17.008,1.987 C16.874,1.907 16.748,1.838 16.63,1.779 C16.512,1.72 16.391,1.674 16.268,1.636 C16.145,1.6 16.014,1.573 15.877,1.556 C15.74,1.539 15.588,1.532 15.418,1.532 C15.101,1.532 14.815,1.588 14.563,1.699 C14.309,1.811 14.094,1.969 13.915,2.172 C13.737,2.375 13.601,2.619 13.503,2.904 C13.407,3.189 13.358,3.507 13.358,3.857 C13.358,4.244 13.411,4.586 13.518,4.886 C13.624,5.186 13.772,5.44 13.96,5.646 C14.148,5.853 14.371,6.01 14.63,6.119 C14.889,6.228 15.17,6.28 15.477,6.28 Z" id="Shape"></path>
            </g>
        </g>
    </g>
</svg>