<?xml version="1.0" encoding="UTF-8"?>
<svg width="52px" height="64px" viewBox="0 0 52 64" version="1.1" xmlns="http://www.w3.org/2000/svg" xmlns:xlink="http://www.w3.org/1999/xlink">
    <!-- Generator: Sketch 46.2 (44496) - http://www.bohemiancoding.com/sketch -->
    <title>icon_5_</title>
    <desc>Created with Sketch.</desc>
    <defs></defs>
    <g id="Page-1" stroke="none" stroke-width="1" fill="none" fill-rule="evenodd">
        <g id="mov" fill-rule="nonzero" fill="#344563">
            <g id="icon_5_">
                <path d="M50,8 L48,8 L48,2 C48,0.896 47.104,0 46,0 L2,0 C0.896,0 0,0.896 0,2 L0,62 C0,63.104 0.896,64 2,64 L46,64 C47.104,64 48,63.104 48,62 L48,26 L50,26 C51.104,26 52,25.104 52,24 L52,10 C52,8.896 51.104,8 50,8 Z M46,8 L22,8 C20.896,8 20,8.896 20,10 L20,24 C20,25.104 20.896,26 22,26 L46,26 L46,62 L2,62 L2,2 L46,2 L46,8 Z M25,56 C31.627,56 37,50.627 37,44 C37,37.372 31.627,32 25,32 C18.373,32 13,37.372 13,44 C13,50.627 18.373,56 25,56 Z M25,34 C30.521,34 35,38.479 35,44 C35,49.521 30.521,54 25,54 C19.478,54 15,49.521 15,44 C15,38.479 19.478,34 25,34 Z M22.073,47.364 C22.078,47.377 22.082,47.388 22.087,47.402 C22.107,47.448 22.11,47.498 22.138,47.542 C22.178,47.607 22.239,47.652 22.291,47.705 C22.293,47.706 22.293,47.707 22.295,47.708 C22.383,47.795 22.483,47.861 22.596,47.911 C22.606,47.915 22.615,47.92 22.624,47.924 C22.741,47.971 22.863,47.995 22.991,47.998 C22.994,47.998 22.997,48 23,48 C23.002,48 23.003,47.999 23.004,47.999 C23.181,48.001 23.358,47.977 23.522,47.889 L28.492,44.749 C28.573,44.705 28.611,44.669 28.635,44.635 C28.817,44.481 28.94,44.258 28.94,44 C28.94,43.742 28.817,43.52 28.635,43.365 C28.614,43.331 28.573,43.295 28.492,43.251 L23.522,40.111 C23.358,40.023 23.181,39.999 23.004,40.001 C23.003,40.001 23.002,40 23,40 C22.997,40 22.994,40.002 22.991,40.002 C22.863,40.005 22.741,40.029 22.624,40.076 C22.614,40.08 22.605,40.084 22.596,40.089 C22.483,40.139 22.383,40.205 22.295,40.292 C22.293,40.293 22.293,40.294 22.291,40.295 C22.238,40.348 22.178,40.393 22.138,40.458 C22.111,40.502 22.107,40.552 22.087,40.598 C22.082,40.612 22.078,40.623 22.073,40.636 C22.04,40.729 22.018,40.821 22.017,40.915 C22.015,40.943 22,40.971 22,41 L22,47 C22,47.029 22.015,47.057 22.018,47.085 C22.019,47.18 22.04,47.271 22.073,47.364 Z" id="Shape"></path>
            </g>
        </g>
    </g>
</svg>