<?xml version="1.0" encoding="UTF-8"?>
<svg width="52px" height="64px" viewBox="0 0 52 64" version="1.1" xmlns="http://www.w3.org/2000/svg" xmlns:xlink="http://www.w3.org/1999/xlink">
    <!-- Generator: Sketch 46.2 (44496) - http://www.bohemiancoding.com/sketch -->
    <title>mp3</title>
    <desc>Created with Sketch.</desc>
    <defs></defs>
    <g id="Page-1" stroke="none" stroke-width="1" fill="none" fill-rule="evenodd">
        <g id="mp3" fill-rule="nonzero">
            <g id="Rectangle_33" transform="translate(1.000000, 1.000000)" fill="#FFFFFF">
                <rect id="Rectangle-path" x="0" y="0" width="46" height="62"></rect>
            </g>
            <g id="Ellipse_9" transform="translate(12.000000, 33.000000)" fill="#FFFFFF">
                <path d="M3.472,18.154 C1.837,18.564 0.749,19.722 1.041,20.741 C1.332,21.761 2.895,22.255 4.528,21.845 C6.163,21.435 7.251,20.277 6.959,19.256 C6.667,18.239 5.105,17.745 3.472,18.154 Z M22.959,15.258 C22.667,14.239 21.105,13.745 19.473,14.154 C17.837,14.564 16.749,15.722 17.041,16.741 C17.332,17.761 18.895,18.255 20.527,17.845 C22.163,17.436 23.251,16.277 22.959,15.258 Z M23,0 L7,4 L7,8 L23,4 L23,0 Z" id="Shape"></path>
            </g>
            <g id="Rounded_Rectangle_7_6_" fill="#FFD11A">
                <path d="M16.782,55.811 C18.788,55.293 20.114,53.776 19.937,52.313 C19.97,52.213 20,52.111 20,52 L20,41.75 L34,38.25 L34,46.245 C33.187,45.978 32.213,45.933 31.218,46.189 C29.067,46.744 27.674,48.452 28.106,50.002 C28.54,51.554 30.632,52.362 32.784,51.808 C34.79,51.291 36.116,49.773 35.938,48.312 C35.971,48.213 36,48.111 36,48 L36,33 C36,32.447 35.553,32 35,32 C34.843,32 34.698,32.044 34.566,32.108 L19,36 C18.447,36 18,36.447 18,37 L18,50.245 C17.188,49.978 16.213,49.933 15.218,50.189 C13.067,50.744 11.674,52.452 12.106,54.002 C12.538,55.557 14.632,56.364 16.782,55.811 Z M32.268,49.883 C31.166,50.145 30.155,49.961 30.006,49.475 C29.86,48.987 30.632,48.378 31.733,48.119 C32.836,47.856 33.848,48.041 33.996,48.528 C34.143,49.016 33.368,49.622 32.268,49.883 Z M20,37.75 L34,34.25 L34,36.25 L20,39.75 L20,37.75 Z M15.732,52.117 C16.834,51.855 17.846,52.039 17.994,52.525 C18.141,53.013 17.368,53.622 16.267,53.881 C15.165,54.144 14.153,53.959 14.005,53.472 C13.858,52.984 14.632,52.378 15.732,52.117 Z M50,8 L48,8 L48,2 C48,0.896 47.104,0 46,0 L2,0 C0.896,0 0,0.896 0,2 L0,62 C0,63.104 0.896,64 2,64 L46,64 C47.104,64 48,63.104 48,62 L48,26 L50,26 C51.104,26 52,25.104 52,24 L52,10 C52,8.896 51.104,8 50,8 Z M46,8 L22,8 C20.896,8 20,8.896 20,10 L20,24 C20,25.104 20.896,26 22,26 L46,26 L46,62 L2,62 L2,2 L46,2 L46,8 Z" id="Shape"></path>
            </g>
            <g id="Group" transform="translate(25.000000, 13.000000)" fill="#FFFFFF">
                <path d="M4.399,4.564 C4.461,4.701 4.519,4.841 4.576,4.985 C4.633,4.838 4.693,4.695 4.757,4.556 C4.82,4.418 4.885,4.284 4.951,4.154 L6.822,0.47 C6.855,0.407 6.888,0.357 6.924,0.322 C6.959,0.288 6.998,0.261 7.042,0.245 C7.085,0.228 7.135,0.22 7.189,0.22 C7.243,0.22 7.308,0.22 7.381,0.22 L8.671,0.22 L8.671,7.5 L7.181,7.5 L7.181,3.31 C7.181,3.107 7.191,2.887 7.211,2.651 L5.28,6.395 C5.22,6.512 5.139,6.6 5.038,6.661 C4.936,6.721 4.821,6.751 4.69,6.751 L4.461,6.751 C4.331,6.751 4.215,6.721 4.113,6.661 C4.011,6.6 3.93,6.513 3.871,6.395 L1.931,2.645 C1.945,2.762 1.954,2.878 1.961,2.993 C1.968,3.108 1.971,3.214 1.971,3.31 L1.971,7.5 L0.481,7.5 L0.481,0.22 L1.771,0.22 C1.845,0.22 1.909,0.22 1.964,0.22 C2.019,0.22 2.068,0.229 2.11,0.245 C2.154,0.262 2.193,0.288 2.228,0.322 C2.262,0.357 2.297,0.407 2.331,0.47 L4.206,4.168 C4.273,4.296 4.338,4.428 4.399,4.564 Z" id="Shape"></path>
                <path d="M11.563,5.065 L11.563,7.5 L9.873,7.5 L9.873,0.215 L12.442,0.215 C12.956,0.215 13.397,0.276 13.765,0.398 C14.133,0.52 14.436,0.687 14.674,0.901 C14.912,1.114 15.088,1.366 15.202,1.656 C15.315,1.946 15.372,2.26 15.372,2.595 C15.372,2.958 15.313,3.292 15.197,3.595 C15.08,3.899 14.902,4.158 14.662,4.375 C14.422,4.592 14.117,4.761 13.75,4.883 C13.381,5.004 12.945,5.066 12.441,5.066 L11.563,5.066 L11.563,5.065 Z M11.563,3.79 L12.442,3.79 C12.882,3.79 13.2,3.685 13.393,3.475 C13.586,3.265 13.682,2.972 13.682,2.595 C13.682,2.429 13.657,2.277 13.608,2.14 C13.557,2.003 13.481,1.886 13.379,1.787 C13.277,1.689 13.15,1.613 12.994,1.559 C12.84,1.506 12.655,1.48 12.441,1.48 L11.562,1.48 L11.562,3.79 L11.563,3.79 Z" id="Shape"></path>
                <path d="M18.802,0.135 C19.162,0.135 19.483,0.186 19.762,0.287 C20.042,0.39 20.279,0.526 20.472,0.7 C20.665,0.873 20.813,1.074 20.912,1.303 C21.011,1.532 21.062,1.772 21.062,2.026 C21.062,2.255 21.039,2.458 20.992,2.633 C20.945,2.808 20.876,2.959 20.784,3.088 C20.693,3.216 20.58,3.325 20.444,3.415 C20.309,3.505 20.155,3.58 19.982,3.64 C20.789,3.92 21.191,4.469 21.191,5.286 C21.191,5.673 21.122,6.01 20.982,6.296 C20.841,6.583 20.654,6.821 20.419,7.011 C20.184,7.201 19.911,7.344 19.601,7.439 C19.291,7.534 18.968,7.582 18.631,7.582 C18.284,7.582 17.976,7.545 17.706,7.47 C17.436,7.395 17.196,7.278 16.985,7.119 C16.776,6.961 16.591,6.759 16.433,6.512 C16.274,6.266 16.137,5.972 16.02,5.632 L16.71,5.352 C16.77,5.326 16.829,5.307 16.887,5.297 C16.946,5.287 17.004,5.282 17.061,5.282 C17.166,5.282 17.262,5.303 17.348,5.345 C17.433,5.386 17.496,5.448 17.54,5.528 C17.689,5.804 17.85,6.006 18.018,6.131 C18.186,6.256 18.383,6.319 18.61,6.319 C18.784,6.319 18.934,6.29 19.063,6.231 C19.192,6.172 19.297,6.097 19.383,6.006 C19.467,5.914 19.531,5.81 19.574,5.693 C19.618,5.576 19.64,5.458 19.64,5.338 C19.64,5.182 19.628,5.04 19.607,4.915 C19.586,4.79 19.525,4.683 19.424,4.593 C19.323,4.503 19.173,4.434 18.972,4.386 C18.77,4.337 18.49,4.313 18.129,4.313 L18.129,3.24 C18.433,3.24 18.677,3.217 18.864,3.17 C19.051,3.123 19.194,3.06 19.296,2.978 C19.398,2.896 19.466,2.797 19.499,2.68 C19.532,2.564 19.549,2.435 19.549,2.295 C19.549,2.009 19.48,1.787 19.341,1.633 C19.203,1.478 18.992,1.401 18.709,1.401 C18.593,1.401 18.485,1.418 18.39,1.451 C18.292,1.484 18.206,1.529 18.129,1.586 C18.052,1.643 17.986,1.709 17.932,1.786 C17.876,1.862 17.832,1.946 17.799,2.036 C17.745,2.185 17.679,2.294 17.597,2.361 C17.515,2.427 17.404,2.461 17.265,2.461 C17.231,2.461 17.195,2.459 17.157,2.456 C17.119,2.453 17.08,2.447 17.04,2.441 L16.22,2.295 C16.274,1.932 16.375,1.615 16.528,1.345 C16.68,1.075 16.868,0.85 17.092,0.67 C17.318,0.49 17.574,0.356 17.865,0.268 C18.156,0.18 18.469,0.135 18.802,0.135 Z" id="Shape"></path>
            </g>
        </g>
    </g>
</svg>