<?xml version="1.0" encoding="UTF-8"?>
<svg width="52px" height="64px" viewBox="0 0 52 64" version="1.1" xmlns="http://www.w3.org/2000/svg" xmlns:xlink="http://www.w3.org/1999/xlink">
    <!-- Generator: Sketch 46.2 (44496) - http://www.bohemiancoding.com/sketch -->
    <title>pdf</title>
    <desc>Created with Sketch.</desc>
    <defs></defs>
    <g id="Page-1" stroke="none" stroke-width="1" fill="none" fill-rule="evenodd">
        <g id="pdf" fill-rule="nonzero">
            <g id="Rectangle_34" transform="translate(1.000000, 1.000000)" fill="#FFFFFF">
                <rect id="Rectangle-path" x="0" y="0" width="46" height="62"></rect>
            </g>
            <g id="icon_3_" fill="#E02F2F">
                <path d="M50,8 L48,8 L48,2 C48,0.896 47.104,0 46,0 L2,0 C0.896,0 0,0.896 0,2 L0,62 C0,63.104 0.896,64 2,64 L46,64 C47.104,64 48,63.104 48,62 L48,26 L50,26 C51.104,26 52,25.104 52,24 L52,10 C52,8.896 51.104,8 50,8 Z M46,8 L22,8 C20.896,8 20,8.896 20,10 L20,24 C20,25.104 20.896,26 22,26 L46,26 L46,62 L2,62 L2,2 L46,2 L46,8 Z M16.941,54.003 C17.813,52.654 18.419,50.869 18.54,50.087 C21.638,48.656 25.149,48.125 28.019,47.947 C28.683,48.532 29.599,49.421 30.445,50.113 C32.59,51.866 34.136,52.426 35.806,51.551 C36.429,51.226 36.836,50.503 36.937,49.665 C36.945,49.642 36.958,49.625 36.963,49.601 L36.978,49.521 C36.978,48.386 36.275,46.609 33.931,46.226 C32.013,45.913 29.457,45.991 28.404,46.084 C25.331,43.739 22.767,41.509 21.158,39.995 C21.284,38.77 21.448,36.472 21.062,35.248 C20.121,32.265 16.537,32.165 16.039,35.354 C15.671,37.709 18.301,40.018 19.05,40.622 C18.538,42.903 17.575,46.699 17.01,48.895 C16.347,49.19 15.485,49.589 14.722,50.007 C13.199,50.842 11.99,52.586 12.018,53.736 C12.1,57.084 15.487,56.252 16.941,54.003 Z M30.881,47.977 C32.194,47.977 33.12,47.96 33.168,47.964 C33.471,47.975 34.366,48.126 34.779,48.61 C34.939,48.799 35.003,48.934 34.972,49.229 C34.773,49.962 34.45,50 34.098,50 C33.69,50 33.139,49.768 33.048,49.727 C32.024,49.086 31.913,48.889 30.824,47.956 C30.833,47.954 30.872,47.977 30.881,47.977 Z M20.732,42.009 L25.826,46.366 C24.849,46.482 23.471,46.625 22.186,46.933 C21.027,47.209 20.067,47.579 19.316,47.857 L20.732,42.009 Z M19.018,37.902 C17.886,36.646 17.904,35.743 17.964,35.533 C18.064,35.181 18.202,34.986 18.456,34.986 C18.87,34.986 19.008,35.281 19.1,35.415 C19.331,35.756 19.522,36.637 19.428,38.318 C19.16,38.052 19.018,37.902 19.018,37.902 Z M14.217,52.941 C14.833,51.99 15.385,51.595 16.453,51.015 C15.412,53.754 14.43,53.993 14.036,54.004 C14.026,53.995 14.021,53.985 14.016,53.978 C13.915,53.779 14.037,53.296 14.217,52.941 Z" id="Shape"></path>
            </g>
            <g id="Group" transform="translate(26.000000, 13.000000)" fill="#FFFFFF">
                <path d="M2.271,5.065 L2.271,7.5 L0.582,7.5 L0.582,0.215 L3.151,0.215 C3.664,0.215 4.105,0.276 4.474,0.398 C4.841,0.52 5.145,0.687 5.383,0.901 C5.621,1.114 5.797,1.366 5.911,1.656 C6.024,1.946 6.081,2.26 6.081,2.595 C6.081,2.958 6.022,3.292 5.905,3.595 C5.788,3.899 5.61,4.158 5.37,4.375 C5.13,4.592 4.826,4.761 4.458,4.883 C4.09,5.004 3.653,5.066 3.15,5.066 L2.271,5.066 L2.271,5.065 Z M2.271,3.79 L3.151,3.79 C3.591,3.79 3.908,3.685 4.101,3.475 C4.294,3.265 4.391,2.972 4.391,2.595 C4.391,2.429 4.366,2.277 4.316,2.14 C4.266,2.003 4.19,1.886 4.088,1.787 C3.986,1.689 3.859,1.613 3.703,1.559 C3.548,1.506 3.364,1.48 3.15,1.48 L2.27,1.48 L2.27,3.79 L2.271,3.79 Z" id="Shape"></path>
                <path d="M13.571,3.855 C13.571,4.381 13.48,4.867 13.299,5.312 C13.118,5.757 12.861,6.142 12.531,6.467 C12.201,6.792 11.803,7.045 11.339,7.227 C10.875,7.409 10.357,7.5 9.791,7.5 L6.961,7.5 L6.961,0.215 L9.791,0.215 C10.357,0.215 10.874,0.307 11.339,0.49 C11.804,0.673 12.201,0.927 12.531,1.25 C12.861,1.573 13.117,1.957 13.299,2.402 C13.481,2.847 13.571,3.332 13.571,3.855 Z M11.842,3.855 C11.842,3.495 11.795,3.169 11.701,2.879 C11.607,2.589 11.473,2.343 11.299,2.142 C11.124,1.94 10.91,1.786 10.656,1.677 C10.402,1.568 10.115,1.514 9.791,1.514 L8.661,1.514 L8.661,6.2 L9.791,6.2 C10.115,6.2 10.402,6.145 10.656,6.037 C10.91,5.93 11.124,5.774 11.299,5.572 C11.474,5.371 11.608,5.125 11.701,4.835 C11.794,4.545 11.842,4.219 11.842,3.855 Z" id="Shape"></path>
                <polygon id="Shape" points="19.071 0.215 19.071 1.515 16.081 1.515 16.081 3.361 18.571 3.361 18.571 4.666 16.081 4.666 16.081 7.5 14.381 7.5 14.381 0.215"></polygon>
            </g>
        </g>
    </g>
</svg>