<?xml version="1.0" encoding="UTF-8"?>
<svg width="52px" height="64px" viewBox="0 0 52 64" version="1.1" xmlns="http://www.w3.org/2000/svg" xmlns:xlink="http://www.w3.org/1999/xlink">
    <!-- Generator: Sketch 46.2 (44496) - http://www.bohemiancoding.com/sketch -->
    <title>png</title>
    <desc>Created with Sketch.</desc>
    <defs></defs>
    <g id="Page-1" stroke="none" stroke-width="1" fill="none" fill-rule="evenodd">
        <g id="png" fill-rule="nonzero">
            <g id="Rectangle_35" transform="translate(1.000000, 1.000000)" fill="#FFFFFF">
                <rect id="Rectangle-path" x="0" y="0" width="46" height="62"></rect>
            </g>
            <g id="Rounded_Rectangle_7_5_" fill="#09BEF2">
                <path d="M16,56 L20,56 L20,52 L16,52 L16,56 Z M16,48 L12,48 L12,52 L16,52 L16,48 Z M12,40 L12,44 L16,44 L16,40 L12,40 Z M12,32 L12,36 L16,36 L16,32 L12,32 Z M32,32 L28,32 L28,36 L32,36 L32,32 Z M36,40 L36,36 L32,36 L32,40 L36,40 Z M24,56 L28,56 L28,52 L24,52 L24,56 Z M36,48 L36,44 L32,44 L32,48 L36,48 Z M36,56 L36,52 L32,52 L32,56 L36,56 Z M28,52 L32,52 L32,48 L28,48 L28,52 Z M20,48 L20,52 L24,52 L24,48 L20,48 Z M24,32 L20,32 L20,36 L24,36 L24,32 Z M28,40 L28,36 L24,36 L24,40 L28,40 Z M28,44 L32,44 L32,40 L28,40 L28,44 Z M24,48 L28,48 L28,44 L24,44 L24,48 Z M20,44 L16,44 L16,48 L20,48 L20,44 Z M20,36 L16,36 L16,40 L20,40 L20,36 Z M24,40 L20,40 L20,44 L24,44 L24,40 Z M50,8 L48,8 L48,2 C48,0.896 47.104,0 46,0 L2,0 C0.896,0 0,0.896 0,2 L0,62 C0,63.104 0.896,64 2,64 L46,64 C47.104,64 48,63.104 48,62 L48,26 L50,26 C51.104,26 52,25.104 52,24 L52,10 C52,8.896 51.104,8 50,8 Z M46,8 L22,8 C20.896,8 20,8.896 20,10 L20,24 C20,25.104 20.896,26 22,26 L46,26 L46,62 L2,62 L2,2 L46,2 L46,8 Z" id="Shape"></path>
            </g>
            <g id="Group" transform="translate(25.000000, 13.000000)" fill="#FFFFFF">
                <path d="M2.427,5.065 L2.427,7.5 L0.737,7.5 L0.737,0.215 L3.307,0.215 C3.821,0.215 4.261,0.276 4.629,0.398 C4.998,0.52 5.301,0.687 5.539,0.901 C5.777,1.114 5.953,1.366 6.066,1.656 C6.179,1.946 6.236,2.26 6.236,2.595 C6.236,2.958 6.177,3.292 6.061,3.595 C5.945,3.899 5.766,4.158 5.527,4.375 C5.287,4.592 4.982,4.761 4.614,4.883 C4.246,5.004 3.81,5.066 3.306,5.066 L2.427,5.066 L2.427,5.065 Z M2.427,3.79 L3.307,3.79 C3.746,3.79 4.064,3.685 4.257,3.475 C4.45,3.265 4.547,2.972 4.547,2.595 C4.547,2.429 4.522,2.277 4.472,2.14 C4.422,2.003 4.346,1.886 4.244,1.787 C4.142,1.689 4.014,1.613 3.859,1.559 C3.704,1.506 3.519,1.48 3.306,1.48 L2.426,1.48 L2.426,3.79 L2.427,3.79 Z" id="Shape"></path>
                <path d="M8.191,0.225 C8.242,0.232 8.287,0.245 8.326,0.263 C8.367,0.282 8.404,0.307 8.441,0.34 C8.478,0.373 8.519,0.418 8.566,0.475 L12.026,4.85 C12.013,4.71 12.004,4.575 11.996,4.443 C11.99,4.311 11.986,4.187 11.986,4.071 L11.986,0.216 L13.476,0.216 L13.476,7.5 L12.596,7.5 C12.466,7.5 12.356,7.48 12.266,7.44 C12.176,7.4 12.089,7.327 12.006,7.219 L8.571,2.879 C8.581,3.006 8.589,3.13 8.595,3.252 C8.602,3.373 8.605,3.487 8.605,3.594 L8.605,7.5 L7.116,7.5 L7.116,0.215 L8.006,0.215 C8.08,0.215 8.142,0.219 8.191,0.225 Z" id="Shape"></path>
                <path d="M18.106,6.28 C18.339,6.28 18.546,6.259 18.726,6.219 C18.906,6.179 19.076,6.126 19.236,6.059 L19.236,4.955 L18.516,4.955 C18.41,4.955 18.326,4.927 18.266,4.87 C18.206,4.813 18.176,4.742 18.176,4.655 L18.176,3.724 L20.766,3.724 L20.766,6.8 C20.579,6.937 20.385,7.055 20.183,7.153 C19.982,7.252 19.767,7.333 19.538,7.395 C19.309,7.458 19.066,7.505 18.808,7.536 C18.55,7.566 18.273,7.581 17.976,7.581 C17.443,7.581 16.949,7.487 16.496,7.299 C16.043,7.111 15.65,6.851 15.319,6.519 C14.987,6.187 14.727,5.794 14.539,5.339 C14.351,4.884 14.257,4.39 14.257,3.857 C14.257,3.313 14.347,2.814 14.528,2.359 C14.708,1.904 14.966,1.511 15.299,1.181 C15.635,0.851 16.039,0.595 16.514,0.411 C16.99,0.227 17.52,0.136 18.107,0.136 C18.411,0.136 18.696,0.161 18.961,0.211 C19.229,0.261 19.475,0.329 19.699,0.416 C19.923,0.503 20.13,0.606 20.316,0.726 C20.504,0.846 20.67,0.976 20.816,1.117 L20.326,1.862 C20.279,1.931 20.224,1.987 20.159,2.027 C20.094,2.067 20.023,2.087 19.947,2.087 C19.846,2.087 19.743,2.054 19.636,1.987 C19.503,1.907 19.376,1.838 19.259,1.779 C19.14,1.72 19.019,1.674 18.896,1.636 C18.773,1.6 18.642,1.573 18.506,1.556 C18.369,1.539 18.216,1.532 18.046,1.532 C17.73,1.532 17.444,1.588 17.191,1.699 C16.938,1.811 16.722,1.969 16.544,2.172 C16.366,2.375 16.229,2.619 16.132,2.904 C16.035,3.189 15.986,3.507 15.986,3.857 C15.986,4.244 16.04,4.586 16.146,4.886 C16.253,5.186 16.4,5.44 16.589,5.646 C16.777,5.853 17,6.01 17.259,6.119 C17.518,6.226 17.8,6.28 18.106,6.28 Z" id="Shape"></path>
            </g>
        </g>
    </g>
</svg>