<?xml version="1.0" encoding="UTF-8"?>
<svg width="52px" height="64px" viewBox="0 0 52 64" version="1.1" xmlns="http://www.w3.org/2000/svg" xmlns:xlink="http://www.w3.org/1999/xlink">
    <!-- Generator: Sketch 46.2 (44496) - http://www.bohemiancoding.com/sketch -->
    <title>ppt</title>
    <desc>Created with Sketch.</desc>
    <defs></defs>
    <g id="Page-1" stroke="none" stroke-width="1" fill="none" fill-rule="evenodd">
        <g id="ppt" fill-rule="nonzero">
            <g id="Rectangle_38" transform="translate(1.000000, 1.000000)" fill="#FFFFFF">
                <rect id="Rectangle-path" x="0" y="0" width="46" height="62"></rect>
            </g>
            <g id="Ellipse_11" transform="translate(14.000000, 33.000000)" fill="#FFFFFF">
                <circle id="Oval" cx="11" cy="11" r="11"></circle>
            </g>
            <g id="Ellipse_10" transform="translate(25.000000, 33.000000)" fill="#FFFFFF">
                <path d="M0,0 L0,10 L8.254,18.254 C9.958,16.316 11,13.783 11,11 C11,4.925 6.075,0 0,0 Z" id="Shape"></path>
            </g>
            <g id="Ellipse_10_copy" transform="translate(14.000000, 33.000000)" fill="#FFFFFF">
                <path d="M0,10.85 C0,13.594 1.042,16.094 2.746,18.004 L11,9.863 L11,0 C4.925,0 0,4.857 0,10.85 Z" id="Shape"></path>
            </g>
            <g id="Rounded_Rectangle_7_3_" fill="#E4450D">
                <path d="M25,56 C31.627,56 37,50.627 37,44 C37,37.373 31.627,32 25,32 C18.373,32 13,37.373 13,44 C13,50.627 18.373,56 25,56 Z M26,34.051 C31.053,34.553 35,38.815 35,44 C35,46.152 34.312,48.141 33.157,49.771 L26,42.614 L26,34.051 Z M31.869,51.255 C30.077,52.952 27.663,54 25,54 C22.337,54 19.923,52.952 18.131,51.255 L25,44.386 L31.869,51.255 Z M24,34.051 L24,42.614 L16.843,49.771 C15.687,48.141 15,46.152 15,44 C15,38.814 18.947,34.553 24,34.051 Z M50,8 L48,8 L48,2 C48,0.896 47.104,0 46,0 L2,0 C0.896,0 0,0.896 0,2 L0,62 C0,63.104 0.896,64 2,64 L46,64 C47.104,64 48,63.104 48,62 L48,26 L50,26 C51.104,26 52,25.104 52,24 L52,10 C52,8.896 51.104,8 50,8 Z M46,8 L22,8 C20.896,8 20,8.896 20,10 L20,24 C20,25.104 20.896,26 22,26 L46,26 L46,62 L2,62 L2,2 L46,2 L46,8 Z" id="Shape"></path>
            </g>
            <g id="Group" transform="translate(26.000000, 13.000000)" fill="#FFFFFF">
                <path d="M2.582,5.065 L2.582,7.5 L0.893,7.5 L0.893,0.215 L3.462,0.215 C3.975,0.215 4.416,0.276 4.785,0.398 C5.152,0.52 5.456,0.687 5.694,0.901 C5.932,1.114 6.108,1.366 6.222,1.656 C6.335,1.946 6.392,2.26 6.392,2.595 C6.392,2.958 6.333,3.292 6.216,3.595 C6.099,3.899 5.921,4.158 5.681,4.375 C5.441,4.592 5.137,4.761 4.769,4.883 C4.401,5.004 3.964,5.066 3.461,5.066 L2.582,5.066 L2.582,5.065 Z M2.582,3.79 L3.462,3.79 C3.902,3.79 4.219,3.685 4.412,3.475 C4.605,3.265 4.702,2.972 4.702,2.595 C4.702,2.429 4.677,2.277 4.627,2.14 C4.577,2.003 4.501,1.886 4.399,1.787 C4.297,1.689 4.17,1.613 4.014,1.559 C3.859,1.506 3.675,1.48 3.461,1.48 L2.581,1.48 L2.581,3.79 L2.582,3.79 Z" id="Shape"></path>
                <path d="M8.962,5.065 L8.962,7.5 L7.272,7.5 L7.272,0.215 L9.842,0.215 C10.356,0.215 10.796,0.276 11.164,0.398 C11.533,0.52 11.836,0.687 12.074,0.901 C12.312,1.114 12.488,1.366 12.601,1.656 C12.714,1.946 12.771,2.26 12.771,2.595 C12.771,2.958 12.712,3.292 12.596,3.595 C12.48,3.899 12.301,4.158 12.062,4.375 C11.822,4.592 11.517,4.761 11.149,4.883 C10.781,5.004 10.345,5.066 9.841,5.066 L8.962,5.066 L8.962,5.065 Z M8.962,3.79 L9.842,3.79 C10.281,3.79 10.599,3.685 10.792,3.475 C10.985,3.265 11.082,2.972 11.082,2.595 C11.082,2.429 11.057,2.277 11.007,2.14 C10.957,2.003 10.881,1.886 10.779,1.787 C10.677,1.689 10.549,1.613 10.394,1.559 C10.239,1.506 10.054,1.48 9.841,1.48 L8.961,1.48 L8.961,3.79 L8.962,3.79 Z" id="Shape"></path>
                <polygon id="Shape" points="18.941 0.215 18.941 1.555 16.891 1.555 16.891 7.5 15.201 7.5 15.201 1.555 13.152 1.555 13.152 0.215"></polygon>
            </g>
        </g>
    </g>
</svg>