<?xml version="1.0" encoding="UTF-8"?>
<svg width="52px" height="64px" viewBox="0 0 52 64" version="1.1" xmlns="http://www.w3.org/2000/svg" xmlns:xlink="http://www.w3.org/1999/xlink">
    <!-- Generator: Sketch 46.2 (44496) - http://www.bohemiancoding.com/sketch -->
    <title>Rounded_Rectangle_7_9_</title>
    <desc>Created with Sketch.</desc>
    <defs></defs>
    <g id="Page-1" stroke="none" stroke-width="1" fill="none" fill-rule="evenodd">
        <g id="psd" fill-rule="nonzero" fill="#7B27C9">
            <g id="Rounded_Rectangle_7_9_">
                <path d="M10.127,49.208 C9.462,49.533 9,50.21 9,51 C9,52.104 9.896,53 11,53 C12.104,53 13,52.104 13,51 C13,50.312 12.653,49.709 12.127,49.35 C12.86,44.039 17.06,39.848 22.371,39.123 C22.731,39.646 23.317,40 24,40 C24.683,40 25.269,39.646 25.629,39.123 C30.942,39.848 35.141,44.039 35.873,49.35 C35.348,49.709 35,50.313 35,51 C35,52.104 35.896,53 37,53 C38.104,53 39,52.104 39,51 C39,50.21 38.538,49.533 37.873,49.208 C37.316,44.872 34.781,41.157 31.201,39 L35.277,39 C35.624,39.596 36.261,40 37,40 C38.104,40 39,39.104 39,38 C39,36.896 38.104,36 37,36 C36.262,36 35.624,36.404 35.277,37 L25.722,37 C25.375,36.404 24.738,36 23.999,36 C23.26,36 22.623,36.404 22.276,37 L12.721,37 C12.374,36.404 11.737,36 10.998,36 C9.894,36 8.998,36.896 8.998,38 C8.998,39.104 9.894,40 10.998,40 C11.736,40 12.374,39.596 12.721,39 L16.797,39 C13.219,41.157 10.683,44.872 10.127,49.208 Z M50,8 L48,8 L48,2 C48,0.896 47.104,0 46,0 L2,0 C0.896,0 0,0.896 0,2 L0,62 C0,63.104 0.896,64 2,64 L46,64 C47.104,64 48,63.104 48,62 L48,26 L50,26 C51.104,26 52,25.104 52,24 L52,10 C52,8.896 51.104,8 50,8 Z M46,8 L22,8 C20.896,8 20,8.896 20,10 L20,24 C20,25.104 20.896,26 22,26 L46,26 L46,62 L2,62 L2,2 L46,2 L46,8 Z" id="Shape"></path>
            </g>
        </g>
    </g>
</svg>