<?xml version="1.0" encoding="UTF-8"?>
<svg width="48px" height="64px" viewBox="0 0 48 64" version="1.1" xmlns="http://www.w3.org/2000/svg" xmlns:xlink="http://www.w3.org/1999/xlink">
    <!-- Generator: Sketch 46.2 (44496) - http://www.bohemiancoding.com/sketch -->
    <title>table</title>
    <desc>Created with Sketch.</desc>
    <defs></defs>
    <g id="Page-1" stroke="none" stroke-width="1" fill="none" fill-rule="evenodd">
        <g id="table">
            <g id="Rounded_Rectangle_9" transform="translate(1.000000, 1.000000)" fill-rule="nonzero" fill="#EDF2F8">
                <polygon id="Shape" points="32 14 32 0 0 0 0 62 46 62 46 14"></polygon>
            </g>
            <g id="Rectangle_21" transform="translate(11.000000, 27.000000)" fill-rule="nonzero" fill="#FFFFFF">
                <rect id="Rectangle-path" x="0" y="0" width="26" height="18"></rect>
            </g>
            <g id="Rectangle_20" transform="translate(33.000000, 1.000000)" fill-rule="nonzero" fill="#FFFFFF">
                <polygon id="Shape" points="0 0 0 14 14 14"></polygon>
            </g>
            <g id="icon_15_" fill="#02B892">
                <path d="M47.994,14.989 C47.985,14.752 47.896,14.515 47.715,14.334 L33.666,0.285 C33.487,0.106 33.255,0.018 33.02,0.008 C33.014,0.006 33,0 33,0 L2,0 C0.896,0 0,0.896 0,2 L0,62 C0,63.104 0.896,64 2,64 L46,64 C47.104,64 48,63.104 48,62 L48,15 C48,15 47.995,14.991 47.994,14.989 Z M34,3.381 L44.619,14 C40.477,14 34,14 34,14 C34,14 34,7.524 34,3.381 Z M46,62 L2,62 L2,2 L32,2 L32,16 L46,16 L46,62 Z M10,46 L38,46 L38,26 L10,26 L10,46 Z M20,28 L36,28 L36,32 L20,32 L20,28 Z M20,34 L36,34 L36,38 L20,38 L20,34 Z M20,40 L36,40 L36,44 L20,44 L20,40 Z M12,28 L18,28 L18,32 L12,32 L12,28 Z M12,34 L18,34 L18,38 L12,38 L12,34 Z M12,40 L18,40 L18,44 L12,44 L12,40 Z" id="Shape"></path>
            </g>
        </g>
    </g>
</svg>