<?xml version="1.0" encoding="UTF-8"?>
<svg width="52px" height="64px" viewBox="0 0 52 64" version="1.1" xmlns="http://www.w3.org/2000/svg" xmlns:xlink="http://www.w3.org/1999/xlink">
    <!-- Generator: Sketch 46.2 (44496) - http://www.bohemiancoding.com/sketch -->
    <title>xls</title>
    <desc>Created with Sketch.</desc>
    <defs></defs>
    <g id="Page-1" stroke="none" stroke-width="1" fill="none" fill-rule="evenodd">
        <g id="xls" fill-rule="nonzero">
            <g id="Rectangle_27" transform="translate(1.000000, 1.000000)" fill="#FFFFFF">
                <rect id="Rectangle-path" x="0" y="0" width="46" height="62"></rect>
            </g>
            <g id="Rectangle_15" transform="translate(10.000000, 41.000000)" fill="#FFFFFF">
                <path d="M0,14 L4,14 L4,4 L0,4 L0,14 Z M16,0 L16,14 L20,14 L20,0 L16,0 Z" id="Shape"></path>
            </g>
            <g id="Rectangle_28" transform="translate(18.000000, 33.000000)" fill="#FFFFFF">
                <path d="M0,22 L4,22 L4,0 L0,0 L0,22 Z M16,12 L16,22 L20,22 L20,12 L16,12 Z" id="Shape"></path>
            </g>
            <g id="Rounded_Rectangle_7_10_" fill="#02BB18">
                <path d="M35,56 L37,56 C38.104,56 39,55.104 39,54 L39,46 C39,44.896 38.104,44 37,44 L35,44 C33.896,44 33,44.896 33,46 L33,54 C33,55.104 33.896,56 35,56 Z M35,46 L37,46 L37,54 L35,54 L35,46 Z M11,56 L13,56 C14.104,56 15,55.104 15,54 L15,46 C15,44.896 14.104,44 13,44 L11,44 C9.896,44 9,44.896 9,46 L9,54 C9,55.104 9.896,56 11,56 Z M11,46 L13,46 L13,54 L11,54 L11,46 Z M19,56 L21,56 C22.104,56 23,55.104 23,54 L23,34 C23,32.896 22.104,32 21,32 L19,32 C17.896,32 17,32.896 17,34 L17,54 C17,55.104 17.896,56 19,56 Z M19,34 L21,34 L21,54 L19,54 L19,34 Z M27,56 L29,56 C30.104,56 31,55.104 31,54 L31,42 C31,40.896 30.104,40 29,40 L27,40 C25.896,40 25,40.896 25,42 L25,54 C25,55.104 25.896,56 27,56 Z M27,42 L29,42 L29,54 L27,54 L27,42 Z M50,8 L48,8 L48,2 C48,0.896 47.104,0 46,0 L2,0 C0.896,0 0,0.896 0,2 L0,62 C0,63.104 0.896,64 2,64 L46,64 C47.104,64 48,63.104 48,62 L48,26 L50,26 C51.104,26 52,25.104 52,24 L52,10 C52,8.896 51.104,8 50,8 Z M46,8 L22,8 C20.896,8 20,8.896 20,10 L20,24 C20,25.104 20.896,26 22,26 L46,26 L46,62 L2,62 L2,2 L46,2 L46,8 Z" id="Shape"></path>
            </g>
            <g id="Group" transform="translate(26.000000, 13.000000)" fill="#FFFFFF">
                <path d="M3.197,3.755 L0.941,0.215 L2.631,0.215 C2.741,0.215 2.821,0.23 2.873,0.258 C2.925,0.286 2.971,0.333 3.011,0.401 L4.461,2.856 C4.478,2.812 4.497,2.77 4.519,2.731 C4.54,2.691 4.564,2.649 4.591,2.606 L5.861,0.425 C5.945,0.285 6.058,0.215 6.201,0.215 L7.822,0.215 L5.537,3.68 L7.871,7.5 L6.182,7.5 C6.073,7.5 5.983,7.474 5.914,7.42 C5.846,7.367 5.792,7.304 5.752,7.231 L4.292,4.68 C4.266,4.753 4.234,4.817 4.201,4.87 L2.842,7.23 C2.802,7.299 2.748,7.362 2.682,7.418 C2.616,7.473 2.532,7.5 2.432,7.5 L0.852,7.5 L3.197,3.755 Z" id="Shape"></path>
                <polygon id="Shape" points="10.212 6.15 12.912 6.15 12.912 7.5 8.521 7.5 8.521 0.215 10.211 0.215 10.211 6.15"></polygon>
                <path d="M17.771,1.695 C17.721,1.775 17.669,1.835 17.614,1.875 C17.559,1.915 17.488,1.935 17.402,1.935 C17.325,1.935 17.242,1.912 17.154,1.863 C17.066,1.815 16.966,1.76 16.854,1.701 C16.742,1.64 16.615,1.587 16.471,1.538 C16.327,1.49 16.164,1.466 15.982,1.466 C15.665,1.466 15.429,1.533 15.274,1.669 C15.119,1.804 15.042,1.986 15.042,2.216 C15.042,2.362 15.088,2.485 15.182,2.581 C15.276,2.677 15.398,2.761 15.549,2.831 C15.701,2.901 15.875,2.965 16.07,3.023 C16.265,3.081 16.464,3.146 16.668,3.218 C16.871,3.289 17.07,3.373 17.265,3.47 C17.46,3.567 17.634,3.691 17.786,3.84 C17.937,3.99 18.06,4.173 18.154,4.388 C18.247,4.603 18.294,4.862 18.294,5.165 C18.294,5.502 18.235,5.816 18.119,6.11 C18.002,6.403 17.833,6.659 17.611,6.878 C17.389,7.096 17.116,7.268 16.791,7.393 C16.467,7.518 16.098,7.581 15.684,7.581 C15.457,7.581 15.227,7.558 14.992,7.511 C14.757,7.464 14.53,7.399 14.309,7.314 C14.089,7.229 13.882,7.128 13.69,7.011 C13.497,6.895 13.328,6.765 13.184,6.621 L13.684,5.831 C13.721,5.77 13.772,5.723 13.839,5.685 C13.905,5.649 13.977,5.63 14.054,5.63 C14.155,5.63 14.254,5.662 14.357,5.725 C14.459,5.788 14.573,5.859 14.702,5.935 C14.831,6.012 14.977,6.082 15.144,6.145 C15.311,6.208 15.507,6.241 15.735,6.241 C16.042,6.241 16.28,6.174 16.45,6.038 C16.62,5.903 16.704,5.689 16.704,5.395 C16.704,5.225 16.658,5.087 16.565,4.981 C16.471,4.874 16.348,4.786 16.197,4.715 C16.046,4.644 15.873,4.583 15.679,4.53 C15.486,4.476 15.287,4.418 15.084,4.352 C14.881,4.286 14.682,4.206 14.488,4.112 C14.294,4.018 14.123,3.892 13.97,3.737 C13.819,3.582 13.697,3.389 13.603,3.157 C13.509,2.926 13.463,2.639 13.463,2.3 C13.463,2.027 13.518,1.76 13.628,1.5 C13.737,1.24 13.899,1.009 14.112,0.805 C14.326,0.602 14.588,0.44 14.897,0.318 C15.208,0.197 15.563,0.135 15.962,0.135 C16.186,0.135 16.402,0.153 16.614,0.188 C16.826,0.223 17.027,0.275 17.217,0.343 C17.407,0.411 17.584,0.492 17.75,0.588 C17.914,0.683 18.063,0.79 18.191,0.91 L17.771,1.695 Z" id="Shape"></path>
            </g>
        </g>
    </g>
</svg>