<?xml version="1.0" encoding="UTF-8"?>
<svg width="48px" height="64px" viewBox="0 0 48 64" version="1.1" xmlns="http://www.w3.org/2000/svg" xmlns:xlink="http://www.w3.org/1999/xlink">
    <!-- Generator: Sketch 46.2 (44496) - http://www.bohemiancoding.com/sketch -->
    <title>icon_8_</title>
    <desc>Created with Sketch.</desc>
    <defs></defs>
    <g id="Page-1" stroke="none" stroke-width="1" fill="none" fill-rule="evenodd">
        <g id="zip" fill="#6C798F">
            <g id="icon_8_">
                <path d="M47.994,14.989 C47.985,14.752 47.896,14.515 47.715,14.334 L33.666,0.285 C33.487,0.106 33.255,0.018 33.02,0.008 C33.014,0.006 33,0 33,0 L2,0 C0.896,0 0,0.896 0,2 L0,62 C0,63.104 0.896,64 2,64 L46,64 C47.104,64 48,63.104 48,62 L48,15 C48,15 47.995,14.991 47.994,14.989 Z M34,3.381 L44.619,14 C40.477,14 34,14 34,14 C34,14 34,7.524 34,3.381 Z M46,62 L25,62 L25,38 L26,38 C27.104,38 28,37.104 28,36 L28,28 C28,26.896 27.104,26 26,26 L26,24 L24,24 L24,26 L22,26 C20.896,26 20,26.896 20,28 L20,36 C20,37.104 20.896,38 22,38 L23,38 L23,62 L2,62 L2,2 L22,2 L22,4 L24,4 L24,2 L32,2 L32,16 L46,16 L46,62 Z M26,32 L26,36 L22,36 L22,32 L26,32 Z M22,30 L22,28 L26,28 L26,30 L22,30 Z M26,6 L26,4 L24,4 L24,6 L26,6 Z M22,8 L24,8 L24,6 L22,6 L22,8 Z M26,10 L26,8 L24,8 L24,10 L26,10 Z M22,12 L24,12 L24,10 L22,10 L22,12 Z M26,14 L26,12 L24,12 L24,14 L26,14 Z M22,16 L24,16 L24,14 L22,14 L22,16 Z M26,18 L26,16 L24,16 L24,18 L26,18 Z M22,20 L24,20 L24,18 L22,18 L22,20 Z M26,22 L26,20 L24,20 L24,22 L26,22 Z M22,22 L22,24 L24,24 L24,22 L22,22 Z" id="Shape"></path>
            </g>
        </g>
    </g>
</svg>