<?xml version="1.0" encoding="UTF-8"?>
<svg width="16px" height="16px" viewBox="0 0 16 16" version="1.1" xmlns="http://www.w3.org/2000/svg" xmlns:xlink="http://www.w3.org/1999/xlink">
    <!-- Generator: Sketch 46.2 (44496) - http://www.bohemiancoding.com/sketch -->
    <title>Artboard</title>
    <desc>Created with Sketch.</desc>
    <defs></defs>
    <g id="Page-1" stroke="none" stroke-width="1" fill="none" fill-rule="evenodd">
        <g id="Artboard" fill-rule="nonzero" fill="#FFFFFF">
            <g id="buoy">
                <path d="M13.728,5.136 C13.1071403,3.89747908 12.1025209,2.89285972 10.864,2.272 L9.792,4.424 C10.5628691,4.81158398 11.188416,5.43713087 11.576,6.208 L13.728,5.136 L13.728,5.136 Z M13.728,10.864 L11.576,9.792 C11.188416,10.5628691 10.5628691,11.188416 9.792,11.576 L10.864,13.728 C12.1025209,13.1071403 13.1071403,12.1025209 13.728,10.864 L13.728,10.864 Z M5.136,2.272 C3.89747908,2.89285972 2.89285972,3.89747908 2.272,5.136 L4.424,6.208 C4.81158398,5.43713087 5.43713087,4.81158398 6.208,4.424 L5.136,2.272 Z M2.272,10.864 C2.89285972,12.1025209 3.89747908,13.1071403 5.136,13.728 L6.208,11.576 C5.43713087,11.188416 4.81158398,10.5628691 4.424,9.792 L2.272,10.864 L2.272,10.864 Z M8,16 C3.581722,16 5.41083001e-16,12.418278 0,8 C-5.41083001e-16,3.581722 3.581722,8.11624501e-16 8,0 C12.418278,2.705415e-16 16,3.581722 16,8 C16,12.418278 12.418278,16 8,16 Z M8,10.4 C9.3254834,10.4 10.4,9.3254834 10.4,8 C10.4,6.6745166 9.3254834,5.6 8,5.6 C6.67451662,5.60000003 5.60000005,6.67451662 5.60000005,8 C5.60000005,9.32548338 6.67451662,10.4 8,10.4 L8,10.4 Z" id="Shape"></path>
            </g>
        </g>
    </g>
</svg>