<?xml version="1.0" encoding="UTF-8"?>
<svg width="16px" height="16px" viewBox="0 0 16 16" version="1.1" xmlns="http://www.w3.org/2000/svg" xmlns:xlink="http://www.w3.org/1999/xlink">
    <!-- Generator: Sketch 46.2 (44496) - http://www.bohemiancoding.com/sketch -->
    <title>Artboard</title>
    <desc>Created with Sketch.</desc>
    <defs></defs>
    <g id="Page-1" stroke="none" stroke-width="1" fill="none" fill-rule="evenodd">
        <g id="Artboard" fill-rule="nonzero" fill="#FFFFFF">
            <g id="checkmark-outline">
                <path d="M2.67619423,13.4495276 C0.695572633,11.5365792 -0.0987588925,8.70379124 0.598501607,6.03994795 C1.29576211,3.37610466 3.37610466,1.29576211 6.03994795,0.598501607 C8.70379124,-0.0987588925 11.5365792,0.695572633 13.4495276,2.67619423 C16.3369349,5.66574765 16.2956409,10.4177925 13.3567167,13.3567167 C10.4177925,16.2956409 5.66574765,16.3369349 2.67619423,13.4495276 L2.67619423,13.4495276 Z M12.3752418,12.3752418 C14.7569041,9.99357961 14.7569041,6.13214218 12.3752418,3.75047994 C9.99357961,1.36881771 6.13214218,1.36881771 3.75047994,3.75047994 C1.36881771,6.13214218 1.36881771,9.99357961 3.75047994,12.3752418 C6.13214218,14.7569041 9.99357961,14.7569041 12.3752418,12.3752418 Z M5.54857518,7.52190851 L7.30095613,9.28190851 L10.5771466,6.00571804 L11.6438133,7.0876228 L7.30095613,11.4152418 L4.48190851,8.59619423 L5.54857518,7.51428947 L5.54857518,7.52190851 Z" id="Shape"></path>
            </g>
        </g>
    </g>
</svg>