<?xml version="1.0" encoding="UTF-8"?>
<svg width="16px" height="16px" viewBox="0 0 16 16" version="1.1" xmlns="http://www.w3.org/2000/svg" xmlns:xlink="http://www.w3.org/1999/xlink">
    <!-- Generator: Sketch 46.2 (44496) - http://www.bohemiancoding.com/sketch -->
    <title>Artboard</title>
    <desc>Created with Sketch.</desc>
    <defs></defs>
    <g id="Page-1" stroke="none" stroke-width="1" fill="none" fill-rule="evenodd">
        <g id="Artboard" fill-rule="nonzero" fill="#FFFFFF">
            <g id="cloud" transform="translate(0.000000, 2.000000)">
                <path d="M13.6228571,5.40952381 C15.1341444,5.75393261 16.1461797,7.17784818 15.9745789,8.71835454 C15.8029782,10.2588609 14.5024116,11.4251702 12.952381,11.4285714 L4.57142857,11.4285714 C2.61427389,11.4305384 0.974054703,9.94914871 0.777363091,8.00190176 C0.580671479,6.0546548 1.89151027,4.27517848 3.80952381,3.88571429 L3.80952381,3.80952381 C3.80854631,2.98927915 4.24715553,2.23139871 4.95884285,1.82359558 C5.67053018,1.41579244 6.54616578,1.42059897 7.25333333,1.83619048 C8.34672359,0.755826306 9.98390075,0.441869166 11.399385,1.0411131 C12.8148693,1.64035702 13.7289685,3.03439461 13.7142857,4.57142857 C13.7142857,4.86095238 13.6838095,5.1352381 13.6228571,5.40952381 Z" id="Shape"></path>
            </g>
        </g>
    </g>
</svg>