<?xml version="1.0" encoding="UTF-8"?>
<svg width="16px" height="16px" viewBox="0 0 16 16" version="1.1" xmlns="http://www.w3.org/2000/svg" xmlns:xlink="http://www.w3.org/1999/xlink">
    <!-- Generator: Sketch 46.2 (44496) - http://www.bohemiancoding.com/sketch -->
    <title>Artboard</title>
    <desc>Created with Sketch.</desc>
    <defs></defs>
    <g id="Page-1" stroke="none" stroke-width="1" fill="none" fill-rule="evenodd">
        <g id="Artboard" fill-rule="nonzero" fill="#FFFFFF">
            <g id="cog">
                <path d="M3.152,5.2 L1.776,2.912 L2.912,1.776 L5.2,3.152 C5.616,2.912 6.08,2.72 6.56,2.592 L7.2,0 L8.8,0 L9.44,2.592 C9.92,2.72 10.384,2.912 10.8,3.152 L13.088,1.776 L14.224,2.912 L12.848,5.2 C13.088,5.616 13.28,6.08 13.408,6.56 L16,7.2 L16,8.8 L13.408,9.44 C13.28,9.92 13.088,10.384 12.848,10.8 L14.224,13.088 L13.088,14.224 L10.8,12.848 C10.384,13.088 9.92,13.28 9.44,13.408 L8.8,16 L7.2,16 L6.56,13.408 C6.08,13.28 5.616,13.088 5.2,12.848 L2.912,14.224 L1.776,13.088 L3.152,10.8 C2.912,10.384 2.72,9.92 2.592,9.44 L0,8.8 L0,7.2 L2.592,6.56 C2.72,6.08 2.912,5.616 3.152,5.2 Z M8,10.4 C9.3254834,10.4 10.4,9.3254834 10.4,8 C10.4,6.6745166 9.3254834,5.6 8,5.6 C6.67451662,5.60000003 5.60000005,6.67451662 5.60000005,8 C5.60000005,9.32548338 6.67451662,10.4 8,10.4 L8,10.4 Z" id="Shape"></path>
            </g>
        </g>
    </g>
</svg>