<?xml version="1.0" encoding="UTF-8"?>
<svg width="16px" height="16px" viewBox="0 0 16 16" version="1.1" xmlns="http://www.w3.org/2000/svg" xmlns:xlink="http://www.w3.org/1999/xlink">
    <!-- Generator: Sketch 46.2 (44496) - http://www.bohemiancoding.com/sketch -->
    <title>Artboard</title>
    <desc>Created with Sketch.</desc>
    <defs></defs>
    <g id="Page-1" stroke="none" stroke-width="1" fill="none" fill-rule="evenodd">
        <g id="Artboard" fill-rule="nonzero" fill="#FFFFFF">
            <g id="currency-dollar">
                <path d="M8,16 C3.581722,16 5.41083001e-16,12.418278 0,8 C-5.41083001e-16,3.581722 3.581722,8.11624501e-16 8,0 C12.418278,2.705415e-16 16,3.581722 16,8 C16,12.418278 12.418278,16 8,16 Z M8.8,12 L9.6,12 C10.9254834,12 12,10.9254834 12,9.6 C12,8.2745166 10.9254834,7.2 9.6,7.2 L6.392,7.2 C5.9501722,7.2 5.592,6.8418278 5.592,6.4 C5.592,5.9581722 5.9501722,5.6 6.392,5.6 L11.2,5.6 L11.2,4 L8.8,4 L8.8,2.4 L7.2,2.4 L7.2,4 L6.4,4 C5.0745166,4 4,5.0745166 4,6.4 C4,7.7254834 5.0745166,8.8 6.4,8.8 L9.6,8.8 C10.0418278,8.8 10.4,9.1581722 10.4,9.6 C10.4,10.0418278 10.0418278,10.4 9.6,10.4 L4.8,10.4 L4.8,12 L7.2,12 L7.2,13.6 L8.8,13.6 L8.8,12 Z" id="Shape"></path>
            </g>
        </g>
    </g>
</svg>