<?xml version="1.0" encoding="UTF-8"?>
<svg width="20px" height="20px" viewBox="0 0 20 20" version="1.1" xmlns="http://www.w3.org/2000/svg" xmlns:xlink="http://www.w3.org/1999/xlink">
    <!-- Generator: Sketch 46.2 (44496) - http://www.bohemiancoding.com/sketch -->
    <title>share-alt</title>
    <desc>Created with Sketch.</desc>
    <defs></defs>
    <g id="Page-1" stroke="none" stroke-width="1" fill="none" fill-rule="evenodd">
        <g id="share-alt" transform="translate(0.000000, -1.000000)" fill-rule="nonzero" fill="#FFFFFF">
            <path d="M5.08,13.16 C4.21677982,14.0038149 2.93083495,14.2457934 1.81995085,13.7734489 C0.709066741,13.3011045 -0.00882318558,12.2071019 -2.22044605e-16,11 C0.000741760557,9.7974765 0.719475875,8.71159384 1.82611721,8.24105343 C2.93275854,7.77051302 4.21344116,8.00624999 5.08,8.84 L14.02,4.37 C13.8372717,2.92071791 14.7249724,1.55049455 16.1223506,1.12488622 C17.5197287,0.699277888 19.020531,1.34201975 19.6767157,2.64709823 C20.3329005,3.95217671 19.953698,5.54017235 18.7786468,6.40796428 C17.6035956,7.27575621 15.9743128,7.17105528 14.92,6.16 L5.98,10.63 C6.01023414,10.8757402 6.01023414,11.1242598 5.98,11.37 L14.92,15.84 C15.7832202,14.9961851 17.069165,14.7542066 18.1800492,15.2265511 C19.2909333,15.6988955 20.0088232,16.7928981 20,18 C19.9907229,19.1100326 19.3692468,20.124213 18.3844228,20.6364436 C17.3995988,21.1486743 16.2124178,21.0752199 15.29825,20.4454932 C14.3840822,19.8157664 13.8923683,18.7327097 14.02,17.63 L5.08,13.16 Z" id="Shape"></path>
        </g>
    </g>
</svg>