<?xml version="1.0" encoding="UTF-8"?>
<svg width="16px" height="16px" viewBox="0 0 16 16" version="1.1" xmlns="http://www.w3.org/2000/svg" xmlns:xlink="http://www.w3.org/1999/xlink">
    <!-- Generator: Sketch 46.2 (44496) - http://www.bohemiancoding.com/sketch -->
    <title>Artboard</title>
    <desc>Created with Sketch.</desc>
    <defs></defs>
    <g id="Page-1" stroke="none" stroke-width="1" fill="none" fill-rule="evenodd">
        <g id="Artboard" fill-rule="nonzero" fill="#FFFFFF">
            <g id="target">
                <path d="M14.352,8.8 L10.4,8.8 L10.4,7.2 L14.352,7.2 C13.9873068,4.29814757 11.7018524,2.01269319 8.8,1.648 L8.8,5.6 L7.2,5.6 L7.2,1.648 C4.29814757,2.01269319 2.01269319,4.29814757 1.648,7.2 L5.6,7.2 L5.6,8.8 L1.648,8.8 C2.01269319,11.7018524 4.29814757,13.9873068 7.2,14.352 L7.2,10.4 L8.8,10.4 L8.8,14.352 C11.7018524,13.9873068 13.9873068,11.7018524 14.352,8.8 Z M8,16 C3.581722,16 5.41083001e-16,12.418278 0,8 C-5.41083001e-16,3.581722 3.581722,8.11624501e-16 8,0 C12.418278,2.705415e-16 16,3.581722 16,8 C16,12.418278 12.418278,16 8,16 Z" id="Shape"></path>
            </g>
        </g>
    </g>
</svg>