<?xml version="1.0" encoding="UTF-8"?>
<svg width="16px" height="16px" viewBox="0 0 16 16" version="1.1" xmlns="http://www.w3.org/2000/svg" xmlns:xlink="http://www.w3.org/1999/xlink">
    <!-- Generator: Sketch 46.2 (44496) - http://www.bohemiancoding.com/sketch -->
    <title>Artboard</title>
    <desc>Created with Sketch.</desc>
    <defs></defs>
    <g id="Page-1" stroke="none" stroke-width="1" fill="none" fill-rule="evenodd">
        <g id="Artboard" fill-rule="nonzero" fill="#FFFFFF">
            <g id="stand-by" transform="translate(0.500000, 0.000000)">
                <path d="M3.16952381,3.16952381 L4.25142857,4.25142857 C2.49732893,5.67334049 1.83057675,8.04685736 2.5876468,10.17419 C3.34471685,12.3015225 5.36102546,13.7201981 7.61904762,13.7142857 C9.87242945,13.7111166 11.8806684,12.2920681 12.6361808,10.1691124 C13.3916932,8.04615677 12.731432,5.67744881 10.9866667,4.25142857 L12.0685714,3.16952381 C14.2522964,5.03458324 15.0425203,8.06283773 14.0485557,10.7571161 C13.0545912,13.4513945 10.4870148,15.2409001 7.6152381,15.2409001 C4.74346138,15.2409001 2.17588497,13.4513945 1.18192045,10.7571161 C0.187955934,8.06283773 0.97817978,5.03458324 3.16190476,3.16952381 L3.16952381,3.16952381 Z M6.85714286,0 L8.38095238,0 L8.38095238,6.0952381 L6.85714286,6.0952381 L6.85714286,0 Z" id="Shape"></path>
            </g>
        </g>
    </g>
</svg>