<?xml version="1.0" encoding="UTF-8"?>
<svg width="20px" height="14px" viewBox="0 0 20 14" version="1.1" xmlns="http://www.w3.org/2000/svg" xmlns:xlink="http://www.w3.org/1999/xlink">
    <!-- Generator: Sketch 46.2 (44496) - http://www.bohemiancoding.com/sketch -->
    <title>attachment</title>
    <desc>Created with Sketch.</desc>
    <defs></defs>
    <g id="Page-1" stroke="none" stroke-width="1" fill="none" fill-rule="evenodd">
        <g id="attachment" fill-rule="nonzero" fill="#00B9F6">
            <path d="M15,0 L7,0 C4.49914085,-3.72657061e-08 2.18825167,1.33419242 0.937822087,3.49999997 C-0.312607501,5.66580752 -0.312607501,8.33419248 0.937822087,10.5 C2.18825167,12.6658076 4.49914085,14 7,14 L15,14 L15,12 L7,12 C4.23857625,12 2,9.76142375 2,7 C2,4.23857625 4.23857625,2 7,2 L15,2 C16.6568542,2 18,3.34314575 18,5 C18,6.65685425 16.6568542,8 15,8 L7,8 C6.44771525,8 6,7.55228475 6,7 C6,6.44771525 6.44771525,6 7,6 L15,6 L15,4 L7,4 C5.34314575,4 4,5.34314575 4,7 C4,8.65685425 5.34314575,10 7,10 L15,10 C17.7614237,10 20,7.76142375 20,5 C20,2.23857625 17.7614237,4.4408921e-16 15,0 Z" id="Shape"></path>
        </g>
    </g>
</svg>