<?xml version="1.0" encoding="UTF-8"?>
<svg width="16px" height="16px" viewBox="0 0 16 16" version="1.1" xmlns="http://www.w3.org/2000/svg" xmlns:xlink="http://www.w3.org/1999/xlink">
    <!-- Generator: Sketch 46.2 (44496) - http://www.bohemiancoding.com/sketch -->
    <title>Artboard</title>
    <desc>Created with Sketch.</desc>
    <defs></defs>
    <g id="Page-1" stroke="none" stroke-width="1" fill="none" fill-rule="evenodd">
        <g id="Artboard" fill-rule="nonzero" fill="#B1B8C3">
            <g id="attachment" transform="translate(7.700000, 8.000000) rotate(90.000000) translate(-7.700000, -8.000000) translate(-0.300000, 2.000000)">
                <path d="M12,0 L5.6,0 C3.59931268,-2.98125649e-08 1.75060134,1.06735394 0.75025767,2.79999998 C-0.250086001,4.53264602 -0.250086001,6.66735398 0.75025767,8.4 C1.75060134,10.1326461 3.59931268,11.2 5.6,11.2 L12,11.2 L12,9.6 L5.6,9.6 C3.390861,9.6 1.6,7.809139 1.6,5.6 C1.6,3.390861 3.390861,1.6 5.6,1.6 L12,1.6 C13.3254834,1.6 14.4,2.6745166 14.4,4 C14.4,5.3254834 13.3254834,6.4 12,6.4 L5.6,6.4 C5.1581722,6.4 4.8,6.0418278 4.8,5.6 C4.8,5.1581722 5.1581722,4.8 5.6,4.8 L12,4.8 L12,3.2 L5.6,3.2 C4.2745166,3.2 3.2,4.2745166 3.2,5.6 C3.2,6.9254834 4.2745166,8 5.6,8 L12,8 C14.209139,8 16,6.209139 16,4 C16,1.790861 14.209139,3.55271368e-16 12,0 Z" id="Shape"></path>
            </g>
        </g>
    </g>
</svg>