<?xml version="1.0" encoding="UTF-8"?>
<svg width="16px" height="16px" viewBox="0 0 16 16" version="1.1" xmlns="http://www.w3.org/2000/svg" xmlns:xlink="http://www.w3.org/1999/xlink">
    <!-- Generator: Sketch 46.2 (44496) - http://www.bohemiancoding.com/sketch -->
    <title>Artboard</title>
    <desc>Created with Sketch.</desc>
    <defs></defs>
    <g id="Page-1" stroke="none" stroke-width="1" fill="none" fill-rule="evenodd">
        <g id="Artboard" fill-rule="nonzero" fill="#B1B8C3">
            <g id="light-bulb" transform="translate(2.000000, 0.000000)">
                <path d="M4,10.664 C1.63383072,9.54162736 0.361524602,6.92923019 0.936758845,4.37431669 C1.51199309,1.81940319 3.78113051,0.00435574373 6.4,0.00435574373 C9.01886949,0.00435574373 11.2880069,1.81940319 11.8632412,4.37431669 C12.4384754,6.92923019 11.1661693,9.54162736 8.8,10.664 L8.8,12.8 L4,12.8 L4,10.664 Z M4,13.6 L8.8,13.6 L8.8,14.8 C8.8,15.464 8.264,16 7.6,16 L5.2,16 C4.5372583,16 4,15.4627417 4,14.8 L4,13.6 Z M5.6,9.52 L5.6,11.2 L7.2,11.2 L7.2,9.52 C9.21197058,9.10930823 10.5861356,7.24184103 10.3797446,5.19878056 C10.1733536,3.1557201 8.45345887,1.60081641 6.4,1.60081641 C4.34654113,1.60081641 2.62664641,3.1557201 2.42025539,5.19878056 C2.21386437,7.24184103 3.58802942,9.10930823 5.6,9.52 L5.6,9.52 Z" id="Shape"></path>
            </g>
        </g>
    </g>
</svg>