<?xml version="1.0" encoding="UTF-8"?>
<svg width="16px" height="16px" viewBox="0 0 16 16" version="1.1" xmlns="http://www.w3.org/2000/svg" xmlns:xlink="http://www.w3.org/1999/xlink">
    <!-- Generator: Sketch 46.2 (44496) - http://www.bohemiancoding.com/sketch -->
    <title>Artboard</title>
    <desc>Created with Sketch.</desc>
    <defs></defs>
    <g id="Page-1" stroke="none" stroke-width="1" fill="none" fill-rule="evenodd">
        <g id="Artboard" fill-rule="nonzero" fill="#B1B8C3">
            <g id="at-symbol">
                <path d="M10.3619048,10.2628571 C9.28671506,11.389586 7.63307485,11.7466225 6.18879236,11.1638713 C4.74450988,10.5811201 3.80169938,9.17644597 3.80952381,7.61904762 C3.80952381,6.17610644 4.62477096,4.85700885 5.91537678,4.21170594 C7.2059826,3.56640303 8.75040896,3.70566387 9.9047619,4.57142857 L9.9047619,3.80952381 L11.4285714,3.80952381 L11.4285714,8.76190476 C11.4285714,9.39308733 11.940246,9.9047619 12.5714286,9.9047619 C13.2026111,9.9047619 13.7142857,9.39308733 13.7142857,8.76190476 L13.7142857,7.61904762 C13.7123351,4.89444998 11.9024106,2.50206609 9.28105614,1.75914164 C6.65970165,1.0162172 3.86367642,2.1032177 2.43247093,4.42164107 C1.00126544,6.74006445 1.28253714,9.72673708 3.12141794,11.7371981 C4.96029873,13.7476591 7.91010181,14.2935428 10.3466667,13.0742857 L11.032381,14.4380952 C7.98733232,15.9639664 4.29944888,15.2834799 1.99949019,12.7713505 C-0.300468499,10.2592212 -0.653739029,6.52575814 1.13420956,3.62681975 C2.92215815,0.727881366 6.41695273,-0.632249869 9.69415952,0.295392098 C12.9713663,1.22303407 15.2348044,4.21308328 15.2380952,7.61904762 L15.1009524,7.61904762 L15.2304762,7.61904762 L15.2304762,8.76190476 C15.2339737,9.93540805 14.469907,10.9732749 13.3483301,11.3185103 C12.2267532,11.6637456 11.0113059,11.235198 10.3542857,10.2628571 L10.3619048,10.2628571 Z M7.61904762,9.9047619 C8.88141276,9.9047619 9.9047619,8.88141276 9.9047619,7.61904762 C9.9047619,6.35668248 8.88141276,5.33333333 7.61904762,5.33333333 C6.3566825,5.33333336 5.33333338,6.3566825 5.33333338,7.61904762 C5.33333338,8.88141274 6.3566825,9.90476188 7.61904762,9.9047619 L7.61904762,9.9047619 Z" id="Shape"></path>
            </g>
        </g>
    </g>
</svg>