<?xml version="1.0" encoding="UTF-8"?>
<svg width="16px" height="16px" viewBox="0 0 16 16" version="1.1" xmlns="http://www.w3.org/2000/svg" xmlns:xlink="http://www.w3.org/1999/xlink">
    <!-- Generator: Sketch 46.2 (44496) - http://www.bohemiancoding.com/sketch -->
    <title>Artboard</title>
    <desc>Created with Sketch.</desc>
    <defs></defs>
    <g id="Page-1" stroke="none" stroke-width="1" fill="none" fill-rule="evenodd">
        <g id="Artboard" fill-rule="nonzero" fill="#B1B8C3">
            <g id="keyboard" transform="translate(0.000000, 2.000000)">
                <path d="M0,2 C0,0.9 0.72,0 1.6,0 L14.4,0 C15.2836556,0 16,0.8954305 16,2 L16,10 C16,11.1045695 15.2836556,12 14.4,12 L1.6,12 C0.7163444,12 1.082166e-16,11.1045695 0,10 L0,2 Z M1.6,2 L1.6,4 L3.2,4 L3.2,2 L1.6,2 Z M2.4,5 L2.4,7 L4,7 L4,5 L2.4,5 Z M1.6,8 L1.6,10 L3.2,10 L3.2,8 L1.6,8 Z M4,8 L4,10 L12,10 L12,8 L4,8 Z M12.8,8 L12.8,10 L14.4,10 L14.4,8 L12.8,8 Z M4.8,5 L4.8,7 L6.4,7 L6.4,5 L4.8,5 Z M7.2,5 L7.2,7 L8.8,7 L8.8,5 L7.2,5 Z M9.6,5 L9.6,7 L11.2,7 L11.2,5 L9.6,5 Z M12,5 L12,7 L13.6,7 L13.6,5 L12,5 Z M4,2 L4,4 L5.6,4 L5.6,2 L4,2 Z M6.4,2 L6.4,4 L8,4 L8,2 L6.4,2 Z M8.8,2 L8.8,4 L10.4,4 L10.4,2 L8.8,2 Z M11.2,2 L11.2,4 L14.4,4 L14.4,2 L11.2,2 Z" id="Shape"></path>
            </g>
        </g>
    </g>
</svg>