<?xml version="1.0" encoding="UTF-8"?>
<svg width="20px" height="20px" viewBox="0 0 20 20" version="1.1" xmlns="http://www.w3.org/2000/svg" xmlns:xlink="http://www.w3.org/1999/xlink">
    <!-- Generator: Sketch 46.2 (44496) - http://www.bohemiancoding.com/sketch -->
    <title>user-group</title>
    <desc>Created with Sketch.</desc>
    <defs></defs>
    <g id="Page-1" stroke="none" stroke-width="1" fill="none" fill-rule="evenodd">
        <g id="user-group" fill-rule="nonzero" fill="#007CA4">
            <path d="M7,8 C4.790861,8 3,6.209139 3,4 C3,1.790861 4.790861,3.66080864e-16 7,-3.97360096e-17 C9.209139,9.55453165e-17 11,1.790861 11,4 C11,6.209139 9.209139,8 7,8 Z M7,9 C9.15,9 11.2,9.4 13.1,10.09 L12,16 L10.75,16 L10,20 L4,20 L3.25,16 L2,16 L0.9,10.09 C2.85466365,9.37539672 4.91881648,9.00655629 7,9 Z M15.31,9.17 C16.63,9.35 17.9,9.65 19.11,10.09 L18,16 L16.75,16 L16,20 L12.04,20 L12.41,18 L13.66,18 L15.31,9.17 L15.31,9.17 Z M13,0 C14.600301,-0.0137201584 16.0547518,0.927723735 16.6975026,2.39333721 C17.3402534,3.85895069 17.0475756,5.56660506 15.9534574,6.73453351 C14.8593392,7.90246196 13.174397,8.30583979 11.67,7.76 C13.450955,5.56966985 13.450955,2.43033015 11.67,0.24 C12.1,0.1 12.53,0 13,0 Z" id="Shape"></path>
        </g>
    </g>
</svg>