<?xml version="1.0" encoding="UTF-8"?>
<svg width="16px" height="16px" viewBox="0 0 16 16" version="1.1" xmlns="http://www.w3.org/2000/svg" xmlns:xlink="http://www.w3.org/1999/xlink">
    <!-- Generator: Sketch 46.2 (44496) - http://www.bohemiancoding.com/sketch -->
    <title>Artboard</title>
    <desc>Created with Sketch.</desc>
    <defs></defs>
    <g id="Page-1" stroke="none" stroke-width="1" fill="none" fill-rule="evenodd">
        <g id="Artboard" fill-rule="nonzero" fill="#B1B8C3">
            <g id="user-add" transform="translate(0.000000, 2.000000)">
                <path d="M1.6,2.4 L0,2.4 L0,4 L1.6,4 L1.6,5.6 L3.2,5.6 L3.2,4 L4.8,4 L4.8,2.4 L3.2,2.4 L3.2,0.8 L1.6,0.8 L1.6,2.4 Z M7.2,2.4 C7.2,1.0745166 8.2745166,0 9.6,0 C10.9254834,-3.55271368e-16 12,1.0745166 12,2.4 L12,4 C12,5.3254834 10.9254834,6.4 9.6,6.4 C8.2745166,6.4 7.2,5.3254834 7.2,4 L7.2,2.4 Z M16,9.712 C14.0548966,8.58710451 11.8469546,7.99648002 9.6,8 C7.272,8 5.08,8.624 3.2,9.712 L3.2,12 L16,12 L16,9.712 Z" id="Shape"></path>
            </g>
        </g>
    </g>
</svg>