<?xml version="1.0" encoding="UTF-8"?>
<svg width="16px" height="16px" viewBox="0 0 16 16" version="1.1" xmlns="http://www.w3.org/2000/svg" xmlns:xlink="http://www.w3.org/1999/xlink">
    <!-- Generator: Sketch 46.2 (44496) - http://www.bohemiancoding.com/sketch -->
    <title>Artboard</title>
    <desc>Created with Sketch.</desc>
    <defs></defs>
    <g id="Page-1" stroke="none" stroke-width="1" fill="none" fill-rule="evenodd">
        <g id="Artboard" fill-rule="nonzero" fill="#B1B8C3">
            <g id="link" transform="translate(0.000000, 2.000000)">
                <path d="M7.408,8.8 C7.12156689,8.30149303 7.12462093,7.68763228 7.416,7.192 C8.70348137,7.08724561 9.67710172,5.98225998 9.61893562,4.69183429 C9.56076952,3.4014086 8.49168474,2.38849815 7.2,2.4 L4,2.4 C2.6745166,2.4 1.6,3.4745166 1.6,4.8 C1.6,6.1254834 2.6745166,7.2 4,7.2 L4.064,7.2 C3.97538377,7.72965232 3.97538377,8.27034768 4.064,8.8 L4,8.8 C1.79086106,8.79999992 1.46000966e-07,7.00913894 1.46000966e-07,4.8 C1.46000966e-07,2.59086106 1.79086106,0.800000081 4,0.8 L7.2,0.8 C9.409139,0.742562386 11.2465624,2.486861 11.304,4.696 C11.3614376,6.905139 9.617139,8.74256239 7.408,8.8 L7.408,8.8 Z M8.592,4 C8.87843311,4.49850697 8.87537907,5.11236772 8.584,5.608 C7.29651863,5.71275439 6.32289828,6.81774002 6.38106438,8.10816571 C6.43923048,9.3985914 7.50831526,10.4115018 8.8,10.4 L12,10.4 C13.3254834,10.4 14.4,9.3254834 14.4,8 C14.4,6.6745166 13.3254834,5.6 12,5.6 L11.936,5.6 C12.0246162,5.07034768 12.0246162,4.52965232 11.936,4 L12,4 C14.209139,4 16,5.790861 16,8 C16,10.209139 14.209139,12 12,12 L8.8,12 C6.590861,12.0574376 4.75343761,10.313139 4.696,8.104 C4.63856239,5.894861 6.382861,4.05743761 8.592,4 Z" id="Shape"></path>
            </g>
        </g>
    </g>
</svg>