<?xml version="1.0" encoding="UTF-8"?>
<svg width="23px" height="16px" viewBox="0 0 23 16" version="1.1" xmlns="http://www.w3.org/2000/svg" xmlns:xlink="http://www.w3.org/1999/xlink">
    <!-- Generator: Sketch 47 (45396) - http://www.bohemiancoding.com/sketch -->
    <title>Group 2</title>
    <desc>Created with Sketch.</desc>
    <defs></defs>
    <g id="Page-1" stroke="none" stroke-width="1" fill="none" fill-rule="evenodd">
        <g id="Group-2" fill="#0094E8">
            <path d="M0.658475383,7.45127051 L4.82843971,3.97630024 L4.82843971,3.97630024 C5.13149464,3.72375447 5.581898,3.76470023 5.83444377,4.06775515 C5.94141699,4.19612301 6,4.35793222 6,4.52502972 L6,11.4749703 L6,11.4749703 C6,11.8694594 5.68020339,12.189256 5.28571429,12.189256 C5.11861678,12.189256 4.95680757,12.130673 4.82843971,12.0236998 L0.658475383,8.54872949 L0.658475383,8.54872949 C0.355420456,8.29618371 0.314474696,7.84578036 0.567020468,7.54272543 C0.594677055,7.50953753 0.625287479,7.4789271 0.658475383,7.45127051 Z" id="Triangle"></path>
            <g id="show-sidebar" transform="translate(7.000000, 0.000000)" fill-rule="nonzero">
                <path d="M7,1.77777778 L2,1.77777778 L2,14.2222222 L7,14.2222222 L7,1.77777778 Z M9,1.77777778 L9,14.2222222 L14,14.2222222 L14,1.77777778 L9,1.77777778 Z M0,1.77777778 C0,0.8 0.72,0 1.6,0 L14.4,0 C15.2836556,0 16,0.795938223 16,1.77777778 L16,14.2222222 C16,15.2040618 15.2836556,16 14.4,16 L1.6,16 C0.7163444,16 1.082166e-16,15.2040618 0,14.2222222 L0,1.77777778 Z M3,2.66666667 L6,2.66666667 L6,4.44444444 L3,4.44444444 L3,2.66666667 Z M3,5.33333333 L6,5.33333333 L6,7.11111111 L3,7.11111111 L3,5.33333333 Z M3,8 L6,8 L6,9.77777778 L3,9.77777778 L3,8 Z" id="Shape"></path>
            </g>
        </g>
    </g>
</svg>