<?xml version="1.0" encoding="UTF-8"?>
<svg width="16px" height="16px" viewBox="0 0 16 16" version="1.1" xmlns="http://www.w3.org/2000/svg" xmlns:xlink="http://www.w3.org/1999/xlink">
    <!-- Generator: Sketch 47 (45396) - http://www.bohemiancoding.com/sketch -->
    <title>Artboard</title>
    <desc>Created with Sketch.</desc>
    <defs></defs>
    <g id="Page-1" stroke="none" stroke-width="1" fill="none" fill-rule="evenodd">
        <g id="Artboard" fill-rule="nonzero" fill="#A8AFBB">
            <g id="envelope" transform="translate(0.000000, 1.500000)">
                <path d="M14.4,0 C15.2836556,0 16,0.7163444 16,1.6 L16,11.2 C16,12.0836556 15.2836556,12.8 14.4,12.8 L1.6,12.8 C0.7163444,12.8 1.082166e-16,12.0836556 0,11.2 L0,1.6 C0,0.72 0.72,0 1.6,0 L14.4,0 Z M10.904,7.28 L16,11.2 L16,9.6 L11.904,6.48 L16,3.2 L16,1.6 L8,8 L0,1.6 L0,3.2 L4.096,6.48 L0,9.6 L0,11.2 L5.096,7.28 L8,9.6 L10.904,7.28 Z" id="Shape"></path>
            </g>
        </g>
    </g>
</svg>