<?xml version="1.0" encoding="UTF-8"?>
<svg width="16px" height="16px" viewBox="0 0 16 16" version="1.1" xmlns="http://www.w3.org/2000/svg" xmlns:xlink="http://www.w3.org/1999/xlink">
    <!-- Generator: Sketch 46.2 (44496) - http://www.bohemiancoding.com/sketch -->
    <title>Artboard</title>
    <desc>Created with Sketch.</desc>
    <defs></defs>
    <g id="Page-1" stroke="none" stroke-width="1" fill="none" fill-rule="evenodd">
        <g id="Artboard" fill-rule="nonzero" fill="#B1B8C3">
            <g id="phone">
                <path d="M16,14.68 L16,15.2 C16,15.6418278 15.6418278,16 15.2,16 L13.6,16 C6.0889274,16 9.19841101e-16,9.9110726 0,2.4 L0,0.8 C-5.41083001e-17,0.3581722 0.3581722,8.11624501e-17 0.8,0 L4,0 C4.4418278,2.705415e-17 4.8,0.3581722 4.8,0.8 L4.8,4 C4.8,4.448 4.552,5.048 4.24,5.36 L2.528,7.072 C3.744,9.952 6.048,12.256 8.928,13.472 L10.624,11.776 C10.944,11.456 11.544,11.208 11.984,11.208 L15.2,11.208 C15.6387004,11.2123872 15.9920219,11.5692776 15.992,12.008 L15.992,14.688 L16,14.68 Z" id="Shape"></path>
            </g>
        </g>
    </g>
</svg>