<?xml version="1.0" encoding="UTF-8"?>
<svg width="16px" height="16px" viewBox="0 0 16 16" version="1.1" xmlns="http://www.w3.org/2000/svg" xmlns:xlink="http://www.w3.org/1999/xlink">
    <!-- Generator: Sketch 47 (45396) - http://www.bohemiancoding.com/sketch -->
    <title>Artboard</title>
    <desc>Created with Sketch.</desc>
    <defs></defs>
    <g id="Page-1" stroke="none" stroke-width="1" fill="none" fill-rule="evenodd">
        <g id="Artboard" fill-rule="nonzero" fill="#A8AFBB">
            <g id="reply" transform="translate(7.527222, 7.569277) rotate(89.000000) translate(-7.527222, -7.569277) translate(0.027222, 0.569277)">
                <g id="Group">
                    <path d="M12.2882155,13.3773192 L12.3259259,11.2168889 C12.3284447,10.209389 11.9299813,9.24229065 11.2184591,8.52898958 C10.5069368,7.81568851 9.54083636,7.41481167 8.53333333,7.41481481 L5.68888889,7.41481481 L5.68888889,12.1555556 L-1.77635684e-15,6.46666667 L5.68888889,0.777777778 L5.68888889,5.51851852 L8.53333333,5.51851852 C11.6752199,5.51851852 14.2222222,8.06552083 14.2222222,11.2074074 L14.1837687,13.4104062 L12.2882155,13.3773192 Z" id="Shape"></path>
                    <path d="M12.5162618,10.9539863 L12.5162618,8.63792282 C12.5187806,7.81483141 12.1203172,7.02474658 11.4087949,6.44200508 C10.6972727,5.85926358 9.73117223,5.53176152 8.72366921,5.53176409 L5.87922476,5.53176409 L5.87922476,9.40477996 L5.87922476,0.109541869 L5.87922476,3.98255774 L8.72366921,3.98255774 C11.8655558,3.98255774 14.4125581,6.06336767 14.4125581,8.63017679 L14.4125581,10.9539863 L12.5162618,10.9539863 Z" id="Shape" transform="translate(10.145891, 5.531764) scale(1, -1) translate(-10.145891, -5.531764) "></path>
                </g>
            </g>
        </g>
    </g>
</svg>