<?xml version="1.0" encoding="UTF-8"?>
<svg width="16px" height="16px" viewBox="0 0 16 16" version="1.1" xmlns="http://www.w3.org/2000/svg" xmlns:xlink="http://www.w3.org/1999/xlink">
    <!-- Generator: Sketch 46.2 (44496) - http://www.bohemiancoding.com/sketch -->
    <title>Artboard</title>
    <desc>Created with Sketch.</desc>
    <defs></defs>
    <g id="Page-1" stroke="none" stroke-width="1" fill="none" fill-rule="evenodd">
        <g id="Artboard" fill-rule="nonzero" fill="#B1B8C3">
            <g id="checkmark-outline">
                <path d="M2.99428571,13.767619 C1.01366412,11.8546707 0.219332593,9.02188273 0.916593093,6.35803944 C1.61385359,3.69419615 3.69419615,1.61385359 6.35803944,0.916593093 C9.02188273,0.219332593 11.8546707,1.01366412 13.767619,2.99428571 C16.6550264,5.98383914 16.6137324,10.735884 13.6748082,13.6748082 C10.735884,16.6137324 5.98383914,16.6550264 2.99428571,13.767619 L2.99428571,13.767619 Z M12.6933333,12.6933333 C15.0749956,10.3116711 15.0749956,6.45023366 12.6933333,4.06857143 C10.3116711,1.68690919 6.45023366,1.68690919 4.06857143,4.06857143 C1.68690919,6.45023366 1.68690919,10.3116711 4.06857143,12.6933333 C6.45023366,15.0749956 10.3116711,15.0749956 12.6933333,12.6933333 Z M5.86666667,7.84 L7.61904762,9.6 L10.8952381,6.32380952 L11.9619048,7.40571429 L7.61904762,11.7333333 L4.8,8.91428571 L5.86666667,7.83238095 L5.86666667,7.84 Z" id="Shape"></path>
            </g>
        </g>
    </g>
</svg>