<?xml version="1.0" encoding="UTF-8"?>
<svg width="16px" height="16px" viewBox="0 0 16 16" version="1.1" xmlns="http://www.w3.org/2000/svg" xmlns:xlink="http://www.w3.org/1999/xlink">
    <!-- Generator: Sketch 46.2 (44496) - http://www.bohemiancoding.com/sketch -->
    <title>Artboard</title>
    <desc>Created with Sketch.</desc>
    <defs></defs>
    <g id="Page-1" stroke="none" stroke-width="1" fill="none" fill-rule="evenodd">
        <g id="Artboard" fill-rule="nonzero" fill="#B1B8C3">
            <g id="calendar" transform="translate(0.850000, 0.000000)">
                <path d="M0,3.2 C0,2.32 0.72,1.6 1.6,1.6 L12.8,1.6 C13.6836556,1.6 14.4,2.3163444 14.4,3.2 L14.4,14.4 C14.4,15.2836556 13.6836556,16 12.8,16 L1.6,16 C0.7163444,16 1.77635684e-16,15.2836556 0,14.4 L0,3.2 Z M1.6,4.8 L1.6,14.4 L12.8,14.4 L12.8,4.8 L1.6,4.8 Z M3.2,0 L4.8,0 L4.8,1.6 L3.2,1.6 L3.2,0 Z M9.6,0 L11.2,0 L11.2,1.6 L9.6,1.6 L9.6,0 Z M3.2,7.2 L4.8,7.2 L4.8,8.8 L3.2,8.8 L3.2,7.2 Z M3.2,10.4 L4.8,10.4 L4.8,12 L3.2,12 L3.2,10.4 Z M6.4,7.2 L8,7.2 L8,8.8 L6.4,8.8 L6.4,7.2 Z M6.4,10.4 L8,10.4 L8,12 L6.4,12 L6.4,10.4 Z M9.6,7.2 L11.2,7.2 L11.2,8.8 L9.6,8.8 L9.6,7.2 Z M9.6,10.4 L11.2,10.4 L11.2,12 L9.6,12 L9.6,10.4 Z" id="Shape"></path>
            </g>
        </g>
    </g>
</svg>