<?xml version="1.0" encoding="UTF-8"?>
<svg width="23px" height="16px" viewBox="0 0 23 16" version="1.1" xmlns="http://www.w3.org/2000/svg" xmlns:xlink="http://www.w3.org/1999/xlink">
    <!-- Generator: Sketch 47 (45396) - http://www.bohemiancoding.com/sketch -->
    <title>Group</title>
    <desc>Created with Sketch.</desc>
    <defs></defs>
    <g id="Page-1" stroke="none" stroke-width="1" fill="none" fill-rule="evenodd">
        <g id="Group" fill="#459DE5">
            <g id="show-sidebar" fill-rule="nonzero">
                <path d="M7,1.77777778 L2,1.77777778 L2,14.2222222 L7,14.2222222 L7,1.77777778 Z M9,1.77777778 L9,14.2222222 L14,14.2222222 L14,1.77777778 L9,1.77777778 Z M0,1.77777778 C0,0.8 0.72,0 1.6,0 L14.4,0 C15.2836556,0 16,0.795938223 16,1.77777778 C16,3.19042746 16,4.26450153 16,5 C16,6.52428456 16,8.63731426 16,11.3390891 C16,11.9365934 16,12.8976378 16,14.2222222 C16,15.2040618 15.2836556,16 14.4,16 L1.6,16 C0.7163444,16 1.082166e-16,15.2040618 0,14.2222222 L0,1.77777778 Z M3,2.66666667 L6,2.66666667 L6,4.44444444 L3,4.44444444 L3,2.66666667 Z M3,5.33333333 L6,5.33333333 L6,7.11111111 L3,7.11111111 L3,5.33333333 Z M3,8 L6,8 L6,9.77777778 L3,9.77777778 L3,8 Z" id="Shape"></path>
            </g>
            <path d="M17.7452805,7.50286621 L21.9152448,4.02789593 L21.9152448,4.02789593 C22.2182998,3.77535016 22.6687031,3.81629592 22.9212489,4.11935085 C23.0282221,4.24771871 23.0868051,4.40952791 23.0868051,4.57662542 L23.0868051,11.526566 L23.0868051,11.526566 C23.0868051,11.9210551 22.7670085,12.2408517 22.3725194,12.2408517 C22.2054219,12.2408517 22.0436127,12.1822687 21.9152448,12.0752955 L17.7452805,8.60032518 L17.7452805,8.60032518 C17.4422256,8.34777941 17.4012798,7.89737605 17.6538256,7.59432112 C17.6814822,7.56113322 17.7120926,7.5305228 17.7452805,7.50286621 Z" id="Triangle" transform="translate(20.086805, 8.051596) rotate(181.000000) translate(-20.086805, -8.051596) "></path>
        </g>
    </g>
</svg>