<?xml version="1.0" encoding="UTF-8"?>
<svg width="16px" height="16px" viewBox="0 0 16 16" version="1.1" xmlns="http://www.w3.org/2000/svg" xmlns:xlink="http://www.w3.org/1999/xlink">
    <!-- Generator: Sketch 46.2 (44496) - http://www.bohemiancoding.com/sketch -->
    <title>Artboard</title>
    <desc>Created with Sketch.</desc>
    <defs></defs>
    <g id="Page-1" stroke="none" stroke-width="1" fill="none" fill-rule="evenodd">
        <g id="Artboard" fill-rule="nonzero" fill="#B1B8C3">
            <g id="share-alt" transform="translate(0.000000, -0.500000)">
                <path d="M3.87047619,10.0266667 C3.21278462,10.6695733 2.23301711,10.8539378 1.38662922,10.4940563 C0.540241326,10.1341749 -0.00672242711,9.30064904 -1.69176196e-16,8.38095238 C0.000565150901,7.464744 0.548172095,6.63740483 1.39132739,6.27889785 C2.23448269,5.92039087 3.21024088,6.09999999 3.87047619,6.7352381 L10.6819048,3.32952381 C10.5426832,2.22530888 11.2190266,1.18132918 12.2836957,0.857056166 C13.3483647,0.532783153 14.4918332,1.02249124 14.9917834,2.01683675 C15.4917337,3.01118226 15.2028175,4.2210837 14.3075404,4.8822585 C13.4122633,5.5434333 12.170905,5.46366116 11.367619,4.69333333 L4.55619048,8.09904762 C4.57922601,8.28627826 4.57922601,8.47562651 4.55619048,8.66285714 L11.367619,12.0685714 C12.0253106,11.4256648 13.0050781,11.2413003 13.851466,11.6011818 C14.6978539,11.9610632 15.2448177,12.7945891 15.2380952,13.7142857 C15.231027,14.5600249 14.7575214,15.3327337 14.0071793,15.7230047 C13.2568372,16.1132756 12.3523183,16.0573104 11.6558095,15.5775186 C10.9593007,15.0977268 10.5846616,14.2725407 10.6819048,13.432381 L3.87047619,10.0266667 Z" id="Shape"></path>
            </g>
        </g>
    </g>
</svg>