<?xml version="1.0" encoding="UTF-8"?>
<svg width="52px" height="64px" viewBox="0 0 52 64" version="1.1" xmlns="http://www.w3.org/2000/svg" xmlns:xlink="http://www.w3.org/1999/xlink">
    <!-- Generator: Sketch 46.2 (44496) - http://www.bohemiancoding.com/sketch -->
    <title>wav</title>
    <desc>Created with Sketch.</desc>
    <defs></defs>
    <g id="Page-1" stroke="none" stroke-width="1" fill="none" fill-rule="evenodd">
        <g id="wav" fill-rule="nonzero">
            <g id="Rectangle_39" transform="translate(1.000000, 1.000000)" fill="#FFFFFF">
                <rect id="Rectangle-path" x="0" y="0" width="46" height="62"></rect>
            </g>
            <g id="Rectangle_40" transform="translate(13.000000, 34.000000)" fill="#FFFFFF">
                <polygon id="Shape" points="6 5 0 5 0 15 6 15 15 20 15 0"></polygon>
            </g>
            <g id="icon_2_" fill="#FFD11A">
                <path d="M32.406,46.174 C32.006,46.461 31.875,47.012 32.12,47.449 L32.162,47.523 C32.43,47.999 33.031,48.146 33.467,47.836 C35.214,46.586 36.063,45.231 35.992,43.799 C35.906,42.052 34.472,40.809 33.474,40.151 C33.002,39.839 32.375,40.03 32.144,40.559 L32.107,40.645 C31.919,41.077 32.062,41.583 32.445,41.839 C33.154,42.313 34.037,43.086 34.075,43.902 C34.107,44.58 33.521,45.371 32.406,46.174 Z M50,8 L48,8 L48,2 C48,0.896 47.104,0 46,0 L2,0 C0.896,0 0,0.896 0,2 L0,62 C0,63.104 0.896,64 2,64 L46,64 C47.104,64 48,63.104 48,62 L48,26 L50,26 C51.104,26 52,25.104 52,24 L52,10 C52,8.896 51.104,8 50,8 Z M46,8 L22,8 C20.896,8 20,8.896 20,10 L20,24 C20,25.104 20.896,26 22,26 L46,26 L46,62 L2,62 L2,2 L46,2 L46,8 Z M13,50 L18.765,50 L27.515,54.883 C27.538,54.897 27.566,54.897 27.589,54.907 C27.612,54.917 27.638,54.923 27.662,54.931 C28.112,55.103 28.632,54.947 28.882,54.517 C28.978,54.353 29.002,54.176 28.999,54 C28.999,54 28.999,53.999 28.999,53.998 L28.999,34.081 C29.02,33.88 28.997,33.672 28.888,33.482 C28.638,33.051 28.118,32.896 27.665,33.066 C27.64,33.076 27.613,33.082 27.588,33.091 C27.566,33.103 27.539,33.103 27.517,33.115 L18.754,38 L13,38 C12.447,38 12,38.447 12,39 L12,49 C12,49.553 12.447,50 13,50 Z M20,39.593 L27,35.694 L27,52.311 L20,48.407 L20,39.593 Z M14,40 L18,40 L18,48 L14,48 L14,40 Z" id="Shape"></path>
            </g>
            <g id="Group" transform="translate(22.000000, 13.000000)" fill="#FFFFFF">
                <path d="M0.991,0.382 L2.411,0.382 C2.557,0.382 2.68,0.415 2.778,0.483 C2.876,0.549 2.941,0.637 2.97,0.748 L3.97,4.548 C4.004,4.671 4.037,4.803 4.07,4.944 C4.103,5.084 4.129,5.23 4.145,5.383 C4.178,5.227 4.215,5.079 4.255,4.941 C4.295,4.803 4.333,4.671 4.37,4.548 L5.549,0.748 C5.58,0.654 5.644,0.57 5.742,0.495 C5.84,0.421 5.959,0.383 6.099,0.383 L6.599,0.383 C6.745,0.383 6.867,0.415 6.961,0.481 C7.055,0.547 7.122,0.635 7.159,0.749 L8.329,4.549 C8.365,4.666 8.403,4.79 8.443,4.922 C8.483,5.053 8.518,5.194 8.547,5.344 C8.574,5.198 8.602,5.058 8.63,4.924 C8.658,4.791 8.688,4.666 8.717,4.549 L9.717,0.749 C9.744,0.652 9.808,0.567 9.908,0.494 C10.008,0.421 10.127,0.384 10.267,0.384 L11.597,0.384 L9.347,7.669 L7.817,7.669 L6.447,3.154 C6.424,3.084 6.4,3.007 6.375,2.924 C6.35,2.841 6.326,2.752 6.303,2.659 C6.28,2.752 6.255,2.841 6.231,2.924 C6.206,3.007 6.181,3.084 6.159,3.154 L4.768,7.669 L3.238,7.669 L0.991,0.382 Z" id="Shape"></path>
                <path d="M18.332,7.667 L17.021,7.667 C16.875,7.667 16.753,7.633 16.659,7.564 C16.565,7.495 16.498,7.409 16.461,7.301 L16.031,6.031 L13.261,6.031 L12.831,7.301 C12.798,7.395 12.732,7.479 12.636,7.554 C12.54,7.629 12.421,7.666 12.281,7.666 L10.961,7.666 L13.781,0.381 L15.511,0.381 L18.332,7.667 Z M13.652,4.882 L15.641,4.882 L14.971,2.887 C14.927,2.761 14.876,2.612 14.819,2.44 C14.76,2.268 14.703,2.083 14.646,1.882 C14.593,2.085 14.538,2.274 14.481,2.447 C14.424,2.62 14.371,2.77 14.322,2.897 L13.652,4.882 Z" id="Shape"></path>
                <path d="M17.322,0.382 L18.681,0.382 C18.827,0.382 18.948,0.415 19.041,0.483 C19.134,0.549 19.2,0.637 19.241,0.748 L20.651,4.648 C20.714,4.818 20.778,5.002 20.842,5.203 C20.907,5.403 20.969,5.613 21.026,5.833 C21.072,5.613 21.126,5.403 21.188,5.203 C21.25,5.003 21.311,4.818 21.37,4.648 L22.77,0.748 C22.803,0.654 22.869,0.57 22.965,0.495 C23.062,0.421 23.18,0.383 23.32,0.383 L24.689,0.383 L21.769,7.668 L20.24,7.668 L17.322,0.382 Z" id="Shape"></path>
            </g>
        </g>
    </g>
</svg>