<?xml version="1.0" encoding="UTF-8"?>
<svg width="20px" height="16px" viewBox="0 0 20 16" version="1.1" xmlns="http://www.w3.org/2000/svg" xmlns:xlink="http://www.w3.org/1999/xlink">
    <!-- Generator: Sketch 46.2 (44496) - http://www.bohemiancoding.com/sketch -->
    <title>envelope</title>
    <desc>Created with Sketch.</desc>
    <defs></defs>
    <g id="Page-1" stroke="none" stroke-width="1" fill="none" fill-rule="evenodd">
        <g id="envelope" fill-rule="nonzero" fill="#FFFFFF">
            <path d="M18,0 C19.1045695,0 20,0.8954305 20,2 L20,14 C20,15.1045695 19.1045695,16 18,16 L2,16 C0.8954305,16 1.3527075e-16,15.1045695 0,14 L0,2 C0,0.9 0.9,0 2,0 L18,0 Z M13.63,9.1 L20,14 L20,12 L14.88,8.1 L20,4 L20,2 L10,10 L0,2 L0,4 L5.12,8.1 L0,12 L0,14 L6.37,9.1 L10,12 L13.63,9.1 Z" id="Shape"></path>
        </g>
    </g>
</svg>