<?xml version="1.0" encoding="UTF-8"?>
<svg width="16px" height="16px" viewBox="0 0 16 16" version="1.1" xmlns="http://www.w3.org/2000/svg" xmlns:xlink="http://www.w3.org/1999/xlink">
    <!-- Generator: Sketch 46.2 (44496) - http://www.bohemiancoding.com/sketch -->
    <title>Artboard</title>
    <desc>Created with Sketch.</desc>
    <defs></defs>
    <g id="Page-1" stroke="none" stroke-width="1" fill="none" fill-rule="evenodd">
        <g id="Artboard" fill-rule="nonzero" fill="#FFFFFF">
            <g id="view-tile">
                <path d="M0,0 L7.2,0 L7.2,7.2 L0,7.2 L0,0 Z M1.6,1.6 L1.6,5.6 L5.6,5.6 L5.6,1.6 L1.6,1.6 Z M0,8.8 L7.2,8.8 L7.2,16 L0,16 L0,8.8 Z M1.6,10.4 L1.6,14.4 L5.6,14.4 L5.6,10.4 L1.6,10.4 Z M8.8,0 L16,0 L16,7.2 L8.8,7.2 L8.8,0 Z M10.4,1.6 L10.4,5.6 L14.4,5.6 L14.4,1.6 L10.4,1.6 Z M8.8,8.8 L16,8.8 L16,16 L8.8,16 L8.8,8.8 Z M10.4,10.4 L10.4,14.4 L14.4,14.4 L14.4,10.4 L10.4,10.4 Z" id="Shape"></path>
            </g>
        </g>
    </g>
</svg>