<?xml version="1.0" encoding="UTF-8"?>
<svg width="52px" height="64px" viewBox="0 0 52 64" version="1.1" xmlns="http://www.w3.org/2000/svg" xmlns:xlink="http://www.w3.org/1999/xlink">
    <!-- Generator: Sketch 46.2 (44496) - http://www.bohemiancoding.com/sketch -->
    <title>Rounded_Rectangle_7_7_</title>
    <desc>Created with Sketch.</desc>
    <defs></defs>
    <g id="Page-1" stroke="none" stroke-width="1" fill="none" fill-rule="evenodd">
        <g id="css" fill-rule="nonzero" fill="#C90861">
            <g id="Rounded_Rectangle_7_7_">
                <path d="M17,46.46 L17,53 C17,53.553 17.447,54 18,54 L20,54 C20.553,54 21,53.553 21,53 C21,52.447 20.553,52 20,52 L19,52 L19,46 C19,45.854 18.965,45.717 18.908,45.592 C18.858,45.454 18.785,45.324 18.675,45.215 L17.465,44.005 L18.704,42.766 C18.918,42.552 19.012,42.27 19,41.99 L19,36 L20,36 C20.553,36 21,35.552 21,35 C21,34.447 20.553,34 20,34 L18,34 C17.447,34 17,34.447 17,35 L17,41.529 L15.296,43.234 C15.086,43.443 14.989,43.72 14.997,43.997 C14.989,44.269 15.086,44.546 15.294,44.754 L17,46.46 Z M29.092,45.592 C29.035,45.717 29,45.854 29,46 L29,52 L28,52 C27.447,52 27,52.447 27,53 C27,53.553 27.447,54 28,54 L30,54 C30.553,54 31,53.553 31,53 L31,46.46 L32.706,44.754 C32.914,44.546 33.01,44.272 33.003,43.997 C33.012,43.723 32.914,43.443 32.704,43.234 L31,41.529 L31,35 C31,34.447 30.553,34 30,34 L28,34 C27.447,34 27,34.447 27,35 C27,35.552 27.447,36 28,36 L29,36 L29,41.988 C28.988,42.267 29.082,42.551 29.296,42.765 L30.535,44.003 L29.325,45.213 C29.215,45.324 29.143,45.454 29.092,45.592 Z M50,8 L48,8 L48,2 C48,0.896 47.104,0 46,0 L2,0 C0.896,0 0,0.896 0,2 L0,62 C0,63.104 0.896,64 2,64 L46,64 C47.104,64 48,63.104 48,62 L48,26 L50,26 C51.104,26 52,25.104 52,24 L52,10 C52,8.896 51.104,8 50,8 Z M46,8 L22,8 C20.896,8 20,8.896 20,10 L20,24 C20,25.104 20.896,26 22,26 L46,26 L46,62 L2,62 L2,2 L46,2 L46,8 Z" id="Shape"></path>
            </g>
        </g>
    </g>
</svg>