<?xml version="1.0" encoding="UTF-8"?>
<svg width="48px" height="64px" viewBox="0 0 48 64" version="1.1" xmlns="http://www.w3.org/2000/svg" xmlns:xlink="http://www.w3.org/1999/xlink">
    <!-- Generator: Sketch 46.2 (44496) - http://www.bohemiancoding.com/sketch -->
    <title>link</title>
    <desc>Created with Sketch.</desc>
    <defs></defs>
    <g id="Page-1" stroke="none" stroke-width="1" fill="none" fill-rule="evenodd">
        <g id="link">
            <g id="Rectangle_22_2_" transform="translate(1.000000, 1.000000)" fill-rule="nonzero" fill="#FFFFFF">
                <polygon id="Shape" points="32 14 32 0 0 0 0 62 46 62 46 14"></polygon>
            </g>
            <g id="Rectangle_23_1_" transform="translate(33.000000, 1.000000)" fill-rule="nonzero" fill="#FFFFFF">
                <polygon id="Shape" points="0 0 0 14 14 14"></polygon>
            </g>
            <g id="icon_9_" fill="#09BEF2">
                <path d="M47.994,14.989 C47.985,14.752 47.896,14.515 47.715,14.334 L33.666,0.285 C33.487,0.106 33.255,0.018 33.02,0.008 C33.014,0.006 33,0 33,0 L2,0 C0.896,0 0,0.896 0,2 L0,62 C0,63.104 0.896,64 2,64 L46,64 C47.104,64 48,63.104 48,62 L48,15 C48,15 47.995,14.991 47.994,14.989 Z M34,3.381 L44.619,14 C40.477,14 34,14 34,14 C34,14 34,7.524 34,3.381 Z M46,62 L2,62 L2,2 L32,2 L32,16 L46,16 L46,62 Z M28.272,24.577 L22.577,30.272 C21.791,31.058 21.791,32.334 22.577,33.12 L23.973,34.516 L22.515,35.974 L21.119,34.578 C20.333,33.792 19.057,33.792 18.271,34.578 L12.576,40.273 C11.79,41.059 11.79,42.335 12.576,43.121 L16.847,47.392 C17.633,48.179 18.909,48.179 19.695,47.392 L25.389,41.698 C26.176,40.912 26.176,39.636 25.389,38.85 L23.993,37.453 L25.45,35.996 L26.847,37.392 C27.633,38.179 28.909,38.179 29.695,37.392 L35.389,31.698 C36.176,30.912 36.176,29.636 35.389,28.85 L31.118,24.579 C30.334,23.791 29.059,23.791 28.272,24.577 Z M24.013,40.284 L18.284,46.013 L13.987,41.716 L19.716,35.987 L21.11,37.381 L20.29,38.2 C19.882,38.608 19.882,39.269 20.29,39.678 C20.698,40.087 21.36,40.086 21.769,39.678 L22.588,38.859 L24.013,40.284 Z M28.284,36.013 L26.858,34.587 L27.677,33.767 C28.085,33.36 28.085,32.698 27.677,32.289 C27.269,31.88 26.608,31.881 26.199,32.289 L25.38,33.109 L23.986,31.715 L29.715,25.986 L34.012,30.283 L28.284,36.013 Z" id="Shape"></path>
            </g>
        </g>
    </g>
</svg>