<?xml version="1.0" encoding="UTF-8"?>
<svg width="16px" height="16px" viewBox="0 0 16 16" version="1.1" xmlns="http://www.w3.org/2000/svg" xmlns:xlink="http://www.w3.org/1999/xlink">
    <!-- Generator: Sketch 46.2 (44496) - http://www.bohemiancoding.com/sketch -->
    <title>company</title>
    <desc>Created with Sketch.</desc>
    <defs></defs>
    <g id="Page-1" stroke="none" stroke-width="1" fill="none" fill-rule="evenodd">
        <g id="company" fill-rule="nonzero" fill="#000000">
            <path d="M15.68,15.36 L14.72,15.36 L14.72,6.72 C14.72,6.18980664 14.2901934,5.76 13.76,5.76 L10.24,5.76 L10.24,15.36 L9.6,15.36 L9.6,0.96 C9.59943561,0.430040593 9.16995941,0.000564387495 8.64,0 L2.24,0 C1.71004059,0.000564387495 1.28056439,0.430040593 1.28,0.96 L1.28,15.36 L0.32,15.36 C0.14326888,15.36 2.164332e-17,15.5032689 0,15.68 C-2.164332e-17,15.8567311 0.14326888,16 0.32,16 L15.68,16 C15.8567311,16 16,15.8567311 16,15.68 C16,15.5032689 15.8567311,15.36 15.68,15.36 Z M11.84,8.32 L13.12,8.32 C13.2967311,8.32 13.44,8.46326888 13.44,8.64 C13.44,8.81673112 13.2967311,8.96 13.12,8.96 L11.84,8.96 C11.6632689,8.96 11.52,8.81673112 11.52,8.64 C11.52,8.46326888 11.6632689,8.32 11.84,8.32 Z M11.84,10.88 L13.12,10.88 C13.2967311,10.88 13.44,11.0232689 13.44,11.2 C13.44,11.3767311 13.2967311,11.52 13.12,11.52 L11.84,11.52 C11.6632689,11.52 11.52,11.3767311 11.52,11.2 C11.52,11.0232689 11.6632689,10.88 11.84,10.88 Z M11.84,13.44 L13.12,13.44 C13.2967311,13.44 13.44,13.5832689 13.44,13.76 C13.44,13.9367311 13.2967311,14.08 13.12,14.08 L11.84,14.08 C11.6632689,14.08 11.52,13.9367311 11.52,13.76 C11.52,13.5832689 11.6632689,13.44 11.84,13.44 Z M4.16,2.56 L6.72,2.56 C6.89673112,2.56 7.04,2.70326888 7.04,2.88 C7.04,3.05673112 6.89673112,3.2 6.72,3.2 L4.16,3.2 C3.98326888,3.2 3.84,3.05673112 3.84,2.88 C3.84,2.70326888 3.98326888,2.56 4.16,2.56 Z M4.16,5.12 L6.72,5.12 C6.89673112,5.12 7.04,5.26326888 7.04,5.44 C7.04,5.61673112 6.89673112,5.76 6.72,5.76 L4.16,5.76 C3.98326888,5.76 3.84,5.61673112 3.84,5.44 C3.84,5.26326888 3.98326888,5.12 4.16,5.12 Z M4.16,7.68 L6.72,7.68 C6.89673112,7.68 7.04,7.82326888 7.04,8 C7.04,8.17673112 6.89673112,8.32 6.72,8.32 L4.16,8.32 C3.98326888,8.32 3.84,8.17673112 3.84,8 C3.84,7.82326888 3.98326888,7.68 4.16,7.68 Z M3.2,15.36 L3.2,10.88 C3.2,10.5265378 3.48653776,10.24 3.84,10.24 L7.04,10.24 C7.39346224,10.24 7.68,10.5265378 7.68,10.88 L7.68,15.36 L3.2,15.36 Z" id="Shape"></path>
        </g>
    </g>
</svg>