<?xml version="1.0" encoding="UTF-8"?>
<svg width="450px" height="84px" viewBox="0 0 450 84" version="1.1" xmlns="http://www.w3.org/2000/svg" xmlns:xlink="http://www.w3.org/1999/xlink">
    <!-- Generator: Sketch 42 (36781) - http://www.bohemiancoding.com/sketch -->
    <title>Oval 2 + Oval 2 Copy 2 + Oval 2 Copy Copy Copy + Interloop + Line + Line Copy</title>
    <desc>Created with Sketch.</desc>
    <defs>
        <linearGradient x1="100%" y1="0%" x2="0%" y2="100%" id="linearGradient-1">
            <stop stop-color="#27D39A" offset="0%"></stop>
            <stop stop-color="#41EDB4" offset="100%"></stop>
        </linearGradient>
        <linearGradient x1="100%" y1="0%" x2="0%" y2="100%" id="linearGradient-2">
            <stop stop-color="#F4B664" offset="0%"></stop>
            <stop stop-color="#FCC875" offset="67.2290792%"></stop>
            <stop stop-color="#FFD07E" offset="100%"></stop>
        </linearGradient>
        <linearGradient x1="100%" y1="0%" x2="0%" y2="100%" id="linearGradient-3">
            <stop stop-color="#48BFF2" offset="0%"></stop>
            <stop stop-color="#62D9FF" offset="100%"></stop>
        </linearGradient>
    </defs>
    <g id="UI-Kit" stroke="none" stroke-width="1" fill="none" fill-rule="evenodd">
        <g id="Group-26" transform="translate(-37.000000, -240.000000)">
            <g id="Group" transform="translate(12.000000, 203.000000)">
                <g id="Oval-2-+-Oval-2-Copy-2-+-Oval-2-Copy-Copy-Copy-+-Interloop-+-Line-+-Line-Copy" transform="translate(29.000000, 41.000000)">
                    <g id="Oval-2-+-Oval-2-Copy-2-+-Oval-2-Copy-Copy-Copy-+-Interloop">
                        <g id="Oval-2-+-Oval-2-Copy-2-+-Oval-2-Copy-Copy-Copy-Copy" opacity="0.956623134" stroke-width="6.4811522">
                            <ellipse id="Oval-2" stroke="url(#linearGradient-1)" cx="26.0089864" cy="50.26113" rx="26.0089864" ry="26.2231983"></ellipse>
                            <ellipse id="Oval-2-Copy" stroke="url(#linearGradient-2)" cx="56.3528038" cy="30.5937313" rx="30.3438174" ry="30.5937313"></ellipse>
                            <ellipse id="Oval-2-Copy-2" stroke="url(#linearGradient-3)" cx="86.6966212" cy="54.6316631" rx="19.5067398" ry="19.6673987"></ellipse>
                            <path d="M56.3528038,61.1874627 L56.3528038,61.1874627 C73.1112314,61.1874627 86.6966212,47.4901826 86.6966212,30.5937313 C86.6966212,13.6972801 73.1112314,0 56.3528038,0" id="Oval-2-Copy-4" stroke="url(#linearGradient-2)"></path>
                            <path d="M52.0179727,50.26113 C52.0179727,35.7784575 40.3733529,24.0379318 26.0089864,24.0379318 C11.6446198,24.0379318 0,35.7784575 0,50.26113" id="Oval-2-Copy-3" stroke="url(#linearGradient-1)"></path>
                            <path d="M86.6966212,74.2990618 C97.4698961,74.2990618 106.203361,65.4936675 106.203361,54.6316631 C106.203361,43.7696587 97.4698961,34.9642644 86.6966212,34.9642644 C81.6333227,34.9642644 77.0205932,36.9092679 73.5533301,40.0986543" id="Oval-2-Copy-5" stroke="url(#linearGradient-3)"></path>
                        </g>
                        <path d="M126.970945,62.4651377 C126.970945,64.266137 128.448138,65.7396818 130.171529,65.7396818 C131.976986,65.7396818 133.454178,64.266137 133.454178,62.4651377 L133.454178,10.8910692 C133.454178,9.09007003 131.976986,7.61652521 130.171529,7.61652521 C128.448138,7.61652521 126.970945,9.09007003 126.970945,10.8910692 L126.970945,62.4651377 Z M144.383469,62.5470013 C144.383469,64.3480006 145.778595,65.7396818 147.584052,65.7396818 C149.389509,65.7396818 150.702569,64.3480006 150.702569,62.5470013 L150.702569,41.0987379 C150.702569,33.1579687 156.11894,27.8368346 163.422835,27.8368346 C170.890863,27.8368346 175.158307,32.7486507 175.158307,40.6075563 L175.158307,62.5470013 C175.158307,64.3480006 176.553433,65.7396818 178.35889,65.7396818 C180.082281,65.7396818 181.477407,64.3480006 181.477407,62.5470013 L181.477407,39.0521479 C181.477407,28.982925 175.486572,22.1063826 165.228292,22.1063826 C157.924398,22.1063826 153.492821,25.7902446 150.702569,30.3746062 L150.702569,25.7902446 C150.702569,23.9892454 149.307443,22.5975642 147.501986,22.5975642 C145.778595,22.5975642 144.383469,24.071109 144.383469,25.7902446 L144.383469,62.5470013 Z M204.306302,66.0671362 C206.768289,66.0671362 208.737878,65.6578182 210.543335,64.9210458 C211.610196,64.5117278 212.348793,63.6112282 212.348793,62.4651377 C212.348793,60.9915929 211.117799,59.7636389 209.640607,59.7636389 C209.148209,59.7636389 207.999282,60.3366841 205.783494,60.3366841 C201.51605,60.3366841 198.643732,58.4538213 198.643732,53.2964145 L198.643732,28.573607 L209.640607,28.573607 C211.199865,28.573607 212.512925,27.345653 212.512925,25.7902446 C212.512925,24.3166998 211.199865,23.0068822 209.640607,23.0068822 L198.643732,23.0068822 L198.643732,13.0195229 C198.643732,11.3003872 197.166539,9.82684243 195.443148,9.82684243 C193.637691,9.82684243 192.324632,11.3003872 192.324632,13.0195229 L192.324632,23.0068822 L188.87785,23.0068822 C187.400658,23.0068822 186.087598,24.2348362 186.087598,25.7902446 C186.087598,27.2637894 187.400658,28.573607 188.87785,28.573607 L192.324632,28.573607 L192.324632,54.1150505 C192.324632,62.7107285 197.494804,66.0671362 204.306302,66.0671362 L204.306302,66.0671362 Z M220.980229,41.8355103 C221.800892,33.5672867 227.381395,27.4275166 234.767356,27.4275166 C243.220179,27.4275166 247.651755,34.1403319 248.308285,41.8355103 L220.980229,41.8355103 Z M251.755067,59.9273661 C252.411597,59.3543209 252.739862,58.6175485 252.739862,57.8807761 C252.739862,56.4072313 251.508868,55.1792773 249.94961,55.1792773 C249.211014,55.1792773 248.63655,55.5067317 248.144153,55.9160497 C245.025636,58.7812757 241.168523,60.8278657 235.916284,60.8278657 C228.36619,60.8278657 221.882958,55.6704589 220.980229,46.5017356 L251.673001,46.5017356 C253.232259,46.5017356 254.627385,45.2737816 254.627385,43.554646 C254.627385,32.3393327 247.487623,22.1063826 234.931489,22.1063826 C223.196018,22.1063826 214.579063,31.9300146 214.579063,44.1276912 L214.579063,44.2914184 C214.579063,57.3895945 224.098746,66.312727 235.752151,66.312727 C242.97398,66.312727 247.733821,63.7749554 251.755067,59.9273661 L251.755067,59.9273661 Z M260.960967,62.5470013 C260.960967,64.3480006 262.356093,65.7396818 264.16155,65.7396818 C265.967007,65.7396818 267.280067,64.266137 267.280067,62.5470013 L267.280067,48.1390076 C267.280067,35.9413311 274.009498,29.801561 282.216122,28.8191978 C283.857446,28.573607 285.006374,27.345653 285.006374,25.6265174 C285.006374,23.8255182 283.77538,22.433837 281.887857,22.433837 C276.553551,22.433837 270.398584,26.6907442 267.280067,33.7310139 L267.280067,25.7902446 C267.280067,23.9892454 265.884941,22.5975642 264.079484,22.5975642 C262.356093,22.5975642 260.960967,24.071109 260.960967,25.7902446 L260.960967,62.5470013 Z M289.94483,62.5470013 C289.94483,64.3480006 291.339956,65.7396818 293.145413,65.7396818 C294.95087,65.7396818 296.26393,64.3480006 296.26393,62.5470013 L296.26393,8.35329762 C296.26393,6.634162 294.868804,5.16061719 293.063347,5.16061719 C291.339956,5.16061719 289.94483,6.634162 289.94483,8.35329762 L289.94483,62.5470013 Z M325.493991,66.312727 C338.296323,66.312727 347.73394,56.1616405 347.73394,44.2095548 L347.73394,44.0458276 C347.73394,32.0937418 338.37839,22.1063826 325.658123,22.1063826 C312.855791,22.1063826 303.50024,32.2574691 303.50024,44.2095548 L303.50024,44.373282 C303.50024,56.3253677 312.773725,66.312727 325.493991,66.312727 L325.493991,66.312727 Z M325.658123,60.6641385 C316.712904,60.6641385 309.983473,53.2964145 309.983473,44.2095548 L309.983473,44.0458276 C309.983473,35.1226951 316.302573,27.6731074 325.493991,27.6731074 C334.43921,27.6731074 341.250708,35.1226951 341.250708,44.2095548 L341.250708,44.373282 C341.250708,53.2964145 334.849542,60.6641385 325.658123,60.6641385 L325.658123,60.6641385 Z M373.681352,66.312727 C386.483685,66.312727 395.921301,56.1616405 395.921301,44.2095548 L395.921301,44.0458276 C395.921301,32.0937418 386.565751,22.1063826 373.845485,22.1063826 C361.043152,22.1063826 351.687602,32.2574691 351.687602,44.2095548 L351.687602,44.373282 C351.687602,56.3253677 360.961086,66.312727 373.681352,66.312727 L373.681352,66.312727 Z M373.845485,60.6641385 C364.900265,60.6641385 358.170834,53.2964145 358.170834,44.2095548 L358.170834,44.0458276 C358.170834,35.1226951 364.489934,27.6731074 373.681352,27.6731074 C382.626572,27.6731074 389.438069,35.1226951 389.438069,44.2095548 L389.438069,44.373282 C389.438069,53.2964145 383.036903,60.6641385 373.845485,60.6641385 L373.845485,60.6641385 Z M402.501082,75.6451775 C402.501082,77.4461767 403.896208,78.8378579 405.701665,78.8378579 C407.507122,78.8378579 408.820182,77.4461767 408.820182,75.6451775 L408.820182,57.2258673 C412.102832,61.9739561 417.190938,66.2308634 425.069296,66.2308634 C435.327576,66.2308634 445.339656,58.0445033 445.339656,44.2095548 L445.339656,44.0458276 C445.339656,30.1290154 435.245509,22.1063826 425.069296,22.1063826 C417.273004,22.1063826 412.266964,26.4451534 408.820182,31.5206966 L408.820182,25.7902446 C408.820182,23.9892454 407.425056,22.5975642 405.619599,22.5975642 C403.896208,22.5975642 402.501082,23.9892454 402.501082,25.7902446 L402.501082,75.6451775 Z M423.920369,60.5822749 C416.042011,60.5822749 408.573984,54.0331869 408.573984,44.2095548 L408.573984,44.0458276 C408.573984,34.3859227 416.042011,27.754971 423.920369,27.754971 C431.96286,27.754971 438.856424,34.1403319 438.856424,44.1276912 L438.856424,44.2914184 C438.856424,54.5243685 432.126993,60.5822749 423.920369,60.5822749 L423.920369,60.5822749 Z" id="Interloop" fill="#292F33"></path>
                    </g>
                </g>
            </g>
        </g>
    </g>
</svg>