<?xml version="1.0" encoding="UTF-8"?>
<svg width="18px" height="20px" viewBox="0 0 18 20" version="1.1" xmlns="http://www.w3.org/2000/svg" xmlns:xlink="http://www.w3.org/1999/xlink">
    <!-- Generator: Sketch 46.2 (44496) - http://www.bohemiancoding.com/sketch -->
    <title>Shape</title>
    <desc>Created with Sketch.</desc>
    <defs></defs>
    <g id="Page-1" stroke="none" stroke-width="1" fill="none" fill-rule="evenodd">
        <g id="lock-closed" fill-rule="nonzero" fill="#8A96A7">
            <path d="M3,8 L3,6 C3,2.6862915 5.6862915,6.08718376e-16 9,0 C12.3137085,-6.08718376e-16 15,2.6862915 15,6 L15,8 L16,8 C17.1045695,8 18,8.8954305 18,10 L18,18 C18,19.1045695 17.1045695,20 16,20 L2,20 C0.8954305,20 2.22044605e-16,19.1045695 0,18 L0,10 C0,8.9 0.9,8 2,8 L3,8 Z M8,14.73 L8,17 L10,17 L10,14.73 C10.783936,14.2773943 11.1661376,13.3546781 10.9318517,12.4803111 C10.6975657,11.6059441 9.90521136,10.9979492 9,10.9979492 C8.09478864,10.9979492 7.30243429,11.6059441 7.06814835,12.4803111 C6.83386241,13.3546781 7.21606397,14.2773943 8,14.73 Z M6,6 L6,8 L12,8 L12,6 C12,4.34314575 10.6568542,3 9,3 C7.34314575,3 6,4.34314575 6,6 Z" id="Shape"></path>
        </g>
    </g>
</svg>