<?xml version="1.0" encoding="UTF-8"?>
<svg width="16px" height="16px" viewBox="0 0 16 16" version="1.1" xmlns="http://www.w3.org/2000/svg" xmlns:xlink="http://www.w3.org/1999/xlink">
    <!-- Generator: Sketch 46.2 (44496) - http://www.bohemiancoding.com/sketch -->
    <title>Artboard</title>
    <desc>Created with Sketch.</desc>
    <defs></defs>
    <g id="Page-1" stroke="none" stroke-width="1" fill="none" fill-rule="evenodd">
        <g id="Artboard" fill-rule="nonzero" fill="#FFFFFF">
            <g id="bug">
                <path d="M12.24,11.912 L14.456,14.128 C14.7661789,14.44003 14.7661789,14.94397 14.456,15.256 C14.14397,15.5661789 13.64003,15.5661789 13.328,15.256 L11.256,13.192 C10.5721819,13.824871 9.71869657,14.2446634 8.8,14.4 L8.8,7.232 C8.8,6.7901722 8.4418278,6.432 8,6.432 C7.5581722,6.432 7.2,6.7901722 7.2,7.232 L7.2,14.4 C6.2811593,14.24511 5.42755234,13.8252577 4.744,13.192 L2.672,15.256 C2.35997004,15.5661789 1.85602996,15.5661789 1.544,15.256 C1.23382112,14.94397 1.23382112,14.44003 1.544,14.128 L3.76,11.912 C3.50821729,11.4399074 3.33782938,10.9287437 3.256,10.4 L0.8,10.4 C0.3581722,10.4 5.41083001e-17,10.0418278 0,9.6 C-5.41083001e-17,9.1581722 0.3581722,8.8 0.8,8.8 L3.2,8.8 L3.2,6.728 L0.744,4.272 C0.433821124,3.95997004 0.433821124,3.45602996 0.744,3.144 C1.05602996,2.83382112 1.55997004,2.83382112 1.872,3.144 L3.552,4.824 L12.448,4.824 L14.128,3.144 C14.44003,2.83382112 14.94397,2.83382112 15.256,3.144 C15.5661789,3.45602996 15.5661789,3.95997004 15.256,4.272 L12.8,6.728 L12.8,8.8 L15.2,8.8 C15.6418278,8.8 16,9.1581722 16,9.6 C16,10.0418278 15.6418278,10.4 15.2,10.4 L12.744,10.4 C12.664,10.936 12.488,11.448 12.24,11.912 Z M12,4 L4,4 C4,1.790861 5.790861,4.05812251e-16 8,0 C10.209139,-4.05812251e-16 12,1.790861 12,4 L12,4 Z" id="Shape"></path>
            </g>
        </g>
    </g>
</svg>