<?xml version="1.0" encoding="UTF-8"?>
<svg width="20px" height="18px" viewBox="0 0 20 18" version="1.1" xmlns="http://www.w3.org/2000/svg" xmlns:xlink="http://www.w3.org/1999/xlink">
    <!-- Generator: Sketch 46.2 (44496) - http://www.bohemiancoding.com/sketch -->
    <title>chat-bubble-dots</title>
    <desc>Created with Sketch.</desc>
    <defs></defs>
    <g id="Page-1" stroke="none" stroke-width="1" fill="none" fill-rule="evenodd">
        <g id="chat-bubble-dots" fill-rule="nonzero" fill="#FFFFFF">
            <path d="M10,14 L6,18 L6,14 L2,14 C0.8954305,14 1.3527075e-16,13.1045695 0,12 L0,2 C0,0.9 0.9,0 2,0 L18,0 C19.1045695,0 20,0.8954305 20,2 L20,12 C20,13.1045695 19.1045695,14 18,14 L10,14 Z M5,6 L5,8 L7,8 L7,6 L5,6 Z M9,6 L9,8 L11,8 L11,6 L9,6 Z M13,6 L13,8 L15,8 L15,6 L13,6 Z" id="Shape"></path>
        </g>
    </g>
</svg>