<?xml version="1.0" encoding="UTF-8"?>
<svg width="16px" height="16px" viewBox="0 0 16 16" version="1.1" xmlns="http://www.w3.org/2000/svg" xmlns:xlink="http://www.w3.org/1999/xlink">
    <!-- Generator: Sketch 46.2 (44496) - http://www.bohemiancoding.com/sketch -->
    <title>Artboard</title>
    <desc>Created with Sketch.</desc>
    <defs></defs>
    <g id="Page-1" stroke="none" stroke-width="1" fill="none" fill-rule="evenodd">
        <g id="Artboard" fill-rule="nonzero" fill="#FFFFFF">
            <g id="color-palette">
                <path d="M7.2,16 L7.2,14.64 L7.208,14.448 L12.056,9.6 L14.408,9.6 C15.288,9.6 16,10.312 16,11.2 L16,14.4 C16,15.2836556 15.2836556,16 14.4,16 L7.2,16 Z M7.2,13.328 L7.2,4.272 L8.864,2.616 C9.16274182,2.31604115 9.56865382,2.14742334 9.992,2.14742334 C10.4153462,2.14742334 10.8212582,2.31604115 11.12,2.616 L13.384,4.88 C14.0043578,5.50405993 14.0043578,6.51194007 13.384,7.136 L7.2,13.328 Z M0,1.592 C0,0.72 0.712,0 1.6,0 L4.8,0 C5.6836556,5.41083001e-17 6.4,0.7163444 6.4,1.6 L6.4,14.4 C6.4,15.2836556 5.6836556,16 4.8,16 L1.6,16 C0.7163444,16 1.082166e-16,15.2836556 0,14.4 L0,1.6 L0,1.592 Z M3.2,13.6 C3.6418278,13.6 4,13.2418278 4,12.8 C4,12.3581722 3.6418278,12 3.2,12 C2.7581722,12 2.4,12.3581722 2.4,12.8 C2.4,13.2418278 2.7581722,13.6 3.2,13.6 Z" id="Shape"></path>
            </g>
        </g>
    </g>
</svg>