<?xml version="1.0" encoding="UTF-8"?>
<svg width="20px" height="20px" viewBox="0 0 20 20" version="1.1" xmlns="http://www.w3.org/2000/svg" xmlns:xlink="http://www.w3.org/1999/xlink">
    <!-- Generator: Sketch 46.2 (44496) - http://www.bohemiancoding.com/sketch -->
    <title>copy</title>
    <desc>Created with Sketch.</desc>
    <defs></defs>
    <g id="Page-1" stroke="none" stroke-width="1" fill="none" fill-rule="evenodd">
        <g id="copy" fill-rule="nonzero" fill="#FFFFFF">
            <path d="M6,6 L6,2 C6,0.9 6.9,0 8,0 L18,0 C19.1045695,6.76353751e-17 20,0.8954305 20,2 L20,12 C20,13.1045695 19.1045695,14 18,14 L14,14 L14,18 C14,19.1045695 13.1045695,20 12,20 L2,20 C0.8954305,20 1.3527075e-16,19.1045695 0,18 L0,8 C0,6.9 0.9,6 2,6 L6,6 Z M8,6 L12,6 C13.1045695,6 14,6.8954305 14,8 L14,12 L18,12 L18,2 L8,2 L8,6 Z M2,8 L2,18 L12,18 L12,8 L2,8 Z" id="Shape"></path>
        </g>
    </g>
</svg>