<?xml version="1.0" encoding="UTF-8"?>
<svg width="16px" height="16px" viewBox="0 0 16 16" version="1.1" xmlns="http://www.w3.org/2000/svg" xmlns:xlink="http://www.w3.org/1999/xlink">
    <!-- Generator: Sketch 46.2 (44496) - http://www.bohemiancoding.com/sketch -->
    <title>Artboard</title>
    <desc>Created with Sketch.</desc>
    <defs></defs>
    <g id="Page-1" stroke="none" stroke-width="1" fill="none" fill-rule="evenodd">
        <g id="Artboard" fill-rule="nonzero" fill="#FFFFFF">
            <g id="dashboard">
                <path d="M8,16 C3.581722,16 5.41083001e-16,12.418278 0,8 C-5.41083001e-16,3.581722 3.581722,8.11624501e-16 8,0 C12.418278,2.705415e-16 16,3.581722 16,8 C16,12.418278 12.418278,16 8,16 Z M3.52,12.568 C6.22311149,10.7274731 9.77688851,10.7274731 12.48,12.568 C14.3369226,10.7478518 14.9080351,7.98513646 13.9250017,5.57790845 C12.9419684,3.17068044 10.6002118,1.59748581 8,1.59748581 C5.39978823,1.59748581 3.05803164,3.17068044 2.07499828,5.57790845 C1.09196491,7.98513646 1.66307737,10.7478518 3.52,12.568 Z M8.416,6.456 L10.832,4.04 L11.96,5.168 L9.544,7.584 C9.73276433,8.28366404 9.42770379,9.02283985 8.80042384,9.38571945 C8.17314389,9.74859905 7.38028856,9.64456435 6.8678621,9.1321379 C6.35543565,8.61971144 6.25140095,7.82685611 6.61428055,7.19957616 C6.97716015,6.57229621 7.71633596,6.26723567 8.416,6.456 L8.416,6.456 Z" id="Shape"></path>
            </g>
        </g>
    </g>
</svg>