<?xml version="1.0" encoding="UTF-8"?>
<svg width="16px" height="16px" viewBox="0 0 16 16" version="1.1" xmlns="http://www.w3.org/2000/svg" xmlns:xlink="http://www.w3.org/1999/xlink">
    <!-- Generator: Sketch 46.2 (44496) - http://www.bohemiancoding.com/sketch -->
    <title>Artboard</title>
    <desc>Created with Sketch.</desc>
    <defs></defs>
    <g id="Page-1" stroke="none" stroke-width="1" fill="none" fill-rule="evenodd">
        <g id="Artboard" fill-rule="nonzero" fill="#FFFFFF">
            <g id="view-carousel" transform="translate(0.000000, 2.000000)">
                <path d="M12.8,11.2 L12.8,12.8 L3.2,12.8 L3.2,11.2 L0,11.2 L0,1.6 L3.2,1.6 L3.2,0 L12.8,0 L12.8,1.6 L16,1.6 L16,11.2 L12.8,11.2 Z M11.2,2.8 L11.2,1.6 L4.8,1.6 L4.8,11.2 L11.2,11.2 L11.2,2.8 Z M12.8,3.2 L12.8,9.6 L14.4,9.6 L14.4,3.2 L12.8,3.2 Z M3.2,3.2 L1.6,3.2 L1.6,9.6 L3.2,9.6 L3.2,3.2 Z" id="Shape"></path>
            </g>
        </g>
    </g>
</svg>