<?xml version="1.0" encoding="UTF-8"?>
<svg width="16px" height="16px" viewBox="0 0 16 16" version="1.1" xmlns="http://www.w3.org/2000/svg" xmlns:xlink="http://www.w3.org/1999/xlink">
    <!-- Generator: Sketch 46.2 (44496) - http://www.bohemiancoding.com/sketch -->
    <title>Artboard</title>
    <desc>Created with Sketch.</desc>
    <defs></defs>
    <g id="Page-1" stroke="none" stroke-width="1" fill="none" fill-rule="evenodd">
        <g id="Artboard" fill-rule="nonzero" fill="#FFFFFF">
            <g id="globe">
                <path d="M8,16 C3.581722,16 5.41083001e-16,12.418278 0,8 C-5.41083001e-16,3.581722 3.581722,8.11624501e-16 8,0 C12.418278,2.705415e-16 16,3.581722 16,8 C16,12.418278 12.418278,16 8,16 Z M9.6,14.2 C10.8395176,13.8788797 11.9542172,13.1933395 12.8,12.232 L12.8,7.2 C11.9163444,7.2 11.2,6.4836556 11.2,5.6 L11.2,2.456 C10.4616427,2.03131022 9.64549968,1.75926254 8.8,1.656 L8.8,2.4 C8.8,3.2836556 8.0836556,4 7.2,4 L7.2,4.8 C7.2,5.6836556 6.4836556,6.4 5.6,6.4 L5.6,8 L8,8 C8.8836556,8 9.6,8.7163444 9.6,9.6 L9.6,14.2 Z M6.4,14.2 L6.4,12 C5.5163444,12 4.8,11.2836556 4.8,10.4 L4.8,9.6 L4.4,9.6 C3.7372583,9.6 3.2,9.0627417 3.2,8.4 L3.2,6.4 L1.8,6.4 C0.91922645,9.82375832 2.97758547,13.3140193 6.4,14.2 L6.4,14.2 Z" id="Shape"></path>
            </g>
        </g>
    </g>
</svg>