<?xml version="1.0" encoding="UTF-8"?>
<svg width="16px" height="16px" viewBox="0 0 16 16" version="1.1" xmlns="http://www.w3.org/2000/svg" xmlns:xlink="http://www.w3.org/1999/xlink">
    <!-- Generator: Sketch 46.2 (44496) - http://www.bohemiancoding.com/sketch -->
    <title>information-outline</title>
    <desc>Created with Sketch.</desc>
    <defs></defs>
    <g id="Page-1" stroke="none" stroke-width="1" fill="none" fill-rule="evenodd">
        <g id="Artboard" fill-rule="nonzero" fill="#FFFFFF">
            <g id="information-outline">
                <path d="M2.72619424,13.3995276 C0.745572645,11.4865792 -0.0487588805,8.65379126 0.648501619,5.98994797 C1.34576212,3.32610468 3.42610467,1.24576213 6.08994796,0.548501625 C8.75379125,-0.148758875 11.5865792,0.645572651 13.4995276,2.62619425 C16.3869349,5.61574767 16.3456409,10.3677925 13.4067167,13.3067167 C10.4677925,16.2456409 5.71574767,16.2869349 2.72619424,13.3995276 L2.72619424,13.3995276 Z M12.4252419,12.3252419 C14.8069041,9.94357963 14.8069041,6.0821422 12.4252419,3.70047996 C10.0435796,1.31881773 6.18214219,1.31881773 3.80047996,3.70047996 C1.41881772,6.0821422 1.41881772,9.94357963 3.80047996,12.3252419 C6.18214219,14.7069041 10.0435796,14.7069041 12.4252419,12.3252419 Z M7.35095615,8.77476568 L7.35095615,7.25095615 L8.87476567,7.25095615 L8.87476567,11.8223847 L7.35095615,11.8223847 L7.35095615,8.77476568 Z M7.35095615,4.2033371 L8.87476567,4.2033371 L8.87476567,5.72714663 L7.35095615,5.72714663 L7.35095615,4.2033371 Z" id="Shape"></path>
            </g>
        </g>
    </g>
</svg>