<?xml version="1.0" encoding="UTF-8"?>
<svg width="16px" height="16px" viewBox="0 0 16 16" version="1.1" xmlns="http://www.w3.org/2000/svg" xmlns:xlink="http://www.w3.org/1999/xlink">
    <!-- Generator: Sketch 46.2 (44496) - http://www.bohemiancoding.com/sketch -->
    <title>Artboard</title>
    <desc>Created with Sketch.</desc>
    <defs></defs>
    <g id="Page-1" stroke="none" stroke-width="1" fill="none" fill-rule="evenodd">
        <g id="Artboard" fill-rule="nonzero" fill="#FFFFFF">
            <g id="location" transform="translate(2.000000, 0.000000)">
                <path d="M5.6,16 C5.6,16 0,8.696 0,5.6 C-2.98125649e-08,3.59931268 1.06735393,1.75060134 2.79999998,0.750257669 C4.53264602,-0.250086001 6.66735398,-0.250086001 8.40000002,0.750257669 C10.1326461,1.75060134 11.2,3.59931268 11.2,5.6 C11.2,8.696 5.6,16 5.6,16 Z M5.6,7.2 C6.4836556,7.2 7.2,6.4836556 7.2,5.6 C7.2,4.7163444 6.4836556,4 5.6,4 C4.7163444,4 4,4.7163444 4,5.6 C4,6.4836556 4.7163444,7.2 5.6,7.2 Z" id="Shape"></path>
            </g>
        </g>
    </g>
</svg>