<?xml version="1.0" encoding="UTF-8"?>
<svg width="16px" height="16px" viewBox="0 0 16 16" version="1.1" xmlns="http://www.w3.org/2000/svg" xmlns:xlink="http://www.w3.org/1999/xlink">
    <!-- Generator: Sketch 46.2 (44496) - http://www.bohemiancoding.com/sketch -->
    <title>Artboard</title>
    <desc>Created with Sketch.</desc>
    <defs></defs>
    <g id="Page-1" stroke="none" stroke-width="1" fill="none" fill-rule="evenodd">
        <g id="Artboard" fill-rule="nonzero" fill="#FFFFFF">
            <g id="mobile-devices" transform="translate(1.000000, 0.000000)">
                <path d="M12.8,4.8 L12.8,4 L11.2,4 L11.2,1.6 L1.6,1.6 L1.6,12.8 L5.6,12.8 L5.6,16 L8.2,16 L8,16 C7.1163444,16 6.4,15.2836556 6.4,14.4 L6.4,6.4 C6.4,5.5163444 7.1163444,4.8 8,4.8 L12.8,4.8 Z M8.2,16 L1.6,16 C0.7163444,16 1.77635684e-16,15.2836556 0,14.4 L0,1.6 C0,0.72 0.72,0 1.6,0 L11.2,0 C12.0836556,5.41083001e-17 12.8,0.7163444 12.8,1.6 L12.8,4.8 C13.6836556,4.8 14.4,5.5163444 14.4,6.4 L14.4,14.4 C14.4,15.2836556 13.6836556,16 12.8,16 L8.2,16 Z M8,6.4 L8,12.8 L12.8,12.8 L12.8,6.4 L8,6.4 Z M10.4,15.2 C10.8418278,15.2 11.2,14.8418278 11.2,14.4 C11.2,13.9581722 10.8418278,13.6 10.4,13.6 C9.9581722,13.6 9.6,13.9581722 9.6,14.4 C9.6,14.8418278 9.9581722,15.2 10.4,15.2 Z" id="Shape"></path>
            </g>
        </g>
    </g>
</svg>