<?xml version="1.0" encoding="UTF-8"?>
<svg width="16px" height="16px" viewBox="0 0 16 16" version="1.1" xmlns="http://www.w3.org/2000/svg" xmlns:xlink="http://www.w3.org/1999/xlink">
    <!-- Generator: Sketch 46.2 (44496) - http://www.bohemiancoding.com/sketch -->
    <title>Artboard</title>
    <desc>Created with Sketch.</desc>
    <defs></defs>
    <g id="Page-1" stroke="none" stroke-width="1" fill="none" fill-rule="evenodd">
        <g id="Artboard" fill-rule="nonzero" fill="#FFFFFF">
            <g id="tablet" transform="translate(2.000000, 0.500000)">
                <path d="M0,1.5 C0,0.675 0.675,0 1.5,0 L10.5,0 C11.3284271,5.07265313e-17 12,0.671572875 12,1.5 L12,13.5 C12,14.3284271 11.3284271,15 10.5,15 L1.5,15 C0.671572875,15 0,14.3284271 0,13.5 L0,1.5 Z M1.5,1.5 L1.5,12 L10.5,12 L10.5,1.5 L1.5,1.5 Z M6,14.25 C6.41421356,14.25 6.75,13.9142136 6.75,13.5 C6.75,13.0857864 6.41421356,12.75 6,12.75 C5.58578644,12.75 5.25,13.0857864 5.25,13.5 C5.25,13.9142136 5.58578644,14.25 6,14.25 Z" id="Shape"></path>
            </g>
        </g>
    </g>
</svg>