<?xml version="1.0" encoding="UTF-8"?>
<svg width="14px" height="20px" viewBox="0 0 14 20" version="1.1" xmlns="http://www.w3.org/2000/svg" xmlns:xlink="http://www.w3.org/1999/xlink">
    <!-- Generator: Sketch 46.2 (44496) - http://www.bohemiancoding.com/sketch -->
    <title>refresh</title>
    <desc>Created with Sketch.</desc>
    <defs></defs>
    <g id="Page-1" stroke="none" stroke-width="1" fill="none" fill-rule="evenodd">
        <g id="refresh" transform="translate(-1.000000, 0.000000)" fill-rule="nonzero" fill="#FFFFFF">
            <path d="M8,3 L8,5 C5.97491119,4.99637676 4.14761521,6.21462874 3.3721569,8.08536715 C2.59669859,9.95610556 3.02623159,12.1098581 4.46,13.54 L3.05,14.95 C1.04780091,12.9480052 0.448811786,9.93700189 1.53236648,7.32114762 C2.61592118,4.70529335 5.16860736,2.9997957 8,3 L8,3 Z M12.95,5.05 C14.9521991,7.05199478 15.5511882,10.0629981 14.4676335,12.6788524 C13.3840788,15.2947066 10.8313926,17.0002043 8,17 L8,15 C10.0250888,15.0036232 11.8523848,13.7853713 12.6278431,11.9146329 C13.4033014,10.0438944 12.9737684,7.89014193 11.54,6.46 L12.95,5.05 L12.95,5.05 Z M8,20 L4,16 L8,12 L8,20 Z M8,8 L8,0 L12,4 L8,8 Z" id="Shape"></path>
        </g>
    </g>
</svg>