<?xml version="1.0" encoding="UTF-8"?>
<svg width="16px" height="16px" viewBox="0 0 16 16" version="1.1" xmlns="http://www.w3.org/2000/svg" xmlns:xlink="http://www.w3.org/1999/xlink">
    <!-- Generator: Sketch 46.2 (44496) - http://www.bohemiancoding.com/sketch -->
    <title>Artboard</title>
    <desc>Created with Sketch.</desc>
    <defs></defs>
    <g id="Page-1" stroke="none" stroke-width="1" fill="none" fill-rule="evenodd">
        <g id="Artboard" fill-rule="nonzero" fill="#FFFFFF">
            <g id="explore">
                <path d="M8,16 C3.581722,16 5.41083001e-16,12.418278 0,8 C-5.41083001e-16,3.581722 3.581722,8.11624501e-16 8,0 C12.418278,2.705415e-16 16,3.581722 16,8 C16,12.418278 12.418278,16 8,16 Z M6.304,6.304 L3.472,12.528 L9.696,9.696 L12.528,3.472 L6.304,6.304 Z M8,8.8 C7.5581722,8.8 7.2,8.4418278 7.2,8 C7.2,7.5581722 7.5581722,7.2 8,7.2 C8.4418278,7.2 8.8,7.5581722 8.8,8 C8.8,8.4418278 8.4418278,8.8 8,8.8 Z" id="Shape"></path>
            </g>
        </g>
    </g>
</svg>