<?xml version="1.0" encoding="UTF-8"?>
<svg width="16px" height="16px" viewBox="0 0 16 16" version="1.1" xmlns="http://www.w3.org/2000/svg" xmlns:xlink="http://www.w3.org/1999/xlink">
    <!-- Generator: Sketch 46.2 (44496) - http://www.bohemiancoding.com/sketch -->
    <title>Artboard</title>
    <desc>Created with Sketch.</desc>
    <defs></defs>
    <g id="Page-1" stroke="none" stroke-width="1" fill="none" fill-rule="evenodd">
        <g id="Artboard" fill-rule="nonzero" fill="#FFFFFF">
            <g id="servers">
                <path d="M0,1.6 C0,0.72 0.72,0 1.6,0 L14.4,0 C15.2836556,5.41083001e-17 16,0.7163444 16,1.6 L16,3.2 C16,4.0836556 15.2836556,4.8 14.4,4.8 L1.6,4.8 C0.7163444,4.8 1.082166e-16,4.0836556 0,3.2 L0,1.6 Z M0,7.2 C0,6.32 0.72,5.6 1.6,5.6 L14.4,5.6 C15.2836556,5.6 16,6.3163444 16,7.2 L16,8.8 C16,9.6836556 15.2836556,10.4 14.4,10.4 L1.6,10.4 C0.7163444,10.4 1.082166e-16,9.6836556 0,8.8 L0,7.2 Z M0,12.8 C0,11.92 0.72,11.2 1.6,11.2 L14.4,11.2 C15.2836556,11.2 16,11.9163444 16,12.8 L16,14.4 C16,15.2836556 15.2836556,16 14.4,16 L1.6,16 C0.7163444,16 1.082166e-16,15.2836556 0,14.4 L0,12.8 Z M9.6,1.6 L9.6,3.2 L11.2,3.2 L11.2,1.6 L9.6,1.6 Z M12.8,1.6 L12.8,3.2 L14.4,3.2 L14.4,1.6 L12.8,1.6 Z M9.6,7.2 L9.6,8.8 L11.2,8.8 L11.2,7.2 L9.6,7.2 Z M12.8,7.2 L12.8,8.8 L14.4,8.8 L14.4,7.2 L12.8,7.2 Z M9.6,12.8 L9.6,14.4 L11.2,14.4 L11.2,12.8 L9.6,12.8 Z M12.8,12.8 L12.8,14.4 L14.4,14.4 L14.4,12.8 L12.8,12.8 Z" id="Shape"></path>
            </g>
        </g>
    </g>
</svg>