<?xml version="1.0" encoding="UTF-8"?>
<svg width="16px" height="16px" viewBox="0 0 16 16" version="1.1" xmlns="http://www.w3.org/2000/svg" xmlns:xlink="http://www.w3.org/1999/xlink">
    <!-- Generator: Sketch 46.2 (44496) - http://www.bohemiancoding.com/sketch -->
    <title>Artboard</title>
    <desc>Created with Sketch.</desc>
    <defs></defs>
    <g id="Page-1" stroke="none" stroke-width="1" fill="none" fill-rule="evenodd">
        <g id="Artboard" fill-rule="nonzero" fill="#FFFFFF">
            <g id="thermometer" transform="translate(3.000000, 0.000000)">
                <path d="M4,8.936 L4,5.6 L5.6,5.6 L5.6,8.936 C6.70203735,9.32562904 7.36309767,10.452533 7.16543654,11.6045864 C6.96777542,12.7566399 5.96888712,13.5987417 4.8,13.5987417 C3.63111288,13.5987417 2.63222458,12.7566399 2.43456346,11.6045864 C2.23690233,10.452533 2.89796265,9.32562904 4,8.936 L4,8.936 Z M3.2,8.432 C1.94570235,9.15616909 1.33417985,10.632515 1.70903736,12.0315022 C2.08389486,13.4304895 3.35166183,14.4032813 4.8,14.4032813 C6.24833817,14.4032813 7.51610514,13.4304895 7.89096264,12.0315022 C8.26582015,10.632515 7.65429765,9.15616909 6.4,8.432 L6.4,3.2 C6.4,2.3163444 5.6836556,1.6 4.8,1.6 C3.9163444,1.6 3.2,2.3163444 3.2,3.2 L3.2,8.424 L3.2,8.432 Z M1.6,7.624 L1.6,3.2 C1.6,1.4326888 3.0326888,3.24649801e-16 4.8,0 C6.5673112,-3.24649801e-16 8,1.4326888 8,3.2 L8,7.624 C9.49114266,8.94740416 10.0070963,11.0558077 9.29556761,12.918234 C8.58403892,14.7806604 6.79370049,16.007959 4.8,16 C2.81066026,15.9992088 1.02796495,14.7713894 0.317998161,12.9130513 C-0.391968627,11.0547133 0.11794162,8.95101778 1.6,7.624 Z" id="Shape"></path>
            </g>
        </g>
    </g>
</svg>