<?xml version="1.0" encoding="UTF-8"?>
<svg width="16px" height="16px" viewBox="0 0 16 16" version="1.1" xmlns="http://www.w3.org/2000/svg" xmlns:xlink="http://www.w3.org/1999/xlink">
    <!-- Generator: Sketch 46.2 (44496) - http://www.bohemiancoding.com/sketch -->
    <title>Artboard</title>
    <desc>Created with Sketch.</desc>
    <defs></defs>
    <g id="Page-1" stroke="none" stroke-width="1" fill="none" fill-rule="evenodd">
        <g id="Artboard" fill-rule="nonzero" fill="#FFFFFF">
            <g id="user-group">
                <path d="M5.6,6.4 C3.8326888,6.4 2.4,4.9673112 2.4,3.2 C2.4,1.4326888 3.8326888,2.92856559e-16 5.6,-3.17942287e-17 C7.3673112,7.64362532e-17 8.8,1.4326888 8.8,3.2 C8.8,4.9673112 7.3673112,6.4 5.6,6.4 Z M5.6,7.2 C7.32,7.2 8.96,7.52 10.48,8.072 L9.6,12.8 L8.6,12.8 L8,16 L3.2,16 L2.6,12.8 L1.6,12.8 L0.72,8.072 C2.28373092,7.50031738 3.93505318,7.20524504 5.6,7.2 Z M12.248,7.336 C13.304,7.48 14.32,7.72 15.288,8.072 L14.4,12.8 L13.4,12.8 L12.8,16 L9.632,16 L9.928,14.4 L10.928,14.4 L12.248,7.336 L12.248,7.336 Z M10.4,-1.35525272e-20 C11.6802408,-0.0109761267 12.8438014,0.742178988 13.3580021,1.91466977 C13.8722028,3.08716055 13.6380605,4.45328405 12.7627659,5.38762681 C11.8874714,6.32196957 10.5395176,6.64467183 9.336,6.208 C10.760764,4.45573588 10.760764,1.94426412 9.336,0.192 C9.68,0.08 10.024,-1.35525272e-20 10.4,-1.35525272e-20 Z" id="Shape"></path>
            </g>
        </g>
    </g>
</svg>